<svg width="1440" height="577" viewBox="0 0 1440 577" fill="none" xmlns="http://www.w3.org/2000/svg">
<g clip-path="url(#clip0)">
<rect width="1440" height="577" fill="#F4F7FD"/>
<path d="M-45.1324 -579.491C170.928 -827.301 617.768 -1023.52 831.406 -746.51C1029.48 -489.68 772.8 -392.963 887.12 -107.446C1001.44 178.072 1421.92 86.1521 1491.15 405.698C1531.33 591.172 1416.95 800.689 1193.08 894.731C969.221 988.773 635.878 967.34 238.146 690.911C-137.56 429.793 -239.758 148.182 -232.343 -86.1435C-224.927 -320.469 -107.892 -507.51 -45.1324 -579.491Z" stroke="#EDF0F5" stroke-width="2" stroke-miterlimit="10"/>
<path d="M241.5 658.948C-103.44 419.97 -198.941 161.677 -193.284 -54.1132C-187.328 -268.463 -81.4686 -440.284 -23.4812 -508.288C174.607 -739.1 586.767 -922.529 789.524 -673.296C976.74 -443.17 751.259 -352.236 858.349 -90.2255C861.422 -82.7765 864.71 -75.5953 868.201 -68.6639C962.65 119.122 1206.81 121.212 1335.06 254.038C1369.88 290.096 1396.37 335.643 1408.88 396.866C1444.86 572.97 1337.39 766.202 1129.88 851.821C921.244 937.623 611.066 914.506 241.5 658.948Z" stroke="#EDF0F5" stroke-width="2" stroke-miterlimit="10"/>
<path d="M244.854 626.983C-69.3199 410.146 -158.124 175.17 -154.226 -22.0855C-149.729 -216.459 -55.2523 -373.239 -1.82924 -437.083C177.594 -651.514 555.699 -821.56 747.643 -600.082C923.935 -396.666 728.913 -311.15 829.581 -73.0043C832.482 -66.1407 835.617 -59.5334 838.906 -53.1338C927.535 119.78 1147.2 129.276 1261.14 254.768C1292.24 289.034 1315.87 331.653 1326.61 388.035C1358.36 554.797 1257.84 731.717 1066.67 808.914C873.267 886.473 586.255 861.672 244.854 626.983Z" stroke="#EDF0F5" stroke-width="2" stroke-miterlimit="10"/>
<path d="M248.204 595.02C-35.2036 400.322 -117.797 188.657 -115.172 9.94352C-112.61 -164.461 -28.9255 -306.086 19.8186 -365.879C180.971 -563.554 524.54 -720.606 705.758 -526.867C871.04 -350.167 707.029 -270.254 800.808 -55.7837C803.551 -49.5115 806.521 -43.4698 809.607 -37.6042C892.418 120.439 1087.58 137.388 1187.2 255.496C1214.6 287.982 1235.35 327.677 1244.34 379.204C1271.81 536.656 1178.29 697.231 1003.47 766.005C825.287 835.324 561.439 808.84 248.204 595.02Z" stroke="#EDF0F5" stroke-width="2" stroke-miterlimit="10"/>
<path d="M251.562 563.053C-1.43056 391.036 -77.1183 202.151 -76.1116 41.9695C-75.1396 -112.457 -2.58397 -238.925 41.4732 -294.679C184.399 -475.545 493.265 -619.665 663.879 -453.657C818.035 -303.663 685.211 -229.377 772.041 -38.5664C774.627 -32.8848 777.429 -27.4116 780.314 -22.0777C857.306 121.093 1027.95 145.557 1113.28 256.22C1136.97 286.943 1154.79 323.708 1162.07 370.368C1185.2 518.548 1098.89 663.159 940.263 723.091C777.467 784.604 536.237 756.613 251.562 563.053Z" stroke="#EDF0F5" stroke-width="2" stroke-miterlimit="10"/>
<path d="M254.916 531.09C32.6371 381.302 -36.4248 215.654 -37.0527 73.9989C-37.6488 -60.4447 23.7699 -171.742 63.1269 -223.474C187.887 -387.462 461.821 -518.704 622 -380.441C764.87 -257.119 663.469 -188.513 743.274 -21.3435C745.705 -16.2531 748.339 -11.3471 751.02 -6.54582C822.194 121.754 968.28 153.809 1039.35 256.951C1059.32 285.932 1074.18 319.761 1079.8 361.538C1098.49 500.488 1019.35 628.743 877.06 680.185C729.509 733.529 511.356 703.898 254.916 531.09Z" stroke="#EDF0F5" stroke-width="2" stroke-miterlimit="10"/>
<path d="M258.266 499.128C66.7226 371.535 4.29242 229.163 2.00136 106.03C-0.129575 -8.42543 50.1392 -104.534 84.7744 -152.268C191.45 -299.294 430.135 -417.671 580.113 -307.223C711.479 -210.482 641.823 -147.681 714.499 -4.11884C716.777 0.37979 719.238 4.71851 721.718 8.98796C787.073 122.415 908.535 162.158 965.415 257.683C981.649 284.946 993.519 315.828 997.527 352.71C1011.63 482.473 939.799 594.3 813.849 637.279C681.534 682.432 486.489 651.155 258.266 499.128Z" stroke="#EDF0F5" stroke-width="2" stroke-miterlimit="10"/>
<path d="M261.625 467.164C100.85 361.715 45.0651 242.677 41.0636 138.058C37.4499 43.5956 76.5519 -37.2965 106.43 -81.0648C195.144 -211.019 402.688 -324.071 538.238 -234.01C653.93 -157.143 620.332 -106.911 685.735 13.1011C687.865 17.0068 690.151 20.7793 692.429 24.519C751.966 123.076 848.693 170.617 891.492 258.413C903.962 283.99 912.793 311.909 915.264 343.88C924.59 464.502 860.239 559.817 750.649 594.37C633.551 631.291 461.662 598.364 261.625 467.164Z" stroke="#EDF0F5" stroke-width="2" stroke-miterlimit="10"/>
<path d="M264.973 435.2C135.017 351.822 85.9108 256.196 80.1164 170.087C75.1053 95.6205 103.01 29.9868 128.076 -9.8603C199.003 -122.607 365.768 -214.751 496.351 -160.795C603.797 -116.399 599.029 -66.2348 656.961 30.3218C658.946 33.6321 661.053 36.8417 663.129 40.0488C716.846 123.734 788.651 179.186 817.558 259.142C826.208 283.065 831.966 307.996 832.989 335.048C837.207 446.562 780.648 525.273 687.438 551.463C585.537 580.094 436.881 545.493 264.973 435.2Z" stroke="#EDF0F5" stroke-width="2" stroke-miterlimit="10"/>
<path d="M268.327 403.235C169.264 341.804 126.932 269.705 119.173 202.114C112.918 147.636 129.575 97.3278 149.727 61.3426C203.14 -34.0336 333.148 -112.081 454.469 -87.5814C549.595 -68.3712 578.017 -25.7513 628.191 47.5423C630.044 50.2495 631.959 52.903 633.832 55.5784C681.73 124.391 728.315 187.814 743.629 259.869C748.366 282.158 751.03 304.076 750.72 326.216C749.287 428.61 701.04 490.634 624.233 508.553C537.502 528.786 412.203 492.455 268.327 403.235Z" stroke="#EDF0F5" stroke-width="2" stroke-miterlimit="10"/>
<path d="M412.588 -14.3668C499.246 -19.4389 562.457 17.1674 604.537 71.1091C646.617 125.051 667.565 196.328 669.7 260.599C674.079 392.473 632.61 454.01 561.029 465.645C489.448 477.28 387.753 439.011 271.681 371.273C155.61 303.534 135.036 210.391 171.38 132.549C207.723 54.7054 300.986 -7.83596 412.588 -14.3668Z" stroke="#EDF0F5" stroke-width="2" stroke-miterlimit="10"/>
</g>
<defs>
<clipPath id="clip0">
<rect width="1440" height="577" fill="white"/>
</clipPath>
</defs>
</svg>
