<svg xmlns="http://www.w3.org/2000/svg" width="189.356" height="233" viewBox="0 0 189.356 233"><g transform="translate(62.72 1.357)"><path d="M331.074,348.337l-9.866,6.894c-.445.311-3.685,1.731-3.519.285q.816-7.094,1.633-14.187l-9.223-5.5-10,6.988c-.534.373-3.976.823-3.834-.408l1.6-13.877-.089-.053c-.291-.174-.216-.419-.01-.658,0,0,0-.005,0-.009l11.9-19.956a3.407,3.407,0,0,1,3.626-1.014l7.8,4.649c1.819-18.763,7.174-37.1,16.744-53.378a19.058,19.058,0,0,1-2.307-1.367c-.357-.254-.015-.849.346-.592A16.73,16.73,0,0,0,338.2,257.5c.419-.7.843-1.4,1.278-2.1.378-.6.768-1.2,1.157-1.793-1.094-.475-2.2-.919-3.278-1.431-.4-.19-.051-.781.346-.592,1.087.516,2.2.975,3.3,1.456a121.346,121.346,0,0,1,31.284-31.909,130.235,130.235,0,0,1,29.106-15.478,76.41,76.41,0,0,1,9.035-2.948c.84-.2,3.245-.2,3.416,1,3.124,21.935,2.671,44.58-3.889,65.872a111.868,111.868,0,0,1-22.565,40.69,104.837,104.837,0,0,1-23.461,20.013,65.345,65.345,0,0,1-5.806,3.291l11.464,6.837c.276.165.121.474.006.667l-11.9,19.956a3.448,3.448,0,0,1-2.435,1.2l-10.478,7.322c-.572.4-3.951.626-3.81-.589q.793-6.892,1.586-13.784Zm-9.2,4.023,3.531-2.467a9.271,9.271,0,0,0-2.5-.76c-.432-.057-.437-.744,0-.686a11.112,11.112,0,0,1,3.15.994l1.229-.859c-.347-.576-1.753-.86-2.234-1a23.418,23.418,0,0,0-2.465-.524.318.318,0,0,1-.094-.036Q322.181,349.693,321.874,352.36Zm.682-5.926a.341.341,0,0,1,.208-.032,19.737,19.737,0,0,1,3.574.88,3.1,3.1,0,0,1,1.475.927l1.4-.98-3.3-1.967-3.02-1.8Q322.727,344.948,322.556,346.434Zm-21.789-7.391,4.215-2.945c-.692-.36-1.439-.635-2.138-.955-.4-.184-.053-.775.346-.592.8.367,1.648.677,2.416,1.111l.168-.117a.342.342,0,0,1-.082-.413c.383-.789-3.146-1.788-3.681-2.011-.4-.167-.226-.831.182-.661.94.392,4.387,1.144,4.2,2.652l1.152-.805-5.834-3.479Zm41.173-40.482c.252.372.52.732.793,1.087a7,7,0,0,0,2.4-2.3l.01-.016a4.641,4.641,0,0,0-1.991-.783c-.436-.061-.25-.722.182-.661a5.14,5.14,0,0,1,2.183.865c.383-.624.726-1.275,1.073-1.917.586-1.083,1.674-2.371,1.449-3.672-.341-1.971-4.041-2-5.466-2.117-.687-.055-1.366-.13-2.043-.219a5.865,5.865,0,0,1-1,.83c-.393.2-.74-.39-.346-.592a2.494,2.494,0,0,0,.506-.359c-.617-.1-1.233-.2-1.851-.329l-.386-.082c-.49.638-.985,1.273-1.457,1.925-.256.355-.851.013-.592-.346.427-.59.872-1.166,1.317-1.743a16.268,16.268,0,0,1-6.439-2.755q-1.589,5.335-2.718,10.794c1.581.846,3.571,1.123,5.2,1.732a31.388,31.388,0,0,0,7.245,2.238,4.61,4.61,0,0,0,2.075-.213c-.254-.335-.5-.674-.739-1.022C341.1,298.54,341.693,298.2,341.939,298.561Zm27.877-71.739a109.161,109.161,0,0,0,10.485,8.012A159.623,159.623,0,0,0,410,251c.266-1.724.494-3.452.694-5.184a15.342,15.342,0,0,0-1.971-.92c-1.626-.739-3.309-1.355-4.988-1.962-2.732-.988-5.523-1.817-8.244-2.834-.41-.153-.233-.816.182-.661,3.053,1.141,6.184,2.072,9.243,3.2a51.811,51.811,0,0,1,5.047,2.09c.223.11.516.244.808.406q.26-2.363.441-4.733c-.109-.033-.217-.067-.319-.1-1.108-.393-2.216-.781-3.331-1.153a45.853,45.853,0,0,0-6.815-1.787c-.435-.074-.25-.735.182-.661a48.74,48.74,0,0,1,7.239,1.928c1.035.346,2.064.712,3.093,1.077q.109-1.531.186-3.065c-1.02-.582-2.026-1.186-3.011-1.829-.369-.24-.026-.834.346-.592.885.577,1.789,1.121,2.7,1.648q.313-6.934.018-13.883c-.873.347-1.736.728-2.571,1-2.073.675-4.173,1.266-6.278,1.83-4.214,1.129-8.469,2.1-12.7,3.175a.343.343,0,0,1-.182-.661c4.227-1.077,8.479-2.057,12.7-3.175q3.161-.838,6.278-1.83c.9-.287,1.8-.683,2.718-1.04-.028-.6-.056-1.2-.09-1.8-.543.118-1.084.244-1.625.371-1.832.431-3.66.881-5.488,1.333-2.943.728-5.9,1.433-8.822,2.233a.343.343,0,0,1-.182-.661c3.091-.846,6.213-1.589,9.324-2.357,1.839-.454,3.679-.905,5.524-1.335.224-.052.731-.238,1.226-.362q-.106-1.754-.248-3.5c-.849.108-1.713.149-2.569.188-1.289.3-2.571.657-3.83.89-3.116.578-6.246,1.083-9.371,1.614s-6.243,1.076-9.336,1.752c-3.036.663-5.971,1.707-9.051,2.176a.35.35,0,0,1-.286-.081Q373.146,224.159,369.816,226.822Zm40.329-20.638h.011v-.01Zm.448,3.726q-.044-.4-.089-.808a27.232,27.232,0,0,1-3.058.541,90.456,90.456,0,0,0-10.627,2.069C401.364,210.844,405.995,210.379,410.594,209.909Zm-12.4,2.246a48.889,48.889,0,0,0,10.967-1.413C405.494,211.119,401.819,211.52,398.192,212.156Zm-1.2-1.987c-.23.1-.459.211-.689.318.791-.09,1.579-.212,2.366-.35Q397.827,210.17,396.988,210.168Zm12.8-4.872a.355.355,0,0,1-.011.067h.268c0-.018,0-.036-.007-.054C409.954,205.3,409.872,205.3,409.788,205.3Zm1.219,8.918q-.135-1.593-.3-3.184a50.4,50.4,0,0,1-15.824,1.782q-1.717.381-3.411.86c6.173.218,12.267-1.473,18.446-1.466.378,0,.479.6.091.673-8.186,1.526-16.993,1.2-24.759,4.487a30.76,30.76,0,0,0,5.767-.652c2.424-.442,4.815-.785,7.267-1.025,2.71-.266,5.413-.595,8.124-.856.646-.062,1.3-.091,1.967-.12A25.271,25.271,0,0,1,411.007,214.214Zm-12.244,2.113c-2.69.277-5.319.64-7.98,1.126a24.54,24.54,0,0,1-6.971.526c-.3-.032-.512-.475-.173-.639a36.763,36.763,0,0,1,9.863-2.97,30.143,30.143,0,0,1-3.937-.138.363.363,0,0,1-.306-.229,130.2,130.2,0,0,0-11.509,6.972c2.719-.513,5.357-1.38,8.052-2,3.082-.713,6.219-1.222,9.336-1.753,2.714-.462,5.429-.914,8.139-1.4C401.772,215.991,400.268,216.172,398.763,216.327Zm-5.339-3.88a.37.37,0,0,1,.237-.362c.842-.347,1.7-.643,2.561-.908q-.82.092-1.646.118-1.82.874-3.611,1.807C391.781,212.864,392.6,212.648,393.424,212.447ZM390.29,300.77a115.342,115.342,0,0,0,19.274-47.1c.07-.4.129-.8.2-1.2a162.567,162.567,0,0,1-30.81-16.5,111.189,111.189,0,0,1-10.568-7.987c-.385.317-.772.633-1.154.954A118.318,118.318,0,0,0,344.4,254.731c1.187.709,2.5,1.732,2.39,3.091-.035.438-.721.441-.686,0,.084-1.063-.974-1.912-2.062-2.545-.827,1.284-1.622,2.59-2.4,3.906a10.957,10.957,0,0,1,2.531,1.825.343.343,0,0,1-.485.485,9.632,9.632,0,0,0-2.435-1.649q-2.614,4.5-4.823,9.235a119.826,119.826,0,0,0-5.929,15.6,13.643,13.643,0,0,0,4.666,2.308c.655.209,1.329.39,2.008.557.5-.654.986-1.315,1.432-2.008.238-.37.832-.027.592.346-.406.632-.85,1.236-1.3,1.834.782.172,1.57.309,2.357.416.121-.138.237-.275.349-.4a9.26,9.26,0,0,0,.767-.987,3.883,3.883,0,0,0,.216-.37c.1-.188.005-.193.117-.14-.4-.19-.051-.781.346-.592.765.365-.035,1.591-.947,2.6l.082.011c2.391.243,9.319.355,7.254,4.637a35.986,35.986,0,0,1-2.318,4.339,6.032,6.032,0,0,1,.57.58c.284.335-.2.822-.485.485a5.634,5.634,0,0,0-.483-.5,8.271,8.271,0,0,1-2.565,2.39c.477.591.972,1.167,1.476,1.736.292.33-.191.817-.485.485-.556-.628-1.1-1.265-1.623-1.92a5.239,5.239,0,0,1-2.1.374c-2.713-.068-5.348-1.345-7.837-2.294-1.65-.629-3.557-.91-5.166-1.7q-.784,3.859-1.349,7.759l30.2,18.01,7.347,4.381q.97-.668,1.922-1.343A106.437,106.437,0,0,0,390.29,300.77Zm-28.061,27.184-30.166-17.989-6.227-3.714c-.061.452-.116.9-.172,1.356,3.644,1.708,6.78,4.294,10.21,6.374a.343.343,0,0,1-.346.592c-3.349-2.031-6.42-4.544-9.955-6.252q-.172,1.425-.317,2.853a1.14,1.14,0,0,0,.1.064.29.29,0,0,1,.167.326c.338.228.763.417,1.025.575.5.3,1.018.592,1.533.879,1.042.58,2.107,1.117,3.176,1.644,2.122,1.045,4.286,2,6.441,2.976.4.182.054.772-.346.592-2.292-1.035-4.587-2.063-6.843-3.175q-1.8-.887-3.546-1.88a18.542,18.542,0,0,1-1.811-1.009c-.053.554-.1,1.108-.146,1.662l16.427,9.8,13.984,8.339A63.863,63.863,0,0,0,362.229,327.953ZM359.35,352.5c-.706-.492-1.541-.9-2.2-1.277a40.671,40.671,0,0,0-3.754-1.884,56.191,56.191,0,0,0-7.734-2.733.343.343,0,0,1,.182-.661,60.97,60.97,0,0,1,7.9,2.8,41.789,41.789,0,0,1,3.754,1.884c.662.373,1.49.783,2.2,1.273l1.308-2.194a100.409,100.409,0,0,0-17.861-6.989.343.343,0,0,1,.182-.661,101.259,101.259,0,0,1,18.031,7.061l2.43-4.075c-.635-.22-1.264-.472-1.89-.679q-2.287-.755-4.576-1.5-4.35-1.429-8.691-2.884c-.417-.141-.238-.8.182-.661q4.338,1.464,8.691,2.884l4.119,1.354c.829.273,1.669.623,2.519.9l1.515-2.54-27.846-16.605L311.9,309.852l-10.212,17.124,27.846,16.606,25.915,15.454Zm-13.87,13.117,2.83-1.978a7.8,7.8,0,0,0-1.959-.575c-.436-.062-.25-.722.182-.661a8.327,8.327,0,0,1,2.43.78l1.132-.791a13.107,13.107,0,0,0-3.516-1.385c-.416-.143-.237-.806.182-.661A12.556,12.556,0,0,1,350.656,362l1.533-1.071-5.772-3.442Q345.948,361.551,345.481,365.616Z" transform="translate(-296.262 -202.604)"/></g><g transform="translate(117.895 39.476)"><path d="M346.263,349.879a22.737,22.737,0,0,1,2.917-14.889c.028-.047.063-.088.094-.132a.829.829,0,0,1,.05-.114c5.955-9.814,18.8-14.259,29.634-10.7a22.957,22.957,0,0,1,15.177,25.88c-2.126,11.548-13.251,19.29-24.632,19.395A23.238,23.238,0,0,1,346.263,349.879Zm6.908,6.966.014-.031-.023.014Zm32.024-23.437.416-.17a.331.331,0,0,1-.029-.38c.019-.031.036-.061.055-.092-.135-.17-.276-.335-.416-.5a2.818,2.818,0,0,0-.364-.023.346.346,0,0,1-.3-.516c.026-.042.049-.086.073-.128-.13-.142-.258-.285-.392-.424a4.64,4.64,0,0,0-.737.079c-.306.062-.618-.335-.334-.573l.025-.02q-.435.041-.868.12A18.356,18.356,0,0,1,385.195,333.408Zm1.228,1.548c.09-.27.159-.537.231-.8-.174-.257-.352-.511-.537-.76a.374.374,0,0,1-.212.459l-.246.1Q386.058,334.442,386.423,334.956Zm.328.48q.249.374.48.76a4.671,4.671,0,0,0,.315-.612c-.028-.048-.054-.1-.082-.145A5.139,5.139,0,0,0,386.751,335.436Zm2.022,3.954c.126-.135.248-.273.371-.411l-.01-.027c-.2-.052-.391-.1-.59-.14C388.622,339,388.7,339.2,388.772,339.39Zm1.667,5.133a.339.339,0,0,1-.238-.574c.052-.06.1-.124.148-.186-.027-.195-.058-.389-.09-.583a.343.343,0,0,1-.164-.488c.021-.029.04-.06.06-.089-.017-.086-.035-.172-.052-.258a3.926,3.926,0,0,0-.474.061c.045.224.091.446.128.672a17.558,17.558,0,0,1,.218,2.466c.177-.168.344-.344.514-.518C390.476,344.858,390.457,344.691,390.439,344.523Zm-.069,2.833c-.156.058-.311.123-.464.191-.009.1-.017.192-.028.288C390.047,347.679,390.211,347.521,390.37,347.357Zm-.216-1.21a.3.3,0,0,1-.169-.08c0,.086,0,.172-.007.259C390.037,346.267,390.093,346.2,390.154,346.147Zm-.225-4.583c-.029.041-.063.079-.09.121.039,0,.078-.009.118-.012C389.948,341.637,389.938,341.6,389.929,341.564Zm-.708-.818q.193-.206.368-.427c-.012-.041-.024-.082-.037-.124q-.238.029-.475.072C389.129,340.425,389.174,340.586,389.221,340.746Zm-.918-2.5c0-.006.007-.013.012-.018.123-.139.235-.283.344-.429-.052-.119-.106-.237-.16-.355-.09,0-.181-.01-.272-.009A.345.345,0,0,1,387.9,337c.012-.041.028-.081.041-.122-.107,0-.215,0-.322-.007C387.862,337.318,388.094,337.774,388.3,338.242Zm-.431,6.4a17.778,17.778,0,0,0-1.38-5.623c-.537.251-1.137.447-1.468.609-2.184,1.068-4.323,2.2-6.546,3.192-5.053,2.253-10.257,4.146-15.348,6.312-.4.171-.752-.42-.346-.592,4.667-1.985,9.421-3.758,14.081-5.758,2.4-1.031,4.767-2.143,7.078-3.363.492-.26.989-.507,1.489-.751.117-.057.437-.2.747-.342a18.6,18.6,0,0,0-2.292-3.648c-7.236,2.961-14.484,5.893-21.672,8.969-.4.172-.751-.419-.346-.592,7.151-3.061,14.361-5.98,21.56-8.925a18.815,18.815,0,0,0-2.933-2.73,4.792,4.792,0,0,1-1.606,1.02c-1.57.815-3.206,1.509-4.832,2.2-2.89,1.235-5.82,2.373-8.725,3.573-.409.169-.585-.495-.182-.661,2.551-1.053,5.122-2.056,7.667-3.124,1.571-.66,3.135-1.336,4.675-2.064.55-.261,1.1-.533,1.63-.827q.286-.158.56-.337c.075-.048.17-.152.234-.2a18.263,18.263,0,0,0-5.41-2.556c-7.5-2.119-15.294,1.518-19.265,8.042a18.784,18.784,0,0,0-1.419,16.026,18.426,18.426,0,0,0,12.234,11.2,16.966,16.966,0,0,0,15.713-3.746A18.531,18.531,0,0,0,387.873,344.642Zm-36.891,7.151a5.948,5.948,0,0,0,.405-.443c-.028-.1-.051-.2-.078-.306a.348.348,0,0,1-.241-.51c.027-.047.054-.092.081-.139-.017-.074-.03-.149-.046-.223l-.186.015a.341.341,0,0,1-.336-.4l-.083.021Q350.694,350.814,350.981,351.793Zm1.827,4.406c.133-.167.267-.333.407-.491-.072-.125-.143-.251-.212-.377-.047.031-.095.059-.14.093a.275.275,0,0,1-.079.039c-.071.1-.142.2-.21.3Q352.689,355.982,352.809,356.2Zm-1.194-17.5.029,0a.346.346,0,0,1,.173.639c-.347.237-.7.461-1.055.69v0a5.864,5.864,0,0,0,.728.039.324.324,0,0,1,.148.033,18.8,18.8,0,0,1,.817-2.059A4.4,4.4,0,0,0,351.614,338.7Zm-1.273,9.833a.345.345,0,0,1,.269.553c.093-.025.185-.054.278-.08-.053-.35-.1-.7-.131-1.054-.006.006-.008.012-.014.018a6.425,6.425,0,0,0-.472.491c0,.026.008.052.011.078Zm-.25-3.791c.2-.239.376-.471.57-.686a.34.34,0,0,1-.182-.572,3.833,3.833,0,0,0,.461-.563c.005-.032.01-.064.016-.1l-.237.038c-.234.039-.518-.152-.422-.422a4.018,4.018,0,0,1,.348-.742c-.075-.025-.149-.056-.223-.086A22.158,22.158,0,0,0,350.09,344.739Zm.578,1.329-.078.1c.027.008.053.018.081.025C350.671,346.151,350.669,346.109,350.669,346.067Zm.031,1.095c-.068.076-.135.153-.2.23a.393.393,0,0,1,.224.09C350.714,347.375,350.706,347.269,350.7,347.162Zm-.417-1.7-.061,0a.356.356,0,0,1-.147-.039c0,.1,0,.2,0,.3Zm.835-4.328c.052.015.105.03.156.046.014,0,.025.017.038.023.026-.1.05-.2.078-.294C351.3,340.977,351.207,341.053,351.118,341.13Zm-.964,5.618-.043-.014c0,.02,0,.039,0,.059Zm1.771-9.723a.271.271,0,0,1-.126-.081c-.03.071-.063.141-.093.213Zm1.341-.724a.291.291,0,0,1,.118.013c.081-.13.164-.257.248-.384-.15.129-.3.255-.459.375C353.2,336.3,353.235,336.3,353.266,336.3Zm-.647,1.106a.356.356,0,0,1,.086.124c.042-.083.083-.167.126-.251Zm1.029,20.2.1-.169c-.052.024-.1.048-.156.073C353.608,357.543,353.627,357.576,353.648,357.608Zm-1.879-3.572c.109-.184.208-.372.3-.563l-.26.111a.378.378,0,0,1-.21.025C351.656,353.751,351.71,353.895,351.768,354.036Zm-.373-.991a3.366,3.366,0,0,0,.372-.5c-.014-.04-.029-.08-.043-.121a4.483,4.483,0,0,0-.522.081c.061.184.122.368.188.55C351.392,353.052,351.393,353.048,351.4,353.045Zm1.093-17.587c-.13.256-.259.513-.379.772a11.277,11.277,0,0,0,1.239-.964,4.215,4.215,0,0,0-.814.187A.3.3,0,0,1,352.488,335.458Zm12.971-10.3c-5.2,1.039-9.547,4.7-12.311,9.1l-.087.143c-.046.078-.087.158-.132.237a3.649,3.649,0,0,1,1.236-.056.381.381,0,0,1,.293.185,20.507,20.507,0,0,1,26.827-4.705c.092.058.179.122.27.182a.352.352,0,0,1,.053-.022c.467-.091.924-.179,1.385-.231a21.514,21.514,0,0,0-1.978-1.559A20.452,20.452,0,0,0,365.459,325.157Zm-5.909,38.534a20.451,20.451,0,0,0,15.556,3.273c5.2-1.039,9.547-4.7,12.31-9.1a20.5,20.5,0,0,0,2.959-8.263.344.344,0,0,1-.111-.627c.07-.049.134-.1.2-.151.009-.091.014-.183.022-.274q-.353.126-.7.263a.294.294,0,0,1-.035.007,19.713,19.713,0,0,1-4.3,9.392c-6.273,7.567-17.983,9.038-26.166,3.85a18.179,18.179,0,0,1-3.026-2.407.355.355,0,0,1-.5-.3c0-.08-.009-.152-.016-.218l-.075-.082c-.216.147-.433.295-.653.436A21.956,21.956,0,0,0,359.55,363.691Z" transform="translate(-346.009 -322.825)"/></g><g transform="translate(129.935 67.874)"><path d="M422.441,413.071c-5.663,2.31-11.771,3.661-17.06,6.822a.343.343,0,0,1-.346-.592c5.341-3.192,11.506-4.559,17.224-6.891C422.669,412.243,422.845,412.907,422.441,413.071Z" transform="translate(-404.871 -412.384)"/></g><g transform="translate(132.676 72.236)"><path d="M413.684,431.177c4.155-.825,7.853-3.077,11.575-4.994.393-.2.739.389.346.592-3.771,1.942-7.528,4.227-11.739,5.063C413.434,431.924,413.251,431.263,413.684,431.177Z" transform="translate(-413.437 -426.142)"/></g><g transform="translate(163.736 94.862)"><path d="M320.2,508.961a53.319,53.319,0,0,0,3.137-5.115c.47-.875.888-1.776,1.3-2.681a6.053,6.053,0,0,0,.9-3.236c-.068-.433.592-.618.661-.182.251,1.583-.678,3.124-1.31,4.516a44.056,44.056,0,0,1-3.139,5.618c-2.405,3.734-5.244,7.169-7.928,10.7-.264.347-.86.006-.592-.346C315.565,515.156,318,512.143,320.2,508.961Z" transform="translate(-313.157 -497.498)"/></g><g transform="translate(156.656 101.715)"><path d="M348.99,519.283c.212-.388.8-.042.592.346-3.128,5.747-6.882,11.163-11.939,15.383-.337.281-.825-.2-.485-.485C342.174,530.342,345.889,524.982,348.99,519.283Z" transform="translate(-337.044 -519.112)"/></g><g transform="translate(187.381 2.29)"><path d="M274.23,205.56a.343.343,0,0,1,.182.661c-.678.174,1.182,8.617,1.166,9.726a.343.343,0,0,1-.685,0,41.282,41.282,0,0,0-.947-6.4C273.84,208.831,273.085,205.855,274.23,205.56Z" transform="translate(-273.604 -205.548)"/></g><g transform="translate(184.547 3.673)"><path d="M283.693,210.241a59.725,59.725,0,0,0,1.131,10.423c.065.432-.6.618-.661.182a60.822,60.822,0,0,1-1.155-10.605A.343.343,0,0,1,283.693,210.241Z" transform="translate(-282.999 -209.909)"/></g><g transform="translate(157.83 0.461)"><path d="M342.318,200.452c-4.644,1.259-8.956,3.443-13.485,5.029-.419.146-.6-.516-.182-.661,4.53-1.586,8.842-3.769,13.485-5.029A.343.343,0,0,1,342.318,200.452Z" transform="translate(-328.415 -199.777)"/></g><g transform="translate(149.807 0)"><path d="M365.182,198.968c-4.606,2.775-9.8,4.32-14.628,6.628-.4.19-.745-.4-.346-.592,4.832-2.309,10.023-3.853,14.628-6.629A.343.343,0,0,1,365.182,198.968Z" transform="translate(-350.032 -198.325)"/></g><g transform="translate(58.846 122.526)"><path d="M680.879,598.562c.025-4.505.652-8.98.685-13.485a.343.343,0,0,1,.686,0c-.033,4.505-.66,8.98-.686,13.485A.343.343,0,0,1,680.879,598.562Z" transform="translate(-680.879 -584.745)"/></g><g transform="translate(56.56 124.359)"><path d="M688.8,600.453c.086-3.2.076-6.413.457-9.6.052-.433.738-.439.685,0-.381,3.187-.371,6.4-.457,9.6A.343.343,0,0,1,688.8,600.453Z" transform="translate(-688.799 -590.527)"/></g><g transform="translate(118.984 162.048)"><path d="M475.764,710.037c-2.876,1.81-5.762,3.642-8.457,5.714-.35.27-.691-.327-.346-.592,2.7-2.073,5.582-3.9,8.457-5.714C475.793,709.209,476.137,709.8,475.764,710.037Z" transform="translate(-466.817 -709.391)"/></g><g transform="translate(119.411 165.246)"><path d="M467.418,726.189c-.247.3-.757-.1-.538-.416a9.83,9.83,0,0,1,.737-.932.3.3,0,0,1,.181-.1c2.081-2.122,4.724-3.59,7.2-5.21.371-.243.715.351.346.592C472.556,721.947,469.56,723.57,467.418,726.189Z" transform="translate(-466.826 -719.475)"/></g><g transform="translate(15.538 144.792)"><path d="M549.362,666.354c3.038-1.19,6.227-2.042,9.348-2.98,4.132-1.242,8.27-2.473,12.364-3.839q1.742-.581,3.467-1.214.761-.281,1.514-.582c.05-.02.4-.163.477-.194q.257-.111.514-.225a14.721,14.721,0,0,0,1.744-.9,2.146,2.146,0,0,1,4.047-.029c.965,2.829-3.3,4.327-5.165,5.106-3.614,1.508-7.388,2.651-11.125,3.805-3.939,1.217-7.9,2.365-11.834,3.592-1.35.421-2.7.847-4.027,1.343-.068.025-.241.1-.371.147-.2.088-.388.182-.579.279a11.879,11.879,0,0,0-2.646,1.708c-.074.068-.138.145-.206.219.015.009.031.019.061.04a13.094,13.094,0,0,0,4.4,1.722c3.595.985,7.285,1.6,10.9,2.49,4.534,1.117,9.19,1.728,13.571,3.418,4.022,1.552,8.612,4.6,7.011,9.545a47.738,47.738,0,0,1-2.038,4.738,1.616,1.616,0,0,0-.153.4c-.2.6-.374,1.2-.554,1.805-.406,1.36-.777,2.73-1.146,4.1-1.01,3.746-2.064,7.479-3.124,11.21,7.848-5.363,15.055-13.561,25.131-12.176,3.114.428,5.183,3.086,7.294,5.12q3.862,3.723,7.643,7.517a76.934,76.934,0,0,0,7.883,7.16,14.107,14.107,0,0,1,1.689,1.432,8.264,8.264,0,0,0,.657.7c.031-.094.176-.43.2-.493,1.23-3.885.552-8.57.554-12.719,0-3.313.073-6.623-.079-9.934-.141-3.056-.384-6.395-1.659-9.221a2.1,2.1,0,0,1,.738-2.814,2.062,2.062,0,0,1,2.814.738c2.441,5.413,2.347,11.708,2.322,17.532-.018,4.173.217,8.384-.006,12.551a17.066,17.066,0,0,1-1.267,6.348c-1.209,2.592-4.3,2.668-6.339,1.059a17.424,17.424,0,0,1-1.285-1.29,21.8,21.8,0,0,0-1.816-1.426c-1.456-1.146-2.832-2.392-4.182-3.66-2.651-2.491-5.154-5.133-7.741-7.689-1.428-1.411-2.929-2.745-4.327-4.185-1.241-1.278-2.379-2.411-4.182-2.762-2.965-.578-6.306,1.017-8.809,2.4-6.2,3.436-11.154,8.9-17.569,11.953a2.078,2.078,0,0,1-3.022-2.323c1.091-3.854,2.22-7.7,3.29-11.558.991-3.575,1.727-7.31,3.041-10.785.4-1.059.918-2.077,1.386-3.108.218-.48.417-.965.6-1.459.094-.255.173-.515.25-.775.036-.126.064-.253.092-.381a2.148,2.148,0,0,0-.042-.335c-.012-.041-.021-.073-.029-.1s-.042-.075-.077-.143a2.068,2.068,0,0,0-.53-.748,7.718,7.718,0,0,0-2.247-1.593c-4.062-2.167-8.97-2.772-13.418-3.725-3.625-.776-7.264-1.583-10.871-2.439-3.188-.756-7.69-1.666-9.1-5.029C541.29,670.091,546.844,667.34,549.362,666.354Zm76.6,55.742c.035-.053.07-.106.1-.161A.5.5,0,0,0,625.961,722.1Zm.158-.272h0l.051-.1C626.146,721.776,626.13,721.805,626.119,721.824Zm-79.39-49.4.006.007C546.729,672.372,546.725,672.378,546.729,672.421Zm-.005.384h0c0,.007,0,.012-.005.02Z" transform="translate(-542.544 -654.968)"/></g><g transform="translate(45.317 152.264)"><path d="M562.527,688.108a.345.345,0,0,1-.173-.639c6.875-3.7,14.2-7.862,22.055-8.933.432-.059.619.6.182.661-7.4,1.009-14.313,4.773-20.839,8.3,3.221.142,6.477-.081,9.7-.016,3.1.063,6.654.07,9.7,1.108,5.227-1.6,10.248-3.974,15.776-4.329.442-.028.439.658,0,.686-5.167.332-9.893,2.46-14.764,4.035.179.079.357.159.531.247a3.6,3.6,0,0,1,1.93,2.345c4.395-1.731,8.866-3.623,13.594-3.6a.343.343,0,0,1,0,.686c-4.67-.024-9.1,1.868-13.453,3.587a10.488,10.488,0,0,1-.348,3.724c2.047-.782,4.086-1.589,6.161-2.289,3.471-1.171,7.352-2.323,11.043-1.67.435.077.25.737-.182.661-3.681-.652-7.574.623-11.025,1.787-2.091.706-4.141,1.525-6.2,2.313-.058.212-.116.42-.173.62-.19.667-.412,1.33-.651,1.992a.334.334,0,0,1-.112.309c-.029.077-.058.153-.086.23,8.2-1.759,16.662-2.343,24.638-5.069.419-.143.6.519.182.661-8.13,2.779-16.763,3.335-25.112,5.176a46.923,46.923,0,0,0-2.655,7.819c2.365-1.32,4.265-3.263,6.5-4.781a8.826,8.826,0,0,1,1.471-.807q-1.292.18-2.585.351c-.438.057-.432-.63,0-.686a220.754,220.754,0,0,0,24.285-4.432,10.227,10.227,0,0,0-1.021-3.016c-.213-.388.379-.734.592-.346a10.881,10.881,0,0,1,1.089,3.2l.079-.019a.343.343,0,0,1,.182.661l-.147.036a33.754,33.754,0,0,1,.159,6.333,29.05,29.05,0,0,1-.274,2.921c.84-.193,1.481-.347,1.714-.392.432-.084.616.576.182.661-.674.132-1.346.277-2.018.423a20.051,20.051,0,0,1-.445,1.984,5.613,5.613,0,0,1-2,3.286.341.341,0,0,1-.416-.054,38.712,38.712,0,0,0-4.223-4.123c-.521-.08-.925-.293-.992-.758a.354.354,0,0,1,0-.061c-.207-.17-.411-.344-.62-.511-.376-.3-.76-.6-1.148-.9a17.421,17.421,0,0,1-3.438.046c-.437-.039-.44-.725,0-.686a16.617,16.617,0,0,0,2.615.021,32.139,32.139,0,0,0-3.41-2.219l-.369.071c-1.017.2-2.329.748-3.364.548a.35.35,0,0,1-.252-.33l-.007-.054a.341.341,0,0,1,.17-.3,3.513,3.513,0,0,1,.794-.369c.247-.1.406.1.409.314.407-.093.823-.227,1.136-.29l.515-.1c-.417-.206-.837-.4-1.264-.578a7.46,7.46,0,0,0-7.54,1.092c-2.253,1.59-4.15,3.566-6.655,4.792a.347.347,0,0,1-.5-.387,38.828,38.828,0,0,1,2.654-8.188c-.111.025-.222.048-.333.074a.346.346,0,0,1-.387-.5,3.661,3.661,0,0,1,1.325-1.183c.109-.306.216-.613.315-.919.136-.417.269-.84.393-1.266-1.25.471-2.505.925-3.78,1.327-.423.133-.6-.529-.182-.661,1.411-.445,2.8-.949,4.185-1.472a13.491,13.491,0,0,0,.49-3.486c0-.1-.015-.185-.022-.277-.9.351-1.792.691-2.684,1-.419.145-.6-.518-.182-.661.916-.317,1.833-.665,2.754-1.024a3.476,3.476,0,0,0-2.266-2.277c-.2-.083-.4-.159-.611-.232a34.521,34.521,0,0,1-4.809,1.134c-.433.066-.618-.595-.182-.661a32.574,32.574,0,0,0,3.8-.835,39.907,39.907,0,0,0-9.367-.792C569.233,688.1,565.855,688.362,562.527,688.108Zm47.355,25.015a6.032,6.032,0,0,0,1.592-3.16c.106-.393.192-.791.269-1.192-1.236.27-2.473.536-3.724.731-.3.046-.919.173-1.566.224A37.785,37.785,0,0,1,609.882,713.123Zm-6.268-5.73q1.039.8,2.051,1.654a30.508,30.508,0,0,0,6.191-.96,29.836,29.836,0,0,0,.3-3.088,56.4,56.4,0,0,1-8.6,2.356Zm-5.089-3.476.237-.046c1.231-.237,2.462-.469,3.692-.709,2.631-.514,5.247-1.093,7.824-1.83a.343.343,0,0,1,.182.661c-2.729.781-5.5,1.376-8.284,1.92-.914.179-1.829.352-2.744.527a39.928,39.928,0,0,1,3.36,2.325A50.931,50.931,0,0,0,612.1,704.3a.312.312,0,0,1,.1-.01,30.2,30.2,0,0,0-.166-5.459c-5.9,1.449-11.858,2.588-17.857,3.511a8.8,8.8,0,0,1,1.924.461A17.105,17.105,0,0,1,598.525,703.917Z" transform="translate(-562.184 -678.532)"/></g><g transform="translate(50.588 153.125)"><path d="M630.533,688.829c-.432.068-.618-.593-.182-.661,8.6-1.35,16.614-4.916,25.053-6.907.43-.1.612.56.182.661C647.147,683.912,639.131,687.479,630.533,688.829Z" transform="translate(-630.102 -681.25)"/></g><g transform="translate(3.328 141.217)"><path d="M743.2,660.467c12.068-5.787,24.562-10.65,36.49-16.733.393-.2.74.391.346.592-11.929,6.083-24.423,10.946-36.49,16.733C743.145,661.249,742.8,660.658,743.2,660.467Z" transform="translate(-743.019 -643.693)"/></g><g transform="translate(0 141.105)"><path d="M771.215,657.814c10.534-4.3,20.431-9.979,30.891-14.443.4-.172.752.419.346.592-10.515,4.488-20.466,10.189-31.055,14.512C770.988,658.642,770.812,657.979,771.215,657.814Z" transform="translate(-770.987 -643.34)"/></g><g transform="translate(114.537 200.245)"><path d="M482.529,830.035c4.4,10.172,6.14,21.317,8.14,32.145.08.432-.581.617-.661.182-1.988-10.76-3.7-21.871-8.071-31.981C481.763,829.98,482.354,829.63,482.529,830.035Z" transform="translate(-481.905 -829.855)"/></g><g transform="translate(121.211 201.089)"><path d="M473.96,832.674c1.855,2.866,2.545,6.368,3.058,9.69.551,3.568.756,7.175,1.112,10.766.044.44-.642.436-.686,0-.339-3.41-.551-6.832-1.035-10.226-.481-3.373-1.162-6.979-3.042-9.883C473.127,832.648,473.721,832.3,473.96,832.674Z" transform="translate(-473.312 -832.516)"/></g><g transform="translate(83.098 212.2)"><path d="M577.093,868.129c-.341-.283.147-.765.485-.485a60.725,60.725,0,0,1,9.4,10.605c.266.354-.33.7-.592.346A59.982,59.982,0,0,0,577.093,868.129Z" transform="translate(-576.978 -867.559)"/></g><g transform="translate(82.39 219.53)"><path d="M579.984,890.767c3.872,3.445,6.417,8.048,9.351,12.253.254.364-.341.706-.592.346-2.9-4.158-5.415-8.707-9.244-12.114C579.168,890.957,579.655,890.474,579.984,890.767Z" transform="translate(-579.389 -890.676)"/></g><g transform="translate(24.054 178.025)"><path d="M739.064,761.079c5.652-.139,11.606.5,17.068-1.282.422-.137.6.525.182.661-5.523,1.8-11.537,1.166-17.25,1.307A.343.343,0,0,1,739.064,761.079Z" transform="translate(-738.732 -759.778)"/></g><g transform="translate(20.171 175.798)"><path d="M734.031,754.652c7.505-.747,15.1-.5,22.539-1.89.432-.081.616.58.182.661-7.5,1.4-15.154,1.161-22.721,1.914C733.591,755.382,733.6,754.7,734.031,754.652Z" transform="translate(-733.703 -752.756)"/></g><g transform="translate(44.046 206.194)"><path d="M665.851,859.991c7.232-2.833,13.821-7.054,20.277-11.317.37-.245.713.35.346.592-6.509,4.3-13.149,8.53-20.44,11.386C665.621,860.814,665.444,860.15,665.851,859.991Z" transform="translate(-665.62 -848.617)"/></g><g transform="translate(37.954 205.879)"><path d="M689.687,858.416c6.513-2.963,13.256-6.036,18.75-10.706.335-.285.823.2.485.485-5.544,4.713-12.316,7.823-18.889,10.814C689.633,859.189,689.285,858.6,689.687,858.416Z" transform="translate(-689.508 -847.622)"/></g><g transform="translate(36.221 189.841)"><path d="M743.575,797.2c.242-.368.836-.025.592.346-3.189,4.857-3.7,10.99-5,16.519-.1.431-.762.248-.661-.182C739.818,808.292,740.35,802.112,743.575,797.2Z" transform="translate(-738.499 -797.042)"/></g><g transform="translate(31.261 188.372)"><path d="M763.226,792.659c.059-.437.72-.25.661.182-.644,4.753-2.046,9.342-3.183,13.989-.1.429-.766.247-.661-.182C761.18,802,762.581,797.412,763.226,792.659Z" transform="translate(-760.031 -792.41)"/></g></svg>