<svg width="249" height="54" viewBox="0 0 249 54" fill="none" xmlns="http://www.w3.org/2000/svg">
<path d="M99.44 12.736C102.192 12.736 104.272 13.376 105.68 14.656C107.109 15.9147 107.824 17.7707 107.824 20.224H103.952C103.952 18.7947 103.557 17.7173 102.768 16.992C101.979 16.2453 100.848 15.872 99.376 15.872C98.1387 15.872 97.1573 16.1493 96.432 16.704C95.728 17.2373 95.376 17.9733 95.376 18.912C95.376 19.8933 95.7493 20.6187 96.496 21.088C97.2427 21.5573 98.608 22.0373 100.592 22.528C101.616 22.784 102.448 23.008 103.088 23.2C103.728 23.392 104.421 23.68 105.168 24.064C105.936 24.4267 106.533 24.832 106.96 25.28C107.387 25.728 107.739 26.3147 108.016 27.04C108.315 27.744 108.464 28.5653 108.464 29.504C108.464 31.616 107.685 33.312 106.128 34.592C104.571 35.8507 102.512 36.48 99.952 36.48C97.1573 36.48 94.9813 35.7973 93.424 34.432C91.8667 33.0453 91.088 31.0613 91.088 28.48H95.024C95.024 31.7013 96.6773 33.312 99.984 33.312C101.392 33.312 102.491 33.0027 103.28 32.384C104.091 31.7653 104.496 30.9227 104.496 29.856C104.496 28.7893 104.133 28.032 103.408 27.584C102.683 27.136 101.328 26.6667 99.344 26.176C98.2773 25.8987 97.4347 25.6747 96.816 25.504C96.2187 25.312 95.5253 25.0347 94.736 24.672C93.9467 24.288 93.3493 23.8827 92.944 23.456C92.5387 23.008 92.1867 22.432 91.888 21.728C91.5893 21.0027 91.44 20.1813 91.44 19.264C91.44 17.3227 92.1653 15.7547 93.616 14.56C95.088 13.344 97.0293 12.736 99.44 12.736ZM117.94 36.384C116.062 36.384 114.601 35.8187 113.556 34.688C112.532 33.5573 112.02 31.8933 112.02 29.696V19.744H115.668V29.376C115.668 32.0853 116.766 33.44 118.964 33.44C120.052 33.44 120.937 33.0347 121.62 32.224C122.324 31.4133 122.676 30.2613 122.676 28.768V19.744H126.324V36H122.868V33.888H122.804C121.652 35.552 120.03 36.384 117.94 36.384ZM134.64 13.216V21.856H134.704C135.174 21.0667 135.824 20.448 136.656 20C137.51 19.552 138.448 19.328 139.472 19.328C141.542 19.328 143.184 20.1067 144.4 21.664C145.616 23.2 146.224 25.2693 146.224 27.872C146.224 30.4533 145.606 32.5227 144.368 34.08C143.152 35.616 141.51 36.384 139.44 36.384C138.416 36.384 137.467 36.16 136.592 35.712C135.739 35.2427 135.078 34.592 134.608 33.76H134.544V36H130.992V13.216H134.64ZM138.384 22.176C137.19 22.176 136.23 22.688 135.504 23.712C134.8 24.7147 134.448 26.1013 134.448 27.872C134.448 29.6213 134.8 31.008 135.504 32.032C136.23 33.056 137.19 33.568 138.384 33.568C139.622 33.568 140.603 33.056 141.328 32.032C142.054 30.9867 142.416 29.6 142.416 27.872C142.416 26.144 142.054 24.768 141.328 23.744C140.603 22.6987 139.622 22.176 138.384 22.176ZM155.374 19.264C157.464 19.264 159.075 19.744 160.206 20.704C161.358 21.6427 161.944 23.008 161.966 24.8H158.446C158.446 22.88 157.411 21.92 155.342 21.92C154.488 21.92 153.827 22.0907 153.358 22.432C152.888 22.7733 152.654 23.2427 152.654 23.84C152.654 24.48 152.899 24.9387 153.39 25.216C153.88 25.4933 154.862 25.8133 156.334 26.176C156.931 26.3253 157.304 26.4213 157.454 26.464C157.624 26.5067 157.976 26.6133 158.51 26.784C159.064 26.9333 159.427 27.072 159.598 27.2C159.79 27.3067 160.088 27.4667 160.494 27.68C160.899 27.8933 161.176 28.1173 161.326 28.352C161.496 28.5653 161.688 28.832 161.902 29.152C162.136 29.472 162.286 29.8347 162.35 30.24C162.435 30.624 162.478 31.0507 162.478 31.52C162.478 33.0133 161.859 34.2187 160.622 35.136C159.384 36.032 157.731 36.48 155.661 36.48C153.443 36.48 151.715 35.9893 150.478 35.008C149.262 34.0053 148.643 32.5547 148.622 30.656H152.334C152.334 31.6587 152.622 32.4267 153.198 32.96C153.795 33.4933 154.638 33.76 155.726 33.76C156.643 33.76 157.358 33.5787 157.87 33.216C158.403 32.8533 158.67 32.3627 158.67 31.744C158.67 30.976 158.392 30.4427 157.838 30.144C157.283 29.824 156.195 29.4613 154.574 29.056C153.976 28.9067 153.571 28.8107 153.358 28.768C153.166 28.704 152.814 28.5973 152.302 28.448C151.79 28.2773 151.427 28.128 151.214 28C151 27.8507 150.712 27.648 150.35 27.392C150.008 27.136 149.763 26.8693 149.614 26.592C149.464 26.2933 149.326 25.9413 149.198 25.536C149.07 25.1093 149.006 24.64 149.006 24.128C149.006 22.6773 149.592 21.504 150.766 20.608C151.939 19.712 153.475 19.264 155.374 19.264ZM173.026 19.264C175.074 19.264 176.76 19.8613 178.082 21.056C179.426 22.2293 180.184 23.7547 180.354 25.632H176.546C176.461 24.5653 176.098 23.7227 175.458 23.104C174.818 22.464 174.008 22.144 173.026 22.144C171.746 22.144 170.744 22.656 170.018 23.68C169.314 24.6827 168.962 26.08 168.962 27.872C168.962 29.664 169.314 31.072 170.018 32.096C170.744 33.0987 171.746 33.6 173.026 33.6C174.008 33.6 174.808 33.248 175.426 32.544C176.066 31.84 176.429 30.9333 176.514 29.824H180.354C180.184 31.808 179.437 33.4187 178.114 34.656C176.792 35.872 175.096 36.48 173.026 36.48C170.616 36.48 168.696 35.7013 167.266 34.144C165.837 32.5867 165.122 30.496 165.122 27.872C165.122 25.248 165.837 23.1573 167.266 21.6C168.696 20.0427 170.616 19.264 173.026 19.264ZM191.87 19.52C192.296 19.52 192.744 19.5733 193.214 19.68V22.912C192.808 22.8267 192.382 22.784 191.934 22.784C190.483 22.784 189.363 23.2427 188.574 24.16C187.806 25.056 187.422 26.3467 187.422 28.032V36H183.774V19.744H187.166V22.144H187.23C188.318 20.3947 189.864 19.52 191.87 19.52ZM199.484 19.744V36H195.836V19.744H199.484ZM199.484 13.216V16.704H195.836V13.216H199.484ZM207.797 13.216V21.856H207.861C208.33 21.0667 208.981 20.448 209.812 20C210.666 19.552 211.605 19.328 212.629 19.328C214.698 19.328 216.341 20.1067 217.557 21.664C218.773 23.2 219.381 25.2693 219.381 27.872C219.381 30.4533 218.762 32.5227 217.525 34.08C216.309 35.616 214.666 36.384 212.597 36.384C211.573 36.384 210.623 36.16 209.749 35.712C208.895 35.2427 208.234 34.592 207.765 33.76H207.701V36H204.149V13.216H207.797ZM211.541 22.176C210.346 22.176 209.386 22.688 208.661 23.712C207.957 24.7147 207.605 26.1013 207.605 27.872C207.605 29.6213 207.957 31.008 208.661 32.032C209.386 33.056 210.346 33.568 211.541 33.568C212.778 33.568 213.759 33.056 214.485 32.032C215.21 30.9867 215.573 29.6 215.573 27.872C215.573 26.144 215.21 24.768 214.485 23.744C213.759 22.6987 212.778 22.176 211.541 22.176ZM229.994 33.792C231.018 33.792 231.85 33.5467 232.49 33.056C233.152 32.5653 233.568 31.9147 233.738 31.104H237.482C237.162 32.64 236.341 33.92 235.018 34.944C233.696 35.968 232.021 36.48 229.994 36.48C227.541 36.48 225.61 35.68 224.202 34.08C222.816 32.48 222.122 30.3467 222.122 27.68C222.122 25.2267 222.816 23.2107 224.202 21.632C225.61 20.0533 227.52 19.264 229.93 19.264C231.765 19.264 233.322 19.7653 234.602 20.768C235.904 21.7493 236.778 23.0933 237.226 24.8C237.525 25.76 237.674 27.0293 237.674 28.608H225.738C225.802 30.3573 226.218 31.6587 226.986 32.512C227.776 33.3653 228.778 33.792 229.994 33.792ZM232.714 23.04C231.989 22.3147 231.061 21.952 229.93 21.952C228.8 21.952 227.861 22.3147 227.114 23.04C226.389 23.7653 225.952 24.8213 225.802 26.208H234.026C233.898 24.8213 233.461 23.7653 232.714 23.04ZM245.723 32.192V36H241.595V32.192H245.723ZM245.915 13.216L245.083 30.016H242.235L241.403 13.216H245.915Z" fill="black"/>
<circle cx="20.5" cy="7.5" r="7.5" fill="#C4C4C4"/>
<rect width="28" height="15" rx="7.5" fill="#3F8EF7"/>
<path d="M57.9999 22.0252C58.0013 23.893 57.7561 25.7532 57.2704 27.5595C56.7959 29.3313 56.1009 31.0395 55.2011 32.6458C54.6978 33.5381 54.1292 34.3936 53.5 35.2058C53.4754 35.2474 53.4574 35.2706 53.4517 35.2858L53.446 35.2914C52.9558 35.9235 52.4322 36.5302 51.8773 37.1089C51.0902 37.9276 50.2392 38.685 49.332 39.3745C49.332 39.3745 42.8045 43.9592 34.9749 43.9592L33.69 43.9648L28.1946 44V29.1827H35.518C36.4823 29.1904 37.4378 29.0013 38.3233 28.6275C39.1963 28.2648 39.9906 27.7424 40.6633 27.0883C41.3342 26.4282 41.867 25.6464 42.232 24.7868C42.616 23.9151 42.8091 22.9743 42.7988 22.0252C42.802 21.544 42.7554 21.0637 42.6597 20.5917C42.6565 20.5862 42.6547 20.5802 42.654 20.5741C42.5629 20.1198 42.4214 19.6766 42.232 19.2525C41.4903 17.5222 40.0847 16.1453 38.3168 15.4174C37.4337 15.0432 36.4803 14.8543 35.518 14.863H28.1946C28.1936 10.9215 26.5924 7.14184 23.7431 4.35476C20.8938 1.56768 17.0296 0.00133842 13 6.60419e-05H35.518C37.5381 -0.0048171 39.5495 0.261117 41.4959 0.79045C43.3721 1.30244 45.1726 2.05026 46.8522 3.0152C47.4558 3.3632 48.0406 3.74079 48.6082 4.14238L48.6556 4.17118C51.1977 5.97573 53.3297 8.27607 54.9173 10.9271C55.9027 12.5727 56.6672 14.3357 57.1919 16.1726C57.7327 18.0783 58.0045 20.0474 57.9999 22.0252Z" fill="url(#paint0_linear)"/>
<path d="M55 54H39.2034L36.7136 48.3504L35 44.4659C42.6052 44.4659 48.9456 40 48.9456 40L50.7617 44.2079L51.0794 44.9381C51.0794 44.9436 51.0858 44.9436 51.0858 44.949L55 54Z" fill="#064395"/>
<path d="M28 14.9342V54H13V0C16.978 0.00127849 20.7927 1.57514 23.6054 4.37559C26.4183 7.17605 27.999 10.9739 28 14.9342Z" fill="url(#paint1_linear)"/>
<g style="mix-blend-mode:multiply" opacity="0.16">
<g style="mix-blend-mode:multiply" opacity="0.16">
<path d="M27.8174 15C27.8163 11.0222 26.2549 7.20765 23.4763 4.39487C20.6978 1.58208 16.9296 0.00128412 13 0H26.4176C29.4117 2.83465 32.2886 7.47941 33 15H27.8174Z" fill="black"/>
</g>
</g>
<g style="mix-blend-mode:multiply" opacity="0.16">
<g style="mix-blend-mode:multiply" opacity="0.16">
<path d="M33 29V43.9644L28 44V29H33Z" fill="black"/>
</g>
</g>
<g style="mix-blend-mode:multiply" opacity="0.16">
<g style="mix-blend-mode:multiply" opacity="0.16">
<path d="M51 44.5344C46.5633 46.9564 41.7228 48.4721 36.7393 49L35 44.8133C42.719 44.8133 49.1543 40 49.1543 40L51 44.5344Z" fill="black"/>
</g>
</g>
<g style="mix-blend-mode:multiply" opacity="0.25">
<g style="mix-blend-mode:multiply" opacity="0.25">
<path d="M57.9999 21.8467C58.0012 23.7106 57.7662 25.5669 57.3008 27.3696C56.8461 29.1377 56.1801 30.8424 55.3179 32.4453C54.8356 33.3357 54.2908 34.1895 53.6877 35C53.7919 34.8292 54.0459 34.4172 54.3868 33.7873C55.0098 32.6396 55.5451 31.4446 55.988 30.2132C56.607 28.4896 57.0319 26.7 57.2546 24.8788C57.3703 23.8586 57.4243 22.8321 57.416 21.8052C57.4059 20.7444 57.321 19.6858 57.1621 18.6374C57.0114 17.5889 56.7832 16.5534 56.4794 15.5399C56.186 14.5571 55.8329 13.5937 55.4221 12.6555C55.0305 11.7769 54.5903 10.9216 54.1039 10.0937C53.6336 9.3105 53.1445 8.58641 52.6641 7.94455C51.8828 6.90249 51.0227 5.92422 50.0918 5.01867C49.4162 4.35286 49 4 49 4L49.0455 4.02874C51.4815 5.82956 53.5247 8.12514 55.0459 10.7706C55.9903 12.4129 56.7229 14.1723 57.2256 16.0053C57.7439 17.9074 58.0044 19.8727 57.9999 21.8467Z" fill="black"/>
</g>
</g>
<g style="mix-blend-mode:multiply" opacity="0.25">
<g style="mix-blend-mode:multiply" opacity="0.25">
<path d="M55 54H43C44.0024 53.8575 44.9992 53.7716 46.0016 53.6903C47.004 53.609 48.0008 53.5532 48.9951 53.5075C49.9895 53.4618 51 53.4394 51.9968 53.4216L54.0728 53.4045C53.8697 52.9252 53.6683 52.4451 53.4765 51.9596C53.1602 51.2008 52.8616 50.4412 52.5752 49.67C52.2888 48.8987 52.0089 48.1283 51.7395 47.347C51.4701 46.5657 51.2265 45.7883 51.0113 45L55 54Z" fill="black"/>
</g>
</g>
<g style="mix-blend-mode:screen" opacity="0.7">
<g style="mix-blend-mode:screen" opacity="0.7">
<path d="M14 27.0032C13.991 28.6912 13.9806 30.3791 13.9625 32.0365C13.9445 33.6939 13.9044 35.3321 13.876 36.9155C13.8101 40.0808 13.7041 43.0331 13.5711 45.5643C13.3333 50.6281 13 54 13 54V0C13 0 13.3333 3.3759 13.5711 8.43574C13.7003 10.9677 13.8101 13.9192 13.876 17.0853C13.9044 18.6679 13.9625 20.3045 13.9625 21.9643C13.9625 23.6241 13.9884 25.3137 14 27.0032Z" fill="white"/>
</g>
</g>
<g style="mix-blend-mode:multiply" opacity="0.25">
<g style="mix-blend-mode:multiply" opacity="0.25">
<path d="M42.9909 23.5709C42.969 24.0087 42.8989 24.4427 42.7821 24.865C42.7183 25.0874 42.6363 25.3335 42.5607 25.5439C42.4726 25.7807 42.37 26.0116 42.2533 26.2354C42.0123 26.7105 41.7157 27.1549 41.3699 27.559C41.0121 27.9743 40.6104 28.3491 40.1721 28.6769C39.7239 28.9928 39.2449 29.2618 38.7426 29.4796C38.2563 29.6871 37.7469 29.8345 37.2256 29.9187C36.7414 29.9976 36.2497 30.0192 35.7606 29.983C35.3193 29.96 34.9126 29.9187 34.5289 29.8774C33.0119 29.7313 32 29.5264 32 29.5264H35.7086C36.6378 29.5341 37.5584 29.3464 38.4116 28.9754C39.2527 28.6154 40.018 28.097 40.6662 27.4478C41.3126 26.7926 41.826 26.0168 42.1777 25.1636C42.5477 24.2985 42.7338 23.3648 42.7238 22.4228C42.7269 21.9451 42.682 21.4685 42.5898 21C42.6828 21.2137 42.7569 21.4353 42.8113 21.6622C42.9641 22.286 43.0247 22.9292 42.9909 23.5709Z" fill="black"/>
</g>
</g>
<g style="mix-blend-mode:screen" opacity="0.7">
<g style="mix-blend-mode:screen" opacity="0.7">
<path d="M28 14.9337V54C28 54 27.9467 53.0225 27.887 51.3144C27.8272 49.6062 27.7255 47.1586 27.6609 44.2302C27.5802 41.301 27.518 37.8799 27.476 34.2168C27.4583 32.3849 27.4405 30.4935 27.4227 28.5667C27.405 26.6399 27.4106 24.6898 27.405 22.7389C27.3993 20.788 27.4163 18.8258 27.4284 16.9055C27.4227 15.9505 27.4526 14.9763 27.4227 14.0776C27.3807 13.1833 27.2531 12.2951 27.0417 11.4249C26.6414 9.76508 25.9564 8.18651 25.0168 6.75864C23.4324 4.3667 21.1954 2.47461 18.5684 1.30463C17.6356 0.887854 16.6614 0.56993 15.6619 0.356099C15.0149 0.217432 14.3608 0.114384 13.7024 0.0474263C13.2438 0.0176844 13 0 13 0C16.9778 0.0012785 20.7923 1.57516 23.6049 4.37566C26.4176 7.17615 27.9981 10.974 27.9992 14.9345L28 14.9337Z" fill="white"/>
</g>
</g>
<defs>
<linearGradient id="paint0_linear" x1="13" y1="0" x2="56.9889" y2="44.9886" gradientUnits="userSpaceOnUse">
<stop stop-color="#3F8EF7"/>
<stop offset="1" stop-color="#1A68D0"/>
</linearGradient>
<linearGradient id="paint1_linear" x1="13" y1="0" x2="40.851" y2="7.73639" gradientUnits="userSpaceOnUse">
<stop stop-color="#50EAA5"/>
<stop offset="1" stop-color="#08CE76"/>
</linearGradient>
</defs>
</svg>
