<svg xmlns="http://www.w3.org/2000/svg" width="24" height="24" viewBox="0 0 24 24">
  <g id="cancel" transform="translate(-798 -368)">
    <rect id="Rectangle_1" data-name="Rectangle 1" width="24" height="24" rx="12" transform="translate(798 368)" fill="#3f8ef7"/>
    <g id="cancel-2" data-name="cancel" transform="translate(805 374.984)">
      <g id="Group_1" data-name="Group 1" transform="translate(0 0.016)">
        <path id="Path_1" data-name="Path 1" d="M6.1,5.016,9.841,1.277a.548.548,0,0,0,0-.773L9.513.176a.548.548,0,0,0-.774,0L5,3.915,1.261.176a.548.548,0,0,0-.773,0L.16.5a.547.547,0,0,0,0,.773L3.9,5.016.16,8.755a.549.549,0,0,0,0,.774l.328.328a.548.548,0,0,0,.773,0L5,6.117,8.74,9.856a.543.543,0,0,0,.387.16h0a.543.543,0,0,0,.387-.16l.328-.328a.548.548,0,0,0,0-.774Z" transform="translate(0 -0.016)" fill="#fff"/>
      </g>
    </g>
  </g>
</svg>
