<svg width="20" height="20" viewBox="0 0 20 20" fill="none" xmlns="http://www.w3.org/2000/svg">
<path d="M12.4995 6.25L5.99112 12.8665C5.7567 13.1009 5.625 13.4189 5.625 13.7504C5.625 14.0819 5.7567 14.3998 5.99112 14.6343C6.22554 14.8687 6.54348 15.0004 6.875 15.0004C7.20652 15.0004 7.52446 14.8687 7.75888 14.6343L15.5173 6.76777C15.7495 6.53562 15.9336 6.26002 16.0592 5.95671C16.1849 5.65339 16.2495 5.3283 16.2495 5C16.2495 4.6717 16.1849 4.34661 16.0592 4.04329C15.9336 3.73998 15.7495 3.46438 15.5173 3.23223C15.2852 3.00009 15.0096 2.81594 14.7063 2.6903C14.4029 2.56466 14.0778 2.5 13.7495 2.5C13.4212 2.5 13.0961 2.56466 12.7928 2.6903C12.4895 2.81594 12.2139 3.00009 11.9818 3.23223L4.22335 11.0987C3.52009 11.802 3.125 12.7558 3.125 13.7504C3.125 14.7449 3.52009 15.6988 4.22335 16.402C4.92661 17.1053 5.88044 17.5004 6.875 17.5004C7.86956 17.5004 8.82339 17.1053 9.52665 16.402L15.937 10" stroke="#2BCB84" stroke-width="1.5" stroke-linecap="round" stroke-linejoin="round"/>
</svg>
