<svg width="21" height="20" viewBox="0 0 21 20" fill="none" xmlns="http://www.w3.org/2000/svg">
<path d="M4.04912 13.8276C3.1173 12.2567 2.79097 10.3998 3.1314 8.60534C3.47184 6.81093 4.45563 5.20252 5.89803 4.08212C7.34044 2.96173 9.14224 2.40643 10.9651 2.5205C12.7879 2.63457 14.5065 3.41016 15.7979 4.70163C17.0894 5.99311 17.865 7.71162 17.9791 9.53447C18.0932 11.3573 17.5379 13.1591 16.4175 14.6015C15.2971 16.044 13.6887 17.0277 11.8943 17.3682C10.0999 17.7086 8.24291 17.3823 6.67207 16.4505L6.67209 16.4504L4.08173 17.1905C3.97456 17.2211 3.86115 17.2225 3.75325 17.1946C3.64536 17.1666 3.5469 17.1103 3.46809 17.0315C3.38927 16.9527 3.33297 16.8542 3.30501 16.7463C3.27705 16.6384 3.27846 16.525 3.30908 16.4179L4.04918 13.8275L4.04912 13.8276Z" stroke="white" stroke-width="1.5" stroke-linecap="round" stroke-linejoin="round"/>
<path d="M6.75 10.9414C7.26777 10.9414 7.6875 10.5217 7.6875 10.0039C7.6875 9.48614 7.26777 9.06641 6.75 9.06641C6.23223 9.06641 5.8125 9.48614 5.8125 10.0039C5.8125 10.5217 6.23223 10.9414 6.75 10.9414Z" fill="white"/>
<path d="M10.5 10.9414C11.0178 10.9414 11.4375 10.5217 11.4375 10.0039C11.4375 9.48614 11.0178 9.06641 10.5 9.06641C9.98223 9.06641 9.5625 9.48614 9.5625 10.0039C9.5625 10.5217 9.98223 10.9414 10.5 10.9414Z" fill="white"/>
<path d="M14.25 10.9414C14.7678 10.9414 15.1875 10.5217 15.1875 10.0039C15.1875 9.48614 14.7678 9.06641 14.25 9.06641C13.7322 9.06641 13.3125 9.48614 13.3125 10.0039C13.3125 10.5217 13.7322 10.9414 14.25 10.9414Z" fill="white"/>
</svg>
