<svg xmlns="http://www.w3.org/2000/svg" width="42" height="42" viewBox="0 0 42 42">
  <g id="chat" transform="translate(1 1)">
    <path id="Path_1" data-name="Path 1" d="M12.259,24.594a9,9,0,1,1,3.148,3.147h0l-3.108.888a.75.75,0,0,1-.927-.927l.888-3.108Z" fill="none" stroke="#363a40" stroke-linecap="round" stroke-linejoin="round" stroke-width="1.5"/>
    <path id="Path_2" data-name="Path 2" d="M15.5,21.129A1.125,1.125,0,1,0,14.375,20,1.125,1.125,0,0,0,15.5,21.129Z" fill="#363a40"/>
    <path id="Path_3" data-name="Path 3" d="M20,21.129A1.125,1.125,0,1,0,18.875,20,1.125,1.125,0,0,0,20,21.129Z" fill="#363a40"/>
    <path id="Path_4" data-name="Path 4" d="M24.5,21.129A1.125,1.125,0,1,0,23.375,20,1.125,1.125,0,0,0,24.5,21.129Z" fill="#363a40"/>
    <path id="Path_5" data-name="Path 5" d="M8,1H32V-1H8ZM39,8V32h2V8ZM32,39H8v2H32ZM1,32V8H-1V32Zm7,7a7,7,0,0,1-7-7H-1a9,9,0,0,0,9,9Zm31-7a7,7,0,0,1-7,7v2a9,9,0,0,0,9-9ZM32,1a7,7,0,0,1,7,7h2a9,9,0,0,0-9-9ZM8-1A9,9,0,0,0-1,8H1A7,7,0,0,1,8,1Z" fill="#ccced4"/>
  </g>
</svg>
