<svg width="20" height="20" viewBox="0 0 20 20" fill="none" xmlns="http://www.w3.org/2000/svg">
<path d="M15.6681 13.7384H17C16.6892 14.3742 16.154 14.9737 15.3943 15.5367C14.7283 16.0414 13.9982 16.4103 13.204 16.6433C12.4098 16.8811 11.4972 17 10.4662 17C9.31184 17 8.27097 16.8495 7.34355 16.5486C6.42107 16.2477 5.63672 15.8133 4.99049 15.2455C4.34426 14.6824 3.85095 13.9932 3.51057 13.1778C3.17019 12.3625 3 11.4548 3 10.455C3 9.57653 3.13319 8.72716 3.39958 7.90692C3.67089 7.08182 4.05814 6.33437 4.56131 5.66459C5.06448 4.98995 5.64905 4.44878 6.31501 4.04108C6.66032 3.82267 7.05497 3.63581 7.49894 3.4805C7.94785 3.32033 8.41156 3.20142 8.89006 3.12376C9.36857 3.04125 9.84461 3 10.3182 3C11.5218 3 12.6071 3.2451 13.574 3.73531C14.5409 4.22066 15.2956 4.89773 15.8383 5.76651C16.3809 6.63529 16.6522 7.606 16.6522 8.67863C16.6522 9.55712 16.4401 10.3992 16.0159 11.2049C15.5965 12.0106 15.0416 12.6609 14.351 13.156C13.6603 13.6511 12.9426 13.8986 12.1977 13.8986C11.4133 13.8986 10.9595 13.6365 10.8362 13.1123C10.8016 12.9958 10.7794 12.8502 10.7696 12.6755C10.4292 13.0589 10.0617 13.3599 9.66702 13.5783C9.27238 13.7918 8.88266 13.8986 8.49789 13.8986C8.00458 13.8986 7.55321 13.7554 7.14376 13.4691C6.73432 13.1778 6.41121 12.7847 6.17442 12.2897C5.93763 11.7897 5.81924 11.234 5.81924 10.6225C5.81924 9.85561 6.00176 9.11302 6.36681 8.3947C6.73679 7.67152 7.22023 7.0891 7.81712 6.64743C8.41402 6.20575 9.02572 5.98492 9.65222 5.98492C10.5846 5.98492 11.3319 6.43144 11.8943 7.32449L12.1385 6.18877H13.4704L12.3901 11.0811C12.3654 11.2025 12.3457 11.2947 12.3309 11.3578C12.321 11.416 12.3062 11.4937 12.2865 11.5907C12.2174 11.8771 12.1829 12.0858 12.1829 12.2168C12.1829 12.3382 12.2347 12.4474 12.3383 12.5445C12.4419 12.6415 12.5603 12.6901 12.6934 12.6901C12.8562 12.6901 13.0733 12.6173 13.3446 12.4717C13.6209 12.3212 13.8798 12.1416 14.1216 11.9329C14.3534 11.7194 14.5557 11.4888 14.7283 11.2413C14.901 10.9938 15.044 10.7317 15.1575 10.455C15.2759 10.1784 15.3696 9.88958 15.4387 9.58866C15.5078 9.28289 15.5423 8.96984 15.5423 8.64951C15.5423 7.79043 15.3129 7.00901 14.8541 6.30525C14.3953 5.60149 13.759 5.05062 12.945 4.65263C12.136 4.25464 11.2357 4.05564 10.2442 4.05564C9.37104 4.05564 8.55708 4.21096 7.80233 4.52158C7.0525 4.82735 6.39887 5.26417 5.84144 5.83203C5.284 6.3999 4.85236 7.06968 4.54651 7.84139C4.24066 8.6131 4.08774 9.44548 4.08774 10.3385C4.08774 11.5082 4.33932 12.5129 4.84249 13.3526C5.3506 14.1922 6.08316 14.8305 7.04017 15.2673C7.99718 15.709 9.14905 15.9298 10.4958 15.9298C11.2703 15.9298 11.9683 15.8497 12.5899 15.6895C13.2114 15.5294 13.8034 15.2746 14.3658 14.9251C14.7012 14.7164 14.9503 14.5393 15.1131 14.3937C15.2759 14.248 15.4609 14.0296 15.6681 13.7384ZM7.18076 10.7098C7.18076 11.1078 7.24982 11.4694 7.38795 11.7946C7.52607 12.1149 7.71353 12.3649 7.95032 12.5445C8.19204 12.724 8.46582 12.8138 8.77167 12.8138C9.10218 12.8138 9.42777 12.7143 9.74841 12.5153C10.074 12.3115 10.3675 12.0373 10.629 11.6927C10.8904 11.3432 11.0951 10.9501 11.2431 10.5133C11.3961 10.0764 11.4725 9.62992 11.4725 9.17369C11.4725 8.74658 11.401 8.37285 11.2579 8.05252C11.1149 7.73219 10.9126 7.48709 10.6512 7.31721C10.3897 7.14249 10.0814 7.05512 9.72622 7.05512C9.4105 7.05512 9.09725 7.15705 8.78647 7.36089C8.48062 7.55989 8.2093 7.82926 7.97252 8.16901C7.73573 8.50875 7.54334 8.90674 7.39535 9.36297C7.25229 9.81435 7.18076 10.2633 7.18076 10.7098Z" fill="#2BCB84"/>
</svg>
