<svg width="20" height="20" viewBox="0 0 20 20" fill="none" xmlns="http://www.w3.org/2000/svg">
<path d="M10 17.5C14.1421 17.5 17.5 14.1421 17.5 10C17.5 5.85786 14.1421 2.5 10 2.5C5.85786 2.5 2.5 5.85786 2.5 10C2.5 14.1421 5.85786 17.5 10 17.5Z" stroke="#2BCB84" stroke-width="1.5" stroke-linecap="round" stroke-linejoin="round"/>
<path d="M13.2485 11.875C12.9191 12.4449 12.4455 12.918 11.8753 13.247C11.3052 13.5759 10.6585 13.7491 10.0003 13.7491C9.34201 13.7491 8.69535 13.5759 8.12519 13.247C7.55502 12.9181 7.08143 12.4449 6.75195 11.8751" stroke="#2BCB84" stroke-width="1.5" stroke-linecap="round" stroke-linejoin="round"/>
<path d="M7.1875 9.375C7.70527 9.375 8.125 8.95527 8.125 8.4375C8.125 7.91973 7.70527 7.5 7.1875 7.5C6.66973 7.5 6.25 7.91973 6.25 8.4375C6.25 8.95527 6.66973 9.375 7.1875 9.375Z" fill="#2BCB84"/>
<path d="M12.8125 9.375C13.3303 9.375 13.75 8.95527 13.75 8.4375C13.75 7.91973 13.3303 7.5 12.8125 7.5C12.2947 7.5 11.875 7.91973 11.875 8.4375C11.875 8.95527 12.2947 9.375 12.8125 9.375Z" fill="#2BCB84"/>
</svg>
