<svg xmlns="http://www.w3.org/2000/svg" width="11.5" height="11.5" viewBox="0 0 11.5 11.5">
  <g id="CheckSquare" transform="translate(-2.25 -2.25)">
    <path id="Path_1" data-name="Path 1" d="M2.75,8.955V3.25a.5.5,0,0,1,.5-.5h9.5a.5.5,0,0,1,.5.5v9.5a.5.5,0,0,1-.5.5H8.477" fill="none" stroke="#43d795" stroke-linecap="round" stroke-linejoin="round" stroke-width="1"/>
    <path id="Path_3" data-name="Path 3" d="M2.75,8.955V3.25a.5.5,0,0,1,.5-.5h9.5a.5.5,0,0,1,.5.5v9.5a.5.5,0,0,1-.5.5H8.477" transform="translate(16 16) rotate(180)" fill="none" stroke="#43d795" stroke-linecap="round" stroke-linejoin="round" stroke-width="1"/>
  </g>
</svg>
