<svg xmlns="http://www.w3.org/2000/svg" width="18" height="17.999" viewBox="0 0 18 17.999">
  <g id="cancel" transform="translate(0 -0.016)">
    <g id="Group_737" data-name="Group 737" transform="translate(0 0.016)">
      <path id="Path_3697" data-name="Path 3697" d="M10.982,9.015l6.73-6.73a.986.986,0,0,0,0-1.392L17.123.3A.987.987,0,0,0,15.73.3L9,7.033,2.27.3A.986.986,0,0,0,.878.3l-.59.59a.985.985,0,0,0,0,1.392l6.73,6.73-6.73,6.73a.987.987,0,0,0,0,1.392l.59.59a.986.986,0,0,0,1.392,0L9,11l6.73,6.73a.977.977,0,0,0,.7.287h0a.977.977,0,0,0,.7-.287l.59-.59a.987.987,0,0,0,0-1.392Z" transform="translate(0 -0.016)"/>
    </g>
  </g>
</svg>
