<svg width="13" height="12" viewBox="0 0 13 12" fill="none" xmlns="http://www.w3.org/2000/svg">
<path d="M3.73598 3.86054C3.85162 4.28376 4.10318 4.65724 4.45192 4.92346C4.80066 5.18968 5.22724 5.33389 5.66598 5.33387H8.33265C9.118 5.33393 9.87812 5.61122 10.479 6.11688C11.0799 6.62253 11.483 7.32408 11.6173 8.09787C12.0698 8.24549 12.4548 8.54957 12.7032 8.95553C12.9517 9.36148 13.0473 9.8427 12.9728 10.3128C12.8984 10.7829 12.6588 11.211 12.2971 11.5203C11.9354 11.8297 11.4753 11.9999 10.9993 12.0005C10.5337 12.0009 10.0825 11.8388 9.72358 11.5421C9.36466 11.2455 9.12051 10.8329 9.03322 10.3755C8.94593 9.91807 9.02097 9.44456 9.2454 9.03657C9.46984 8.62858 9.8296 8.31169 10.2626 8.14054C10.147 7.71731 9.89544 7.34383 9.54671 7.07761C9.19797 6.81139 8.77139 6.66718 8.33265 6.6672H5.66598C4.94457 6.66827 4.24247 6.43423 3.66598 6.00054V8.11387C4.11097 8.27114 4.48604 8.58067 4.72489 8.98774C4.96373 9.39481 5.05097 9.87322 4.97119 10.3384C4.8914 10.8036 4.64973 11.2256 4.28889 11.5298C3.92805 11.834 3.47128 12.0009 2.99931 12.0009C2.52734 12.0009 2.07057 11.834 1.70973 11.5298C1.34889 11.2256 1.10722 10.8036 1.02744 10.3384C0.947655 9.87322 1.0349 9.39481 1.27374 8.98774C1.51258 8.58067 1.88765 8.27114 2.33265 8.11387V3.8872C1.89063 3.73114 1.51745 3.42483 1.27821 3.02171C1.03898 2.6186 0.948894 2.14428 1.02367 1.68153C1.09844 1.21877 1.33333 0.796965 1.68735 0.489711C2.04137 0.182458 2.49203 0.00926728 2.96071 0.000361388C3.42938 -0.0085445 3.8863 0.1474 4.25173 0.440982C4.61717 0.734564 4.86791 1.14714 4.96022 1.60672C5.05252 2.0663 4.98051 2.5437 4.75677 2.95561C4.53302 3.36753 4.17175 3.68779 3.73598 3.86054ZM2.99931 2.6672C3.17612 2.6672 3.34569 2.59696 3.47072 2.47194C3.59574 2.34692 3.66598 2.17735 3.66598 2.00054C3.66598 1.82372 3.59574 1.65416 3.47072 1.52913C3.34569 1.40411 3.17612 1.33387 2.99931 1.33387C2.8225 1.33387 2.65293 1.40411 2.52791 1.52913C2.40288 1.65416 2.33265 1.82372 2.33265 2.00054C2.33265 2.17735 2.40288 2.34692 2.52791 2.47194C2.65293 2.59696 2.8225 2.6672 2.99931 2.6672ZM2.99931 10.6672C3.17612 10.6672 3.34569 10.597 3.47072 10.4719C3.59574 10.3469 3.66598 10.1773 3.66598 10.0005C3.66598 9.82373 3.59574 9.65416 3.47072 9.52913C3.34569 9.40411 3.17612 9.33387 2.99931 9.33387C2.8225 9.33387 2.65293 9.40411 2.52791 9.52913C2.40288 9.65416 2.33265 9.82373 2.33265 10.0005C2.33265 10.1773 2.40288 10.3469 2.52791 10.4719C2.65293 10.597 2.8225 10.6672 2.99931 10.6672ZM10.9993 10.6672C11.1761 10.6672 11.3457 10.597 11.4707 10.4719C11.5957 10.3469 11.666 10.1773 11.666 10.0005C11.666 9.82373 11.5957 9.65416 11.4707 9.52913C11.3457 9.40411 11.1761 9.33387 10.9993 9.33387C10.8225 9.33387 10.6529 9.40411 10.5279 9.52913C10.4029 9.65416 10.3326 9.82373 10.3326 10.0005C10.3326 10.1773 10.4029 10.3469 10.5279 10.4719C10.6529 10.597 10.8225 10.6672 10.9993 10.6672Z" fill="#ACB0B9"/>
</svg>
