<svg width="129" height="35" viewBox="0 0 129 35" fill="none" xmlns="http://www.w3.org/2000/svg">
<rect y="0.5" width="129" height="34" rx="17" fill="#D6FFE7"/>
<path d="M16.68 9.884C18.0133 9.884 19.0853 10.2627 19.896 11.02C20.7067 11.7773 21.144 12.7587 21.208 13.964H19.688C19.6133 13.1213 19.304 12.4547 18.76 11.964C18.2267 11.4733 17.5333 11.228 16.68 11.228C15.6027 11.228 14.7547 11.6387 14.136 12.46C13.528 13.2707 13.224 14.3853 13.224 15.804C13.224 17.2227 13.528 18.3427 14.136 19.164C14.744 19.9747 15.576 20.38 16.632 20.38C17.4747 20.38 18.1733 20.1293 18.728 19.628C19.2827 19.1267 19.6187 18.444 19.736 17.58H21.272C21.1547 18.86 20.6853 19.8733 19.864 20.62C19.0427 21.356 17.9653 21.724 16.632 21.724C15.1067 21.724 13.9013 21.196 13.016 20.14C12.1307 19.084 11.688 17.6387 11.688 15.804C11.688 13.9693 12.1307 12.524 13.016 11.468C13.912 10.412 15.1333 9.884 16.68 9.884ZM23.7113 14.3C24.4046 13.532 25.3486 13.148 26.5433 13.148C27.7379 13.148 28.6819 13.532 29.3753 14.3C30.0686 15.068 30.4153 16.1133 30.4153 17.436C30.4153 18.7587 30.0686 19.804 29.3753 20.572C28.6819 21.34 27.7379 21.724 26.5433 21.724C25.3486 21.724 24.4046 21.34 23.7113 20.572C23.0286 19.804 22.6873 18.7587 22.6873 17.436C22.6873 16.1133 23.0286 15.068 23.7113 14.3ZM26.5433 14.3C25.8073 14.3 25.2259 14.5827 24.7993 15.148C24.3726 15.7027 24.1593 16.4653 24.1593 17.436C24.1593 18.4067 24.3726 19.1747 24.7993 19.74C25.2259 20.2947 25.8073 20.572 26.5433 20.572C27.2899 20.572 27.8766 20.2947 28.3033 19.74C28.7299 19.1747 28.9433 18.4067 28.9433 17.436C28.9433 16.4653 28.7299 15.7027 28.3033 15.148C27.8766 14.5827 27.2899 14.3 26.5433 14.3ZM40.9821 13.196C41.8568 13.196 42.5288 13.4733 42.9981 14.028C43.4781 14.5827 43.7181 15.3987 43.7181 16.476V21.5H42.3101V16.588C42.3101 15.0947 41.7555 14.348 40.6461 14.348C40.0595 14.348 39.5901 14.5773 39.2381 15.036C38.8968 15.4947 38.7261 16.1133 38.7261 16.892V21.5H37.3181V16.38C37.3181 15.74 37.1741 15.244 36.8861 14.892C36.5981 14.5293 36.1928 14.348 35.6701 14.348C35.0728 14.348 34.5981 14.5827 34.2461 15.052C33.9048 15.5213 33.7341 16.1667 33.7341 16.988V21.5H32.3261V13.372H33.6861V14.38H33.7181C34.2941 13.5907 35.0515 13.196 35.9901 13.196C37.1635 13.196 37.9688 13.708 38.4061 14.732C38.9821 13.708 39.8408 13.196 40.9821 13.196ZM50.0426 13.164C51.0773 13.164 51.904 13.548 52.5226 14.316C53.1413 15.084 53.4506 16.1187 53.4506 17.42C53.4506 18.7213 53.1413 19.7613 52.5226 20.54C51.9146 21.308 51.0933 21.692 50.0586 21.692C49.5146 21.692 49.0186 21.5747 48.5706 21.34C48.1333 21.0947 47.8026 20.764 47.5786 20.348H47.5466V24.46H46.1386V13.372H47.5306V14.54H47.5626C47.776 14.1133 48.1066 13.7773 48.5546 13.532C49.0026 13.2867 49.4986 13.164 50.0426 13.164ZM49.6906 14.3C49.0186 14.3 48.48 14.5827 48.0746 15.148C47.68 15.7027 47.4826 16.46 47.4826 17.42C47.4826 18.38 47.68 19.1427 48.0746 19.708C48.48 20.2733 49.0186 20.556 49.6906 20.556C50.384 20.556 50.9386 20.2733 51.3546 19.708C51.7706 19.132 51.9786 18.3693 51.9786 17.42C51.9786 16.4707 51.7706 15.7133 51.3546 15.148C50.9386 14.5827 50.384 14.3 49.6906 14.3ZM56.7654 10.108V21.5H55.3574V10.108H56.7654ZM62.4956 20.636C63.0716 20.636 63.5463 20.492 63.9196 20.204C64.3036 19.916 64.5436 19.5373 64.6396 19.068H66.0796C65.9303 19.8253 65.541 20.46 64.9116 20.972C64.293 21.4733 63.4876 21.724 62.4956 21.724C61.3116 21.724 60.3783 21.3293 59.6956 20.54C59.013 19.74 58.6716 18.668 58.6716 17.324C58.6716 16.0973 59.0076 15.0947 59.6796 14.316C60.3623 13.5373 61.285 13.148 62.4476 13.148C63.3543 13.148 64.117 13.3987 64.7356 13.9C65.365 14.4013 65.7863 15.0947 65.9996 15.98C66.1063 16.4173 66.1596 16.9987 66.1596 17.724H60.0796C60.1116 18.684 60.3463 19.4093 60.7836 19.9C61.2316 20.3907 61.8023 20.636 62.4956 20.636ZM62.4476 14.236C61.7863 14.236 61.2476 14.4493 60.8316 14.876C60.4156 15.292 60.1703 15.884 60.0956 16.652H64.7676C64.693 15.8733 64.4476 15.276 64.0316 14.86C63.6156 14.444 63.0876 14.236 62.4476 14.236ZM70.8307 20.396C71.0548 20.396 71.2468 20.3693 71.4068 20.316V21.468C71.1614 21.532 70.8628 21.564 70.5108 21.564C69.7321 21.564 69.1668 21.3827 68.8148 21.02C68.4734 20.6573 68.3028 20.06 68.3028 19.228V14.492H66.8948V13.372H68.3028V11.404H69.7108V13.372H71.3268V14.492H69.7108V19.084C69.7108 19.5533 69.7961 19.8893 69.9668 20.092C70.1374 20.2947 70.4254 20.396 70.8307 20.396ZM76.0738 20.636C76.6498 20.636 77.1244 20.492 77.4978 20.204C77.8818 19.916 78.1218 19.5373 78.2178 19.068H79.6578C79.5084 19.8253 79.1191 20.46 78.4898 20.972C77.8711 21.4733 77.0658 21.724 76.0738 21.724C74.8898 21.724 73.9564 21.3293 73.2738 20.54C72.5911 19.74 72.2498 18.668 72.2498 17.324C72.2498 16.0973 72.5858 15.0947 73.2578 14.316C73.9404 13.5373 74.8631 13.148 76.0258 13.148C76.9324 13.148 77.6951 13.3987 78.3138 13.9C78.9431 14.4013 79.3644 15.0947 79.5778 15.98C79.6844 16.4173 79.7378 16.9987 79.7378 17.724H73.6578C73.6898 18.684 73.9244 19.4093 74.3618 19.9C74.8098 20.3907 75.3804 20.636 76.0738 20.636ZM76.0258 14.236C75.3644 14.236 74.8258 14.4493 74.4098 14.876C73.9938 15.292 73.7484 15.884 73.6738 16.652H78.3458C78.2711 15.8733 78.0258 15.276 77.6098 14.86C77.1938 14.444 76.6658 14.236 76.0258 14.236ZM88.5149 10.108V21.5H87.1389V20.316H87.1069C86.8829 20.7427 86.5469 21.0787 86.0989 21.324C85.6615 21.5693 85.1655 21.692 84.6109 21.692C83.5762 21.692 82.7495 21.308 82.1309 20.54C81.5122 19.7613 81.2029 18.7213 81.2029 17.42C81.2029 16.1293 81.5069 15.1 82.1149 14.332C82.7335 13.5533 83.5602 13.164 84.5949 13.164C85.1389 13.164 85.6295 13.2867 86.0669 13.532C86.5149 13.7667 86.8509 14.0867 87.0749 14.492H87.1069V10.108H88.5149ZM84.9629 14.3C84.2695 14.3 83.7149 14.5827 83.2989 15.148C82.8829 15.7133 82.6749 16.4707 82.6749 17.42C82.6749 18.3693 82.8829 19.132 83.2989 19.708C83.7149 20.2733 84.2695 20.556 84.9629 20.556C85.6349 20.556 86.1735 20.2733 86.5789 19.708C86.9842 19.1427 87.1869 18.38 87.1869 17.42C87.1869 16.46 86.9842 15.7027 86.5789 15.148C86.1735 14.5827 85.6349 14.3 84.9629 14.3Z" fill="#1F915E"/>
<path d="M111.438 15.625L106.854 20L104.562 17.8125" stroke="#1F915E" stroke-width="1.5" stroke-linecap="round" stroke-linejoin="round"/>
<path d="M108 25C112.142 25 115.5 21.6421 115.5 17.5C115.5 13.3579 112.142 10 108 10C103.858 10 100.5 13.3579 100.5 17.5C100.5 21.6421 103.858 25 108 25Z" stroke="#1F915E" stroke-width="1.5" stroke-linecap="round" stroke-linejoin="round"/>
</svg>
