<svg width="23" height="24" viewBox="0 0 23 24" fill="none" xmlns="http://www.w3.org/2000/svg">
<path d="M11.5 12C15.8665 12 19.4062 10.0692 19.4062 7.6875C19.4062 5.30577 15.8665 3.375 11.5 3.375C7.1335 3.375 3.59375 5.30577 3.59375 7.6875C3.59375 10.0692 7.1335 12 11.5 12Z" stroke="#25AE71" stroke-width="1.5" stroke-linecap="round" stroke-linejoin="round"/>
<path d="M3.59375 7.6875V12C3.59375 14.3817 7.1335 16.3125 11.5 16.3125C15.8665 16.3125 19.4062 14.3817 19.4062 12V7.6875" stroke="#25AE71" stroke-width="1.5" stroke-linecap="round" stroke-linejoin="round"/>
<path d="M3.59375 12V16.3125C3.59375 18.6942 7.1335 20.625 11.5 20.625C15.8665 20.625 19.4062 18.6942 19.4062 16.3125V12" stroke="#25AE71" stroke-width="1.5" stroke-linecap="round" stroke-linejoin="round"/>
</svg>
