<svg xmlns="http://www.w3.org/2000/svg" width="132" height="185" viewBox="0 0 132 185">
  <g id="Group_11966" data-name="Group 11966" transform="translate(-807 -107)">
    <rect id="Rectangle_135" data-name="Rectangle 135" width="132" height="185" transform="translate(807 107)" fill="#fff"/>
    <path id="icons8-document" d="M15,9V99H87.581V30.173L66.408,9Zm2.9,2.9H64.355V32.226H84.677V96.1H17.9Zm49.355,2.053L82.625,29.323H67.258Zm-42.1.851a1.452,1.452,0,1,0,1.452,1.452A1.454,1.454,0,0,0,25.161,14.806Zm0,5.806a1.452,1.452,0,1,0,1.452,1.452A1.454,1.454,0,0,0,25.161,20.613Zm0,5.806a1.452,1.452,0,1,0,1.452,1.452A1.454,1.454,0,0,0,25.161,26.419Zm0,5.806a1.452,1.452,0,1,0,1.452,1.452A1.454,1.454,0,0,0,25.161,32.226Zm0,5.806a1.452,1.452,0,1,0,1.452,1.452A1.454,1.454,0,0,0,25.161,38.032Zm0,5.806a1.452,1.452,0,1,0,1.452,1.452A1.454,1.454,0,0,0,25.161,43.839Zm8.71,1.452v2.9H73.065v-2.9Zm-8.71,4.355A1.452,1.452,0,1,0,26.613,51.1,1.454,1.454,0,0,0,25.161,49.645ZM33.871,54v2.9H67.258V54Zm-8.71,1.452A1.452,1.452,0,1,0,26.613,56.9,1.454,1.454,0,0,0,25.161,55.452Zm0,5.806a1.452,1.452,0,1,0,1.452,1.452A1.454,1.454,0,0,0,25.161,61.258Zm8.71,1.452v2.9H73.065v-2.9Zm-8.71,4.355a1.452,1.452,0,1,0,1.452,1.452A1.454,1.454,0,0,0,25.161,67.065Zm8.71,4.355v2.9H67.258v-2.9Zm-8.71,1.452a1.452,1.452,0,1,0,1.452,1.452A1.454,1.454,0,0,0,25.161,72.871Zm0,5.806a1.452,1.452,0,1,0,1.452,1.452A1.454,1.454,0,0,0,25.161,78.677Zm0,5.806a1.452,1.452,0,1,0,1.452,1.452A1.454,1.454,0,0,0,25.161,84.484Zm0,5.806a1.452,1.452,0,1,0,1.452,1.452A1.454,1.454,0,0,0,25.161,90.29Z" transform="translate(822 146)"/>
  </g>
</svg>
