<svg width="72" height="72" viewBox="0 0 72 72" fill="none" xmlns="http://www.w3.org/2000/svg">
<circle cx="36" cy="36" r="35.5" fill="#FAFAFA" stroke="#ECEDEF"/>
<path d="M19.5 49.75V25C19.5 24.6353 19.6449 24.2856 19.9027 24.0277C20.1606 23.7699 20.5103 23.625 20.875 23.625H30.0417C30.3392 23.625 30.6287 23.7215 30.8667 23.9L35.6333 27.475C35.8713 27.6535 36.1608 27.75 36.4583 27.75H48.375C48.7397 27.75 49.0894 27.8949 49.3473 28.1527C49.6051 28.4106 49.75 28.7603 49.75 29.125V33.25" stroke="#3F8EF7" stroke-width="2" stroke-linecap="round" stroke-linejoin="round"/>
<path d="M19.5 49.75L24.6866 34.1902C24.7779 33.9164 24.953 33.6783 25.1871 33.5095C25.4212 33.3408 25.7025 33.25 25.991 33.25H53.3423C53.5602 33.25 53.7749 33.3018 53.9688 33.4011C54.1628 33.5003 54.3304 33.6443 54.4577 33.821C54.5851 33.9978 54.6687 34.2023 54.7016 34.4176C54.7344 34.633 54.7156 34.8531 54.6467 35.0598L49.75 49.75H19.5Z" stroke="#3F8EF7" stroke-width="2" stroke-linecap="round" stroke-linejoin="round"/>
</svg>
