<svg width="20" height="20" viewBox="0 0 20 20" fill="none" xmlns="http://www.w3.org/2000/svg">
<path d="M3.75 3.125L16.25 16.875" stroke="#CCCED4" stroke-width="1.5" stroke-linecap="round" stroke-linejoin="round"/>
<path d="M12.1019 12.3122C11.4887 12.8696 10.6791 13.1606 9.85124 13.1211C9.02342 13.0817 8.24518 12.715 7.6877 12.1018C7.13021 11.4885 6.83915 10.679 6.87853 9.85114C6.91792 9.02332 7.28452 8.24504 7.8977 7.6875" stroke="#CCCED4" stroke-width="1.5" stroke-linecap="round" stroke-linejoin="round"/>
<path d="M5.78082 5.35938C2.59572 6.97231 1.25 10.0005 1.25 10.0005C1.25 10.0005 3.75 15.6249 10 15.6249C11.4644 15.6366 12.9105 15.2993 14.2186 14.6409" stroke="#CCCED4" stroke-width="1.5" stroke-linecap="round" stroke-linejoin="round"/>
<path d="M16.2972 13.2115C18.0005 11.686 18.7496 10.0006 18.7496 10.0006C18.7496 10.0006 16.2496 4.37501 9.99959 4.37501C9.45828 4.37413 8.91782 4.41814 8.38379 4.50659" stroke="#CCCED4" stroke-width="1.5" stroke-linecap="round" stroke-linejoin="round"/>
<path d="M10.5879 6.92969C11.2521 7.05723 11.857 7.39668 12.312 7.89714C12.7669 8.39759 13.0473 9.03206 13.1112 9.70537" stroke="#CCCED4" stroke-width="1.5" stroke-linecap="round" stroke-linejoin="round"/>
</svg>
