<svg width="603" height="402" viewBox="0 0 603 402" fill="none" xmlns="http://www.w3.org/2000/svg">
<path d="M159.997 154.609C159.997 154.609 155.494 150.927 148.435 161.845C141.376 172.764 138.457 179.22 138.457 179.22C138.457 179.22 136.656 181.479 135.161 179.726C133.666 177.973 131.84 173.254 128.938 173.777C126.036 174.299 124.621 177.483 124.693 182.339C124.765 187.195 124.508 197.856 124.484 198.813C124.46 199.77 123.784 201.088 122.57 200.059C121.356 199.03 114.707 189.905 110.567 193.322C106.426 196.739 108.838 210.206 109.071 211.725C109.304 213.245 108.967 213.792 108.267 214.081C107.568 214.371 105.598 211.09 103.604 208.574C101.61 206.057 98.8443 203.484 96.6253 205.655C94.4063 207.826 92.7581 217.603 100.493 234.559L104.593 242.181L113.268 242.583C131.905 242.318 140.041 236.649 141.054 233.739C142.067 230.828 138.562 229.413 135.426 228.682C132.291 227.95 128.504 227.604 128.456 226.824C128.407 226.045 128.785 225.49 130.224 225.064C131.664 224.638 144.905 221.044 146.216 215.842C147.527 210.64 136.439 208.533 134.96 207.882C133.481 207.231 134.421 206.041 135.266 205.615C136.11 205.189 145.645 200.397 150.067 198.379C154.489 196.361 156.797 193.828 155.993 190.878C155.189 187.927 150.18 188.401 147.953 187.798C145.726 187.195 146.996 184.582 146.996 184.582C146.996 184.582 151.563 179.196 158.429 168.132C165.295 157.069 159.892 154.537 159.892 154.537" fill="#EBEBEB"/>
<path d="M103.057 243.612C108.13 235.508 117.384 221.245 125.271 208.968C133.158 196.691 140.282 185.563 145.371 177.483L151.417 167.907L153.025 165.302L153.459 164.627C153.556 164.474 153.612 164.402 153.612 164.402L153.483 164.643C153.379 164.804 153.242 165.037 153.073 165.326L151.465 167.956C150.075 170.239 148.032 173.527 145.492 177.604C140.419 185.716 133.319 196.851 125.432 209.136C117.545 221.422 108.267 235.668 103.153 243.708" fill="#E0E0E0"/>
<path d="M131.237 180.49C131.309 180.688 131.36 180.892 131.39 181.101C131.479 181.495 131.583 182.066 131.712 182.773C131.961 184.188 132.25 186.15 132.516 188.329C132.781 190.508 133.038 192.413 133.223 193.892C133.312 194.56 133.392 195.123 133.448 195.581C133.49 195.785 133.511 195.992 133.513 196.2C133.428 196.008 133.371 195.805 133.344 195.597C133.263 195.203 133.159 194.632 133.038 193.925C132.805 192.502 132.532 190.532 132.234 188.361C131.937 186.19 131.68 184.285 131.487 182.797L131.245 181.117C131.215 180.909 131.213 180.698 131.237 180.49Z" fill="#E0E0E0"/>
<path d="M134.309 196.434C134.309 196.361 138.329 195.581 143.297 194.681C148.266 193.78 152.318 193.121 152.326 193.193C152.334 193.266 148.306 194.054 143.346 194.946C138.385 195.839 134.325 196.506 134.309 196.434Z" fill="#E0E0E0"/>
<path d="M121.348 214.748C121.561 214.725 121.777 214.725 121.991 214.748L123.711 214.933C125.175 215.086 127.185 215.287 129.42 215.432C131.655 215.576 133.673 215.641 135.136 215.673H136.873C137.086 215.658 137.3 215.675 137.508 215.721C137.298 215.758 137.086 215.777 136.873 215.777C136.463 215.777 135.868 215.777 135.136 215.777C133.665 215.777 131.639 215.777 129.396 215.617C127.153 215.456 125.143 215.247 123.687 215.046C122.964 214.941 122.377 214.853 121.975 214.772C121.765 214.783 121.556 214.775 121.348 214.748Z" fill="#E0E0E0"/>
<path d="M115.398 200.936C115.509 201.1 115.603 201.275 115.68 201.458L116.379 202.905C116.95 204.127 117.73 205.832 118.574 207.729C119.418 209.627 120.182 211.339 120.697 212.553L121.308 214.033C121.396 214.211 121.461 214.4 121.501 214.596C121.383 214.434 121.286 214.258 121.211 214.073L120.52 212.626C119.949 211.404 119.169 209.699 118.325 207.802C117.481 205.904 116.717 204.2 116.202 202.978C115.961 202.399 115.752 201.9 115.591 201.498C115.503 201.32 115.438 201.131 115.398 200.936Z" fill="#E0E0E0"/>
<path d="M101.899 215.657C102.041 215.865 102.162 216.085 102.261 216.316L103.162 218.173C103.901 219.741 104.914 221.912 106.024 224.324C107.133 226.736 108.106 228.923 108.814 230.515C109.143 231.27 109.417 231.906 109.618 232.404C109.732 232.63 109.823 232.867 109.891 233.112C109.75 232.901 109.629 232.678 109.529 232.444L108.629 230.595C107.889 228.987 106.876 226.848 105.767 224.436C104.657 222.024 103.676 219.838 102.977 218.246L102.173 216.364C102.062 216.137 101.97 215.9 101.899 215.657Z" fill="#E0E0E0"/>
<path d="M109.818 232.637C110.086 232.616 110.355 232.616 110.622 232.637L112.817 232.79C114.675 232.919 117.239 233.079 120.053 233.184C122.867 233.288 125.456 233.321 127.289 233.329H129.492C129.76 233.305 130.029 233.305 130.296 233.329C130.03 233.372 129.762 233.396 129.492 233.401C128.978 233.401 128.222 233.457 127.289 233.473C125.432 233.473 122.859 233.473 120.053 233.409C117.247 233.345 114.65 233.104 112.817 232.935L110.63 232.693C110.359 232.696 110.087 232.678 109.818 232.637Z" fill="#E0E0E0"/>
<path d="M89.1719 185.274C89.2118 186.599 89.1364 187.925 88.9468 189.238C88.4566 192.987 87.2297 196.602 85.3368 199.875L85.2564 199.73H85.4253L85.3449 199.875L62.8329 239.809L62.6962 240.058L62.5354 239.817L38.737 201.844L37.5631 199.971L37.3782 199.682H37.7239L37.5631 199.971C35.7601 196.876 34.5444 193.474 33.9773 189.937C33.6892 188.213 33.568 186.466 33.6155 184.719L33.7602 182.138C33.8889 181.286 34.0175 180.442 34.1381 179.598C35.4154 173.122 38.8402 167.267 43.8585 162.979C46.2018 161.037 48.8435 159.487 51.6814 158.388L52.7185 158.002L53.2331 157.809L53.7637 157.665L55.8622 157.118C57.2477 156.852 58.65 156.682 60.0591 156.611C61.4178 156.539 62.78 156.563 64.1353 156.684C64.8027 156.74 65.4539 156.885 66.1051 156.973L67.0699 157.134C67.3835 157.198 67.6971 157.295 68.0106 157.375L69.8518 157.874L71.5965 158.541C71.8859 158.653 72.1753 158.75 72.4567 158.871L73.2607 159.281L74.8687 160.085C78.541 162.216 81.6979 165.132 84.1147 168.623C85.9138 171.259 87.2716 174.17 88.1347 177.242C88.4475 178.361 88.6839 179.5 88.8423 180.651C88.993 181.488 89.0843 182.334 89.1156 183.184C89.1156 183.859 89.1156 184.381 89.1719 184.751C89.2282 185.121 89.1719 185.282 89.1719 185.282C89.1719 185.282 89.1719 185.097 89.1719 184.751C89.1719 184.406 89.1237 183.867 89.0835 183.192C89.0353 182.344 88.9332 181.501 88.7779 180.667C88.604 179.524 88.357 178.393 88.0383 177.282C87.164 174.239 85.8067 171.356 84.0183 168.744C81.5919 165.288 78.4354 162.409 74.7723 160.31L73.1643 159.506L72.3603 159.112C72.0869 158.983 71.7975 158.895 71.508 158.782L69.7794 158.123L67.9543 157.64C67.6488 157.56 67.3433 157.464 67.0297 157.399L66.073 157.246C65.4298 157.158 64.7866 157.021 64.1273 156.965C62.7904 156.85 61.4469 156.832 60.1073 156.909C58.7142 156.98 57.3279 157.149 55.9587 157.415L53.8843 157.962L53.3617 158.107L52.8552 158.292L51.8341 158.678C49.0196 159.759 46.3993 161.291 44.0755 163.212C39.1159 167.46 35.7384 173.26 34.4919 179.67C34.3713 180.474 34.2426 181.334 34.122 182.17C34.0014 183.007 34.0255 183.867 33.9853 184.727C33.9395 186.452 34.0579 188.178 34.3391 189.881C34.9023 193.369 36.1014 196.723 37.8767 199.778L38.0455 200.068H37.7159L37.8767 199.778C38.2465 200.373 38.6807 201.008 39.0425 201.651L62.8248 239.648H62.5273C71.9985 222.99 79.9018 209.096 85.176 199.786L85.2645 199.931H85.0876L85.168 199.786C87.0641 196.537 88.3144 192.953 88.8503 189.23C89.0352 187.951 89.0835 186.954 89.1317 186.295C89.1317 185.965 89.1317 185.716 89.1317 185.539C89.1317 185.362 89.1719 185.274 89.1719 185.274Z" fill="#E0E0E0"/>
<path d="M79.0735 184.92C79.0653 184.826 79.0653 184.732 79.0735 184.638C79.0735 184.429 79.0735 184.156 79.0092 183.834C79.0092 183.65 79.0092 183.449 79.0092 183.223C79.0092 182.998 78.9368 182.749 78.8966 182.484C78.8142 181.873 78.6907 181.269 78.5268 180.675C78.1143 179.035 77.4585 177.465 76.5811 176.02C74.51 172.537 71.2902 169.884 67.4751 168.518C63.6601 167.152 59.4883 167.158 55.6771 168.534C54.897 168.812 54.1368 169.142 53.4018 169.523C52.659 169.93 51.9445 170.387 51.2631 170.89C50.5689 171.408 49.9083 171.969 49.2853 172.57C48.67 173.201 48.0978 173.873 47.5728 174.58C46.4876 176.045 45.6435 177.673 45.0723 179.404C43.8772 182.97 43.8772 186.829 45.0723 190.395C45.6274 192.128 46.4641 193.758 47.5487 195.219C48.0681 195.932 48.6348 196.609 49.2451 197.245C49.867 197.847 50.5248 198.411 51.2149 198.934C51.8961 199.439 52.6106 199.899 53.3535 200.308C54.0395 200.671 54.7485 200.988 55.4761 201.257C59.2849 202.649 63.4589 202.674 67.2839 201.327C71.109 199.981 74.3472 197.347 76.4444 193.876C77.3361 192.438 78.0005 190.87 78.4142 189.229C78.5843 188.636 78.7106 188.032 78.7921 187.42C78.7921 187.155 78.8805 186.914 78.9127 186.689V186.07C78.9127 185.724 78.9609 185.442 78.977 185.266C78.9683 185.169 78.9683 185.072 78.977 184.976C78.9877 185.072 78.9877 185.169 78.977 185.266C78.977 185.475 78.977 185.748 78.977 186.07V186.689C78.977 186.914 78.9127 187.163 78.8805 187.428C78.8068 188.046 78.6913 188.659 78.5348 189.261C78.137 190.924 77.4862 192.516 76.6052 193.981C74.5016 197.529 71.2239 200.231 67.3392 201.618C63.4544 203.006 59.2069 202.992 55.3314 201.579C53.7172 201.013 52.2009 200.199 50.837 199.167C50.1258 198.64 49.4515 198.065 48.819 197.446C48.2098 196.794 47.6456 196.101 47.1306 195.372C46.0253 193.884 45.1674 192.228 44.5899 190.467C44.012 188.647 43.7085 186.75 43.6895 184.839C43.7153 182.927 44.0297 181.03 44.6221 179.211C45.2053 177.455 46.0687 175.804 47.1788 174.323C47.7173 173.599 48.3028 172.912 48.9315 172.265C49.5708 171.655 50.2475 171.086 50.9576 170.56C51.6552 170.049 52.3857 169.584 53.1445 169.169C53.8987 168.795 54.6778 168.473 55.4761 168.205C59.3582 166.811 63.6051 166.819 67.4824 168.225C71.3598 169.632 74.6237 172.349 76.7097 175.907C77.5793 177.381 78.2217 178.977 78.6152 180.643C78.7709 181.242 78.8811 181.852 78.9449 182.468C78.9449 182.741 79.0253 182.982 79.0413 183.215C79.0574 183.449 79.0413 183.641 79.0413 183.826C79.0413 184.18 79.0413 184.462 79.0413 184.671C79.059 184.753 79.0697 184.836 79.0735 184.92Z" fill="#E0E0E0"/>
<path d="M61.1285 193.145L50.8936 186.013L53.386 182.444L60.2441 187.227L69.1202 175.947L72.5372 178.641L61.1285 193.145Z" fill="#E0E0E0"/>
<path fill-rule="evenodd" clip-rule="evenodd" d="M347.393 60.9995C350.384 61.3728 353.312 62.1433 356.1 63.2908L362.492 57.9362L373.474 66.2978L370.017 73.8876C371.865 76.2679 373.39 78.8821 374.552 81.6622L382.857 82.3939L384.714 96.0619L376.899 98.9804C376.532 101.989 375.759 104.935 374.6 107.736L379.963 114.168L371.601 125.159L364.011 121.693C361.633 123.544 359.018 125.069 356.237 126.228L355.505 134.533L341.837 136.391L338.918 128.576C335.922 128.186 332.99 127.396 330.203 126.228L323.771 131.583L312.789 123.221L316.254 115.631C314.402 113.254 312.876 110.639 311.719 107.857L303.414 107.125L301.557 93.4569L309.363 90.5304C309.741 87.5414 310.514 84.616 311.663 81.8311L306.324 75.4071L314.678 64.4164L322.276 67.8817C324.655 66.0324 327.269 64.5075 330.05 63.3471L330.782 55.0418L344.45 53.1846L347.369 60.9995H347.393ZM343.308 79.8613C340.252 79.9599 337.301 81.0023 334.86 82.8454C332.42 84.6885 330.61 87.2419 329.679 90.1549C328.748 93.068 328.742 96.1978 329.661 99.1146C330.58 102.031 332.38 104.592 334.813 106.445C337.245 108.298 340.192 109.352 343.249 109.463C346.305 109.574 349.32 108.736 351.881 107.065C354.442 105.393 356.422 102.969 357.551 100.127C358.679 97.2845 358.9 94.1625 358.182 91.1896C357.382 87.8798 355.466 84.9466 352.758 82.8834C350.049 80.8202 346.712 79.753 343.308 79.8613Z" fill="#F5F5F5"/>
<path fill-rule="evenodd" clip-rule="evenodd" d="M222.829 104.729C224.763 104.975 226.656 105.478 228.457 106.224L232.606 102.743L239.737 108.17L237.494 113.098C238.694 114.644 239.684 116.342 240.437 118.148L245.832 118.622L247.03 127.466L241.964 129.363C241.716 131.297 241.213 133.189 240.469 134.991L243.95 139.14L238.539 146.328L233.611 144.085C232.067 145.284 230.368 146.271 228.562 147.019L228.087 152.414L219.243 153.62L217.346 148.547C215.412 148.305 213.519 147.805 211.718 147.059L207.569 150.541L200.438 145.114L202.689 140.185C201.486 138.642 200.496 136.944 199.746 135.136L194.352 134.662L193.146 125.778L198.219 123.888C198.462 121.954 198.962 120.062 199.706 118.26L196.177 114.087L201.604 106.956L206.532 109.199C208.075 108 209.77 107.011 211.573 106.256L212.048 100.862L220.932 99.6958L222.829 104.761V104.729ZM220.16 116.974C218.166 117.031 216.238 117.704 214.643 118.902C213.048 120.099 211.863 121.762 211.251 123.661C210.64 125.56 210.632 127.602 211.229 129.505C211.826 131.409 212.999 133.08 214.585 134.29C216.171 135.5 218.094 136.188 220.087 136.26C222.081 136.331 224.048 135.784 225.717 134.691C227.387 133.599 228.676 132.016 229.409 130.161C230.141 128.305 230.281 126.268 229.808 124.33C229.284 122.185 228.041 120.285 226.285 118.946C224.529 117.607 222.367 116.911 220.16 116.974Z" fill="#EBEBEB"/>
<path d="M297.335 169.644C298.517 170.169 299.604 170.886 300.551 171.767C303.211 174.147 304.966 177.374 305.52 180.9C305.913 183.337 305.726 185.833 304.973 188.184C304.098 190.894 302.512 193.321 300.382 195.211C299.242 196.241 297.948 197.087 296.547 197.72C295.099 198.41 293.549 198.863 291.956 199.062C288.588 199.527 285.16 198.895 282.179 197.26C279.198 195.625 276.822 193.075 275.402 189.985C274.71 188.538 274.256 186.987 274.059 185.394C273.844 183.87 273.863 182.322 274.116 180.804C274.568 177.993 275.761 175.353 277.573 173.158C279.152 171.259 281.157 169.76 283.426 168.784C286.704 167.349 290.377 167.093 293.822 168.06C295.073 168.4 296.26 168.943 297.335 169.668C297.287 169.765 296.105 169.033 293.733 168.438C290.37 167.625 286.832 167.962 283.683 169.395C281.542 170.369 279.658 171.831 278.184 173.664C276.484 175.77 275.374 178.289 274.968 180.964C274.523 183.92 274.962 186.941 276.23 189.648C277.583 192.553 279.827 194.95 282.637 196.49C285.447 198.03 288.676 198.633 291.852 198.21C293.36 198.028 294.828 197.605 296.202 196.956C297.534 196.367 298.766 195.572 299.852 194.6C301.763 192.937 303.228 190.821 304.113 188.446C304.997 186.072 305.274 183.513 304.917 181.005C304.418 177.593 302.797 174.445 300.31 172.056C298.533 170.336 297.271 169.733 297.335 169.644Z" fill="#EBEBEB"/>
<path d="M313.914 157.118C313.944 156.938 313.985 156.761 314.035 156.587C314.14 156.193 314.276 155.662 314.453 154.979L316.19 148.667L316.254 148.828L303.519 141.938L303.792 141.89L298.027 148.466L297.923 148.587L297.77 148.547C294.721 147.809 291.588 147.477 288.452 147.558H288.275L288.186 147.405C286.86 144.993 285.421 142.445 283.917 139.759L284.287 139.912L270.394 143.996L270.643 143.634C270.82 146.344 271.005 149.319 271.198 152.374V152.599L271.005 152.712C268.343 154.332 265.91 156.301 263.769 158.565L263.608 158.734L263.383 158.669L254.965 156.257L255.423 156.072L248.437 168.84L248.348 168.325L254.901 174.122L255.094 174.291L255.037 174.54C254.304 177.56 253.976 180.664 254.065 183.77V184.027L253.831 184.156L246.177 188.409L246.386 187.903L250.439 201.804L249.988 201.49L258.72 200.952H258.993L259.13 201.185C260.744 203.844 262.704 206.278 264.959 208.421C265.015 208.622 264.846 207.979 265.087 208.871V208.919V208.984V209.12L265.007 209.386L264.854 209.908L264.557 210.969L263.946 213.076C263.544 214.483 263.142 215.882 262.748 217.273L262.531 216.758L275.226 223.729L274.687 223.817L280.484 217.273L280.597 217.08L280.854 217.144C283.885 217.893 287.002 218.236 290.124 218.165H290.389L290.51 218.39C291.952 220.979 293.367 223.533 294.755 226.052L294.265 225.851L308.166 221.831L307.876 222.25C307.699 219.291 307.523 216.372 307.354 213.518V213.269L307.563 213.148C310.242 211.539 312.695 209.578 314.855 207.319L315.016 207.15L315.241 207.215L323.643 209.627L323.217 209.804L330.211 197.125L330.284 197.543L323.747 191.73L323.603 191.601L323.643 191.416C324.406 188.376 324.757 185.247 324.688 182.114V181.937L324.841 181.849L332.503 177.628L332.382 177.933C330.839 172.538 329.52 167.947 328.362 164.016L328.571 164.153L319.832 164.635H319.743L319.695 164.563C318.488 162.523 317.083 160.608 315.498 158.846L314.308 157.56C314.167 157.424 314.035 157.279 313.914 157.126C314.071 157.241 314.218 157.367 314.357 157.503C314.646 157.769 315.072 158.171 315.611 158.742C317.249 160.478 318.701 162.38 319.944 164.418L319.816 164.345L328.547 163.759H328.7L328.748 163.919C329.914 167.843 331.273 172.426 332.865 177.804L332.921 178.005L332.736 178.102L325.098 182.379L325.251 182.114C325.339 185.302 325.001 188.487 324.246 191.585L324.141 191.263L330.71 197.052L330.919 197.229L330.782 197.47L323.844 210.182L323.699 210.439L323.418 210.358L315 207.946L315.386 207.842C313.186 210.16 310.684 212.172 307.949 213.824L308.142 213.462C308.319 216.319 308.501 219.229 308.688 222.193V222.523L308.375 222.611L294.482 226.68L294.152 226.776L293.991 226.479L289.738 218.825L290.124 219.05C286.925 219.13 283.729 218.784 280.621 218.021L281.055 217.884L275.258 224.436L275.025 224.702L274.719 224.533L262.016 217.57L261.703 217.401L261.807 217.056C262.204 215.667 262.603 214.271 263.005 212.867L263.608 210.752L263.914 209.699L264.066 209.168L264.139 208.903L264.179 208.775V208.702V208.654C264.42 209.546 264.243 208.903 264.3 209.096C261.986 206.889 259.977 204.382 258.326 201.643L258.736 201.86L249.996 202.391H249.643L249.546 202.053L245.526 188.152L245.43 187.814L245.735 187.645L253.389 183.408L253.172 183.794C253.092 180.597 253.441 177.404 254.209 174.299L254.346 174.717C252.071 172.699 249.836 170.697 247.793 168.912L247.552 168.687L247.705 168.398L254.692 155.711L254.845 155.429L255.15 155.518L263.552 157.93L263.166 158.034C265.378 155.73 267.884 153.727 270.619 152.076L270.442 152.414C270.265 149.367 270.088 146.384 269.928 143.683V143.401L270.201 143.321L284.11 139.301L284.351 139.229L284.472 139.454C285.959 142.139 287.382 144.728 288.701 147.116L288.436 146.971C291.621 146.899 294.801 147.256 297.891 148.032L297.633 148.113L303.454 141.584L303.575 141.448L303.736 141.536L316.391 148.571L316.495 148.627V148.74C315.691 151.433 315.064 153.516 314.63 154.955L314.14 156.563C314.082 156.754 314.006 156.94 313.914 157.118Z" fill="#EBEBEB"/>
<path d="M347.956 171.654L335.341 121.485L386.676 120.632L347.956 171.654Z" fill="#EBEBEB"/>
<path d="M371.179 130.362L353.548 153.6L447.521 224.903L465.153 201.666L371.179 130.362Z" fill="#EBEBEB"/>
<path d="M439.788 299.892L446.308 314.678C446.308 314.678 433.444 326.271 434.409 329.15L463.53 317.532L454.316 294.079L439.788 299.892Z" fill="#3F8EF7"/>
<path opacity="0.5" d="M439.788 299.892L446.308 314.678C446.308 314.678 433.444 326.271 434.409 329.15L463.53 317.532L454.316 294.079L439.788 299.892Z" fill="black"/>
<path d="M463.53 317.524L462.509 315.168L434.964 327.228C434.964 327.228 433.894 328.305 434.401 329.166L463.53 317.524Z" fill="#263238"/>
<path d="M491.067 320.852L499.236 334.801C499.236 334.801 487.803 347.778 489.057 350.544L516.666 335.686L504.84 313.399L491.067 320.852Z" fill="#3F8EF7"/>
<path opacity="0.5" d="M491.067 320.852L499.236 334.801C499.236 334.801 487.803 347.778 489.057 350.544L516.666 335.686L504.84 313.399L491.067 320.852Z" fill="black"/>
<path d="M516.667 335.646L515.364 333.451L489.395 348.518C489.395 348.518 488.454 349.716 489.057 350.504L516.667 335.646Z" fill="#263238"/>
<path d="M455.45 125.239L437.553 126.638L436.958 116.62C436.958 116.62 429.722 116.515 428.661 109.464C427.6 102.413 426.522 86.0277 426.522 86.0277C430.295 83.7384 434.611 82.4978 439.024 82.4342C443.436 82.3706 447.786 83.4862 451.623 85.6659L452.781 86.3252L455.45 125.239Z" fill="#FFBE9D"/>
<path d="M436.934 116.515C440.204 116.119 443.283 114.759 445.778 112.608C445.778 112.608 444.218 118.155 437.078 118.509L436.934 116.515Z" fill="#EB996E"/>
<path d="M452.941 93.7544C453.054 93.682 457.597 91.6318 458.119 96.488C458.642 101.344 453.665 100.862 453.641 100.725C453.617 100.588 452.941 93.7544 452.941 93.7544Z" fill="#FFBE9D"/>
<path d="M454.927 98.7228C454.927 98.7228 455.016 98.771 455.169 98.8273C455.377 98.8901 455.602 98.8699 455.796 98.771C456.095 98.5422 456.328 98.2372 456.469 97.8879C456.61 97.5386 456.656 97.1578 456.6 96.7851C456.57 96.3689 456.446 95.9648 456.238 95.6032C456.175 95.4569 456.078 95.3279 455.955 95.2271C455.832 95.1264 455.686 95.0568 455.53 95.0244C455.43 95.0095 455.327 95.0304 455.241 95.0832C455.154 95.1361 455.089 95.2177 455.056 95.3138C455.008 95.4505 455.056 95.547 455.056 95.555C455.056 95.563 454.943 95.4907 454.96 95.2816C454.974 95.159 455.031 95.0453 455.12 94.96C455.179 94.9011 455.249 94.8549 455.327 94.8245C455.404 94.794 455.487 94.78 455.571 94.7832C455.774 94.8023 455.969 94.8728 456.138 94.9881C456.307 95.1035 456.444 95.2598 456.535 95.4424C456.788 95.8393 456.94 96.292 456.978 96.761C457.047 97.1907 456.987 97.6313 456.807 98.0274C456.627 98.4236 456.334 98.7578 455.965 98.9881C455.837 99.0448 455.697 99.0708 455.558 99.0638C455.418 99.0568 455.282 99.0171 455.161 98.9479C454.943 98.8434 454.911 98.7388 454.927 98.7228Z" fill="#EB996E"/>
<path d="M429.569 97.1228C429.605 97.3853 429.742 97.6235 429.95 97.7871C430.159 97.9506 430.423 98.0267 430.686 97.9991C430.816 97.9921 430.943 97.959 431.06 97.9017C431.176 97.8445 431.28 97.7643 431.365 97.6659C431.45 97.5676 431.514 97.4531 431.553 97.3294C431.593 97.2057 431.607 97.0752 431.595 96.9459C431.563 96.6826 431.428 96.4424 431.221 96.277C431.013 96.1116 430.749 96.0343 430.485 96.0615C430.355 96.0696 430.228 96.1037 430.111 96.1617C429.994 96.2197 429.889 96.3005 429.804 96.3994C429.719 96.4982 429.654 96.6131 429.613 96.7374C429.573 96.8616 429.558 96.9926 429.569 97.1228Z" fill="#263238"/>
<path d="M429.256 95.7724C429.401 95.8849 430.06 95.2096 431.17 95.0649C432.279 94.9201 433.131 95.3463 433.228 95.1935C433.324 95.0407 433.115 94.9041 432.737 94.7031C432.22 94.4465 431.636 94.354 431.065 94.4377C430.5 94.5153 429.974 94.7684 429.562 95.1613C429.264 95.4669 429.192 95.7241 429.256 95.7724Z" fill="#263238"/>
<path d="M440.126 95.9009C440.162 96.1634 440.298 96.4016 440.507 96.5652C440.716 96.7287 440.98 96.8047 441.243 96.7772C441.372 96.7691 441.499 96.7353 441.615 96.6777C441.731 96.62 441.834 96.5398 441.919 96.4417C442.004 96.3436 442.068 96.2296 442.108 96.1063C442.148 95.9831 442.163 95.8531 442.152 95.724C442.117 95.4615 441.983 95.2226 441.776 95.0576C441.569 94.8926 441.306 94.8144 441.042 94.8396C440.912 94.8477 440.784 94.8818 440.667 94.9398C440.55 94.9978 440.446 95.0786 440.361 95.1775C440.275 95.2763 440.21 95.3912 440.17 95.5154C440.13 95.6397 440.115 95.7707 440.126 95.9009Z" fill="#263238"/>
<path d="M439.957 94.4701C440.101 94.5907 440.761 93.9153 441.87 93.7625C442.98 93.6098 443.824 94.0439 443.928 93.8992C444.033 93.7545 443.816 93.6098 443.43 93.4088C442.917 93.1456 442.335 93.0499 441.766 93.1354C441.199 93.2136 440.673 93.4699 440.262 93.8671C439.965 94.1726 439.884 94.4218 439.957 94.4701Z" fill="#263238"/>
<path d="M437.151 103.073C436.553 102.981 435.946 102.959 435.342 103.008C435.061 103.008 434.788 103.008 434.715 102.815C434.66 102.546 434.685 102.266 434.788 102.011C434.948 101.304 435.125 100.556 435.31 99.7842C435.819 97.889 436.174 95.9558 436.371 94.0034C435.712 95.8517 435.201 97.7499 434.844 99.6797L434.361 101.915C434.23 102.273 434.23 102.666 434.361 103.024C434.415 103.117 434.49 103.195 434.579 103.254C434.668 103.312 434.77 103.349 434.876 103.362C435.033 103.386 435.193 103.386 435.35 103.362C435.961 103.342 436.566 103.245 437.151 103.073Z" fill="#263238"/>
<path d="M440.447 103.378C440.27 103.378 440.447 104.568 439.538 105.549C438.63 106.53 437.376 106.57 437.392 106.739C437.408 106.908 437.705 106.932 438.236 106.867C438.926 106.781 439.564 106.453 440.037 105.943C440.493 105.453 440.738 104.803 440.72 104.134C440.696 103.635 440.527 103.362 440.447 103.378Z" fill="#263238"/>
<path d="M439.072 90.2566C439.225 90.538 440.286 90.2566 441.581 90.2566C442.875 90.2566 443.993 90.4335 444.089 90.144C444.146 90.0074 443.928 89.7501 443.47 89.525C442.87 89.245 442.211 89.1127 441.549 89.139C440.886 89.1557 440.236 89.3263 439.651 89.6375C439.217 89.8626 438.984 90.128 439.072 90.2566Z" fill="#263238"/>
<path d="M429.215 92.5721C429.441 92.7891 430.156 92.4354 431.049 92.2907C431.941 92.146 432.737 92.2264 432.874 91.945C432.93 91.8083 432.777 91.5751 432.415 91.3902C431.93 91.168 431.388 91.1006 430.864 91.1972C430.335 91.2764 429.845 91.5213 429.465 91.8967C429.183 92.1942 429.111 92.4595 429.215 92.5721Z" fill="#263238"/>
<path d="M422.454 82.048C422.346 81.6163 422.347 81.1643 422.458 80.7332C422.569 80.3021 422.786 79.9056 423.089 79.5797C423.409 79.2736 423.826 79.0903 424.267 79.0624C424.709 79.0344 425.146 79.1636 425.501 79.427C425.395 79.1411 425.349 78.836 425.367 78.5314C425.386 78.2268 425.467 77.9294 425.607 77.6583C425.748 77.3872 425.943 77.1484 426.181 76.9573C426.419 76.7662 426.694 76.627 426.989 76.5486C428.131 76.3155 429.24 77.0471 430.398 77.1918C431.533 77.2645 432.661 76.9684 433.614 76.3476C434.603 75.7848 435.495 75.0612 436.5 74.5306C438.62 73.3998 441.1 73.1513 443.402 73.8394C445.704 74.5274 447.642 76.0963 448.793 78.2049C449.554 77.8964 450.391 77.8281 451.191 78.0092C451.992 78.1903 452.718 78.6121 453.272 79.2179C454.366 80.4571 454.959 82.0594 454.936 83.7123C454.936 84.8157 454.814 85.9157 454.574 86.9926C454.574 87.081 454.574 87.1695 454.614 87.266C455.089 91.1573 455.29 95.7803 453.641 96.0376C450.755 96.4878 450.683 90.9483 450.683 90.9483C446.944 90.08 447.515 84.5806 446.518 83.9052C445.521 83.2299 443.398 81.6138 436.516 86.4459C433.93 88.0704 430.897 88.8384 427.849 88.6408H427.656H427.608H427.544C426.85 88.5659 426.172 88.3842 425.534 88.1021C424.781 87.7994 424.144 87.2642 423.717 86.5745C423.512 86.2278 423.412 85.829 423.429 85.4266C423.446 85.0242 423.579 84.6353 423.813 84.3072C423.149 83.7032 422.677 82.9177 422.454 82.048Z" fill="#263238"/>
<path d="M436.934 122.754L437.73 150.798L455.176 113.243L454.742 109.762L436.934 122.754Z" fill="#EBEBEB"/>
<path d="M448.504 206.571C447.869 206.78 411.52 243.515 412.324 250.116C413.128 256.717 438.992 305.592 438.992 305.592L457.484 296.499L440.174 253.662L440.399 251L461.553 233.674L460.419 205.824L448.504 206.571Z" fill="#263238"/>
<path d="M456.334 213.815C456.76 214.451 463.047 272.162 464.736 275.144C466.424 278.127 491.686 327.404 491.686 327.404L510.443 319.847L487.545 265.697L490.15 214.451L488.743 199.979L460.418 205.824L456.334 213.815Z" fill="#263238"/>
<path d="M464.406 274.164C464.346 273.976 464.306 273.782 464.286 273.585C464.213 273.167 464.125 272.612 464.012 271.921C463.787 270.425 463.466 268.343 463.08 265.786C462.332 260.552 461.303 253.405 460.161 245.509C459.02 237.614 458.087 230.442 457.363 225.216C457.034 222.644 456.76 220.553 456.559 219.058L456.366 217.377C456.347 217.182 456.347 216.986 456.366 216.791C456.366 216.791 456.415 216.992 456.487 217.369C456.559 217.747 456.648 218.342 456.76 219.034L457.685 225.176C458.441 230.402 459.47 237.55 460.604 245.453C461.737 253.356 462.686 260.512 463.401 265.746C463.739 268.311 464.012 270.401 464.205 271.897C464.286 272.596 464.358 273.159 464.406 273.577C464.426 273.772 464.426 273.969 464.406 274.164Z" fill="#455A64"/>
<path d="M487.071 264.042C486.834 265.594 486.468 267.124 485.977 268.616C485.612 270.143 485.117 271.636 484.498 273.078C484.744 271.536 485.118 270.016 485.616 268.536C485.967 266.998 486.454 265.494 487.071 264.042Z" fill="#455A64"/>
<path d="M489.909 277.114C489.489 276.701 489.141 276.22 488.88 275.691C487.48 273.198 486.872 270.338 487.135 267.49C487.155 266.904 487.275 266.324 487.489 265.778C487.046 269.718 487.892 273.696 489.901 277.114H489.909Z" fill="#455A64"/>
<path d="M434.16 247.431C436.41 248.317 438.256 250 439.346 252.158C439.249 252.223 438.349 250.912 436.934 249.618C435.519 248.323 434.072 247.535 434.16 247.431Z" fill="#455A64"/>
<path d="M436.974 245.727C437.725 246.246 438.338 246.941 438.759 247.753C439.298 248.493 439.649 249.354 439.78 250.261C439.285 249.52 438.831 248.753 438.421 247.962C437.898 247.244 437.415 246.498 436.974 245.727Z" fill="#455A64"/>
<path d="M439.482 161.531L444.121 184.574L447.9 216.734C447.9 216.734 463.481 214.555 470.122 212.457C477.825 210.045 494.58 207.938 494.58 207.938L491.75 210.736C497.748 209.056 501.567 203.339 501.567 203.339C491.244 193.764 482.4 174.018 482.4 174.018L474.544 135.007C474.544 135.007 473.355 129.508 472.631 127.056C471.907 124.604 459.984 116.716 458.328 115.719L457.291 115.229L456.961 112.101L455.731 111.362L442.835 123.092C440.321 125.37 438.723 128.485 438.34 131.856C437.795 136.727 437.607 141.631 437.778 146.529C437.93 151.152 439.482 161.531 439.482 161.531Z" fill="#3F8EF7"/>
<path d="M448.343 121.629C448.343 121.629 441.525 125.287 440.343 128.391C439.161 131.494 442.674 165.52 442.674 165.52L418.177 165.986L418.08 180.578C418.08 180.578 456.986 183.658 458.505 181.551C460.547 178.705 462.927 152.117 462.927 152.117L463.812 132.982C463.812 132.982 461.585 118.397 448.343 121.629Z" fill="#3F8EF7"/>
<g opacity="0.3">
<path opacity="0.3" d="M444.121 184.574C447.29 185.566 450.633 185.875 453.93 185.482C457.379 185.169 460.893 183.28 462.195 180.064C463.192 177.611 462.774 174.837 462.927 172.192C463.064 169.885 463.626 167.634 463.98 165.358C464.334 163.083 463.176 158.926 462.372 156.715C462.372 156.715 461.504 172.506 459.027 179.139C458.752 180.065 458.229 180.899 457.516 181.551C456.64 182.258 455.434 182.355 454.3 182.435C451.172 182.765 443.631 182.218 443.631 182.218" fill="black"/>
</g>
<path d="M463.795 135.072C463.806 135.189 463.806 135.308 463.795 135.426C463.795 135.667 463.795 136.004 463.755 136.439C463.755 137.355 463.651 138.666 463.57 140.346C463.49 142.026 463.369 144.125 463.241 146.529C463.112 148.933 463.015 151.69 462.718 154.713C462.42 157.737 462.139 161.049 461.761 164.603C461.383 168.156 460.957 171.951 460.274 175.915C460.113 176.928 459.887 177.93 459.598 178.914C459.264 179.944 458.652 180.862 457.83 181.567C456.985 182.296 455.898 182.683 454.782 182.652C453.705 182.652 452.62 182.652 451.566 182.652C447.193 182.54 442.674 182.323 438.043 182.066C431.089 181.688 424.375 181.262 418.128 180.811H417.951V180.634C417.951 175.449 418.007 170.568 418.04 166.058V165.889H418.208L441.854 165.383L448.463 165.27H450.208C450.602 165.27 450.803 165.27 450.803 165.27C450.803 165.27 450.602 165.27 450.208 165.31L448.471 165.383L441.854 165.592L418.216 166.243L418.385 166.074C418.385 170.576 418.385 175.457 418.337 180.642L418.152 180.45C424.415 180.876 431.121 181.31 438.067 181.688C442.69 181.937 447.209 182.17 451.574 182.283C452.668 182.283 453.745 182.323 454.79 182.283C455.82 182.321 456.825 181.968 457.604 181.294C458.372 180.637 458.943 179.78 459.253 178.817C459.536 177.851 459.759 176.869 459.92 175.875C460.603 171.927 461.038 168.132 461.448 164.619C461.858 161.105 462.171 157.769 462.453 154.746C462.734 151.723 462.871 148.973 463.031 146.569C463.192 144.165 463.321 142.099 463.425 140.394C463.53 138.69 463.626 137.403 463.691 136.495C463.691 136.061 463.747 135.691 463.771 135.474C463.763 135.339 463.772 135.204 463.795 135.072Z" fill="#263238"/>
<path d="M422.904 180.361C422.714 178.008 422.657 175.646 422.735 173.286C422.682 170.925 422.762 168.563 422.976 166.211C423.166 168.564 423.222 170.926 423.145 173.286C423.198 175.647 423.118 178.009 422.904 180.361Z" fill="#263238"/>
<path d="M420.315 168.43C420.267 168.43 420.508 168.124 420.974 168.285C421.11 168.333 421.23 168.419 421.318 168.533C421.407 168.647 421.46 168.784 421.473 168.928C421.494 169.108 421.458 169.289 421.37 169.447C421.282 169.605 421.146 169.731 420.982 169.808C420.819 169.884 420.635 169.907 420.457 169.874C420.28 169.84 420.117 169.751 419.993 169.62C419.89 169.525 419.813 169.404 419.771 169.27C419.728 169.136 419.722 168.993 419.752 168.856C419.865 168.39 420.186 168.293 420.194 168.341C420.202 168.39 420.041 168.558 420.033 168.888C420.031 168.975 420.048 169.06 420.083 169.14C420.117 169.219 420.169 169.289 420.234 169.346C420.313 169.411 420.407 169.454 420.508 169.469C420.608 169.485 420.711 169.473 420.805 169.435C420.894 169.389 420.969 169.32 421.021 169.235C421.074 169.15 421.102 169.052 421.103 168.952C421.101 168.868 421.076 168.786 421.033 168.714C420.989 168.642 420.927 168.583 420.853 168.542C420.572 168.373 420.339 168.478 420.315 168.43Z" fill="#263238"/>
<path d="M474.666 138.352C474.666 138.352 487.417 155.019 488.969 159.554C490.521 164.088 489.323 170.617 486.726 173.736C484.129 176.856 482.039 175.585 482.039 175.585L474.666 138.352Z" fill="#3F8EF7"/>
<path d="M481.596 174.251C480.558 174.626 479.478 174.877 478.38 174.998C477.311 175.251 476.215 175.369 475.116 175.352C476.155 174.976 477.234 174.725 478.332 174.604C479.402 174.352 480.498 174.233 481.596 174.251Z" fill="#263238"/>
<path d="M484.008 186.528C484.152 186.808 484.267 187.101 484.354 187.404C484.546 187.983 484.836 188.803 485.214 189.816C486.204 192.456 487.348 195.036 488.639 197.543C489.939 200.042 491.367 202.473 492.916 204.827C493.511 205.735 494.001 206.435 494.347 206.957C494.544 207.205 494.711 207.475 494.846 207.761C494.611 207.55 494.4 207.313 494.219 207.054C493.841 206.58 493.31 205.88 492.683 204.988C491.053 202.678 489.581 200.26 488.277 197.752C486.973 195.234 485.86 192.622 484.948 189.937C484.603 188.908 484.345 188.063 484.201 187.477C484.095 187.17 484.03 186.851 484.008 186.528Z" fill="#263238"/>
<g opacity="0.3">
<path opacity="0.3" d="M484.893 188.506C486.919 192.108 488.993 195.742 492.064 198.532C493.226 199.414 494.279 200.431 495.2 201.563C496.004 202.761 496.382 204.433 495.594 205.663C495.476 205.892 495.292 206.081 495.065 206.203C494.838 206.325 494.58 206.375 494.324 206.347C493.988 206.218 493.704 205.98 493.52 205.671C489.674 200.719 486.801 195.083 485.053 189.061" fill="black"/>
</g>
<g opacity="0.3">
<path opacity="0.3" d="M483.204 175.521C484.949 174.267 485.56 171.887 485.303 169.748C485.045 167.61 484.065 165.648 483.188 163.694C480.539 157.852 478.463 151.767 476.989 145.524L475.743 140.901L482.047 173.865L483.204 175.521Z" fill="black"/>
</g>
<path d="M451.663 120.15C452.415 119.308 453.221 118.516 454.075 117.778C454.829 116.925 455.634 116.119 456.487 115.366C455.95 116.368 455.243 117.268 454.397 118.027C453.625 118.898 452.698 119.617 451.663 120.15Z" fill="#263238"/>
<path d="M450.376 123.012C450.376 123.084 449.637 123.309 448.511 123.864C445.557 125.33 443.177 127.741 441.749 130.714C441.203 131.848 440.945 132.603 440.945 132.587C440.943 132.399 440.973 132.211 441.034 132.033C441.158 131.541 441.319 131.06 441.516 130.593C442.845 127.47 445.315 124.971 448.423 123.607C448.886 123.403 449.364 123.237 449.854 123.108C450.021 123.047 450.198 123.015 450.376 123.012Z" fill="#263238"/>
<path d="M484.603 178.842C484.522 178.744 484.454 178.636 484.402 178.52L483.895 177.563C483.437 176.671 482.818 175.457 482.054 173.977C481.25 170.327 480.133 165.005 478.903 159.079C477.761 153.459 476.772 148.402 475.968 144.72L475.164 140.354C475.084 139.88 475.011 139.486 474.955 139.164C474.922 139.027 474.908 138.887 474.915 138.746C474.969 138.876 475.009 139.01 475.035 139.148C475.108 139.462 475.204 139.856 475.317 140.33C475.558 141.407 475.888 142.871 476.282 144.664C477.086 148.378 478.131 153.427 479.305 158.999C480.535 164.924 481.612 170.255 482.328 173.929C483.043 175.433 483.622 176.663 484.048 177.571L484.498 178.56C484.542 178.65 484.577 178.745 484.603 178.842Z" fill="#263238"/>
<path d="M442.257 165.511C442.154 165.116 442.089 164.713 442.064 164.305C441.975 163.453 441.855 162.336 441.71 160.993C441.42 158.203 441.051 154.336 440.673 150.075C440.295 145.813 439.973 141.938 439.756 139.132C439.66 137.79 439.587 136.672 439.523 135.82C439.486 135.413 439.486 135.004 439.523 134.598C439.614 134.995 439.676 135.398 439.708 135.804C439.796 136.656 439.917 137.773 440.07 139.116C440.351 141.906 440.721 145.765 441.099 150.034C441.477 154.304 441.798 158.171 442.015 160.969C442.112 162.312 442.184 163.429 442.248 164.289C442.28 164.696 442.282 165.104 442.257 165.511Z" fill="#263238"/>
<path d="M418.49 167.69C418.49 167.69 413.2 163.67 411.913 163.437C410.924 163.252 405.031 163.357 402.322 163.437C401.815 163.433 401.328 163.627 400.964 163.979C400.6 164.331 400.389 164.812 400.376 165.318C400.368 165.383 400.368 165.447 400.376 165.511C400.443 165.832 400.6 166.128 400.827 166.364C401.055 166.6 401.344 166.767 401.662 166.846C401.251 166.978 400.893 167.236 400.637 167.584C400.381 167.932 400.242 168.352 400.239 168.784C400.239 170.311 402.064 170.633 402.064 170.633L401.799 170.874C401.57 171.106 401.407 171.395 401.328 171.711C401.248 172.027 401.255 172.358 401.347 172.671C401.439 172.984 401.613 173.266 401.851 173.489C402.088 173.711 402.382 173.866 402.7 173.937L403.504 174.13C403.195 174.256 402.927 174.464 402.73 174.732C402.533 175 402.414 175.318 402.386 175.65C402.386 177.66 406.953 178.062 406.953 178.062C406.953 178.062 418.152 179.839 418.394 179.758C418.635 179.678 418.49 167.69 418.49 167.69Z" fill="#FFBE9D"/>
<path d="M403.359 161.025C403.407 161.692 403.568 163.107 404.694 163.742L410.941 163.501C410.941 163.501 406.294 161.893 405.626 161.089C405.368 160.76 405.068 160.465 404.734 160.213C404.595 160.119 404.433 160.067 404.266 160.062C404.099 160.057 403.934 160.1 403.79 160.185C403.646 160.27 403.529 160.394 403.453 160.543C403.377 160.691 403.344 160.858 403.359 161.025Z" fill="#FFBE9D"/>
<path d="M407.998 163.437C407.066 163.658 406.105 163.725 405.152 163.638C404.198 163.694 403.242 163.627 402.306 163.437C403.242 163.227 404.204 163.16 405.16 163.236C406.111 163.188 407.063 163.256 407.998 163.437Z" fill="#EB996E"/>
<path d="M406.599 166.926C405.805 167.182 404.967 167.267 404.139 167.176C403.313 167.206 402.491 167.061 401.727 166.749C402.542 166.661 403.364 166.661 404.179 166.749C404.989 166.717 405.801 166.776 406.599 166.926Z" fill="#EB996E"/>
<path d="M409.775 166.476C409.871 166.54 409.775 166.878 409.397 167.103C409.019 167.328 408.681 167.304 408.673 167.191C408.665 167.079 408.898 166.942 409.172 166.765C409.445 166.589 409.678 166.428 409.775 166.476Z" fill="#EB996E"/>
<path d="M407.283 170.882C405.496 171.091 403.689 171.032 401.92 170.705C402.806 170.529 403.715 170.488 404.613 170.585C405.513 170.551 406.413 170.651 407.283 170.882Z" fill="#EB996E"/>
<path d="M410.844 169.209C410.893 169.209 410.989 169.322 411.021 169.563C411.056 169.892 410.961 170.221 410.757 170.48C410.552 170.74 410.255 170.91 409.928 170.954C409.687 170.954 409.542 170.954 409.542 170.866C409.542 170.777 410.081 170.689 410.434 170.231C410.788 169.772 410.748 169.234 410.844 169.209Z" fill="#EB996E"/>
<path d="M408.231 174.749C407.427 174.848 406.613 174.815 405.819 174.653C404.993 174.624 404.177 174.455 403.407 174.154C404.211 174.056 405.026 174.088 405.819 174.251C406.645 174.284 407.46 174.453 408.231 174.749Z" fill="#EB996E"/>
<path d="M411.712 172.779C411.761 172.779 411.841 172.908 411.833 173.157C411.801 173.452 411.684 173.732 411.495 173.961C411.045 174.516 410.531 174.717 410.474 174.637C410.418 174.556 410.804 174.178 411.182 173.712C411.56 173.246 411.648 172.803 411.712 172.779Z" fill="#EB996E"/>
<path d="M489.636 211.058C490.741 210.952 491.807 210.588 492.746 209.996C493.686 209.404 494.474 208.6 495.047 207.649C495.176 207.432 495.288 207.135 495.119 206.95C495.054 206.895 494.978 206.855 494.897 206.83C494.815 206.805 494.73 206.796 494.645 206.805C492.896 206.792 491.159 207.091 489.515 207.689C489.419 207.711 489.328 207.753 489.249 207.813C489.17 207.873 489.105 207.948 489.057 208.035C489.013 208.171 489.013 208.317 489.057 208.453C489.274 209.297 489.491 210.142 489.716 210.994" fill="#3F8EF7"/>
<g opacity="0.4">
<path opacity="0.4" d="M489.636 211.058C490.741 210.952 491.807 210.588 492.746 209.996C493.686 209.404 494.474 208.6 495.047 207.649C495.176 207.432 495.288 207.135 495.119 206.95C495.054 206.895 494.978 206.855 494.897 206.83C494.815 206.805 494.73 206.796 494.645 206.805C492.896 206.792 491.159 207.091 489.515 207.689C489.419 207.711 489.328 207.753 489.249 207.813C489.17 207.873 489.105 207.948 489.057 208.035C489.013 208.171 489.013 208.317 489.057 208.453C489.274 209.297 489.491 210.142 489.716 210.994" fill="black"/>
</g>
<path d="M436.934 122.754C436.934 122.754 434.361 131.381 435.068 130.891C435.776 130.4 437.312 129.042 437.312 129.042L436.934 122.754Z" fill="#EBEBEB"/>
<path d="M437.078 126.734L435.679 130.095C435.539 130.443 435.447 130.808 435.406 131.18C435.285 132.121 435.157 133.842 435.711 133.962C435.992 133.978 436.273 133.931 436.533 133.824C436.794 133.716 437.026 133.552 437.215 133.343L437.078 126.734Z" fill="#263238"/>
<path d="M480.656 127.265C480.656 127.265 466.915 121.902 459.302 126.638C451.688 131.373 450.305 138.931 445.77 138.931C436.926 138.931 437.216 132.692 437.216 132.692L435.334 133.263C435.334 134.541 433.292 143.715 442.57 144.832C451.849 145.95 455.804 133.271 464.182 133.263C469.423 133.351 474.532 134.92 478.919 137.789L484.941 133.986L480.656 127.265Z" fill="#263238"/>
<path d="M445.416 144.72C447.786 143.308 449.642 141.175 450.714 138.633C452.853 133.705 457.436 128.085 461.263 126.67C465.09 125.255 473.942 124.258 480.06 128.278L483.976 133.568L478.895 136.873C476.037 135.372 473.033 134.167 469.93 133.279C463.611 131.518 459.767 133.512 456.093 136.985C455.868 137.202 455.651 137.419 455.474 137.628C453.698 139.521 451.75 141.244 449.653 142.774C447.828 144.004 446.22 144.72 445.416 144.72Z" fill="#455A64"/>
<path d="M160.801 69.8433C152.648 71.1056 146.674 64.2153 144.769 58.1612C143.008 52.5332 142.172 46.6721 139.704 41.2772C136.246 33.8 127.097 30.3428 118.888 31.0343C110.679 31.7257 102.398 35.8583 95.1299 39.7255L97.1399 84.7495C97.1399 84.7495 112.955 67.8655 120.56 67.5921C133.248 67.0856 132.556 87.9333 144.873 91.0127C144.873 91.0127 162.143 95.6919 173.817 80.6169C181.222 71.0413 181.857 59.4155 181.857 59.4155C181.857 59.4155 176.181 67.4715 160.801 69.8433Z" fill="#3F8EF7"/>
<path d="M94.7759 32.2964C94.8885 32.2964 97.1075 80.1183 99.7286 139.108C102.35 198.097 104.392 245.935 104.279 245.943C104.167 245.951 101.956 198.129 99.3266 139.124C96.6975 80.1183 94.6634 32.3044 94.7759 32.2964Z" fill="#263238"/>
<g opacity="0.2">
<path opacity="0.2" d="M138.288 55.0415C139.669 59.7988 141.687 64.3476 144.286 68.5648C146.634 72.2391 150.195 75.3345 154.465 76.2269C155.246 76.3321 156.013 76.5291 156.748 76.8138C157.115 76.963 157.434 77.2083 157.673 77.5238C157.913 77.8393 158.062 78.2134 158.107 78.6067C158.107 79.7886 156.925 80.5605 155.864 81.0831C154.389 81.8919 152.813 82.4977 151.176 82.884C149.568 83.1895 148.234 83.3664 147.1 82.08C146.003 81.005 145.018 79.8225 144.157 78.5505C140.435 72.2069 138.594 63.1378 138.288 55.9661" fill="black"/>
</g>
<path d="M149.344 83.9617C149.344 83.9617 149.215 83.9054 148.982 83.7527C148.645 83.5326 148.32 83.2937 148.009 83.0371C146.864 82.0897 145.853 80.9917 145.002 79.7729C143.743 77.9638 142.729 75.9956 141.987 73.9198C141.085 71.3875 140.341 68.8017 139.76 66.1773C138.656 61.4212 137.959 56.5797 137.678 51.7053C137.573 49.84 137.557 48.3285 137.557 47.2833C137.557 46.7928 137.557 46.3989 137.557 46.0773C137.543 45.9382 137.543 45.7982 137.557 45.6592C137.593 45.7955 137.61 45.9363 137.605 46.0773C137.605 46.3989 137.605 46.7928 137.654 47.2752C137.702 48.3204 137.758 49.8319 137.903 51.6892C138.268 56.5346 138.999 61.3455 140.09 66.0808C140.68 68.6916 141.421 71.266 142.309 73.7911C143.037 75.841 144.021 77.7912 145.235 79.596C146.052 80.8114 147.017 81.9213 148.106 82.9005C148.885 83.616 149.368 83.9376 149.344 83.9617Z" fill="#263238"/>
<path d="M45.6191 255.447L153.331 273.078V255.447H45.6191Z" fill="#E0E0E0"/>
<path d="M171.107 295.285L278.827 312.917V295.285H171.107Z" fill="#E0E0E0"/>
<path d="M295.735 333.387L403.455 351.018V333.387H295.735Z" fill="#E0E0E0"/>
<path d="M420.203 363.713L527.915 381.345V363.713H420.203Z" fill="#E0E0E0"/>
<path d="M153.331 242.245H45.6191V255.455H153.331V242.245Z" fill="#3F8EF7"/>
<g opacity="0.3">
<path opacity="0.3" d="M153.331 242.245H119.716V255.455H153.331V242.245Z" fill="black"/>
</g>
<path d="M278.819 282.075H171.107V295.285H278.819V282.075Z" fill="#3F8EF7"/>
<g opacity="0.3">
<path opacity="0.3" d="M278.827 282.075H245.212V295.285H278.827V282.075Z" fill="black"/>
</g>
<path d="M403.455 320.177H295.743V333.386H403.455V320.177Z" fill="#3F8EF7"/>
<g opacity="0.3">
<path opacity="0.3" d="M403.455 320.177H369.84V333.386H403.455V320.177Z" fill="black"/>
</g>
<path d="M528.083 350.504H420.371V363.714H528.083V350.504Z" fill="#3F8EF7"/>
<g opacity="0.3">
<path opacity="0.3" d="M528.084 350.504H494.469V363.714H528.084V350.504Z" fill="black"/>
</g>
<path d="M461.705 302.433C461.707 303.011 461.88 303.576 462.202 304.056C462.525 304.537 462.982 304.91 463.517 305.131C464.052 305.351 464.64 305.408 465.207 305.294C465.775 305.18 466.295 304.901 466.704 304.491C467.112 304.082 467.39 303.56 467.503 302.993C467.615 302.425 467.556 301.837 467.335 301.303C467.113 300.769 466.738 300.312 466.257 299.991C465.776 299.669 465.21 299.498 464.632 299.498C464.247 299.498 463.865 299.574 463.51 299.722C463.154 299.869 462.831 300.085 462.559 300.358C462.288 300.631 462.072 300.954 461.926 301.31C461.779 301.666 461.704 302.048 461.705 302.433Z" fill="#EBEBEB"/>
</svg>
