<svg width="12" height="12" viewBox="0 0 12 12" fill="none" xmlns="http://www.w3.org/2000/svg">
<path d="M9.37537 10.5H2.625C2.52554 10.5 2.43016 10.4605 2.35983 10.3902C2.28951 10.3198 2.25 10.2245 2.25 10.125V1.875C2.25 1.77554 2.28951 1.68016 2.35983 1.60984C2.43016 1.53951 2.52554 1.5 2.625 1.5H7.12537L9.75037 4.125V10.125C9.75037 10.1742 9.74067 10.223 9.72182 10.2685C9.70298 10.314 9.67535 10.3553 9.64053 10.3902C9.60571 10.425 9.56437 10.4526 9.51887 10.4715C9.47338 10.4903 9.42461 10.5 9.37537 10.5Z" stroke="#43D795" stroke-linecap="round" stroke-linejoin="round"/>
<path d="M7.125 1.5V4.125H9.75037" stroke="#43D795" stroke-linecap="round" stroke-linejoin="round"/>
</svg>
