<svg width="88" height="80" viewBox="0 0 88 80" fill="none" xmlns="http://www.w3.org/2000/svg">
<g clip-path="url(#clip0)">
<path d="M37.1429 3.59325L0.898065 67.1717C-1.93588 72.0203 2.40129 80.0004 8.00345 80.0004H80.0677C85.6698 80.0004 90.4177 73.2811 86.6638 66.9096L49.6435 3.59325C46.844 -1.19775 39.9358 -1.19775 37.1429 3.59325Z" fill="#EB5757"/>
<path d="M74.9009 76.6594H11.8774C10.5794 76.6598 9.30395 76.32 8.1773 75.6735C7.05066 75.027 6.11201 74.0963 5.45439 72.9738C4.79677 71.8512 4.44302 70.5757 4.42822 69.2738C4.41342 67.9718 4.73807 66.6885 5.37 65.5512L36.5088 10.5956C39.1621 5.98922 42.0026 5.02344 43.9182 5.02344C46.9772 5.02344 49.6978 7.43624 51.5854 11.8202L81.4099 65.5479C82.0414 66.6854 82.3656 67.9687 82.3505 69.2706C82.3354 70.5726 81.9815 71.8479 81.3238 72.9704C80.6661 74.0928 79.7274 75.0234 78.6008 75.6699C77.4742 76.3164 76.1988 76.6563 74.9009 76.6561V76.6594ZM43.9182 7.67686C42.1948 7.67686 40.3778 9.18157 38.8039 11.9141L7.67494 66.8532C7.26977 67.5869 7.0625 68.4139 7.07361 69.2526C7.08471 70.0913 7.31382 70.9125 7.73827 71.6351C8.16273 72.3577 8.76783 72.9566 9.49376 73.3727C10.2197 73.7888 11.0413 74.0077 11.8774 74.0076H74.9009C75.738 74.0074 76.5606 73.7879 77.2871 73.3708C78.0137 72.9536 78.619 72.3532 79.0431 71.6292C79.4672 70.9052 79.6954 70.0826 79.7051 69.2428C79.7148 68.4031 79.5057 67.5754 79.0984 66.8417L49.2082 12.9969L49.1819 12.9343C47.7575 9.5903 45.8387 7.67686 43.9182 7.67686Z" fill="white"/>
<path d="M47.398 30.457L46.207 52.5415H40.5736L39.3809 30.457H47.398ZM46.8017 53.9143V59.7832H39.9772V53.9143H46.8017Z" fill="white"/>
</g>
<defs>
<clipPath id="clip0">
<rect width="88" height="80" fill="white"/>
</clipPath>
</defs>
</svg>
