<svg width="546" height="546" viewBox="0 0 546 546" fill="none" xmlns="http://www.w3.org/2000/svg">
<path d="M363.1 69.7014C339.273 83.3296 322.467 106.251 302.101 124.651C276.771 147.447 245.94 163.254 212.645 170.515C185.345 176.423 156.821 176.51 130.515 185.803C79.1912 203.81 44.0397 257.252 43.1552 311.59C42.2707 365.928 73.1852 418.606 118.623 448.396C134.098 458.547 151.04 466.262 168.855 471.274C202.271 480.676 237.706 480.261 272.235 476.668C331.88 470.455 394.408 436.581 432.005 388.828C448.765 367.484 462.929 344.225 474.2 319.54C492.821 278.95 503.397 235.135 505.344 190.52C506.928 152.3 505.344 109.931 475.019 82.0738C444.695 54.2169 398.645 49.3575 363.1 69.7014Z" fill="#3F8EF7"/>
<path opacity="0.7" d="M363.1 69.7014C339.273 83.3296 322.467 106.251 302.101 124.651C276.771 147.447 245.94 163.254 212.645 170.515C185.345 176.423 156.821 176.51 130.515 185.803C79.1912 203.81 44.0397 257.252 43.1552 311.59C42.2707 365.928 73.1852 418.606 118.623 448.396C134.098 458.547 151.04 466.262 168.855 471.274C202.271 480.676 237.706 480.261 272.235 476.668C331.88 470.455 394.408 436.581 432.005 388.828C448.765 367.484 462.929 344.225 474.2 319.54C492.821 278.95 503.397 235.135 505.344 190.52C506.928 152.3 505.344 109.931 475.019 82.0738C444.695 54.2169 398.645 49.3575 363.1 69.7014Z" fill="white"/>
<path d="M300.408 507.288C408.561 507.288 496.237 483.674 496.237 454.544C496.237 425.415 408.561 401.801 300.408 401.801C192.255 401.801 104.58 425.415 104.58 454.544C104.58 483.674 192.255 507.288 300.408 507.288Z" fill="#3F8EF7"/>
<path opacity="0.5" d="M300.408 507.288C408.561 507.288 496.237 483.674 496.237 454.544C496.237 425.415 408.561 401.801 300.408 401.801C192.255 401.801 104.58 425.415 104.58 454.544C104.58 483.674 192.255 507.288 300.408 507.288Z" fill="white"/>
<path d="M324.28 74.584H94.0537C88.656 74.584 84.2803 78.9597 84.2803 84.3574V213.421C84.2803 218.819 88.656 223.194 94.0537 223.194H324.28C329.678 223.194 334.053 218.819 334.053 213.421V84.3574C334.053 78.9597 329.678 74.584 324.28 74.584Z" fill="white"/>
<path d="M334.053 84.3573V88.223H84.2803V84.3573C84.2802 81.7602 85.3082 79.2686 87.1395 77.4271C88.9708 75.5855 91.4566 74.5437 94.0537 74.5293H324.324C325.609 74.5336 326.88 74.7914 328.065 75.2881C329.25 75.7847 330.325 76.5103 331.229 77.4234C332.133 78.3364 332.848 79.4189 333.332 80.6088C333.817 81.7987 334.062 83.0725 334.053 84.3573Z" fill="#3F8EF7"/>
<path d="M324.28 74.584H94.0537C88.656 74.584 84.2803 78.9597 84.2803 84.3574V213.421C84.2803 218.819 88.656 223.194 94.0537 223.194H324.28C329.678 223.194 334.053 218.819 334.053 213.421V84.3574C334.053 78.9597 329.678 74.584 324.28 74.584Z" stroke="black" stroke-width="1.092" stroke-linecap="round" stroke-linejoin="round"/>
<path d="M334.053 84.3573V88.223H84.2803V84.3573C84.2802 81.7602 85.3082 79.2686 87.1395 77.4271C88.9708 75.5855 91.4566 74.5437 94.0537 74.5293H324.324C325.609 74.5336 326.88 74.7914 328.065 75.2881C329.25 75.7847 330.325 76.5103 331.229 77.4234C332.133 78.3364 332.848 79.4189 333.332 80.6088C333.817 81.7987 334.062 83.0725 334.053 84.3573V84.3573Z" stroke="black" stroke-width="1.092" stroke-linecap="round" stroke-linejoin="round"/>
<path d="M112.333 81.398C112.336 81.893 112.191 82.3776 111.917 82.7902C111.644 83.2029 111.254 83.5251 110.797 83.7161C110.34 83.907 109.837 83.9581 109.352 83.8628C108.866 83.7676 108.419 83.5303 108.068 83.181C107.718 82.8317 107.478 82.3862 107.381 81.9008C107.284 81.4154 107.332 80.912 107.521 80.4545C107.71 79.9969 108.031 79.6057 108.442 79.3304C108.854 79.0551 109.338 78.9082 109.833 78.9082C110.494 78.9082 111.128 79.1702 111.597 79.6368C112.066 80.1034 112.33 80.7366 112.333 81.398Z" fill="black"/>
<path d="M125.383 81.398C125.385 81.893 125.241 82.3776 124.967 82.7902C124.694 83.2029 124.304 83.5251 123.847 83.7161C123.39 83.907 122.887 83.9581 122.401 83.8628C121.916 83.7676 121.469 83.5303 121.118 83.181C120.767 82.8317 120.528 82.3862 120.431 81.9008C120.333 81.4154 120.382 80.912 120.571 80.4545C120.76 79.9969 121.081 79.6057 121.492 79.3304C121.904 79.0551 122.387 78.9082 122.882 78.9082C123.544 78.9082 124.178 79.1702 124.647 79.6368C125.116 80.1034 125.38 80.7366 125.383 81.398Z" fill="black"/>
<path d="M135.931 83.8978C137.312 83.8978 138.432 82.7783 138.432 81.3972C138.432 80.0161 137.312 78.8965 135.931 78.8965C134.55 78.8965 133.431 80.0161 133.431 81.3972C133.431 82.7783 134.55 83.8978 135.931 83.8978Z" fill="black"/>
<path d="M173.737 99.0449H103.117C100.892 99.0449 99.0879 100.849 99.0879 103.074V137.047C99.0879 139.272 100.892 141.076 103.117 141.076H173.737C175.962 141.076 177.766 139.272 177.766 137.047V103.074C177.766 100.849 175.962 99.0449 173.737 99.0449Z" stroke="black" stroke-width="1.092" stroke-linecap="round" stroke-linejoin="round"/>
<path d="M103.718 135.791H171.935" stroke="black" stroke-width="1.092" stroke-linecap="round" stroke-linejoin="round"/>
<path d="M116.702 127.764H108.785V135.681H116.702V127.764Z" fill="#43D795" stroke="black" stroke-width="1.092" stroke-miterlimit="10"/>
<path d="M128.288 117.357H120.371V135.79H128.288V117.357Z" fill="#43D795" stroke="black" stroke-width="1.092" stroke-miterlimit="10"/>
<path d="M141.337 120.523H133.42V135.975H141.337V120.523Z" fill="#43D795" stroke="black" stroke-width="1.092" stroke-miterlimit="10"/>
<path d="M155.053 105.139H147.136V135.442H155.053V105.139Z" fill="#43D795" stroke="black" stroke-width="1.092" stroke-miterlimit="10"/>
<path d="M168.757 105.379H160.84V135.682H168.757V105.379Z" fill="#43D795" stroke="black" stroke-width="1.092" stroke-miterlimit="10"/>
<path d="M275.315 143.248C287.539 143.248 297.449 133.338 297.449 121.113C297.449 108.889 287.539 98.9785 275.315 98.9785C263.09 98.9785 253.18 108.889 253.18 121.113C253.18 133.338 263.09 143.248 275.315 143.248Z" fill="#43D795" stroke="black" stroke-width="1.092" stroke-miterlimit="10"/>
<path d="M277.128 134.916V137.188H273.415V134.916C271.89 134.547 270.541 133.659 269.601 132.403C268.66 131.148 268.186 129.604 268.261 128.037V127.01L272.465 126.551V127.643C272.465 129.751 273.557 131.029 275.271 131.029C275.643 131.06 276.018 131.01 276.369 130.882C276.72 130.755 277.039 130.553 277.304 130.29C277.57 130.028 277.776 129.711 277.907 129.362C278.039 129.012 278.093 128.638 278.067 128.266C278.067 126.246 276.178 124.509 273.95 122.664C271.307 120.48 268.675 117.881 268.675 114.212C268.675 110.543 270.401 108.064 273.415 107.321V105.039H277.128V107.3C280.174 108.009 281.943 110.576 281.943 114.234V114.976L277.739 115.424V114.66C277.739 112.476 276.876 111.274 275.348 111.274C273.819 111.274 272.956 112.224 272.956 114.037C272.956 116.057 274.9 117.75 277.084 119.639C279.683 121.823 282.358 124.422 282.358 128.091C282.422 129.661 281.934 131.204 280.978 132.451C280.023 133.698 278.66 134.57 277.128 134.916Z" fill="black"/>
<path d="M97.2529 162.545H103.718" stroke="black" stroke-width="1.092" stroke-linecap="round" stroke-linejoin="round"/>
<path d="M97.2529 175.037H103.718" stroke="black" stroke-width="1.092" stroke-linecap="round" stroke-linejoin="round"/>
<path d="M97.2529 187.541H103.718" stroke="black" stroke-width="1.092" stroke-linecap="round" stroke-linejoin="round"/>
<path d="M97.2529 200.033H103.718" stroke="black" stroke-width="1.092" stroke-linecap="round" stroke-linejoin="round"/>
<path d="M117.969 209.469V204.445" stroke="black" stroke-width="1.092" stroke-linecap="round" stroke-linejoin="round"/>
<path d="M128.211 209.469V204.445" stroke="black" stroke-width="1.092" stroke-linecap="round" stroke-linejoin="round"/>
<path d="M138.454 209.469V204.445" stroke="black" stroke-width="1.092" stroke-linecap="round" stroke-linejoin="round"/>
<path d="M148.708 209.469V204.445" stroke="black" stroke-width="1.092" stroke-linecap="round" stroke-linejoin="round"/>
<path d="M158.951 209.469V204.445" stroke="black" stroke-width="1.092" stroke-linecap="round" stroke-linejoin="round"/>
<path d="M169.193 209.469V204.445" stroke="black" stroke-width="1.092" stroke-linecap="round" stroke-linejoin="round"/>
<path d="M179.438 209.469V204.445" stroke="black" stroke-width="1.092" stroke-linecap="round" stroke-linejoin="round"/>
<path d="M189.691 209.469V204.445" stroke="black" stroke-width="1.092" stroke-linecap="round" stroke-linejoin="round"/>
<path d="M199.935 209.469V204.445" stroke="black" stroke-width="1.092" stroke-linecap="round" stroke-linejoin="round"/>
<path d="M210.178 209.469V204.445" stroke="black" stroke-width="1.092" stroke-linecap="round" stroke-linejoin="round"/>
<path d="M220.42 209.469V204.445" stroke="black" stroke-width="1.092" stroke-linecap="round" stroke-linejoin="round"/>
<path d="M230.674 209.469V204.445" stroke="black" stroke-width="1.092" stroke-linecap="round" stroke-linejoin="round"/>
<path d="M240.917 209.469V204.445" stroke="black" stroke-width="1.092" stroke-linecap="round" stroke-linejoin="round"/>
<path d="M251.159 209.469V204.445" stroke="black" stroke-width="1.092" stroke-linecap="round" stroke-linejoin="round"/>
<path d="M261.403 209.469V204.445" stroke="black" stroke-width="1.092" stroke-linecap="round" stroke-linejoin="round"/>
<path d="M271.264 209.469V204.445" stroke="black" stroke-width="1.092" stroke-linecap="round" stroke-linejoin="round"/>
<path d="M281.125 209.469V204.445" stroke="black" stroke-width="1.092" stroke-linecap="round" stroke-linejoin="round"/>
<path d="M290.974 209.469V204.445" stroke="black" stroke-width="1.092" stroke-linecap="round" stroke-linejoin="round"/>
<path d="M317.051 154.9V203.45C317.051 206.781 313.666 209.467 309.494 209.467H104.832C103.585 209.511 102.346 209.267 101.209 208.754C100.073 208.24 99.0703 207.472 98.2795 206.508C97.5963 205.632 97.2134 204.56 97.1875 203.45V154.9C97.1875 151.624 100.573 148.883 104.744 148.883H309.494C313.666 148.883 317.051 151.569 317.051 154.9Z" stroke="#3F8EF7" stroke-width="1.092" stroke-linecap="round" stroke-linejoin="round"/>
<path d="M254.763 60.8691L189.429 148.884L164.444 182.54L137.144 165.155L103.74 209.469H103.259C102.212 209.469 101.182 209.197 100.273 208.678C99.363 208.159 98.6045 207.411 98.0723 206.509L135.604 156.703L162.904 174.055L181.588 148.939L249.718 57.2109L254.763 60.8691Z" fill="black"/>
<path d="M238.187 61.9821L262.2 47.4258L255.56 72.6073L251.323 60.9557L238.187 61.9821Z" fill="black"/>
<path d="M465.444 339.088H81.3982L38.3516 377.363" stroke="black" stroke-width="1.092" stroke-linecap="round" stroke-linejoin="round"/>
<path d="M81.6387 312.291V237.871" stroke="black" stroke-width="1.092" stroke-linecap="round" stroke-linejoin="round"/>
<path d="M81.6387 334.764V320.371" stroke="black" stroke-width="1.092" stroke-linecap="round" stroke-linejoin="round"/>
<path d="M442.327 158.034C442.327 158.034 442.327 153.535 436.026 147.245C429.725 140.955 425.685 137.352 425.685 137.352C425.685 137.352 422.529 147.693 428.382 153.994C432.681 158.432 437.346 162.501 442.327 166.159V158.034Z" fill="#43D795"/>
<path d="M433.186 186.131C433.186 186.131 433.186 181.632 426.885 175.331C420.584 169.03 416.544 165.438 416.544 165.438C416.544 165.438 413.399 175.779 419.241 182.08C423.545 186.516 428.21 190.588 433.186 194.255V186.131Z" fill="#43D795"/>
<path d="M441.922 165.7C441.922 165.7 442.403 161.223 449.326 155.621C456.249 150.019 460.661 146.885 460.661 146.885C460.661 146.885 462.692 157.532 456.216 163.145C451.472 167.095 446.405 170.641 441.07 173.748L441.922 165.7Z" fill="#43D795"/>
<path d="M430.882 198.874C430.882 198.874 431.832 194.506 439.301 189.636C446.77 184.766 451.477 182.123 451.477 182.123C451.477 182.123 452.383 192.901 445.383 197.837C440.253 201.266 434.843 204.258 429.211 206.78L430.882 198.874Z" fill="#43D795"/>
<path d="M432.968 235.03C432.968 235.03 432.968 230.531 439.258 224.241C445.548 217.951 449.599 214.348 449.599 214.348C449.599 214.348 452.755 224.7 446.902 230.99C442.609 235.434 437.948 239.508 432.968 243.166V235.03Z" fill="#43D795"/>
<path d="M432.859 243.866C432.859 243.866 433.492 239.411 428.152 232.291C422.812 225.171 419.329 221.021 419.329 221.021C419.329 221.021 414.764 230.849 419.645 237.882C423.274 242.877 427.314 247.56 431.723 251.881L432.859 243.866Z" fill="#43D795"/>
<path d="M426.646 270.019C426.646 270.019 426.645 265.531 432.946 259.23C439.247 252.93 443.288 249.402 443.288 249.402C443.288 249.402 446.443 259.744 440.59 266.033C436.291 270.476 431.627 274.549 426.646 278.209V270.019Z" fill="#43D795"/>
<path d="M430.849 293.748C430.849 293.748 429.757 289.38 434.224 281.736C438.69 274.092 441.726 269.561 441.726 269.561C441.726 269.561 447.382 278.777 443.331 286.345C440.292 291.723 436.807 296.837 432.913 301.633L430.849 293.748Z" fill="#43D795"/>
<path d="M442.894 156.92C442.576 161.6 442 166.259 441.169 170.876C438.679 183.739 432.433 192.039 429.965 203.636C427.497 215.233 434.627 230.226 432.716 245.132C430.805 260.037 424.985 268.348 426.623 278.307C428.261 288.266 436.997 315.216 436.997 315.216" stroke="black" stroke-width="1.28582" stroke-linecap="round" stroke-linejoin="round"/>
<path d="M441.868 168.692L448.649 163.473" stroke="black" stroke-width="1.28582" stroke-linecap="round" stroke-linejoin="round"/>
<path d="M442.173 162.697L439.345 157.641" stroke="black" stroke-width="1.28582" stroke-linecap="round" stroke-linejoin="round"/>
<path d="M430.347 203.113C430.347 203.113 436.025 198.843 441.867 194.584" stroke="black" stroke-width="1.28582" stroke-linecap="round" stroke-linejoin="round"/>
<path d="M433.186 194.201C433.186 194.201 428.447 184.919 423.085 178.76" stroke="black" stroke-width="1.28582" stroke-linecap="round" stroke-linejoin="round"/>
<path d="M433.187 241.431C436.44 235.455 440.541 229.982 445.362 225.182" stroke="black" stroke-width="1.28582" stroke-linecap="round" stroke-linejoin="round"/>
<path d="M432.084 247.742C430.342 243.68 428.268 239.768 425.881 236.047C422.605 231.155 422.081 230.521 422.081 230.521" stroke="black" stroke-width="1.28582" stroke-linecap="round" stroke-linejoin="round"/>
<path d="M426.646 278.295C428.088 274.72 429.8 271.259 431.767 267.943C433.731 264.856 435.945 261.934 438.385 259.207" stroke="black" stroke-width="1.28582" stroke-linecap="round" stroke-linejoin="round"/>
<path d="M432.902 301.577C432.572 298.165 433.16 294.727 434.605 291.618C436.975 287.042 439.65 281.036 440.764 278.678" stroke="black" stroke-width="1.28582" stroke-linecap="round" stroke-linejoin="round"/>
<path d="M401.093 218.116C401.093 218.116 400.601 215.309 403.866 210.668C407.131 206.027 409.326 203.33 409.326 203.33C409.326 203.33 412.417 209.467 409.436 214.054C407.221 217.299 404.737 220.353 402.01 223.183L401.093 218.116Z" fill="#43D795"/>
<path d="M409.872 234.78C409.872 234.78 409.381 231.952 412.646 227.321C415.911 222.691 418.106 219.994 418.106 219.994C418.106 219.994 421.196 226.142 418.215 230.718C416.003 233.966 413.519 237.02 410.789 239.847L409.872 234.78Z" fill="#43D795"/>
<path d="M402.173 222.877C402.173 222.877 401.409 220.125 396.44 217.417C391.472 214.709 388.381 213.158 388.381 213.158C388.381 213.158 388.261 220.005 392.946 222.877C396.348 224.84 399.91 226.513 403.593 227.878L402.173 222.877Z" fill="#43D795"/>
<path d="M412.7 242.478C412.7 242.478 411.608 239.825 406.41 237.608C401.212 235.391 397.947 234.223 397.947 234.223C397.947 234.223 398.548 241.069 403.495 243.406C407.086 244.999 410.805 246.288 414.611 247.261L412.7 242.478Z" fill="#43D795"/>
<path d="M415.321 265.357C415.321 265.357 414.829 262.539 410.199 259.274C405.569 256.009 402.632 254.186 402.632 254.186C402.632 254.186 401.78 261.032 406.137 264.33C409.313 266.637 412.677 268.672 416.194 270.413L415.321 265.357Z" fill="#43D795"/>
<path d="M416.337 270.913C416.337 270.913 415.452 268.194 418.03 263.149C420.607 258.104 422.398 255.123 422.398 255.123C422.398 255.123 426.329 260.758 424.036 265.726C422.287 269.252 420.249 272.627 417.942 275.816L416.337 270.913Z" fill="#43D795"/>
<path d="M424.242 293.66C424.242 293.66 424.569 290.821 429.003 287.294C433.436 283.767 436.265 281.834 436.265 281.834C436.265 281.834 437.51 288.604 433.349 292.164C430.311 294.649 427.071 296.877 423.663 298.826L424.242 293.66Z" fill="#43D795"/>
<path d="M423.075 286.65C423.075 286.65 422.583 283.821 417.953 280.556C413.323 277.291 410.397 275.479 410.397 275.479C410.397 275.479 409.545 282.325 413.891 285.623C417.071 287.928 420.439 289.963 423.959 291.706L423.075 286.65Z" fill="#43D795"/>
<path d="M423.008 301.981C423.008 301.981 423.26 299.12 419.601 294.796C415.943 290.472 413.574 287.949 413.574 287.949C413.574 287.949 411.018 294.337 414.393 298.651C416.885 301.693 419.624 304.523 422.583 307.114L423.008 301.981Z" fill="#43D795"/>
<path d="M400.601 217.461C401.311 220.364 402.183 223.226 403.21 226.033C406.159 233.819 410.964 238.351 413.781 245.362C416.598 252.372 413.781 262.539 416.566 271.679C419.35 280.819 423.937 285.372 423.969 291.826C424.002 298.28 421.512 316.112 421.512 316.112" stroke="black" stroke-width="1.28582" stroke-linecap="round" stroke-linejoin="round"/>
<path d="M402.533 224.745L397.718 222.223" stroke="black" stroke-width="1.28582" stroke-linecap="round" stroke-linejoin="round"/>
<path d="M401.682 221.021L402.916 217.549" stroke="black" stroke-width="1.28582" stroke-linecap="round" stroke-linejoin="round"/>
<path d="M413.498 245.066C413.498 245.066 409.468 243.013 405.352 240.971" stroke="black" stroke-width="1.28582" stroke-linecap="round" stroke-linejoin="round"/>
<path d="M410.746 239.847C411.931 236.109 413.493 232.501 415.409 229.08" stroke="black" stroke-width="1.28582" stroke-linecap="round" stroke-linejoin="round"/>
<path d="M415.878 269.418C413.19 266.025 410.027 263.039 406.486 260.551" stroke="black" stroke-width="1.28582" stroke-linecap="round" stroke-linejoin="round"/>
<path d="M417.254 273.263C417.892 270.534 418.757 267.864 419.842 265.28C421.36 261.84 421.622 261.393 421.622 261.393" stroke="black" stroke-width="1.28582" stroke-linecap="round" stroke-linejoin="round"/>
<path d="M423.762 296.697C425.324 294.756 427.057 292.958 428.938 291.324C430.136 290.437 431.261 289.454 432.301 288.387" stroke="black" stroke-width="1.28582" stroke-linecap="round" stroke-linejoin="round"/>
<path d="M423.97 291.826C422.664 289.743 421.204 287.76 419.602 285.896C418.033 284.184 416.328 282.602 414.502 281.168" stroke="black" stroke-width="1.28582" stroke-linecap="round" stroke-linejoin="round"/>
<path d="M422.605 307.113C422.431 304.927 421.677 302.828 420.421 301.031C418.433 298.41 416.053 294.937 415.157 293.572" stroke="black" stroke-width="1.28582" stroke-linecap="round" stroke-linejoin="round"/>
<path d="M443.549 346.863H414.873C414.303 346.863 413.756 346.64 413.348 346.243C412.94 345.845 412.703 345.303 412.689 344.734L408.572 313H449.763L445.646 344.734C445.632 345.288 445.408 345.817 445.019 346.213C444.629 346.608 444.104 346.841 443.549 346.863Z" fill="black"/>
<path d="M449.435 318.361H408.616C407.766 318.364 406.95 318.03 406.346 317.432C405.743 316.835 405.4 316.022 405.395 315.173C405.409 314.324 405.751 313.515 406.35 312.914C406.948 312.313 407.757 311.968 408.605 311.951H449.435C449.857 311.95 450.276 312.032 450.667 312.192C451.058 312.353 451.413 312.589 451.712 312.888C452.011 313.186 452.249 313.54 452.411 313.931C452.573 314.321 452.656 314.739 452.656 315.162C452.655 315.583 452.57 316 452.408 316.389C452.245 316.778 452.007 317.132 451.708 317.429C451.409 317.726 451.054 317.961 450.664 318.121C450.274 318.281 449.857 318.363 449.435 318.361Z" fill="black"/>
<path d="M357.411 191.438C357.409 200.4 354.372 209.097 348.793 216.111C343.215 223.126 335.425 228.043 326.693 230.062H326.573C325.536 230.291 324.498 230.499 323.428 230.652C321.551 230.919 319.657 231.054 317.761 231.056C307.396 231.019 297.458 226.925 290.075 219.65C282.691 212.376 278.45 202.5 278.259 192.137C278.067 181.774 281.941 171.749 289.051 164.207C296.161 156.665 305.941 152.207 316.297 151.787C316.658 151.787 317.04 151.787 317.389 151.787C317.505 151.777 317.622 151.777 317.739 151.787C317.873 151.777 318.008 151.777 318.143 151.787C323.492 151.822 328.778 152.956 333.671 155.118C340.729 158.21 346.734 163.292 350.95 169.742C355.166 176.193 357.411 183.732 357.411 191.438Z" fill="#43D795"/>
<path opacity="0.4" d="M333.694 155.129C287.906 152.749 287.688 203.581 287.688 203.581C287.688 203.581 280.699 186.994 292.11 168.637C298.487 158.361 309.582 153.83 318.165 151.82C323.513 151.848 328.799 152.974 333.694 155.129Z" fill="white"/>
<path d="M357.412 191.438C357.411 200.422 354.36 209.139 348.757 216.162C343.154 223.185 335.333 228.098 326.573 230.094C323.683 230.76 320.727 231.093 317.761 231.088C307.245 231.282 297.083 227.291 289.51 219.992C281.936 212.693 277.573 202.685 277.379 192.169C277.185 181.653 281.176 171.491 288.475 163.918C295.774 156.345 305.782 151.981 316.298 151.787C316.778 151.787 317.27 151.787 317.761 151.787C328.276 151.79 338.36 155.968 345.795 163.404C353.23 170.839 357.409 180.923 357.412 191.438V191.438Z" stroke="black" stroke-width="1.092" stroke-linecap="round" stroke-linejoin="round"/>
<path d="M357.412 191.438C357.411 200.422 354.36 209.139 348.757 216.162C343.155 223.185 335.333 228.098 326.574 230.094C326.093 230.094 325.602 230.094 325.111 230.094C315.378 230.069 305.994 226.465 298.746 219.97C291.498 213.474 286.891 204.54 285.803 194.868C284.714 185.197 287.22 175.462 292.843 167.518C298.467 159.574 306.814 153.975 316.298 151.787C316.779 151.787 317.27 151.787 317.761 151.787C328.276 151.79 338.36 155.968 345.795 163.404C353.231 170.839 357.409 180.923 357.412 191.438V191.438Z" stroke="black" stroke-width="1.092" stroke-linecap="round" stroke-linejoin="round"/>
<path d="M331.422 216.216L332.448 220.409L325.591 222.08L324.564 217.898C318.427 217.898 313.502 213.912 311.93 207.513L311.46 205.613L319.028 202.872L319.508 204.848C320.458 208.736 323.024 210.603 326.224 209.817C326.926 209.708 327.597 209.447 328.188 209.054C328.78 208.661 329.28 208.143 329.653 207.538C330.025 206.933 330.262 206.254 330.347 205.548C330.432 204.843 330.363 204.127 330.144 203.451C329.227 199.716 324.946 197.379 319.989 194.966C314.125 192.127 308.075 188.523 306.415 181.742C304.799 175.124 306.83 169.61 312.061 166.88L311.034 162.686L317.881 161.016L318.908 165.198C324.859 165.111 329.293 169.031 330.92 175.801L331.258 177.177L323.701 179.918L323.319 178.4C322.315 174.283 320.196 172.547 317.379 173.235C314.561 173.923 313.393 176.074 314.212 179.416C315.129 183.15 319.465 185.4 324.368 187.912C330.166 190.849 336.281 194.354 337.941 201.125C339.612 207.644 336.947 213.453 331.422 216.216Z" stroke="black" stroke-width="1.092" stroke-miterlimit="10"/>
<path opacity="0.3" d="M331.422 216.216L332.448 220.41L325.591 222.08L324.564 217.898C318.427 217.898 313.502 213.912 311.93 207.513L311.46 205.613L319.028 202.872L319.508 204.848C320.458 208.736 323.024 210.603 326.224 209.817C326.926 209.708 327.597 209.447 328.188 209.054C328.78 208.661 329.28 208.143 329.653 207.538C330.025 206.933 330.262 206.254 330.347 205.548C330.432 204.843 330.363 204.127 330.144 203.451C329.227 199.716 324.946 197.379 319.989 194.966C314.125 192.127 308.075 188.523 306.415 181.742C304.799 175.124 306.83 169.61 312.061 166.88L311.034 162.686L317.881 161.016L318.908 165.198C324.859 165.111 329.293 169.031 330.92 175.801L331.258 177.177L323.701 179.918L323.319 178.4C322.315 174.283 320.196 172.547 317.379 173.235C314.561 173.923 313.393 176.074 314.212 179.416C315.129 183.15 319.465 185.4 324.368 187.912C330.166 190.849 336.281 194.354 337.941 201.125C339.612 207.644 336.947 213.453 331.422 216.216Z" fill="black"/>
<path d="M297.493 225.531L305.869 225.148" stroke="black" stroke-width="1.092" stroke-linecap="round" stroke-linejoin="round"/>
<path d="M293.464 222.745L300.769 222.123" stroke="black" stroke-width="1.092" stroke-linecap="round" stroke-linejoin="round"/>
<path d="M290.188 219.808L297.494 219.186" stroke="black" stroke-width="1.092" stroke-linecap="round" stroke-linejoin="round"/>
<path d="M289.184 163.941H295.441" stroke="black" stroke-width="1.092" stroke-linecap="round" stroke-linejoin="round"/>
<path d="M292.273 161.059L298.509 160.775" stroke="black" stroke-width="1.092" stroke-linecap="round" stroke-linejoin="round"/>
<path d="M296.184 158.165L302.757 157.543" stroke="black" stroke-width="1.092" stroke-linecap="round" stroke-linejoin="round"/>
<path opacity="0.3" d="M326.693 230.062H326.573C323.683 230.727 320.726 231.06 317.761 231.055C307.396 231.018 297.458 226.924 290.075 219.65C282.691 212.376 278.45 202.5 278.259 192.137C278.067 181.774 281.941 171.748 289.051 164.206C296.161 156.665 305.941 152.207 316.297 151.787C316.658 151.787 317.04 151.787 317.389 151.787C307.725 154.834 291.509 162.62 287.174 178.858C281.048 201.932 294.839 228.129 326.693 230.062Z" fill="black"/>
<path opacity="0.1" d="M357.411 191.437C357.409 200.399 354.371 209.097 348.793 216.111C343.215 223.125 335.424 228.043 326.693 230.062H326.573C325.535 230.291 324.498 230.498 323.428 230.651L333.693 155.096C340.75 158.193 346.752 163.279 350.965 169.734C355.177 176.188 357.417 183.73 357.411 191.437Z" fill="black"/>
<path d="M379.907 129.02C376.768 133.454 372.217 136.694 366.999 138.209C361.781 139.724 356.203 139.426 351.177 137.362L351.035 137.297C350.289 136.969 349.56 136.605 348.851 136.205C348.049 135.774 347.276 135.293 346.536 134.764C341.698 131.069 338.444 125.677 337.429 119.675C336.414 113.674 337.716 107.511 341.07 102.432C344.424 97.3526 349.581 93.736 355.499 92.3127C361.417 90.8893 367.654 91.7653 372.951 94.7636L373.486 95.1021C373.737 95.244 373.978 95.4188 374.229 95.5935C374.48 95.7682 374.96 96.1286 375.321 96.4125C380.094 100.241 383.227 105.747 384.079 111.807C384.931 117.866 383.439 124.023 379.907 129.02Z" fill="#43D795"/>
<path opacity="0.4" d="M343.718 129.348C343.718 129.348 339.798 117.805 345.007 109.31C351.559 98.6626 361.594 93.8032 375.255 96.424C375.255 96.424 367.851 91.4227 355.457 94.9717C343.063 98.5207 336.413 115.578 343.718 129.348Z" fill="white"/>
<path d="M379.907 129.031C376.764 133.462 372.213 136.697 366.995 138.208C361.777 139.72 356.201 139.418 351.176 137.352C349.518 136.675 347.943 135.81 346.481 134.775C341.613 131.041 338.359 125.586 337.384 119.529C336.41 113.472 337.789 107.272 341.24 102.2C344.691 97.1277 349.952 93.5678 355.943 92.2502C361.935 90.9325 368.204 91.957 373.464 95.1135C373.704 95.2555 373.956 95.4193 374.196 95.594C379.379 99.2771 382.89 104.865 383.961 111.132C385.031 117.4 383.574 123.836 379.907 129.031Z" stroke="black" stroke-width="1.092" stroke-linecap="round" stroke-linejoin="round"/>
<path d="M379.906 129.031C376.763 133.462 372.212 136.697 366.994 138.209C361.776 139.72 356.2 139.418 351.176 137.352L350.444 136.872C345.7 133.433 342.376 128.379 341.098 122.661C339.82 116.942 340.676 110.954 343.505 105.823C346.333 100.691 350.94 96.7705 356.457 94.7983C361.975 92.826 368.023 92.9383 373.463 95.1138C373.704 95.2557 373.955 95.4195 374.195 95.5943C379.378 99.2774 382.89 104.865 383.96 111.133C385.031 117.4 383.573 123.837 379.906 129.031Z" stroke="black" stroke-width="1.092" stroke-linecap="round" stroke-linejoin="round"/>
<path d="M358.406 132.22L357.456 134.644L353.481 133.083L354.431 130.648C352.956 129.609 351.888 128.09 351.41 126.351C350.932 124.612 351.073 122.761 351.81 121.114L352.247 120.022L356.942 121.3L356.495 122.458C355.61 124.707 356.211 126.52 358.067 127.251C358.452 127.443 358.875 127.549 359.305 127.561C359.735 127.574 360.163 127.492 360.559 127.323C360.955 127.154 361.309 126.901 361.597 126.581C361.885 126.261 362.1 125.883 362.228 125.472C363.079 123.288 361.78 120.656 360.175 117.74C358.275 114.289 356.549 110.402 358.089 106.471C359.629 102.54 362.533 100.618 366.061 101.098L367.022 98.6738L370.986 100.235L370.035 102.649C373.006 104.68 373.825 108.109 372.285 112.095L371.968 112.881L367.273 111.603L367.622 110.719C368.561 108.338 368.124 106.733 366.53 106.089C364.936 105.444 363.571 106.089 362.806 108.043C361.955 110.227 363.32 112.826 364.859 115.775C366.705 119.258 368.496 123.124 366.956 127.044C366.372 128.778 365.193 130.249 363.628 131.197C362.063 132.144 360.213 132.507 358.406 132.22V132.22Z" stroke="black" stroke-width="1.092" stroke-miterlimit="10"/>
<path opacity="0.3" d="M358.406 132.22L357.456 134.644L353.481 133.083L354.431 130.648C352.956 129.609 351.888 128.09 351.41 126.351C350.932 124.612 351.073 122.761 351.81 121.114L352.247 120.022L356.942 121.3L356.495 122.458C355.61 124.707 356.211 126.52 358.067 127.251C358.452 127.443 358.875 127.549 359.305 127.561C359.735 127.574 360.163 127.492 360.559 127.323C360.955 127.154 361.309 126.901 361.597 126.581C361.885 126.261 362.1 125.883 362.228 125.472C363.079 123.288 361.78 120.656 360.175 117.74C358.275 114.289 356.549 110.402 358.089 106.471C359.629 102.54 362.533 100.618 366.061 101.098L367.022 98.6738L370.986 100.235L370.035 102.649C373.006 104.68 373.825 108.109 372.285 112.095L371.968 112.881L367.273 111.603L367.622 110.719C368.561 108.338 368.124 106.733 366.53 106.089C364.936 105.444 363.571 106.089 362.806 108.043C361.955 110.227 363.32 112.826 364.859 115.775C366.705 119.258 368.496 123.124 366.956 127.044C366.372 128.778 365.193 130.249 363.628 131.197C362.063 132.144 360.213 132.507 358.406 132.22Z" fill="black"/>
<path opacity="0.3" d="M372.895 94.7738C366.343 93.6053 358.044 92.961 353.567 95.8658C345.344 101.14 340.223 107.79 340.299 118.568C340.376 129.346 350.444 136.903 350.444 136.903L351.034 137.329C349.428 136.658 347.9 135.812 346.48 134.806C341.643 131.112 338.388 125.72 337.373 119.718C336.359 113.717 337.66 107.554 341.014 102.475C344.368 97.3956 349.525 93.779 355.443 92.3556C361.361 90.9323 367.599 91.8082 372.895 94.8065V94.7738Z" fill="black"/>
<path opacity="0.1" d="M379.906 129.02C376.766 133.455 372.216 136.694 366.998 138.209C361.78 139.725 356.202 139.426 351.176 137.363L351.034 137.297C350.288 136.97 349.559 136.605 348.85 136.205L375.254 96.4238C380.035 100.243 383.178 105.742 384.043 111.8C384.907 117.857 383.428 124.016 379.906 129.02Z" fill="black"/>
<path d="M367.546 436.539C357.381 448.766 345.264 459.226 331.684 467.497C327.453 470.029 323.078 472.311 318.58 474.333C287.557 488.278 252.198 489.184 219.132 481.169C149.604 464.319 112.717 402.949 108.032 334.819C106.776 316.408 103.959 296.523 111.417 279.007C118.875 261.491 133.956 250.615 151.013 243.058C163.396 237.544 176.773 233.842 188.927 230.817C210.922 225.383 234.123 227.777 254.546 237.587C268.84 244.369 279.017 256.151 291.04 266.078C292.314 267.126 293.595 268.171 294.884 269.212C307.029 278.987 319.796 287.964 333.104 296.086C353.317 308.415 374.01 320.044 386.929 340.749C407.535 373.749 390.15 409.676 367.546 436.539Z" fill="#3F8EF7"/>
<path opacity="0.4" d="M367.546 436.539C357.381 448.766 345.264 459.226 331.684 467.497C327.453 470.029 323.078 472.311 318.58 474.333C287.557 488.278 252.198 489.184 219.132 481.169C149.604 464.319 112.717 402.949 108.032 334.819C106.776 316.408 103.959 296.523 111.417 279.007C118.875 261.491 133.956 250.615 151.013 243.058C163.396 237.544 176.773 233.842 188.927 230.817C210.922 225.383 234.123 227.777 254.546 237.587C268.84 244.369 279.017 256.151 291.04 266.078C292.314 267.126 293.595 268.171 294.884 269.212C307.029 278.987 319.796 287.964 333.104 296.086C353.317 308.415 374.01 320.044 386.929 340.749C407.535 373.749 390.15 409.676 367.546 436.539Z" fill="white"/>
<path d="M294.84 269.212C293.551 268.178 292.27 267.13 290.996 266.067C278.984 256.119 268.785 244.369 254.501 237.588C234.078 227.783 210.879 225.389 188.883 230.817C159.978 237.992 124.128 249.043 111.351 279.018C103.893 296.49 106.71 316.408 107.977 334.819C112.716 402.949 149.604 464.32 219.131 481.169C256.958 490.342 297.755 487.83 331.684 467.497C345.263 459.226 357.381 448.766 367.545 436.539C390.15 409.676 407.534 373.749 386.95 340.749C374.043 320.001 353.349 308.415 333.125 296.086C319.795 287.967 307.006 278.99 294.84 269.212V269.212Z" stroke="black" stroke-width="1.092" stroke-miterlimit="10"/>
<path d="M189.516 390.697C183.728 392.449 178.11 394.723 172.732 397.49" stroke="black" stroke-width="1.092" stroke-linecap="round" stroke-linejoin="round"/>
<path d="M224.952 383.947C216.496 384.679 208.103 386.011 199.836 387.933" stroke="black" stroke-width="1.092" stroke-linecap="round" stroke-linejoin="round"/>
<path d="M217.581 382.2C217.581 382.2 184.952 363.221 145.574 378.433" stroke="black" stroke-width="1.092" stroke-linecap="round" stroke-linejoin="round"/>
<path opacity="0.1" d="M367.546 436.539C357.381 448.766 345.264 459.226 331.684 467.497C327.453 470.029 323.078 472.311 318.58 474.333C315.03 473.246 311.541 471.966 308.13 470.5C287.753 461.764 270.652 446.989 253.945 432.422C243.866 423.686 233.623 414.732 221.556 408.977C205.239 401.261 186.675 399.732 169.315 404.674C178.293 394.541 190.5 387.824 203.866 385.663C195.239 377.811 183.238 374.513 171.575 374.306C159.913 374.098 153.492 375.529 142.091 378.084C145.902 371.074 156.014 364.729 163.997 364.915C156.408 364.814 148.832 364.278 141.305 363.309C131.007 361.65 126.399 349.528 124.86 339.22C120.601 310.828 124.914 280.59 140.41 256.457C143.477 251.644 147.026 247.154 151.002 243.058C163.385 237.544 176.762 233.842 188.916 230.817C210.911 225.383 234.112 227.777 254.535 237.587C268.829 244.369 279.006 256.151 291.029 266.078C292.303 267.126 293.584 268.171 294.873 269.212C307.018 278.987 319.785 287.964 333.093 296.086C353.306 308.415 373.999 320.044 386.918 340.749C407.535 373.749 390.15 409.676 367.546 436.539Z" fill="black"/>
<path d="M378.924 435.709C385.046 440.799 391.452 445.539 398.11 449.905C411.094 450.779 405.274 466.471 405.274 466.471L394.157 473.623C394.157 473.623 375.124 458.499 364.728 453.596C354.332 448.693 378.924 435.709 378.924 435.709Z" fill="white"/>
<path opacity="0.3" d="M286.661 270.489C286.661 270.489 284.881 252.875 282.042 247.928L238.93 239.148V235.807C238.93 235.807 239.923 229.997 230.314 226.361C220.704 222.725 200.677 227.453 195.512 231.362C190.346 235.272 192.236 241.999 192.236 241.999C192.236 241.999 174.873 250.767 167.076 254.109C160.693 257.054 154.471 260.334 148.435 263.937C148.435 263.937 144.897 304.428 145.596 313.83C146.295 323.232 145.028 332.078 145.837 337.286C146.645 342.495 147.278 345.455 152.738 349.888C158.198 354.322 163.167 360.808 177.483 354.376L175.484 352.793L269.724 321.048L286.661 270.489Z" fill="black"/>
<path d="M286.661 270.489C286.661 270.489 284.881 252.875 282.042 247.928L238.93 239.148V235.807C238.93 235.807 239.923 229.997 230.314 226.361C220.704 222.725 200.677 227.453 195.512 231.362C190.346 235.272 192.236 241.999 192.236 241.999C192.236 241.999 174.873 250.767 167.076 254.109C160.693 257.054 154.471 260.334 148.435 263.937C148.435 263.937 144.897 304.428 145.596 313.83C146.295 323.232 145.028 332.078 145.837 337.286C146.645 342.495 147.278 345.455 152.738 349.888C158.198 354.322 163.167 360.808 177.483 354.376L175.484 352.793L269.724 321.048L286.661 270.489Z" fill="#3F8EF7"/>
<path opacity="0.05" d="M286.661 270.489C286.661 270.489 284.881 252.875 282.042 247.928L238.93 239.148V235.807C238.93 235.807 239.923 229.997 230.314 226.361C220.704 222.725 200.677 227.453 195.512 231.362C190.346 235.272 192.236 241.999 192.236 241.999C192.236 241.999 174.873 250.767 167.076 254.109C160.693 257.054 154.471 260.334 148.435 263.937C148.435 263.937 144.897 304.428 145.596 313.83C146.295 323.232 145.028 332.078 145.837 337.286C146.645 342.495 147.278 345.455 152.738 349.888C158.198 354.322 163.167 360.808 177.483 354.376L175.484 352.793L269.724 321.048L286.661 270.489Z" fill="black"/>
<path opacity="0.1" d="M282.609 250.068H264.569C262.873 250.071 261.232 250.675 259.939 251.772C258.645 252.87 257.783 254.39 257.504 256.063L248.615 309.571C248.615 309.571 236.374 310.587 227.703 316.91C219.033 323.232 197.706 278.122 164.007 278.1C164.007 278.1 173.704 300.268 175.855 317.958C175.855 317.958 154.79 315.665 151.296 323.909C147.802 332.154 152.879 347.606 161.79 341.622C170.701 335.637 179.087 325.657 185.039 331.968C190.99 338.28 217.58 341.676 217.58 341.676L258.498 321.048L274.364 313.59L282.609 250.068Z" fill="black"/>
<path opacity="0.4" d="M225.334 223.545C225.334 223.545 235.577 226.384 237.237 229.824C238.897 233.264 238.722 241.967 238.722 241.967C236.236 247.784 232.47 252.965 227.704 257.124L220.06 241.967L220.747 259.155C220.747 259.155 206.246 256.742 200.087 252.112L193.939 247.471C193.939 247.471 191.285 238.735 191.668 235.775C192.05 232.816 203.112 226.81 203.112 226.81L225.334 223.545Z" fill="white"/>
<path d="M395.948 488.583C395.664 487.96 400.152 480.032 396.636 471.962C393.12 463.893 387.518 467.005 387.518 467.005C387.518 467.005 371.564 456.849 364.859 453.639C360.028 451.212 355.375 448.446 350.936 445.361L343.849 454.905L350.401 475.173L395.948 488.583Z" fill="#3F8EF7"/>
<path d="M386.939 466.514L407.425 479.029C407.425 479.029 421.829 469.79 428.698 463.413C435.566 457.036 450.996 443.451 450.996 443.451L460.824 430.227C460.824 430.227 454.01 421.797 442.653 428.567C427.977 437.303 410.079 449.992 398.143 449.872C398.143 449.872 400.491 464.538 387.016 466.514" fill="#3F8EF7"/>
<path d="M221.862 170.604C221.862 170.604 231.155 184.668 232.848 189.222C234.54 193.776 235.905 200.513 235.567 203.757C235.228 207 231.821 224.374 230.107 224.876L228.458 226.743L229.55 234.103C229.55 234.103 222.277 246.672 200.896 237.456C200.896 237.456 200.066 222.779 197.467 218.171C194.868 213.563 190.98 219.045 187.082 205.733C183.183 192.422 195.599 178.433 195.599 178.433L221.862 170.604Z" fill="white"/>
<path opacity="0.5" d="M451.903 426.121C451.903 426.121 441.365 427.956 437.947 434.191C434.529 440.426 427.966 452.012 425.727 457.614C423.489 463.216 404.979 476.746 404.979 476.746L407.436 479.029C407.436 479.029 422.506 469.714 431.602 460.858C440.699 452.001 460.759 429.725 460.759 429.725C460.759 429.725 459.317 428.294 451.903 426.121Z" fill="white"/>
<path opacity="0.5" d="M346.458 451.4L343.849 454.906L351.864 471.526L395.948 487.371L397.99 480.917C397.99 480.917 398.667 474.365 383.193 469.386C367.72 464.406 358.285 461.119 353.884 457.701C349.483 454.283 346.458 451.4 346.458 451.4Z" fill="white"/>
<path d="M200.928 327.962C200.928 327.962 187.431 325.931 181.13 336.971C174.829 348.011 175.474 352.794 175.474 352.794C175.474 352.794 184.395 360.896 196.658 360.438C208.922 359.979 226.776 345.936 232.596 341.36C238.417 336.785 253.093 323.692 263.107 326.4L264.199 316.932C264.199 316.932 263.216 312.685 254.655 313.831C246.093 314.978 242.73 319.859 239.967 319.859C237.204 319.859 234.595 317.205 229.047 326.684C229.036 326.684 209.566 330.135 200.928 327.962Z" fill="white"/>
<path d="M218.466 190.828C218.753 192.598 219.162 194.345 219.689 196.059C219.886 196.895 220.258 197.68 220.781 198.363C221.807 199.455 223.467 199.739 224.985 199.968C225.236 199.986 225.474 200.086 225.662 200.252C225.785 200.448 225.842 200.677 225.826 200.907C225.817 202.627 225.3 204.306 224.341 205.734" stroke="black" stroke-width="1.092" stroke-linecap="round" stroke-linejoin="round"/>
<path opacity="0.1" d="M355.511 440.076L346.458 451.357C346.458 451.357 356.395 460.54 366.682 463.947C376.969 467.354 394.976 473.775 397.989 478.722L396.832 472.836C396.832 472.836 368.669 455.561 362.205 451.433C360.293 450.179 358.696 448.503 357.535 446.534C356.374 444.565 355.682 442.356 355.511 440.076Z" fill="black"/>
<path opacity="0.1" d="M386.939 466.514L404.968 476.746C404.968 476.746 413.868 470.653 418.236 466.165C422.604 461.677 427.988 456.697 431.34 446.64C435.916 432.739 449.02 426.121 449.02 426.121C449.02 426.121 430.794 434.704 421.305 441.409C411.815 448.114 402.566 450.953 397.193 450.495C397.139 450.527 401.452 464.177 386.939 466.514Z" fill="black"/>
<path d="M212.11 208.213C212.11 208.213 219.197 213.771 226.558 211.685C226.558 211.685 219.612 225.445 212.11 208.213Z" fill="white" stroke="black" stroke-width="1.092" stroke-linecap="round" stroke-linejoin="round"/>
<path d="M211.848 196.201C212.056 197.729 211.586 199.051 210.822 199.16C210.057 199.269 209.26 198.068 209.053 196.572C208.845 195.076 209.304 193.722 210.079 193.613C210.855 193.503 211.685 194.672 211.848 196.201Z" fill="black"/>
<path d="M227.278 193.415C227.475 194.955 227.016 196.276 226.252 196.374C225.487 196.473 224.679 195.282 224.483 193.797C224.286 192.312 224.734 190.936 225.509 190.838C226.284 190.74 227.071 191.886 227.278 193.415Z" fill="black"/>
<path d="M210.756 189.715C210.756 189.715 206.628 187.585 203.69 192.15" stroke="black" stroke-width="1.092" stroke-linecap="round" stroke-linejoin="round"/>
<path d="M221.337 186.876C221.337 186.876 225.705 183.13 228.227 186.876" stroke="black" stroke-width="1.092" stroke-linecap="round" stroke-linejoin="round"/>
<path d="M196.735 203.768C196.735 203.768 194.081 199.847 191.275 199.968C188.469 200.088 187.355 204.019 188.359 207.819C189.364 211.619 193.546 216.926 196.713 216.424C198.499 216.194 200.129 215.287 201.267 213.891" stroke="black" stroke-width="1.092" stroke-linecap="round" stroke-linejoin="round"/>
<path d="M222.178 173.771C225.16 176.25 228.315 178.948 229.822 182.595C231.155 185.696 231.449 189.147 232.673 192.281C233.972 195.633 235.392 199.139 235.501 202.797C235.443 206.181 235 209.548 234.179 212.832C233.726 215.68 233.051 218.488 232.159 221.23C230.685 225.15 227.966 227.563 224.319 229.42C221.665 230.774 217.243 232.696 214.371 230.883C212.7 229.791 210.188 226.668 208.103 223.796" stroke="black" stroke-width="1.092" stroke-linecap="round" stroke-linejoin="round"/>
<path d="M196.734 216.424C196.734 216.424 201.43 227.934 200.294 236.025" stroke="black" stroke-width="1.092" stroke-linecap="round" stroke-linejoin="round"/>
<path d="M195.534 201.835C196.159 201.373 196.654 200.757 196.972 200.047C197.289 199.338 197.418 198.558 197.347 197.784C197.172 196.015 195.949 194.377 196.189 192.608C196.39 191.761 196.706 190.945 197.128 190.184C197.764 188.715 198.044 187.116 197.946 185.518C197.847 183.921 197.372 182.369 196.56 180.989C196.56 180.989 211.477 181.688 218.466 177.243C225.455 172.799 230.784 161.431 226.558 156.004C222.332 150.577 214.098 157.981 207.994 158.8C201.889 159.619 180.18 163.08 176.719 171.445C173.257 179.81 178.531 182.813 178.695 190.795C178.859 198.778 178.859 213.902 190.795 212.515C190.795 212.515 186.328 206.738 189.43 200.787C191.537 198.286 195.534 201.835 195.534 201.835Z" fill="black"/>
<path d="M224.788 165.439C226.813 167.017 228.492 168.995 229.721 171.249C230.95 173.503 231.701 175.986 231.929 178.543C232.596 184.528 243.21 196.157 235.555 202.786C235.555 202.786 233.775 195.742 232.727 192.27C231.678 188.797 230.335 182.442 228.577 180.258C226.819 178.074 217.493 170.43 217.493 170.43L224.788 165.439Z" fill="black"/>
<path d="M198.11 235.775C198.11 235.775 205.47 240.624 219.142 240.82L220.747 259.155C220.747 259.155 205.372 257.986 193.939 247.47C193.939 247.47 190.848 239.291 191.667 235.775C192.486 232.259 199.836 228.775 199.836 228.775" stroke="black" stroke-width="1.092" stroke-linecap="round" stroke-linejoin="round"/>
<path d="M229.036 227.573L229.473 234.125C226.591 237.127 223.056 239.425 219.143 240.841L227.704 257.145C227.704 257.145 237.914 249.195 238.93 240.841C238.93 240.841 239.017 232.291 237.237 229.845C235.457 227.399 228.971 226.252 228.971 226.252" stroke="black" stroke-width="1.092" stroke-linecap="round" stroke-linejoin="round"/>
<path opacity="0.8" d="M187.605 176.905C188.697 174.164 191.69 172.537 194.605 172.1C197.521 171.663 200.513 171.969 203.461 171.893C207.544 171.86 211.542 170.728 215.037 168.617C216.773 167.559 218.283 166.17 219.483 164.529C220.682 162.888 221.546 161.026 222.025 159.051" stroke="white" stroke-width="1.092" stroke-linecap="round" stroke-linejoin="round"/>
<path opacity="0.8" d="M180.562 176.37C182.408 170.768 188.392 167.306 194.278 166.815C197.194 166.564 200.142 166.902 203.014 166.564C205.886 166.225 208.944 165.024 210.461 162.523" stroke="white" stroke-width="1.092" stroke-linecap="round" stroke-linejoin="round"/>
<path d="M177.461 354.377C163.265 361.737 158.22 354.159 150.314 347.891C142.408 341.623 147.595 330.419 145.946 312.455C144.297 294.492 148.403 263.938 148.403 263.938C148.403 263.938 151.941 263.13 161.758 257.124C171.575 251.118 192.236 241.967 192.236 241.967" stroke="black" stroke-width="1.092" stroke-linecap="round" stroke-linejoin="round"/>
<path d="M191.526 327.186C191.526 327.186 189.277 320.055 182.921 319.87C176.566 319.684 166.541 322.545 159.399 336.053" stroke="black" stroke-width="1.092" stroke-linecap="round" stroke-linejoin="round"/>
<path d="M181.468 319.444C181.073 319.419 180.685 319.326 180.321 319.171C175.082 317.286 169.396 317.027 164.007 318.429" stroke="black" stroke-width="1.092" stroke-linecap="round" stroke-linejoin="round"/>
<path d="M160.35 273.689C171.914 286.466 177.549 303.37 182.888 319.75" stroke="black" stroke-width="1.092" stroke-linecap="round" stroke-linejoin="round"/>
<path d="M238.93 239.148C238.93 239.148 259.896 244.15 270.139 245.34C280.382 246.53 282.042 247.961 282.042 247.961L283.953 255.103" stroke="black" stroke-width="1.092" stroke-linecap="round" stroke-linejoin="round"/>
<path d="M336.631 251.576L265.225 254.317L259.394 327.754H271.624L333.628 313.875L341.425 253.334L336.631 251.576Z" fill="white"/>
<path d="M263.105 329.927L341.205 255.07L333.627 313.874L263.105 329.927Z" fill="#3F8EF7"/>
<path opacity="0.7" d="M263.105 329.927L341.205 255.07L333.627 313.874L263.105 329.927Z" fill="white"/>
<path d="M263.105 327.961L269.352 257.123L341.424 253.334L333.627 313.874L263.105 327.961Z" stroke="black" stroke-width="1.092" stroke-linecap="round" stroke-linejoin="round"/>
<path d="M311.045 287.656C310.564 291.969 308.26 295.245 305.901 294.983C303.542 294.721 302.036 290.997 302.516 286.684C302.996 282.37 305.312 279.094 307.67 279.356C310.029 279.619 311.536 283.342 311.045 287.656Z" fill="black"/>
<path d="M333.627 313.874C333.627 313.874 366.627 312.935 376.947 319.749C387.266 326.563 393.327 360.732 391.896 378.881C390.466 397.03 378.017 438.679 378.017 438.679L354.168 411.684C354.168 411.684 342.418 368.965 348.828 352.236C348.828 352.236 317.16 354.016 304.689 350.106C304.689 350.106 293.518 331.816 274.364 325.766L333.627 313.874Z" fill="black"/>
<path d="M383.051 439.389C374.581 431.481 366.974 422.696 360.36 413.181C348.817 395.349 332.863 378.237 316.45 364.882C303.226 354.158 300.234 336.686 283.92 327.918C256.893 313.427 233.524 342.223 224.788 348.054C216.052 353.885 200.928 360.492 200.928 360.492C200.928 360.492 206.453 381.24 222.68 383.697C238.907 386.154 255.32 374.961 263.084 380.366C270.848 385.772 276.592 409.905 302.233 424.046C323.188 435.6 351.744 446.869 366.475 454.469C369.751 456.173 372.197 457.964 374.053 458.979C379.142 461.753 384.58 465.018 389.713 468.25L407.392 479.018C407.392 479.018 425.137 468.523 431.951 458.848C432.858 457.549 434.747 454.087 436.516 450.746C440.371 443.44 445.252 436.888 452.011 433.274C456.685 430.751 460.846 429.998 460.747 429.736C460.3 428.906 451.826 424.57 446.071 426.94C433.884 431.974 409.522 451.314 398.023 449.872C392.674 446.919 387.656 443.405 383.051 439.389V439.389Z" stroke="black" stroke-width="1.092" stroke-miterlimit="10"/>
<path d="M383.051 439.388C372.426 443.68 368.146 450.308 366.508 454.48C351.777 446.836 323.221 435.61 302.265 424.057C276.625 409.861 270.925 385.771 263.117 380.377C255.309 374.982 238.886 386.208 222.713 383.707C206.541 381.207 200.928 360.481 200.928 360.481C200.928 360.481 216.063 353.929 224.799 348.097C233.535 342.266 253.682 313.459 283.92 327.961C300.616 335.965 303.226 354.169 316.45 364.925C332.83 378.236 348.817 395.392 360.36 413.224C366.958 422.738 374.566 431.511 383.051 439.388Z" fill="black"/>
<path d="M303.205 346.808C303.205 346.808 295.026 330.188 281.911 326.967" stroke="white" stroke-width="1.092" stroke-linecap="round" stroke-linejoin="round"/>
<path d="M260.332 313.721C251.312 311.755 241.408 321.725 237.236 319.858C234.135 318.471 229.035 326.683 229.035 326.683C220.641 327.895 212.153 328.323 203.679 327.961C191.525 327.185 185.77 329.555 181.468 336.052L175.462 351.963C175.462 351.963 191.307 366.159 208.222 357.892C225.137 349.626 247.61 324.685 263.095 324.772" stroke="black" stroke-width="1.092" stroke-linecap="round" stroke-linejoin="round"/>
<path d="M386.251 466.088C386.251 466.088 401.059 467.3 397.586 449.609" stroke="black" stroke-width="1.092" stroke-miterlimit="10"/>
<path d="M456.03 438.679C454.938 440.863 441.364 452.416 429.669 462.517C429.669 462.364 432.945 456.195 434.299 453.563C437.411 447.754 445.448 431.821 460.747 429.725C462.92 431.035 456.03 438.679 456.03 438.679Z" fill="black"/>
<path d="M450.21 426.242C434.737 429.322 431.22 449.174 425.727 457.615C420.235 466.057 404.979 477.533 404.979 477.533" stroke="black" stroke-width="1.092" stroke-miterlimit="10"/>
<path d="M396.636 472.466C399.158 477.074 397.968 482.425 396.636 485.777C395.983 487.442 395.171 489.04 394.212 490.549C372.306 486.946 350.401 475.174 350.401 475.174L344.755 457.702L343.849 454.906L352.355 443.451" stroke="black" stroke-width="1.092" stroke-miterlimit="10"/>
<path d="M396.636 485.776C395.983 487.441 395.171 489.04 394.212 490.549C372.306 486.945 350.401 475.173 350.401 475.173L344.755 457.701C347.583 461.392 352.825 466.798 360.687 469.014C371.356 472.039 391.045 475.577 396.636 485.776Z" fill="black"/>
<path d="M259.394 325.199L265.225 254.317L336.631 251.576L341.425 253.334" stroke="black" stroke-width="1.092" stroke-linecap="round" stroke-linejoin="round"/>
<path d="M397.488 457.614C397.488 457.614 407.251 459.361 414.753 453.246C422.255 447.131 434.343 433.295 434.343 433.295" stroke="black" stroke-width="1.092" stroke-miterlimit="10"/>
<path d="M407.425 448.812C407.425 448.812 405.067 452.361 407.425 459.481" stroke="black" stroke-width="1.092" stroke-linecap="round" stroke-linejoin="round"/>
<path d="M414.348 445.416C413.275 448.955 413.591 452.771 415.233 456.085" stroke="black" stroke-width="1.092" stroke-linecap="round" stroke-linejoin="round"/>
<path d="M422.604 440.635C422.604 440.635 420.628 446.564 422.604 451.795" stroke="black" stroke-width="1.092" stroke-linecap="round" stroke-linejoin="round"/>
<path d="M354.288 441.977L346.458 451.401C346.458 451.401 354.342 460.016 365.47 463.598C376.597 467.18 396.472 473.262 398.121 479.738" stroke="black" stroke-width="1.092" stroke-miterlimit="10"/>
</svg>
