<svg width="470" height="424" viewBox="0 0 470 424" fill="none" xmlns="http://www.w3.org/2000/svg">
<path d="M457.391 316.233C467.33 228.612 419.222 112.169 369.343 64.0871C279.31 -22.7299 204.504 -5.94442 146.333 25.1388C88.1615 56.2221 79.8442 160.051 39.6646 207.015C-0.514954 253.979 -23.3562 317.151 37.5916 380.046C98.5394 442.941 147.715 410.978 211.439 406.983C275.164 402.988 359.694 434.398 405.364 407.096C437.289 388.049 453.007 355.006 457.391 316.233Z" fill="#43D795"/>
<path opacity="0.7" d="M457.391 316.233C467.33 228.612 419.222 112.169 369.343 64.0871C279.31 -22.7299 204.504 -5.94442 146.333 25.1388C88.1615 56.2221 79.8442 160.051 39.6646 207.015C-0.514954 253.979 -23.3562 317.151 37.5916 380.046C98.5394 442.941 147.715 410.978 211.439 406.983C275.164 402.988 359.694 434.398 405.364 407.096C437.289 388.049 453.007 355.006 457.391 316.233Z" fill="white"/>
<path d="M229.254 143.618C221.251 139.246 217.608 142.889 214.693 139.246C211.778 135.602 222.709 126.142 200.872 116.631C200.872 116.631 199.415 96.2393 169.563 95.5106C139.711 94.7819 147.727 115.902 139.711 120.99C131.695 126.079 129.522 118.088 121.506 123.176C113.49 128.265 117.146 138.467 110.588 139.924C104.029 141.382 95.2974 133.378 87.2942 138.467C79.2909 143.555 79.2784 147.94 75.6474 147.94C72.0164 147.94 64.7167 145.025 60.357 147.94C55.9973 150.855 50.8838 154.486 50.8838 154.486H235.084C235.084 154.486 237.245 147.99 229.254 143.618Z" fill="#43D795"/>
<path d="M347.934 85.4961C344.692 83.7121 343.21 85.1946 342.029 83.7121C340.848 82.2295 345.283 78.3975 336.413 74.5529C336.413 74.5529 335.822 66.2859 323.71 65.9843C311.599 65.6828 314.84 74.264 311.599 76.3244C308.357 78.3849 307.453 75.1434 304.211 77.2165C300.97 79.2895 302.44 83.4231 299.776 84.0136C297.113 84.6041 293.569 81.35 290.315 83.4231C287.061 85.4961 287.074 87.2676 285.591 87.2676C284.109 87.2676 281.156 86.0866 279.385 87.2676C277.613 88.4487 275.553 89.9186 275.553 89.9186H350.321C350.321 89.9186 351.188 87.2677 347.934 85.4961Z" fill="#43D795"/>
<path d="M242.836 238.878C239.582 237.106 238.112 238.589 236.931 237.106C235.75 235.623 240.172 231.791 231.315 227.947C231.315 227.947 230.724 219.667 218.613 219.378C206.501 219.089 209.742 227.658 206.488 229.718C203.234 231.779 202.355 228.537 199.101 230.61C195.847 232.683 197.329 236.817 194.678 237.408C192.027 237.998 188.472 234.744 185.218 236.817C181.964 238.89 181.964 240.674 180.494 240.674C179.024 240.674 176.058 239.493 174.287 240.674C172.515 241.855 170.442 243.338 170.442 243.338H245.198C245.198 243.338 246.04 240.674 242.836 238.878Z" fill="#43D795"/>
<g opacity="0.4">
<path opacity="0.4" d="M229.254 143.618C221.251 139.246 217.608 142.889 214.693 139.246C211.778 135.602 222.709 126.142 200.872 116.631C200.872 116.631 199.415 96.2393 169.563 95.5106C139.711 94.7819 147.727 115.902 139.711 120.99C131.695 126.079 129.522 118.088 121.506 123.176C113.49 128.265 117.146 138.467 110.588 139.924C104.029 141.382 95.2974 133.378 87.2942 138.467C79.2909 143.555 79.2784 147.94 75.6474 147.94C72.0164 147.94 64.7167 145.025 60.357 147.94C55.9973 150.855 50.8838 154.486 50.8838 154.486H235.084C235.084 154.486 237.245 147.99 229.254 143.618Z" fill="white"/>
</g>
<g opacity="0.4">
<path opacity="0.4" d="M347.934 85.4961C344.692 83.7121 343.21 85.1946 342.029 83.7121C340.848 82.2295 345.283 78.3975 336.413 74.5529C336.413 74.5529 335.822 66.2859 323.71 65.9843C311.599 65.6828 314.84 74.264 311.599 76.3244C308.357 78.3849 307.453 75.1434 304.211 77.2165C300.97 79.2895 302.44 83.4231 299.776 84.0136C297.113 84.6041 293.569 81.35 290.315 83.4231C287.061 85.4961 287.074 87.2676 285.591 87.2676C284.109 87.2676 281.156 86.0866 279.385 87.2676C277.613 88.4487 275.553 89.9186 275.553 89.9186H350.321C350.321 89.9186 351.188 87.2677 347.934 85.4961Z" fill="white"/>
</g>
<g opacity="0.4">
<path opacity="0.4" d="M242.836 238.878C239.582 237.106 238.112 238.589 236.931 237.106C235.75 235.623 240.172 231.791 231.315 227.947C231.315 227.947 230.724 219.667 218.613 219.378C206.501 219.089 209.742 227.658 206.488 229.718C203.234 231.779 202.355 228.537 199.101 230.61C195.847 232.683 197.329 236.817 194.678 237.408C192.027 237.998 188.472 234.744 185.218 236.817C181.964 238.89 181.964 240.674 180.494 240.674C179.024 240.674 176.058 239.493 174.287 240.674C172.515 241.855 170.442 243.338 170.442 243.338H245.198C245.198 243.338 246.04 240.674 242.836 238.878Z" fill="white"/>
</g>
<path d="M469.264 257.473H1.88477V261.732H469.264V257.473Z" fill="#263238"/>
<path d="M360.372 259.985V56.4492" stroke="#263238" stroke-linecap="round" stroke-linejoin="round"/>
<path d="M149.298 259.985V25.4531" stroke="#263238" stroke-linecap="round" stroke-linejoin="round"/>
<path d="M14.5488 144.133H452.391" stroke="#263238" stroke-linecap="round" stroke-linejoin="round"/>
<path d="M230.964 32.842H243.528C244.634 32.842 245.695 33.2814 246.477 34.0637C247.26 34.846 247.699 35.9069 247.699 37.0132V49.7028H226.755V37.0132C226.755 36.4622 226.864 35.9167 227.076 35.4082C227.288 34.8996 227.599 34.4381 227.99 34.0503C228.381 33.6625 228.846 33.356 229.356 33.1486C229.866 32.9412 230.413 32.837 230.964 32.842Z" fill="#263238"/>
<path d="M236.931 75.0816C242.309 75.0816 246.668 70.7221 246.668 65.3445C246.668 59.9669 242.309 55.6074 236.931 55.6074C231.554 55.6074 227.194 59.9669 227.194 65.3445C227.194 70.7221 231.554 75.0816 236.931 75.0816Z" fill="#43D795"/>
<path opacity="0.4" d="M236.931 75.0816C242.309 75.0816 246.668 70.7221 246.668 65.3445C246.668 59.9669 242.309 55.6074 236.931 55.6074C231.554 55.6074 227.194 59.9669 227.194 65.3445C227.194 70.7221 231.554 75.0816 236.931 75.0816Z" fill="white"/>
<path d="M278.606 65.8095H195.797L226.855 48.8984H247.472L278.606 65.8095Z" fill="#263238"/>
<path d="M238.955 1.31836H235.449V35.1657H238.955V1.31836Z" fill="#263238"/>
<path d="M375.964 175.844C377.439 176.235 378.963 176.404 380.487 176.346C380.487 176.346 379.796 174.248 379.734 174.123C379.03 172.64 376.806 170.215 374.997 170.454C374.697 170.503 374.411 170.614 374.157 170.781C373.903 170.948 373.687 171.167 373.524 171.423C373.36 171.679 373.252 171.967 373.207 172.268C373.162 172.568 373.181 172.875 373.263 173.168C373.491 173.784 373.851 174.342 374.318 174.804C374.785 175.267 375.346 175.621 375.964 175.844V175.844Z" fill="#263238"/>
<path d="M417.978 164.925C416.169 164.724 414.008 167.224 413.342 168.694C413.342 168.833 412.625 170.943 412.651 170.943L411.558 172.2C410.841 173.079 410.05 174.072 409.258 175.203C408.398 176.417 407.601 177.675 406.871 178.972C406.063 180.44 405.382 181.974 404.836 183.558C404.836 183.017 404.836 181.522 404.836 181.409C404.622 179.788 403.265 176.786 401.469 176.459C401.168 176.407 400.86 176.42 400.564 176.496C400.269 176.572 399.993 176.711 399.755 176.902C399.517 177.094 399.323 177.334 399.185 177.606C399.047 177.878 398.969 178.177 398.956 178.482C398.977 179.14 399.144 179.785 399.444 180.372C399.743 180.958 400.169 181.471 400.69 181.874C401.954 182.7 403.334 183.331 404.786 183.746C404.255 185.391 403.835 187.07 403.529 188.772C403.353 189.752 403.215 190.744 403.077 191.737C403.077 191.272 403.077 190.857 403.077 190.794C402.876 189.186 401.519 186.171 399.722 185.844C399.421 185.796 399.113 185.812 398.819 185.891C398.524 185.97 398.249 186.11 398.012 186.302C397.775 186.494 397.581 186.733 397.443 187.005C397.305 187.277 397.225 187.575 397.21 187.88C397.237 188.535 397.406 189.176 397.706 189.76C398.005 190.343 398.427 190.855 398.943 191.259C400.168 192.073 401.512 192.692 402.926 193.094L402.775 194.237C402.562 196.071 402.348 197.906 402.084 199.69C401.996 200.331 401.883 200.946 401.77 201.562C401.77 201.147 401.77 200.808 401.77 200.758C401.557 199.137 400.2 196.134 398.403 195.795C398.102 195.745 397.793 195.759 397.497 195.837C397.202 195.915 396.926 196.055 396.689 196.248C396.451 196.44 396.258 196.68 396.12 196.953C395.982 197.226 395.904 197.525 395.89 197.83C395.916 198.488 396.084 199.132 396.384 199.717C396.683 200.303 397.106 200.817 397.624 201.223C398.81 202.013 400.111 202.614 401.481 203.007C401.356 203.647 401.217 204.263 401.054 204.879C400.941 205.293 400.853 205.695 400.715 206.135C400.577 206.575 400.464 206.939 400.325 207.391C400.062 208.145 399.773 208.924 399.496 209.653C399.295 210.156 399.107 210.646 398.906 211.123C399.006 210.495 399.17 209.263 399.17 209.163C399.154 207.728 398.768 206.322 398.051 205.08C398.064 204.921 398.064 204.761 398.051 204.602C398.014 204.302 397.913 204.012 397.756 203.753C397.599 203.494 397.39 203.27 397.141 203.097C396.892 202.924 396.61 202.806 396.312 202.749C396.014 202.692 395.708 202.699 395.413 202.768C393.641 203.233 392.523 206.336 392.448 207.969C392.448 208.057 392.448 209.113 392.548 209.766C392.46 209.389 392.385 209.012 392.284 208.623C392.096 207.844 391.895 207.065 391.669 206.236C391.556 205.834 391.43 205.431 391.304 204.979C391.179 204.527 391.015 204.163 390.877 203.723C390.526 202.768 390.123 201.813 389.709 200.871C391.137 200.575 392.511 200.058 393.78 199.338C394.325 198.973 394.785 198.495 395.128 197.935C395.471 197.376 395.688 196.748 395.765 196.096C395.771 195.794 395.714 195.493 395.597 195.213C395.48 194.934 395.305 194.682 395.085 194.474C394.865 194.266 394.604 194.106 394.319 194.004C394.033 193.903 393.73 193.862 393.428 193.885C391.606 194.086 390.036 196.976 389.659 198.572C389.659 198.672 389.533 199.828 389.495 200.494C389.231 199.928 388.968 199.351 388.691 198.785C387.875 197.152 387.008 195.519 386.178 193.898L385.399 192.39C386.877 192.085 388.3 191.56 389.621 190.832C390.167 190.468 390.628 189.99 390.971 189.43C391.313 188.87 391.53 188.243 391.606 187.591C391.612 187.288 391.555 186.988 391.438 186.709C391.321 186.43 391.147 186.179 390.926 185.972C390.706 185.765 390.445 185.606 390.159 185.506C389.874 185.406 389.571 185.367 389.269 185.392C387.447 185.58 385.877 188.483 385.5 190.078C385.5 190.191 385.324 191.888 385.299 192.315C384.734 191.209 384.168 190.116 383.666 188.998C382.973 187.505 382.377 185.969 381.881 184.399C383.367 184.089 384.798 183.559 386.128 182.829C386.673 182.463 387.132 181.984 387.474 181.425C387.817 180.865 388.035 180.239 388.113 179.587C388.121 179.283 388.065 178.981 387.949 178.7C387.833 178.419 387.659 178.166 387.439 177.956C387.219 177.747 386.957 177.586 386.67 177.484C386.384 177.382 386.079 177.341 385.776 177.364C383.955 177.565 382.384 180.454 382.007 182.063C382.007 182.188 381.819 183.997 381.819 184.337C381.793 184.242 381.759 184.149 381.718 184.06C381.275 182.468 380.969 180.842 380.801 179.198C380.701 178.281 380.65 177.414 380.625 176.559C382.101 176.428 383.547 176.064 384.909 175.479C385.493 175.178 386.004 174.753 386.408 174.234C386.811 173.716 387.098 173.116 387.246 172.476C387.295 172.171 387.277 171.859 387.196 171.561C387.114 171.263 386.969 170.986 386.772 170.748C386.575 170.51 386.329 170.317 386.051 170.182C385.773 170.047 385.47 169.972 385.161 169.963C383.339 169.963 381.454 172.665 380.952 174.223C380.952 174.311 380.738 175.19 380.613 175.843C380.613 175.454 380.613 175.064 380.613 174.7C380.613 173.318 380.7 172.049 380.788 170.931C380.788 170.29 380.902 169.674 380.964 169.184C382.204 168.381 383.314 167.394 384.256 166.257C384.64 165.718 384.901 165.1 385.018 164.448C385.135 163.797 385.107 163.127 384.935 162.488C384.835 162.2 384.676 161.936 384.467 161.714C384.259 161.491 384.006 161.315 383.726 161.196C383.445 161.078 383.142 161.02 382.838 161.026C382.533 161.032 382.233 161.102 381.957 161.231C380.336 162.073 379.909 165.34 380.173 166.948C380.173 167.086 380.814 169.222 380.839 169.197C380.763 169.712 380.7 170.265 380.625 170.868C380.525 171.986 380.399 173.255 380.374 174.637C380.321 176.133 380.355 177.631 380.474 179.123C380.611 180.789 380.888 182.441 381.304 184.06V184.123C381.015 183.671 380.173 182.439 380.047 182.351C378.979 181.095 376.19 179.361 374.506 180.077C374.23 180.203 373.984 180.385 373.783 180.612C373.582 180.839 373.431 181.105 373.339 181.395C373.248 181.684 373.219 181.989 373.253 182.29C373.288 182.591 373.385 182.882 373.539 183.143C373.924 183.676 374.419 184.12 374.992 184.443C375.565 184.766 376.201 184.961 376.856 185.015C378.369 184.998 379.871 184.761 381.316 184.311C381.782 185.949 382.362 187.553 383.05 189.111C383.439 190.028 383.867 190.933 384.306 191.837C384.042 191.448 383.804 191.109 383.766 191.071C382.698 189.814 379.909 188.081 378.225 188.797C377.95 188.923 377.705 189.106 377.505 189.334C377.306 189.561 377.156 189.828 377.066 190.117C376.976 190.406 376.948 190.711 376.983 191.011C377.018 191.312 377.116 191.602 377.271 191.862C377.654 192.397 378.149 192.841 378.722 193.165C379.295 193.488 379.932 193.682 380.587 193.734C382.053 193.731 383.51 193.506 384.909 193.069L385.425 194.099C386.254 195.745 387.083 197.391 387.849 199.036C388.126 199.602 388.377 200.18 388.616 200.758C388.39 200.418 388.189 200.142 388.151 200.104C387.083 198.848 384.294 197.114 382.623 197.818C382.346 197.944 382.1 198.128 381.898 198.356C381.697 198.584 381.546 198.852 381.455 199.142C381.364 199.432 381.335 199.738 381.369 200.04C381.404 200.342 381.501 200.634 381.655 200.896C382.041 201.427 382.537 201.869 383.11 202.19C383.682 202.511 384.318 202.704 384.972 202.755C386.399 202.768 387.82 202.556 389.181 202.127C389.42 202.73 389.659 203.384 389.86 203.924C389.985 204.326 390.136 204.703 390.249 205.18L390.588 206.437C390.777 207.216 390.965 208.02 391.141 208.786C391.254 209.326 391.355 209.829 391.455 210.344C391.191 209.766 390.651 208.648 390.601 208.56C389.734 207.178 387.246 205.017 385.475 205.469C385.182 205.551 384.91 205.694 384.677 205.888C384.443 206.083 384.253 206.324 384.119 206.597C383.985 206.87 383.91 207.167 383.899 207.471C383.888 207.775 383.941 208.077 384.055 208.359C384.354 208.945 384.778 209.46 385.297 209.865C385.815 210.271 386.416 210.559 387.058 210.708C388.54 210.935 390.048 210.935 391.531 210.708C391.706 211.563 391.857 212.379 391.996 213.221C392.473 215.935 392.774 218.247 392.95 219.805C392.95 220.081 392.95 220.345 393.038 220.584H387.535L389.546 259.758H398.918L400.928 220.584H395.802L395.915 220.345C396.619 218.875 397.599 216.777 398.654 214.201C398.981 213.384 399.32 212.505 399.672 211.613C401.133 211.949 402.637 212.063 404.132 211.952C404.781 211.851 405.401 211.609 405.947 211.245C406.494 210.88 406.955 210.402 407.298 209.841C407.431 209.569 407.506 209.272 407.517 208.969C407.529 208.666 407.476 208.364 407.364 208.082C407.252 207.8 407.081 207.545 406.865 207.333C406.648 207.121 406.389 206.957 406.105 206.851C404.371 206.273 401.72 208.233 400.753 209.552C400.753 209.628 400.175 210.532 399.848 211.11C399.986 210.746 400.124 210.394 400.263 210.005C400.539 209.251 400.79 208.497 401.067 207.68C401.192 207.278 401.305 206.876 401.431 206.424C401.557 205.972 401.645 205.582 401.758 205.168C401.996 204.175 402.185 203.157 402.348 202.14C403.706 202.677 405.138 203.003 406.595 203.107C407.251 203.106 407.899 202.961 408.494 202.683C409.088 202.405 409.615 202.001 410.037 201.499C410.211 201.25 410.33 200.966 410.387 200.668C410.445 200.37 410.439 200.063 410.37 199.767C410.302 199.471 410.172 199.192 409.989 198.95C409.806 198.707 409.574 198.506 409.309 198.358C407.688 197.529 404.773 199.062 403.617 200.217C403.542 200.293 402.813 201.21 402.361 201.725C402.461 201.109 402.562 200.469 402.637 199.866C402.863 198.044 403.039 196.21 403.215 194.375C403.215 193.81 403.328 193.257 403.391 192.692C404.793 193.251 406.271 193.598 407.776 193.722C408.433 193.716 409.08 193.569 409.675 193.289C410.269 193.009 410.796 192.604 411.218 192.101C411.392 191.853 411.511 191.571 411.568 191.273C411.625 190.976 411.619 190.67 411.551 190.375C411.482 190.08 411.352 189.802 411.169 189.561C410.986 189.319 410.755 189.119 410.49 188.973C408.869 188.131 405.954 189.676 404.798 190.832C404.71 190.92 403.655 192.239 403.404 192.591C403.529 191.335 403.667 190.078 403.856 188.922C404.103 187.293 404.455 185.682 404.911 184.098C406.322 184.657 407.808 185.004 409.321 185.128C409.977 185.127 410.625 184.982 411.22 184.704C411.815 184.426 412.341 184.022 412.764 183.52C412.937 183.27 413.056 182.987 413.114 182.689C413.171 182.391 413.165 182.084 413.097 181.788C413.028 181.492 412.898 181.213 412.715 180.971C412.532 180.728 412.301 180.526 412.035 180.379C410.414 179.55 407.499 181.083 406.344 182.238C406.256 182.326 405.087 183.759 404.924 184.022C404.955 183.932 404.98 183.84 404.999 183.746C405.499 182.172 406.138 180.646 406.909 179.185C407.324 178.369 407.776 177.615 408.165 176.886C409.472 177.587 410.879 178.083 412.337 178.356C412.993 178.421 413.655 178.343 414.278 178.126C414.901 177.909 415.469 177.559 415.942 177.1C416.143 176.871 416.293 176.603 416.383 176.312C416.473 176.022 416.501 175.716 416.466 175.414C416.43 175.112 416.332 174.821 416.177 174.56C416.022 174.298 415.813 174.072 415.565 173.896C414.045 172.891 410.98 174.097 409.698 175.152L408.53 176.321L409.145 175.353C409.912 174.21 410.678 173.205 411.369 172.313C411.771 171.81 412.136 171.371 412.487 170.956C413.963 170.973 415.433 170.765 416.847 170.34C417.457 170.098 418.008 169.727 418.461 169.252C418.915 168.777 419.26 168.21 419.473 167.589C419.628 167.037 419.557 166.447 419.277 165.948C418.996 165.448 418.529 165.08 417.978 164.925ZM397.875 213.736C396.782 216.249 395.765 218.335 395.049 219.767L394.646 220.546H394.521C394.521 220.257 394.445 219.955 394.395 219.616C394.182 218.008 393.83 215.709 393.29 212.982C393.114 212.116 392.925 211.198 392.712 210.256C393.569 209.91 394.408 209.52 395.224 209.088C396.324 210.03 397.545 210.82 398.855 211.437C398.504 212.229 398.19 213.033 397.863 213.736H397.875Z" fill="#263238"/>
<path d="M408.405 176.596C408.405 176.596 408.995 174.473 409.008 174.322C409.234 172.714 408.719 169.46 407.073 168.656C406.799 168.533 406.502 168.468 406.202 168.465C405.901 168.462 405.604 168.522 405.327 168.64C405.051 168.758 404.802 168.932 404.597 169.151C404.391 169.37 404.233 169.629 404.133 169.912C403.978 170.559 403.968 171.232 404.103 171.884C404.237 172.535 404.514 173.149 404.912 173.682C405.925 174.821 407.103 175.803 408.405 176.596Z" fill="#263238"/>
<path d="M140.466 211.049L130.327 240.938L120.451 308.457L83.8398 399.546H95.3484L148.595 312.578L165.003 258.867L187.995 315.003L192.053 400.224H204.203L211.666 309.601L196.777 239.481L193.611 224.593L140.466 211.049Z" fill="#263238" stroke="#263238" stroke-linecap="round" stroke-linejoin="round"/>
<path d="M206.878 131.581C206.878 131.581 188.359 128.49 171.523 132.134C154.688 135.777 132.286 142.939 115.865 154.573C112.545 157.042 109.439 159.786 106.58 162.777L118.855 171.987C118.855 171.987 138.719 166.584 145.239 166.534C149.026 166.423 152.802 166.083 156.547 165.516L140.503 211.048C140.503 211.048 139.648 221.991 151.446 226.765C163.244 231.54 185.143 234.178 193.937 227.406C198.573 223.851 220.673 166.659 220.673 166.659C220.673 166.659 227.144 200.281 229.104 205.331C230.548 208.722 232.543 211.851 235.009 214.591L247.347 205.331C247.347 205.331 240.587 172.263 238.062 161.357C235.537 150.452 225.938 133.264 206.878 131.581Z" fill="#3F8EF7" stroke="#263238" stroke-linecap="round" stroke-linejoin="round"/>
<path d="M176.009 163.004L156.647 165.529L171.8 169.462" stroke="#263238" stroke-linecap="round" stroke-linejoin="round"/>
<path d="M175.443 135.225C175.443 135.225 182.19 146.457 176.009 157.953" stroke="#263238" stroke-linecap="round" stroke-linejoin="round"/>
<path d="M220.636 166.66L233.539 164.688" stroke="#263238" stroke-linecap="round" stroke-linejoin="round"/>
<path d="M221.188 167.777L238.313 170.303" stroke="#263238" stroke-linecap="round" stroke-linejoin="round"/>
<path d="M205.472 128.215C205.472 128.215 196.501 131.017 194.252 133.818C192.003 136.62 192.016 163.293 192.016 163.293L203.524 160.781L213.349 168.319C213.349 168.319 212.784 152.325 211.1 141.369C209.417 130.414 205.472 128.215 205.472 128.215Z" fill="#BFD1F3" stroke="#263238" stroke-linecap="round" stroke-linejoin="round"/>
<path d="M209.68 121.19C209.68 121.19 202.393 131.58 200.709 133.754C199.026 135.928 200.144 148.077 200.986 152.286C201.6 155.154 202.44 157.969 203.499 160.704L215.007 148.63C215.007 148.63 210.509 143.303 211.351 136.568C212.193 129.834 215.887 122.572 215.585 120.637C215.284 118.702 209.68 121.19 209.68 121.19Z" fill="white" stroke="#263238" stroke-linecap="round" stroke-linejoin="round"/>
<path d="M209.403 125.966C209.403 125.966 204.378 138.316 205.471 142.801C206.564 147.287 218.387 157.677 224.003 155.994C229.619 154.31 230.448 143.92 230.448 143.92C230.448 143.92 232.961 145.05 233.815 144.485C234.67 143.92 234.946 136.947 234.946 136.947C236.24 135.518 237.457 134.021 238.59 132.461C239.338 131.296 239.994 130.074 240.55 128.805C240.55 128.805 249.822 128.529 248.98 120.111C248.138 111.693 232.421 99.6191 221.188 99.6191C209.956 99.6191 205.76 112.522 205.76 116.43C205.76 120.337 209.403 125.966 209.403 125.966Z" fill="white" stroke="#263238" stroke-linecap="round" stroke-linejoin="round"/>
<path d="M230.285 134.923C228.548 133.041 226.146 131.91 223.589 131.77Z" fill="white"/>
<path d="M230.285 134.923C228.548 133.041 226.146 131.91 223.589 131.77" stroke="#263238" stroke-linecap="round" stroke-linejoin="round"/>
<path d="M227.86 136.393L226.855 138.089C226.855 138.089 224.493 138.704 223.601 137.259" fill="white"/>
<path d="M227.86 136.393L226.855 138.089C226.855 138.089 224.493 138.704 223.601 137.259" stroke="#263238" stroke-linecap="round" stroke-linejoin="round"/>
<path d="M248.98 120.06C248.138 111.642 232.421 99.5684 221.189 99.5684C209.956 99.5684 205.76 112.522 205.76 116.429C205.76 120.337 209.403 125.965 209.403 125.965C209.403 125.965 204.378 138.316 205.471 142.801C206.564 147.286 218.387 157.677 224.003 155.993C228.425 154.661 229.883 147.94 230.285 145.15C226.289 140.841 220.322 145.414 216.967 146.407C213.323 147.525 209.667 142.474 209.667 139.66C209.667 136.846 213.323 129.282 214.165 127.875C215.007 126.468 219.492 127.599 222.018 127.322C224.543 127.046 220.9 122.824 221.465 120.299C222.03 117.774 230.436 126.48 233.803 128.44C234.827 129.006 235.968 129.325 237.137 129.373C238.306 129.421 239.47 129.196 240.537 128.717C240.537 128.717 249.809 128.491 248.98 120.06ZM224.556 147.575C228.765 147.01 228.765 148.693 228.765 148.693C227.244 152.249 226.528 151.508 225.121 150.942C223.714 150.377 220.347 148.141 224.556 147.575Z" fill="#263238" stroke="#263238" stroke-linecap="round" stroke-linejoin="round"/>
<path d="M210.522 128.49C210.522 128.49 211.363 122.874 208.009 122.322C204.654 121.769 204.365 126.53 204.365 129.609C204.365 132.687 208.009 132.699 209.692 132.121" fill="white"/>
<path d="M210.522 128.49C210.522 128.49 211.363 122.874 208.009 122.322C204.654 121.769 204.365 126.53 204.365 129.609C204.365 132.687 208.009 132.699 209.692 132.121" stroke="#263238" stroke-linecap="round" stroke-linejoin="round"/>
<path d="M208.412 112.785C207.734 113.213 207.149 113.773 206.69 114.431" stroke="white" stroke-width="0.5" stroke-linecap="round" stroke-linejoin="round"/>
<path d="M230.963 123.389C226.814 121.613 223.133 118.899 220.209 115.461C217.218 112.006 213.776 111.19 211.024 111.692" stroke="white" stroke-width="0.5" stroke-linecap="round" stroke-linejoin="round"/>
<path d="M219.48 124.923C219.48 124.923 216.967 116.229 206.438 119.043" stroke="white" stroke-width="0.5" stroke-linecap="round" stroke-linejoin="round"/>
<path d="M104.23 176.823C104.23 176.823 107.999 170.868 112.724 172.552C116.132 173.957 119.266 175.952 121.983 178.444L126.192 171.71C126.192 171.71 127.034 164.699 119.458 161.056C111.882 157.412 107.673 160.49 107.673 160.49C104.783 161.03 101.152 175.203 104.23 176.823Z" fill="#BFD1F3" stroke="#263238" stroke-linecap="round" stroke-linejoin="round"/>
<path d="M248.44 199.715C244.061 200.946 239.896 202.84 236.09 205.331C233.168 207.328 231.073 210.32 230.197 213.749C230.197 213.749 236.655 220.759 238.05 220.759C239.444 220.759 250.124 208.974 251.242 207.856C252.36 206.738 248.44 199.715 248.44 199.715Z" fill="#BFD1F3" stroke="#263238" stroke-linecap="round" stroke-linejoin="round"/>
<path d="M297.829 231.427C297.829 231.427 297.553 235.359 296.422 236.201C295.291 237.043 290.253 236.201 290.253 236.201C290.253 236.201 286.886 231.427 288.281 229.467C289.675 227.507 292.213 228.06 293.897 228.625C295.362 229.321 296.693 230.269 297.829 231.427Z" fill="white" stroke="#263238" stroke-linecap="round" stroke-linejoin="round"/>
<path d="M251.242 207.857L281.219 223.286L292.163 224.693C292.163 224.693 305.631 231.427 305.631 232.546C305.631 233.664 304.237 234.242 303.118 233.953C302 233.664 293.859 230.309 292.175 230.309C290.492 230.309 289.084 230.862 289.373 232.269C289.662 233.676 293.582 239.569 291.333 239.569C289.084 239.569 286.848 233.953 285.717 233.387C283.918 231.937 282.237 230.344 280.692 228.626C280.692 228.626 254.873 223.286 248.98 222.444C245.676 222.05 242.507 220.898 239.721 219.077L251.242 207.857Z" fill="white" stroke="#263238" stroke-linecap="round" stroke-linejoin="round"/>
<path d="M95.3355 399.545L98.9413 404.708C100.453 406.859 102.461 408.613 104.796 409.822L111.782 413.428C112.013 413.547 112.209 413.726 112.346 413.948C112.483 414.169 112.557 414.424 112.561 414.684V414.684C112.561 414.88 112.521 415.075 112.444 415.255C112.367 415.436 112.253 415.598 112.111 415.733C111.969 415.869 111.801 415.973 111.617 416.041C111.432 416.109 111.236 416.139 111.04 416.129C104.482 415.79 78.7887 414.483 77.8967 414.483C77.0046 414.483 76.5272 413.114 76.8664 408.993C77.2057 404.872 83.8394 399.52 83.8394 399.52L95.3355 399.545Z" fill="white" stroke="#263238" stroke-linecap="round" stroke-linejoin="round"/>
<path d="M204.139 399.545L207.745 404.708C209.257 406.859 211.265 408.613 213.6 409.822L220.573 413.428C220.808 413.544 221.006 413.723 221.146 413.944C221.286 414.166 221.361 414.422 221.365 414.684C221.365 414.88 221.325 415.075 221.248 415.255C221.171 415.436 221.057 415.598 220.915 415.733C220.773 415.869 220.605 415.973 220.42 416.041C220.236 416.109 220.04 416.139 219.844 416.129C213.286 415.79 187.593 414.483 186.701 414.483C185.809 414.483 185.319 413.114 185.67 408.993C186.022 404.872 192.643 399.52 192.643 399.52L204.139 399.545Z" fill="white" stroke="#263238" stroke-linecap="round" stroke-linejoin="round"/>
<path d="M110.148 222.583C110.148 222.583 106.379 228.601 107.422 233.551C108.464 238.501 117.674 260.061 124.509 279.862C131.343 299.663 129.974 321.222 129.974 327.605C129.974 333.987 129.635 338.561 134.422 341.036C139.208 343.511 146.722 342.104 148.77 337.505C150.818 332.907 152.187 303.583 148.43 285.88C144.674 268.177 131.343 237.094 127.926 230.021C124.509 222.947 122.8 213.034 110.148 222.583Z" fill="white"/>
<path opacity="0.25" d="M110.148 222.583C110.148 222.583 106.379 228.601 107.422 233.551C108.464 238.501 117.674 260.061 124.509 279.862C131.343 299.663 129.974 321.222 129.974 327.605C129.974 333.987 129.635 338.561 134.422 341.036C139.208 343.511 146.722 342.104 148.77 337.505C150.818 332.907 152.187 303.583 148.43 285.88C144.674 268.177 131.343 237.094 127.926 230.021C124.509 222.947 122.8 213.034 110.148 222.583Z" fill="black"/>
<path opacity="0.25" d="M105.123 226.352C105.123 226.352 101.353 232.37 102.396 237.321C103.439 242.271 112.648 263.831 119.483 283.631C126.318 303.432 124.949 324.992 124.949 331.374C124.949 337.757 124.609 342.33 129.396 344.805C134.183 347.28 141.696 345.873 143.744 341.275C145.792 336.676 147.162 307.352 143.405 289.65C139.648 271.947 126.318 240.864 122.901 233.79C119.483 226.717 117.775 216.804 105.123 226.352Z" fill="black"/>
<path d="M110.148 222.583C110.148 222.583 106.379 228.601 107.422 233.551C108.464 238.501 117.674 260.061 124.509 279.862C131.343 299.663 129.974 321.222 129.974 327.605C129.974 333.987 129.635 338.561 134.422 341.036C139.208 343.511 146.722 342.104 148.77 337.505C150.818 332.907 152.187 303.583 148.43 285.88C144.674 268.177 131.343 237.094 127.926 230.021C124.509 222.947 122.8 213.034 110.148 222.583Z" stroke="#263238" stroke-linecap="round" stroke-linejoin="round"/>
<path d="M104.872 172.829C104.436 179.41 105.382 186.009 107.648 192.203C109.847 198.209 121.569 217.155 121.569 217.155C121.569 217.155 111.744 220.811 108.942 223.337C106.141 225.862 102.761 233.991 104.444 234.28C106.128 234.569 112.309 227.545 113.717 226.98C115.124 226.415 123.253 225.862 123.253 225.862C123.253 225.862 121.569 228.161 120.262 230.284C119.578 231.237 119.071 232.305 118.767 233.438C118.767 234.833 120.727 234.556 121.845 232.307C122.964 230.058 126.343 230.347 127.462 225.297C128.062 221.743 127.869 218.1 126.896 214.63L121.984 178.433C121.984 178.433 116.895 168.269 104.872 172.829Z" fill="white" stroke="#263238" stroke-linecap="round" stroke-linejoin="round"/>
<path d="M104.444 234.291C104.444 234.291 108.339 225.911 112.623 224.479" stroke="#263238" stroke-linecap="round" stroke-linejoin="round"/>
<path d="M105.487 229.48C107.276 226.91 109.44 224.623 111.907 222.695" stroke="#263238" stroke-linecap="round" stroke-linejoin="round"/>
<path d="M182.58 336.902H177.994V381.09H182.58V336.902Z" fill="white" stroke="#263238" stroke-linecap="round" stroke-linejoin="round"/>
<path d="M186.11 382.898V375.447H174.463V382.961L127.889 400.852V409.672H131.067V402.962L180.456 392.534L228.539 402.962V409.672H231.629V400.852L186.11 382.898Z" fill="white" stroke="#263238" stroke-linecap="round" stroke-linejoin="round"/>
<path d="M191.752 336.902H168.822V351.012H191.752V336.902Z" fill="white" stroke="#263238" stroke-linecap="round" stroke-linejoin="round"/>
<path d="M122.951 414.961C125.678 414.961 127.889 412.751 127.889 410.024C127.889 407.297 125.678 405.086 122.951 405.086C120.224 405.086 118.014 407.297 118.014 410.024C118.014 412.751 120.224 414.961 122.951 414.961Z" fill="#263238" stroke="#263238" stroke-linecap="round" stroke-linejoin="round"/>
<path d="M125.075 410.024C125.075 409.604 124.95 409.193 124.717 408.844C124.484 408.495 124.152 408.223 123.764 408.062C123.376 407.901 122.949 407.859 122.537 407.941C122.125 408.023 121.747 408.225 121.45 408.522C121.153 408.819 120.951 409.198 120.869 409.609C120.787 410.021 120.829 410.448 120.99 410.836C121.15 411.224 121.423 411.556 121.772 411.789C122.121 412.022 122.531 412.147 122.951 412.147C123.515 412.147 124.055 411.923 124.453 411.525C124.851 411.127 125.075 410.587 125.075 410.024Z" fill="white" stroke="#263238" stroke-linecap="round" stroke-linejoin="round"/>
<path d="M236.918 414.961C239.645 414.961 241.856 412.751 241.856 410.024C241.856 407.297 239.645 405.086 236.918 405.086C234.191 405.086 231.98 407.297 231.98 410.024C231.98 412.751 234.191 414.961 236.918 414.961Z" fill="#263238" stroke="#263238" stroke-linecap="round" stroke-linejoin="round"/>
<path d="M236.918 412.147C238.091 412.147 239.042 411.196 239.042 410.024C239.042 408.851 238.091 407.9 236.918 407.9C235.746 407.9 234.795 408.851 234.795 410.024C234.795 411.196 235.746 412.147 236.918 412.147Z" fill="white" stroke="#263238" stroke-linecap="round" stroke-linejoin="round"/>
<path d="M182.404 410.727H178.522L176.587 384.268H184.351L182.404 410.727Z" fill="white" stroke="#263238" stroke-linecap="round" stroke-linejoin="round"/>
<path d="M182.228 405.086H178.346V416.029H182.228V405.086Z" fill="#263238" stroke="#263238" stroke-linecap="round" stroke-linejoin="round"/>
<path d="M194.905 261.391C194.905 261.391 225.9 256.516 228.827 256.026C231.755 255.537 237.371 259.444 240.047 261.391C242.723 263.339 254.935 270.664 253.478 271.154C252.021 271.644 247.133 269.696 243.954 268.477C240.776 267.259 238.338 266.279 238.338 266.279C239.52 267.922 240.826 269.472 242.246 270.915C243.502 271.895 242.987 272.624 239.57 271.154C236.611 269.944 234.06 267.912 232.22 265.299C230.963 263.351 229.041 259.934 229.041 259.934C229.041 259.934 202.204 269.985 197.807 271.405C193.41 272.825 186.575 272.862 186.826 268.226C187.077 263.59 194.905 261.391 194.905 261.391Z" fill="white" stroke="#263238" stroke-linecap="round" stroke-linejoin="round"/>
<path d="M240.047 261.391C237.371 259.444 231.755 255.537 228.827 256.026C227.269 256.29 217.846 257.773 209.315 259.117L210.408 266.844C219.203 263.628 229.066 259.934 229.066 259.934C229.066 259.934 231.026 263.351 232.245 265.299C234.078 267.908 236.62 269.94 239.569 271.154C242.987 272.624 243.464 271.895 242.246 270.915C240.826 269.472 239.52 267.922 238.338 266.279C238.338 266.279 240.788 267.259 243.954 268.477C247.12 269.696 252.008 271.644 253.478 271.154C254.948 270.664 242.736 263.351 240.047 261.391Z" fill="white" stroke="#263238" stroke-linecap="round" stroke-linejoin="round"/>
<path d="M241.756 264.08L253.478 271.154" stroke="#263238" stroke-linecap="round" stroke-linejoin="round"/>
<path d="M219.116 184.501C219.116 184.501 225.95 180.104 224.732 175.229C223.513 170.354 203.26 163.017 193.498 165.178C183.735 167.339 180.557 177.377 177.868 184.702C175.179 192.027 164.211 223.512 164.211 223.512C164.211 223.512 172.264 232.533 182.517 227.897C192.769 223.261 202.041 198.133 206.677 193.007C211.313 187.881 219.116 184.501 219.116 184.501Z" fill="#263238" stroke="#263238" stroke-linecap="round" stroke-linejoin="round"/>
<path d="M212.117 168.67C212.117 168.67 216.464 171.736 217.746 174.55C219.027 177.364 217.482 178.897 217.482 178.897" stroke="white" stroke-width="0.5" stroke-linecap="round" stroke-linejoin="round"/>
<path d="M215.396 171.484C210.201 176.919 204.04 181.341 197.229 184.526C186.738 189.137 179.577 192.969 176.247 196.813" stroke="white" stroke-width="0.5" stroke-linecap="round" stroke-linejoin="round"/>
<path d="M172.817 203.271C172.273 204.501 171.794 205.76 171.385 207.041" stroke="white" stroke-width="0.5" stroke-linecap="round" stroke-linejoin="round"/>
<path d="M202.669 172.578C200.401 174.767 197.983 176.795 195.432 178.647C188.321 183.873 179.501 190.808 174.287 200.294" stroke="white" stroke-width="0.5" stroke-linecap="round" stroke-linejoin="round"/>
<path d="M206.69 167.904C206.259 168.574 205.78 169.213 205.258 169.814" stroke="white" stroke-width="0.5" stroke-linecap="round" stroke-linejoin="round"/>
<path d="M181.537 210.119C181.537 210.119 163.947 217.658 158.834 220.372C153.72 223.085 152.74 228.425 152.74 233.061C152.74 237.697 159.349 272.6 159.349 272.6H188.12C188.12 272.6 193.246 262.348 196.915 258.93C200.584 255.513 203.499 248.691 202.041 244.042C200.584 239.393 199.101 236.969 199.101 232.332C199.101 227.696 198.134 221.842 194.465 218.173C190.796 214.504 188.862 208.662 181.537 210.119Z" fill="white" stroke="#263238" stroke-linecap="round" stroke-linejoin="round"/>
<path d="M242.17 342.933C242.798 346.125 245.349 350.082 246.605 353.11C249.118 359.254 253.742 368.991 256.531 375.034C260.489 383.653 263.454 394.81 262.913 395.564C261.954 397.475 261.33 399.536 261.066 401.657C261.066 403.178 262.122 416.106 262.122 416.106H263.981L265.3 408.492C265.3 408.492 269.522 408.756 270.841 410.012C272.16 411.269 273.743 414.07 276.118 415.339C278.493 416.608 289.31 417.111 289.31 417.111C289.31 417.111 291.157 416.106 288.783 414.071C286.408 412.035 282.714 409.259 280.603 406.218C278.493 403.178 272.424 395.828 272.424 395.828C272.424 395.828 258.692 320.557 257.636 317.315C256.581 314.074 253.151 306.925 249.985 306.171C246.819 305.417 235.989 304.324 235.989 304.324L235.474 317.315C235.474 317.315 237.986 316.813 240.864 322.642C242.648 326.11 240.348 333.548 242.17 342.933Z" fill="white" stroke="#263238" stroke-linecap="round" stroke-linejoin="round"/>
<path d="M284.109 410.075C277.827 412.161 271.331 405.929 268.467 402.662C266.638 400.675 264.371 399.144 261.845 398.189C261.44 399.308 261.178 400.473 261.066 401.657C261.066 403.177 262.122 416.106 262.122 416.106H263.981L265.3 408.492C265.3 408.492 269.522 408.756 270.841 410.012C272.16 411.269 273.743 414.07 276.118 415.339C278.493 416.608 289.31 417.111 289.31 417.111C289.31 417.111 291.157 416.106 288.782 414.07C287.501 412.952 285.742 411.545 284.109 410.075Z" fill="#263238" stroke="#263238" stroke-linecap="round" stroke-linejoin="round"/>
<path d="M250.074 301.156C250.074 301.156 261.57 304.373 260.853 306.848C260.137 309.323 242.874 360.998 236.404 373.123C229.934 385.247 227.534 394.896 228.25 397.861C228.966 400.826 234.972 410.488 236.881 411.97C238.791 413.453 243.591 415.928 242.874 416.179C237.768 416.555 232.64 416.555 227.534 416.179C226.353 416.041 219.631 408.013 218.425 407.51L217.169 407.02V415.928H214.631L213.676 402.321C214.424 399.803 215.643 397.45 217.269 395.386C219.669 392.672 222.056 389.695 224.217 382.282C226.378 374.869 234.268 336.788 235.525 329.111C236.338 324.184 237.76 319.377 239.759 314.801L250.074 301.156Z" fill="white" stroke="#263238" stroke-linecap="round" stroke-linejoin="round"/>
<path d="M236.881 411.97C236.239 411.388 235.666 410.735 235.172 410.023C233.297 410.132 231.424 409.792 229.707 409.03C226.591 407.297 223.714 403.339 221.075 400.361C219.652 398.915 217.974 397.743 216.125 396.906C215.054 398.602 214.209 400.431 213.612 402.346L214.567 415.953H217.206V407.02L218.462 407.51C219.718 408.013 226.39 416.041 227.571 416.179C232.677 416.555 237.805 416.555 242.911 416.179C243.59 415.928 238.803 413.453 236.881 411.97Z" fill="#263238" stroke="#263238" stroke-linecap="round" stroke-linejoin="round"/>
<path d="M159.349 272.599C159.349 272.599 157.125 299.725 156.836 308.519C156.547 317.314 163.91 325.845 173.923 326.825C183.937 327.805 243.528 319.701 243.528 319.701L253.29 301.886C253.29 301.886 224.493 294.561 214.731 291.835C204.969 289.108 195.697 287.437 195.697 287.437L188.158 272.549L159.349 272.599Z" fill="#263238" stroke="#263238" stroke-linecap="round" stroke-linejoin="round"/>
<path d="M192.756 224.518L197.644 233.061C197.644 233.061 195.935 224.04 194.955 220.862C193.975 217.683 191.299 218.663 191.299 220.372C191.453 222.078 191.79 223.763 192.304 225.397" fill="#43D795"/>
<path d="M192.756 224.518L197.644 233.061C197.644 233.061 195.935 224.04 194.955 220.862C193.975 217.683 191.299 218.663 191.299 220.372C191.453 222.078 191.79 223.763 192.304 225.397" stroke="#263238" stroke-linecap="round" stroke-linejoin="round"/>
<path d="M193.422 194.765L185.004 208.234L192.304 225.346C192.304 225.346 196.789 214.968 199.038 212.443C201.287 209.917 205.207 206.261 205.207 206.261C205.207 206.261 198.196 197.843 197.668 195.607C197.141 193.371 193.987 192.516 193.422 194.765Z" fill="white" stroke="#263238" stroke-linecap="round" stroke-linejoin="round"/>
<path d="M183.484 205.734L179.1 210.119L186.902 232.584L192.757 224.518L183.484 205.734Z" fill="#43D795" stroke="#263238" stroke-linecap="round" stroke-linejoin="round"/>
<path d="M156.396 241.603C156.396 241.603 169.086 270.161 171.775 276.016C174.463 281.871 180.318 283.089 185.683 283.089C191.048 283.089 224.682 282.135 224.682 282.135C224.682 282.135 243.226 282.863 246.405 282.135C249.583 281.406 254.697 277.009 255.677 277.009C256.657 277.009 262.022 281.883 263.215 281.883C264.409 281.883 265.175 281.155 264.195 279.446C263.215 277.737 259.308 270.174 256.657 269.935C254.006 269.696 242.497 277.247 242.497 277.247C242.497 277.247 223.463 274.571 213.462 271.882C203.461 269.194 187.832 263.088 187.832 263.088C187.832 263.088 181.487 251.365 178.798 244.242C176.109 237.118 175.632 227.645 170.745 223.737C165.857 219.83 159.764 224.227 159.764 224.227" fill="white"/>
<path d="M156.396 241.603C156.396 241.603 169.086 270.161 171.775 276.016C174.463 281.871 180.318 283.089 185.683 283.089C191.048 283.089 224.682 282.135 224.682 282.135C224.682 282.135 243.226 282.863 246.405 282.135C249.583 281.406 254.697 277.009 255.677 277.009C256.657 277.009 262.022 281.883 263.215 281.883C264.409 281.883 265.175 281.155 264.195 279.446C263.215 277.737 259.308 270.174 256.657 269.935C254.006 269.696 242.497 277.247 242.497 277.247C242.497 277.247 223.463 274.571 213.462 271.882C203.461 269.194 187.832 263.088 187.832 263.088C187.832 263.088 181.487 251.365 178.798 244.242C176.109 237.118 175.632 227.645 170.745 223.737C165.857 219.83 159.764 224.227 159.764 224.227" stroke="#263238" stroke-linecap="round" stroke-linejoin="round"/>
<path d="M256.707 269.924C254.018 269.673 242.547 277.236 242.547 277.236C242.547 277.236 233.011 275.892 223.89 274.158L224.128 282.136H224.681C224.681 282.136 243.226 282.865 246.404 282.136C249.583 281.408 254.697 277.01 255.676 277.01C256.656 277.01 262.021 281.885 263.215 281.885C264.408 281.885 265.175 281.156 264.195 279.448C263.215 277.739 259.383 270.163 256.707 269.924Z" fill="white" stroke="#263238" stroke-linecap="round" stroke-linejoin="round"/>
<path d="M256.217 274.309C256.217 274.309 262.8 278.945 264.27 281.143" stroke="#263238" stroke-linecap="round" stroke-linejoin="round"/>
<path d="M256.945 272.109L262.8 276.997" stroke="#263238" stroke-linecap="round" stroke-linejoin="round"/>
<path d="M218.4 178.76C219.167 181.463 219.788 184.206 220.259 186.977C220.536 189.489 218.576 190.909 219.417 192.304C220.259 193.698 222.42 198.108 221.302 198.661C220.315 199.037 219.267 199.229 218.211 199.226C218.211 199.226 213.073 208.788 211.929 210.534C210.786 212.28 202.946 208.298 199.29 206.614C195.634 204.931 195.37 196.789 195.37 196.789L195.081 191.173C195.081 191.173 212.796 184.652 218.4 178.76Z" fill="white" stroke="#263238" stroke-linecap="round" stroke-linejoin="round"/>
<path d="M214.278 188.018C217.922 183.595 217.872 188.483 217.872 188.483Z" fill="white"/>
<path d="M214.278 188.018C217.922 183.595 217.872 188.483 217.872 188.483" stroke="#263238" stroke-linecap="round" stroke-linejoin="round"/>
<path d="M216.025 193.259C215.699 194.289 215.108 195.018 214.694 194.892C214.279 194.766 214.216 193.824 214.53 192.794C214.844 191.764 215.447 191.035 215.862 191.173C216.277 191.311 216.339 192.241 216.025 193.259Z" fill="#263238"/>
<path d="M197.041 193.359C197.041 193.359 195.068 186.336 192.832 187.743C190.596 189.15 189.465 194.477 191.701 197.292C193.938 200.106 197.594 198.41 197.594 198.41" fill="white"/>
<path d="M197.041 193.359C197.041 193.359 195.068 186.336 192.832 187.743C190.596 189.15 189.465 194.477 191.701 197.292C193.938 200.106 197.594 198.41 197.594 198.41" stroke="#263238" stroke-linecap="round" stroke-linejoin="round"/>
<path d="M212.616 322.312L149.168 324.215C146.226 324.303 143.912 326.76 144.001 329.702L144.274 338.811C144.362 341.753 146.819 344.067 149.761 343.978L213.209 342.075C216.151 341.987 218.464 339.53 218.376 336.588L218.103 327.479C218.015 324.537 215.558 322.223 212.616 322.312Z" fill="white"/>
<path opacity="0.25" d="M212.616 322.312L149.168 324.215C146.226 324.303 143.912 326.76 144.001 329.702L144.274 338.811C144.362 341.753 146.819 344.067 149.761 343.978L213.209 342.075C216.151 341.987 218.464 339.53 218.376 336.588L218.103 327.479C218.015 324.537 215.558 322.223 212.616 322.312Z" fill="black"/>
<path opacity="0.25" d="M213.137 326.877L149.721 328.881C146.78 328.973 144.472 331.433 144.565 334.373L144.852 343.478C144.945 346.418 147.405 348.727 150.345 348.634L213.762 346.63C216.702 346.537 219.011 344.078 218.918 341.137L218.63 332.033C218.537 329.092 216.078 326.784 213.137 326.877Z" fill="black"/>
<path d="M212.616 322.312L149.168 324.215C146.226 324.303 143.912 326.76 144.001 329.702L144.274 338.811C144.362 341.753 146.819 344.067 149.761 343.978L213.209 342.075C216.151 341.987 218.464 339.53 218.376 336.588L218.103 327.479C218.015 324.537 215.558 322.223 212.616 322.312Z" stroke="#263238" stroke-width="1.00045" stroke-linecap="round" stroke-linejoin="round"/>
<path d="M193.874 334.163C193.538 334.162 193.204 334.094 192.894 333.962C192.58 333.838 192.294 333.652 192.054 333.416C191.813 333.179 191.623 332.896 191.494 332.584C191.365 332.272 191.3 331.938 191.303 331.6C191.306 331.263 191.377 330.929 191.512 330.62C195.633 320.694 200.307 302.979 195.52 297.702C194.389 296.923 187.58 295.265 150.868 298.632L148.204 298.871C145.692 299.072 143.443 302.338 142.877 303.469C142.572 304.076 142.039 304.536 141.395 304.749C140.75 304.963 140.047 304.911 139.441 304.606C138.835 304.301 138.374 303.768 138.161 303.124C137.948 302.479 137.999 301.776 138.304 301.17C138.656 300.466 141.948 294.222 147.802 293.77L150.403 293.544C189.515 289.95 197.015 291.759 199.289 294.235C207.908 303.645 197.455 329.652 196.236 332.592C196.047 333.062 195.72 333.463 195.298 333.743C194.877 334.023 194.38 334.169 193.874 334.163Z" fill="white" stroke="#263238" stroke-linecap="round" stroke-linejoin="round"/>
<path d="M417.827 284.697H216.427V298.807H417.827V284.697Z" fill="#43D795" stroke="#263238" stroke-linecap="round" stroke-linejoin="round"/>
<path d="M298.306 279.006H254.458V288.554H298.306V279.006Z" fill="white" stroke="#263238" stroke-linecap="round" stroke-linejoin="round"/>
<path d="M383.352 269.984H339.504V277.058H383.352V269.984Z" fill="white" stroke="#263238" stroke-linecap="round" stroke-linejoin="round"/>
<path d="M385.124 262.912H341.275V269.986H385.124V262.912Z" fill="white" stroke="#263238" stroke-linecap="round" stroke-linejoin="round"/>
<path d="M386.003 276.883H342.154V288.555H386.003V276.883Z" fill="white" stroke="#263238" stroke-linecap="round" stroke-linejoin="round"/>
<path d="M417.827 285.012H216.427V291.733H417.827V285.012Z" fill="#263238" stroke="#263238" stroke-linecap="round" stroke-linejoin="round"/>
<path d="M217.532 416.154C217.161 416.154 216.805 416.008 216.542 415.747C216.278 415.485 216.128 415.131 216.125 414.76L215.208 285.012H219.844L218.927 414.76C218.927 415.13 218.78 415.484 218.518 415.746C218.257 416.007 217.902 416.154 217.532 416.154V416.154Z" fill="#43D795" stroke="#263238" stroke-linecap="round" stroke-linejoin="round"/>
<path d="M416.609 416.154C416.239 416.154 415.884 416.007 415.622 415.746C415.361 415.484 415.214 415.13 415.214 414.76L414.297 285.012H418.933L418.016 414.76C418.009 415.13 417.859 415.483 417.596 415.743C417.333 416.004 416.979 416.151 416.609 416.154V416.154Z" fill="#43D795" stroke="#263238" stroke-linecap="round" stroke-linejoin="round"/>
<path d="M325.319 282.7H303.609C303.192 282.7 302.793 282.535 302.498 282.24C302.204 281.946 302.038 281.546 302.038 281.13C302.038 280.713 302.204 280.314 302.498 280.019C302.793 279.725 303.192 279.559 303.609 279.559H325.319C325.84 279.551 326.353 279.435 326.826 279.219C327.3 279.003 327.724 278.691 328.071 278.303C328.488 277.836 328.783 277.271 328.928 276.662C329.073 276.052 329.063 275.415 328.9 274.81L321.198 247.169C321.143 246.971 321.127 246.763 321.152 246.558C321.177 246.353 321.242 246.155 321.344 245.975C321.445 245.796 321.581 245.638 321.744 245.511C321.906 245.383 322.092 245.29 322.291 245.234C322.693 245.126 323.121 245.18 323.483 245.384C323.845 245.589 324.112 245.928 324.226 246.328L331.928 273.968C332.21 274.987 332.254 276.057 332.055 277.096C331.855 278.134 331.419 279.112 330.779 279.954C330.139 280.796 329.314 281.478 328.366 281.948C327.419 282.418 326.376 282.662 325.319 282.663V282.7Z" fill="white" stroke="#263238" stroke-linecap="round" stroke-linejoin="round"/>
<path d="M322.603 210.974L317.688 210.385L310.066 273.93L314.981 274.52L322.603 210.974Z" fill="white" stroke="#263238" stroke-linecap="round" stroke-linejoin="round"/>
<path d="M322.68 210.947C327.495 232.378 324.803 254.813 315.054 274.496L322.68 210.947Z" fill="#263238" stroke="#263238" stroke-linecap="round" stroke-linejoin="round"/>
<path d="M281.131 279.032C280.217 279.01 279.322 278.773 278.517 278.341C277.32 277.745 276.325 276.81 275.655 275.653C274.985 274.496 274.669 273.167 274.748 271.833C274.779 271.198 274.951 270.578 275.251 270.017C275.551 269.456 275.971 268.969 276.482 268.591C278.656 267.033 281.947 267.787 282.324 267.887C282.647 267.969 282.925 268.176 283.096 268.462C283.267 268.748 283.317 269.091 283.235 269.414C283.153 269.737 282.947 270.015 282.66 270.186C282.374 270.356 282.032 270.407 281.709 270.325C280.455 269.986 279.123 270.092 277.939 270.626C277.724 270.791 277.551 271.005 277.433 271.249C277.315 271.494 277.256 271.762 277.261 272.034C277.217 272.874 277.421 273.71 277.847 274.436C278.274 275.162 278.905 275.746 279.661 276.117C279.989 276.344 280.372 276.477 280.771 276.504C281.169 276.531 281.567 276.449 281.922 276.268C282.179 276.054 282.51 275.952 282.842 275.982C283.006 275.998 283.166 276.045 283.312 276.122C283.459 276.199 283.588 276.304 283.694 276.431C283.799 276.558 283.879 276.705 283.928 276.862C283.977 277.02 283.994 277.186 283.979 277.351C283.964 277.515 283.916 277.675 283.839 277.821C283.762 277.967 283.657 278.097 283.53 278.202C282.85 278.748 282.002 279.041 281.131 279.032Z" fill="white" stroke="#263238" stroke-linecap="round" stroke-linejoin="round"/>
<path d="M292.652 281.18C291.019 282.537 285.793 282.537 284.159 281.18C281.244 278.755 281.332 266.279 281.332 266.279H295.479C295.479 266.279 295.567 278.755 292.652 281.18Z" fill="white" stroke="#263238" stroke-linecap="round" stroke-linejoin="round"/>
<path d="M422.777 281.934H211.477V287.788H422.777V281.934Z" fill="#43D795" stroke="#263238" stroke-linecap="round" stroke-linejoin="round"/>
<path d="M464.264 415.174H0V423.579H464.264V415.174Z" fill="#263238"/>
</svg>
