<svg xmlns="http://www.w3.org/2000/svg" width="36" height="36" viewBox="0 0 36 36">
  <g id="Group_1" data-name="Group 1" transform="translate(-153)">
    <path id="Path_4" data-name="Path 4" d="M171,0a18,18,0,1,0,18,18A18,18,0,0,0,171,0Zm-3.957,8.458c1.024-.047,1.351-.058,3.958-.058h0c2.608,0,2.934.011,3.958.058a7.067,7.067,0,0,1,2.332.446,4.912,4.912,0,0,1,2.808,2.808,7.112,7.112,0,0,1,.446,2.33c.046,1.024.058,1.351.058,3.958s-.012,2.934-.058,3.958a7.116,7.116,0,0,1-.446,2.33,4.92,4.92,0,0,1-2.807,2.809,7.062,7.062,0,0,1-2.332.446c-1.024.047-1.35.058-3.957.058s-2.934-.011-3.958-.058a7.055,7.055,0,0,1-2.331-.446,4.912,4.912,0,0,1-2.807-2.809,7.061,7.061,0,0,1-.446-2.33c-.046-1.024-.058-1.35-.058-3.957s.012-2.935.058-3.959a7.012,7.012,0,0,1,.446-2.33A4.91,4.91,0,0,1,164.713,8.9,7.043,7.043,0,0,1,167.043,8.458Z" fill="#6d7381" fill-rule="evenodd"/>
    <path id="Path_5" data-name="Path 5" d="M170.14,10.13H171c2.563,0,2.867.009,3.879.055a5.323,5.323,0,0,1,1.783.331,3.179,3.179,0,0,1,1.821,1.822,5.3,5.3,0,0,1,.331,1.782c.046,1.012.056,1.316.056,3.878s-.01,2.866-.056,3.878a5.3,5.3,0,0,1-.331,1.782,3.182,3.182,0,0,1-1.821,1.821,5.3,5.3,0,0,1-1.783.331c-1.012.046-1.316.056-3.879.056s-2.867-.01-3.879-.056a5.331,5.331,0,0,1-1.783-.331,3.178,3.178,0,0,1-1.822-1.821,5.3,5.3,0,0,1-.331-1.782c-.046-1.012-.055-1.316-.055-3.88s.009-2.866.055-3.878a5.3,5.3,0,0,1,.331-1.782,3.179,3.179,0,0,1,1.822-1.822,5.3,5.3,0,0,1,1.783-.331c.885-.04,1.229-.052,3.018-.054Zm5.985,1.594a1.152,1.152,0,1,0,1.152,1.152A1.152,1.152,0,0,0,176.125,11.724ZM166.071,18A4.929,4.929,0,1,1,171,22.929,4.93,4.93,0,0,1,166.071,18Z" fill="#6d7381" fill-rule="evenodd"/>
    <path id="Path_6" data-name="Path 6" d="M171,14.8a3.2,3.2,0,1,1-3.2,3.2A3.2,3.2,0,0,1,171,14.8Z" fill="#6d7381"/>
  </g>
</svg>
