<svg xmlns="http://www.w3.org/2000/svg" width="36" height="36" viewBox="0 0 36 36">
  <path id="Path_11" data-name="Path 11" d="M120,0a18,18,0,1,0,18,18A18,18,0,0,0,120,0Zm-9.359,14.908h4.079V27.165h-4.079Zm4.348-3.791a2.3,2.3,0,1,0-2.334,2.119h.026A2.128,2.128,0,0,0,114.989,11.117Zm9.746,3.5c2.684,0,4.7,1.752,4.7,5.517v7.027h-4.079V20.608c0-1.647-.59-2.771-2.067-2.771a2.232,2.232,0,0,0-2.093,1.489,2.784,2.784,0,0,0-.134.994v6.845h-4.08s.054-11.106,0-12.256h4.08v1.736A4.05,4.05,0,0,1,124.735,14.621Z" transform="translate(-102)" fill="#6d7381" fill-rule="evenodd"/>
</svg>
