<svg width="24" height="24" viewBox="0 0 24 24" fill="none" xmlns="http://www.w3.org/2000/svg">
<path d="M8.81836 15.1813L15.1823 8.81738" stroke="#ACB0B9" stroke-width="1.6" stroke-linecap="round" stroke-linejoin="round"/>
<path d="M13.5909 16.7726L10.9392 19.4243C10.0953 20.268 8.95077 20.7419 7.75743 20.7418C6.56409 20.7417 5.41965 20.2676 4.57583 19.4238C3.73201 18.5799 3.25791 17.4355 3.25781 16.2422C3.25771 15.0488 3.73161 13.9043 4.57529 13.0603L7.22694 10.4087" stroke="#ACB0B9" stroke-width="1.6" stroke-linecap="round" stroke-linejoin="round"/>
<path d="M16.7722 13.5904L19.4238 10.9388C20.2675 10.0948 20.7414 8.95028 20.7413 7.75694C20.7412 6.5636 20.2671 5.41916 19.4233 4.57534C18.5795 3.73152 17.435 3.25743 16.2417 3.25732C15.0483 3.25722 13.9038 3.73112 13.0599 4.5748L10.4082 7.22645" stroke="#ACB0B9" stroke-width="1.6" stroke-linecap="round" stroke-linejoin="round"/>
</svg>
