<svg width="16" height="16" viewBox="0 0 16 16" fill="none" xmlns="http://www.w3.org/2000/svg">
<path d="M5.87891 10.1206L10.1215 5.87793" stroke="#3F8EF7" stroke-linecap="round" stroke-linejoin="round"/>
<path d="M9.0606 11.1821L7.29283 12.9499C6.73019 13.5123 5.96718 13.8282 5.17162 13.8282C4.37606 13.8281 3.6131 13.512 3.05055 12.9495C2.48801 12.3869 2.17194 11.624 2.17188 10.8284C2.17181 10.0329 2.48774 9.26986 3.05019 8.70722L4.81796 6.93945" stroke="#3F8EF7" stroke-linecap="round" stroke-linejoin="round"/>
<path d="M11.1821 9.06011L12.9499 7.29234C13.5123 6.7297 13.8282 5.96669 13.8282 5.17113C13.8281 4.37557 13.512 3.61261 12.9495 3.05007C12.387 2.48752 11.624 2.17145 10.8284 2.17139C10.0329 2.17132 9.26986 2.48725 8.70722 3.0497L6.93945 4.81747" stroke="#3F8EF7" stroke-linecap="round" stroke-linejoin="round"/>
</svg>
