<svg xmlns="http://www.w3.org/2000/svg" width="20" height="20.003" viewBox="0 0 20 20.003">
  <g id="link_1_" data-name="link (1)" transform="translate(-0.384 0.001)">
    <path id="Path_16" data-name="Path 16" d="M6.224,210.3a2.985,2.985,0,0,0-2.125.877l-2.836,2.836a3.009,3.009,0,0,0,0,4.251l.945.945a3.006,3.006,0,0,0,4.251,0l2.836-2.836a3.035,3.035,0,0,0,.417-3.723l-.992.993a1.662,1.662,0,0,1-.371,1.787L5.515,218.27a1.672,1.672,0,0,1-2.363,0l-.945-.945a1.673,1.673,0,0,1,0-2.363l2.836-2.833a1.66,1.66,0,0,1,1.786-.372l.993-.993a2.973,2.973,0,0,0-1.6-.46Zm0,0" transform="translate(0 -200.092)" fill="#3F8EF7"/>
    <path id="Path_17" data-name="Path 17" d="M151.719,148.444l-.473-.473a.334.334,0,0,0-.472,0l-5.2,5.2a.334.334,0,0,0,0,.472l.472.472a.343.343,0,0,0,.472,0l5.2-5.2a.334.334,0,0,0,0-.472Zm0,0" transform="translate(-138.329 -140.978)" fill="#3F8EF7"/>
    <path id="Path_18" data-name="Path 18" d="M216.895,8.911l2.836-2.836a3.009,3.009,0,0,0,0-4.251L218.785.88a3.006,3.006,0,0,0-4.251,0L211.7,3.715a3.035,3.035,0,0,0-.417,3.723l.992-.993a1.662,1.662,0,0,1,.371-1.787l2.833-2.836a1.672,1.672,0,0,1,2.363,0l.945.945a1.673,1.673,0,0,1,0,2.363l-2.836,2.833a1.654,1.654,0,0,1-1.786.371l-.994.994a3.01,3.01,0,0,0,3.724-.417Zm0,0" transform="translate(-200.225 0)" fill="#3F8EF7"/>
  </g>
</svg>
