<svg width="135" height="41" viewBox="0 0 135 41" fill="none" xmlns="http://www.w3.org/2000/svg">
<circle cx="16.0312" cy="5.5" r="5.5" fill="#C4C4C4"/>
<rect x="0.84375" width="21" height="11" rx="5.5" fill="#3F8EF7"/>
<path d="M43.8189 16.579C43.8199 17.985 43.6394 19.3851 43.2818 20.7448C42.9324 22.0785 42.4208 23.3643 41.7583 24.5734C41.3877 25.245 40.9691 25.8891 40.5058 26.5004C40.4877 26.5317 40.4745 26.5492 40.4703 26.5606L40.466 26.5648C40.1052 27.0407 39.7197 27.4973 39.3111 27.933C38.7316 28.5492 38.1051 29.1193 37.4371 29.6383C37.4371 29.6383 32.6312 33.0893 26.8666 33.0893L25.9206 33.0936L21.8746 33.12V21.9666H27.2665C27.9765 21.9724 28.6799 21.8301 29.3319 21.5487C29.9747 21.2757 30.5594 20.8825 31.0547 20.3902C31.5487 19.8932 31.941 19.3048 32.2097 18.6577C32.4925 18.0016 32.6346 17.2934 32.627 16.579C32.6294 16.2168 32.5951 15.8552 32.5246 15.4999C32.5223 15.4958 32.5209 15.4913 32.5204 15.4867C32.4533 15.1448 32.3491 14.8112 32.2097 14.4919C31.6636 13.1895 30.6287 12.153 29.3271 11.6051C28.6769 11.3235 27.975 11.1813 27.2665 11.1878H21.8746C21.8738 8.22095 20.695 5.37587 18.5971 3.27795C16.4993 1.18004 13.6543 0.00100747 10.6875 4.97116e-05H27.2665C28.7538 -0.00362597 30.2347 0.19655 31.6677 0.594994C33.0491 0.980382 34.3747 1.54329 35.6113 2.26963C36.0557 2.53157 36.4863 2.8158 36.9042 3.11809L36.9391 3.13977C38.8107 4.4981 40.3805 6.22964 41.5494 8.22511C42.2748 9.46383 42.8377 10.7909 43.224 12.1735C43.6221 13.608 43.8223 15.0903 43.8189 16.579Z" fill="url(#paint0_linear)"/>
<path d="M41.9829 40.4553H30.0093L28.1221 36.0896L26.8232 33.0878C32.5878 33.0878 37.3937 29.6367 37.3937 29.6367L38.7703 32.8884L39.0112 33.4527C39.0112 33.4569 39.016 33.4569 39.016 33.4611L41.9829 40.4553Z" fill="#064395"/>
<path d="M21.8336 11.1877V40.4532H10.6465V0C13.6133 0.000957759 16.4583 1.17999 18.5561 3.2779C20.654 5.37582 21.8328 8.22089 21.8336 11.1877Z" fill="url(#paint1_linear)"/>
<g style="mix-blend-mode:multiply" opacity="0.16">
<g style="mix-blend-mode:multiply" opacity="0.16">
<path d="M21.8336 11.1877C21.8328 8.22089 20.654 5.37582 18.5561 3.2779C16.4583 1.17999 13.6133 0.000957759 10.6465 0H20.7768C23.0373 2.11422 25.2094 5.57851 25.7465 11.1877H21.8336Z" fill="black"/>
</g>
</g>
<g style="mix-blend-mode:multiply" opacity="0.16">
<g style="mix-blend-mode:multiply" opacity="0.16">
<path d="M25.879 21.9668V33.0919L21.833 33.1184V21.9668H25.879Z" fill="black"/>
</g>
</g>
<g style="mix-blend-mode:multiply" opacity="0.16">
<g style="mix-blend-mode:multiply" opacity="0.16">
<path d="M38.7721 32.8878C35.4587 34.6243 31.8438 35.7111 28.1221 36.0896L26.8232 33.0878C32.5878 33.0878 37.3937 29.6367 37.3937 29.6367L38.7721 32.8878Z" fill="black"/>
</g>
</g>
<g style="mix-blend-mode:multiply" opacity="0.25">
<g style="mix-blend-mode:multiply" opacity="0.25">
<path d="M43.777 16.5787C43.778 17.9847 43.5975 19.3848 43.2399 20.7445C42.8905 22.0782 42.3788 23.364 41.7164 24.5731C41.3458 25.2447 40.9273 25.8888 40.4639 26.5001C40.544 26.3712 40.7391 26.0605 41.001 25.5854C41.4797 24.7196 41.891 23.8183 42.2313 22.8895C42.7068 21.5894 43.0333 20.2395 43.2044 18.8658C43.2933 18.0962 43.3347 17.322 43.3284 16.5474C43.3206 15.7473 43.2554 14.9488 43.1333 14.158C43.0175 13.3671 42.8422 12.5861 42.6088 11.8216C42.3834 11.0802 42.1121 10.3536 41.7965 9.64592C41.4956 8.98323 41.1574 8.33807 40.7836 7.71356C40.4223 7.12283 40.0466 6.57666 39.6775 6.09251C39.0772 5.3065 38.4164 4.5686 37.7011 3.88556C37.1821 3.38335 36.8623 3.11719 36.8623 3.11719L36.8972 3.13887C38.7689 4.4972 40.3386 6.22872 41.5074 8.2242C42.233 9.46292 42.7959 10.79 43.1821 12.1726C43.5803 13.6074 43.7805 15.0898 43.777 16.5787Z" fill="black"/>
</g>
</g>
<g style="mix-blend-mode:multiply" opacity="0.25">
<g style="mix-blend-mode:multiply" opacity="0.25">
<path d="M41.9832 40.4561H33.0518C33.7978 40.3453 34.5397 40.2784 35.2858 40.2152C36.0319 40.152 36.7738 40.1086 37.5138 40.0731C38.2539 40.0375 39.006 40.0201 39.7479 40.0062L41.2931 39.993C41.1419 39.6202 40.992 39.2469 40.8493 38.8693C40.6138 38.2792 40.3916 37.6885 40.1784 37.0887C39.9653 36.489 39.7569 35.8898 39.5564 35.2822C39.3559 34.6746 39.1746 34.07 39.0145 33.457L41.9832 40.4561Z" fill="black"/>
</g>
</g>
<g style="mix-blend-mode:screen" opacity="0.7">
<g style="mix-blend-mode:screen" opacity="0.7">
<path d="M11.1126 20.2299C11.1083 21.4945 11.1035 22.759 11.0951 24.0007C11.0867 25.2424 11.068 26.4696 11.0547 27.6559C11.024 30.0272 10.9747 32.239 10.9126 34.1353C10.8018 37.9289 10.6465 40.455 10.6465 40.455V0C10.6465 0 10.8018 2.52912 10.9126 6.31978C10.9729 8.21662 11.024 10.4278 11.0547 12.7997C11.068 13.9854 11.0951 15.2114 11.0951 16.4549C11.0951 17.6984 11.1071 18.9642 11.1126 20.2299Z" fill="white"/>
</g>
</g>
<g style="mix-blend-mode:multiply" opacity="0.25">
<g style="mix-blend-mode:multiply" opacity="0.25">
<path d="M32.7901 17.4498C32.7733 17.7819 32.7197 18.1111 32.6305 18.4314C32.5817 18.6 32.5191 18.7866 32.4613 18.9462C32.394 19.1258 32.3156 19.301 32.2264 19.4707C32.0422 19.8311 31.8156 20.168 31.5514 20.4745C31.278 20.7895 30.971 21.0738 30.6361 21.3224C30.2937 21.562 29.9277 21.766 29.5438 21.9312C29.1722 22.0886 28.783 22.2004 28.3846 22.2642C28.0146 22.324 27.6389 22.3404 27.2652 22.313C26.9279 22.2955 26.6172 22.2642 26.324 22.2329C25.1648 22.1221 24.3916 21.9667 24.3916 21.9667H27.2254C27.9354 21.9725 28.6389 21.8302 29.2909 21.5488C29.9336 21.2758 30.5184 20.8826 31.0137 20.3902C31.5076 19.8933 31.8999 19.3049 32.1686 18.6578C32.4514 18.0017 32.5936 17.2935 32.5859 16.5791C32.5883 16.2168 32.554 15.8553 32.4836 15.5C32.5546 15.6621 32.6112 15.8302 32.6528 16.0022C32.7695 16.4753 32.8158 16.9632 32.7901 17.4498Z" fill="black"/>
</g>
</g>
<g style="mix-blend-mode:screen" opacity="0.7">
<g style="mix-blend-mode:screen" opacity="0.7">
<path d="M21.8332 11.1871V40.4526C21.8332 40.4526 21.7935 39.7204 21.7489 38.4408C21.7044 37.1612 21.6285 35.3276 21.5803 33.1339C21.5201 30.9395 21.4737 28.3767 21.4424 25.6326C21.4292 24.2603 21.4159 22.8434 21.4027 21.4C21.3894 19.9566 21.3936 18.4957 21.3894 17.0342C21.3852 15.5728 21.3979 14.1029 21.4069 12.6643C21.4027 11.9489 21.425 11.2191 21.4027 10.5458C21.3713 9.87592 21.2762 9.21052 21.1184 8.55867C20.82 7.31524 20.309 6.1327 19.6082 5.06305C18.4265 3.27119 16.758 1.85378 14.7987 0.977325C14.103 0.665112 13.3764 0.426948 12.6309 0.266762C12.1483 0.162883 11.6604 0.0856874 11.1694 0.0355281C10.8274 0.0132478 10.6455 0 10.6455 0C13.6123 0.000957757 16.4574 1.17999 18.5551 3.27791C20.653 5.37582 21.8318 8.22091 21.8326 11.1877L21.8332 11.1871Z" fill="white"/>
</g>
</g>
<path d="M54.916 26.957V12.555H59.8717C63.2969 12.555 65.0095 13.8833 65.0095 16.5398C65.0095 17.4433 64.7668 18.212 64.2813 18.8458C63.8093 19.4796 63.1621 19.8976 62.3395 20.0999V20.1403C62.8519 20.3157 63.2564 20.5921 63.5531 20.9697C63.8498 21.3473 64.1599 21.9878 64.4836 22.8913L65.9602 26.957H63.3104L62.0967 23.3363C61.8136 22.5137 61.4764 21.9473 61.0854 21.6372C60.7078 21.327 60.1549 21.172 59.4267 21.172H57.3433V26.957H54.916ZM59.6087 14.5575H57.3433V19.1897H59.7503C60.7213 19.1897 61.436 18.9806 61.8945 18.5626C62.353 18.1311 62.5755 17.5377 62.562 16.7826C62.562 15.2992 61.5776 14.5575 59.6087 14.5575ZM71.8981 25.5613C72.5454 25.5613 73.0713 25.4063 73.4758 25.0961C73.8939 24.7859 74.1568 24.3746 74.2647 23.8622H76.6313C76.4291 24.8331 75.9099 25.6422 75.0738 26.2895C74.2377 26.9368 73.1792 27.2604 71.8981 27.2604C70.3473 27.2604 69.1269 26.7548 68.2369 25.7434C67.3604 24.732 66.9221 23.3835 66.9221 21.6979C66.9221 20.1471 67.3604 18.8728 68.2369 17.8749C69.1269 16.877 70.3338 16.378 71.8576 16.378C73.0173 16.378 74.0018 16.6949 74.8109 17.3287C75.6334 17.949 76.1863 18.7986 76.4695 19.8774C76.6583 20.4842 76.7527 21.2866 76.7527 22.2845H69.2078C69.2483 23.3902 69.5112 24.2128 69.9967 24.7522C70.4956 25.2916 71.1294 25.5613 71.8981 25.5613ZM73.6174 18.7649C73.1589 18.3064 72.5723 18.0771 71.8576 18.0771C71.1429 18.0771 70.5496 18.3064 70.0776 18.7649C69.6191 19.2234 69.3427 19.8909 69.2483 20.7674H74.4468C74.3658 19.8909 74.0894 19.2234 73.6174 18.7649ZM79.2917 26.957V12.555H84.2475C85.9196 12.555 87.1737 12.8854 88.0098 13.5462C88.8594 14.2069 89.2841 15.1037 89.2841 16.2364C89.2841 17.8681 88.4683 18.9874 86.8366 19.5942V19.6347C88.6841 20.0662 89.6078 21.1922 89.6078 23.0127C89.6078 24.2263 89.1695 25.1905 88.293 25.9052C87.4165 26.6064 86.2028 26.957 84.652 26.957H79.2917ZM84.1261 20.6056H81.719V24.9343H84.2879C85.2723 24.9343 85.9938 24.759 86.4523 24.4084C86.9108 24.0577 87.14 23.5183 87.14 22.7902C87.14 22.062 86.8973 21.5158 86.4118 21.1517C85.9399 20.7876 85.1779 20.6056 84.1261 20.6056ZM84.2273 14.5575H81.719V18.6637H84.1059C85.9938 18.6637 86.9377 17.976 86.9377 16.6005C86.9377 15.2385 86.0342 14.5575 84.2273 14.5575ZM95.7306 16.378C97.106 16.378 98.1511 16.7151 98.8658 17.3894C99.594 18.0637 99.9581 19.0683 99.9581 20.4033V24.2465C99.9581 25.3523 100.046 26.2558 100.221 26.957H98.1376C98.0432 26.539 97.996 26.0603 97.996 25.5209H97.9556C97.2004 26.6266 96.0475 27.1795 94.4967 27.1795C93.4448 27.1795 92.602 26.8963 91.9682 26.33C91.3344 25.7501 91.0175 25.0152 91.0175 24.1252C91.0175 23.2486 91.3142 22.5474 91.9076 22.0215C92.5144 21.4956 93.5325 21.118 94.9619 20.8888C95.825 20.7404 96.7487 20.6393 97.7331 20.5854V20.1808C97.7331 18.7649 97.0656 18.0569 95.7306 18.0569C95.1103 18.0569 94.6248 18.2187 94.2742 18.5424C93.9236 18.866 93.7348 19.3043 93.7078 19.8572H91.4423C91.4963 18.8323 91.8873 17.9962 92.6155 17.3489C93.3572 16.7017 94.3955 16.378 95.7306 16.378ZM97.7331 22.5879V22.0822C96.8566 22.1361 96.0677 22.2238 95.3665 22.3452C94.6248 22.4665 94.0989 22.6486 93.7887 22.8913C93.492 23.134 93.3437 23.4914 93.3437 23.9634C93.3437 24.4218 93.4988 24.7927 93.8089 25.0759C94.1326 25.3456 94.5843 25.4804 95.1642 25.4804C95.9463 25.4804 96.5666 25.2512 97.0251 24.7927C97.2948 24.5095 97.4769 24.2128 97.5713 23.9027C97.6791 23.579 97.7331 23.1408 97.7331 22.5879ZM107.322 21.3742L112.055 26.957H109.143L105.138 21.9811H105.097V26.957H102.791V12.555H105.097V20.8888H105.138L108.88 16.6814H111.57L107.322 21.3742ZM117.114 25.5613C117.761 25.5613 118.287 25.4063 118.692 25.0961C119.11 24.7859 119.373 24.3746 119.48 23.8622H121.847C121.645 24.8331 121.126 25.6422 120.289 26.2895C119.453 26.9368 118.395 27.2604 117.114 27.2604C115.563 27.2604 114.343 26.7548 113.453 25.7434C112.576 24.732 112.138 23.3835 112.138 21.6979C112.138 20.1471 112.576 18.8728 113.453 17.8749C114.343 16.877 115.55 16.378 117.073 16.378C118.233 16.378 119.217 16.6949 120.027 17.3287C120.849 17.949 121.402 18.7986 121.685 19.8774C121.874 20.4842 121.968 21.2866 121.968 22.2845H114.424C114.464 23.3902 114.727 24.2128 115.212 24.7522C115.711 25.2916 116.345 25.5613 117.114 25.5613ZM118.833 18.7649C118.375 18.3064 117.788 18.0771 117.073 18.0771C116.359 18.0771 115.765 18.3064 115.293 18.7649C114.835 19.2234 114.558 19.8909 114.464 20.7674H119.662C119.582 19.8909 119.305 19.2234 118.833 18.7649ZM133.322 12.555V26.957H131.077V25.5411H131.036C130.739 26.067 130.315 26.4783 129.762 26.775C129.222 27.0582 128.629 27.1998 127.982 27.1998C126.674 27.1998 125.629 26.7143 124.847 25.7434C124.078 24.759 123.694 23.4509 123.694 21.8192C123.694 20.1741 124.078 18.866 124.847 17.8951C125.615 16.9107 126.654 16.4185 127.962 16.4185C128.609 16.4185 129.195 16.5601 129.721 16.8433C130.261 17.1264 130.679 17.5175 130.975 18.0165H131.016V12.555H133.322ZM128.649 18.2187C127.867 18.2187 127.247 18.5491 126.788 19.2099C126.33 19.8572 126.101 20.7269 126.101 21.8192C126.101 22.9115 126.33 23.788 126.788 24.4488C127.247 25.0961 127.867 25.4197 128.649 25.4197C129.404 25.4197 130.005 25.0961 130.45 24.4488C130.908 23.8015 131.137 22.925 131.137 21.8192C131.137 20.7 130.908 19.8234 130.45 19.1897C130.005 18.5424 129.404 18.2187 128.649 18.2187Z" fill="#fff"/>
<defs>
<linearGradient id="paint0_linear" x1="10.6875" y1="0" x2="43.8075" y2="33.1315" gradientUnits="userSpaceOnUse">
<stop stop-color="#3F8EF7"/>
<stop offset="1" stop-color="#1A68D0"/>
</linearGradient>
<linearGradient id="paint1_linear" x1="10.6465" y1="0" x2="31.4312" y2="5.7479" gradientUnits="userSpaceOnUse">
<stop stop-color="#50EAA5"/>
<stop offset="1" stop-color="#08CE76"/>
</linearGradient>
</defs>
</svg>
