<?xml version="1.0" encoding="utf-8"?>
<!-- Generator: Adobe Illustrator 25.4.1, SVG Export Plug-In . SVG Version: 6.00 Build 0)  -->
<svg version="1.1" id="Layer_1" xmlns="http://www.w3.org/2000/svg" xmlns:xlink="http://www.w3.org/1999/xlink" x="0px" y="0px"
	 viewBox="0 0 326 144" style="enable-background:new 0 0 326 144;" xml:space="preserve">
<style type="text/css">
	.st0{fill:#102548;}
	.st1{fill:url(#SVGID_1_);}
	.st2{fill:#FFFFFF;}
	.st3{fill:#F57F20;}
	.st4{fill:url(#SVGID_00000152227064951998070790000016279840282888708745_);}
	.st5{fill:url(#SVGID_00000023964553757795240620000014683640716081550764_);}
	.st6{fill:none;stroke:#F57F20;stroke-miterlimit:10;}
</style>
<g>
	<path class="st0" d="M294.1,100.9H58.4c-12.2,0-22.1-10-22.1-22.1l0,0c0-12.2,10-22.1,22.1-22.1h235.7c12.2,0,22.1,10,22.1,22.1
		l0,0C316.2,90.9,306.3,100.9,294.1,100.9z"/>
	<g>
		
			<linearGradient id="SVGID_1_" gradientUnits="userSpaceOnUse" x1="9.725" y1="145.0875" x2="114.1" y2="145.0875" gradientTransform="matrix(1 0 0 -1 0 209)">
			<stop  offset="0" style="stop-color:#F9EC80"/>
			<stop  offset="7.579882e-02" style="stop-color:#F9EA7C"/>
			<stop  offset="0.165" style="stop-color:#FAE66E"/>
			<stop  offset="0.261" style="stop-color:#FBDE54"/>
			<stop  offset="0.3611" style="stop-color:#FDD42C"/>
			<stop  offset="0.4134" style="stop-color:#FFCE07"/>
			<stop  offset="1" style="stop-color:#F57F20"/>
		</linearGradient>
		<path class="st1" d="M113.5,29.5c-23.7-23.7-62.2-23.7-86,0c-23.7,23.7-23.7,62.2,0,86c0.2,0.2,0.5,0.4,0.7,0.6l85.9-85.9
			C113.9,30,113.7,29.7,113.5,29.5z"/>
	</g>
	<g>
		<path class="st2" d="M97.5,49.1c-13.9-13.9-36.5-13.9-50.4,0s-13.9,36.5,0,50.4c0.1,0.1,0.3,0.3,0.4,0.4l50.4-50.4
			C97.8,49.4,97.6,49.2,97.5,49.1z"/>
	</g>
	<g>
		<path class="st3" d="M34,108.6c20,20,52.6,20,72.6,0s20-52.6,0-72.6c-0.2-0.2-0.4-0.4-0.6-0.5L33.4,108
			C33.6,108.2,33.8,108.4,34,108.6z"/>
	</g>
	<g>
		<path class="st0" d="M52.4,89.6c9.7,9.7,25.5,9.7,35.2,0s9.7-25.5,0-35.2c-0.1-0.1-0.2-0.2-0.3-0.3L52.1,89.3
			C52.2,89.4,52.3,89.5,52.4,89.6z"/>
	</g>
	
		<linearGradient id="SVGID_00000078748511997880606770000005914864344095671990_" gradientUnits="userSpaceOnUse" x1="60.977" y1="136.5" x2="80.0808" y2="136.5" gradientTransform="matrix(1 0 0 -1 0 209)">
		<stop  offset="0" style="stop-color:#5786C5"/>
		<stop  offset="1" style="stop-color:#3869B2"/>
	</linearGradient>
	<circle style="fill:url(#SVGID_00000078748511997880606770000005914864344095671990_);" cx="70.5" cy="72.5" r="9.6"/>
	<g>
		<g>
			<g>
				<path class="st2" d="M137.2,64.6h9.3c2.5,0,4.5,0.5,5.9,1.4s2.3,2.3,2.6,4c0.3,1.9-0.1,3.7-1.1,5.4c-0.6,1.3-1.6,2.3-2.9,3.1
					c-1.3,0.8-3,1.4-4.9,1.7l5.3,10.3H148l-5.1-10h-7l-2.7,10.1h-2.9L137.2,64.6z M143.6,77.8c1.9,0,3.5-0.3,4.8-0.8
					c1.3-0.6,2.3-1.3,2.8-2.2c0.8-1.1,1.1-2.3,1-3.6c-0.1-1.2-0.7-2.1-1.6-2.8c-1-0.7-2.4-1-4.3-1h-6.9l-2.8,10.5L143.6,77.8z"/>
				<path class="st2" d="M160.3,82.2c0,0.1,0,0.2,0,0.4c0,1.7,0.5,3.1,1.6,4.2s2.4,1.6,4.2,1.6c1.2,0,2.3-0.2,3.2-0.6
					c0.9-0.4,1.8-1,2.7-1.7l1.5,1.9c-0.9,0.8-2,1.5-3.2,2s-2.6,0.8-4.3,0.8c-1.3,0-2.4-0.2-3.5-0.6c-1-0.4-1.9-0.9-2.7-1.7
					c-0.7-0.7-1.3-1.6-1.7-2.6s-0.6-2.1-0.6-3.3c0-1.5,0.3-2.9,0.8-4.3c0.6-1.4,1.3-2.7,2.3-3.8s2.2-2,3.5-2.7c1.4-0.7,2.8-1,4.4-1
					c1.2,0,2.3,0.2,3.2,0.6s1.7,0.9,2.3,1.6c0.6,0.7,1.1,1.4,1.4,2.3c0.3,0.9,0.5,1.8,0.5,2.8c0,0.6-0.1,1.3-0.2,1.9
					s-0.3,1.2-0.5,1.8h-15C160.3,82,160.3,82.1,160.3,82.2z M173,79.7c0.1-0.4,0.2-0.9,0.2-1.5c0-0.7-0.1-1.3-0.3-1.9
					c-0.2-0.6-0.5-1.1-0.9-1.6c-0.4-0.4-0.9-0.8-1.5-1.1s-1.3-0.4-2.1-0.4c-0.9,0-1.8,0.2-2.6,0.5s-1.6,0.8-2.2,1.4s-1.2,1.3-1.7,2
					c-0.5,0.8-0.8,1.6-1.1,2.5L173,79.7z"/>
				<path class="st2" d="M185.5,64.5h9.7c2.5,0,4.5,0.5,5.9,1.6s2.1,2.5,2.1,4.4c0,0.9-0.2,1.8-0.5,2.5c-0.3,0.8-0.8,1.4-1.3,2
					c-0.6,0.6-1.3,1-2,1.4s-1.6,0.7-2.5,0.9c1.3,0.4,2.4,1,3.3,1.9c0.9,0.9,1.3,2,1.3,3.5c0,1.1-0.2,2.1-0.7,3.1s-1.2,1.8-2.1,2.4
					c-0.9,0.7-2.1,1.2-3.4,1.6c-1.3,0.4-2.9,0.6-4.6,0.6h-11.9L185.5,64.5z M190.8,87.8c2.3,0,4.2-0.5,5.5-1.4c1.4-0.9,2-2.2,2-3.8
					c0-0.7-0.1-1.2-0.4-1.7c-0.3-0.5-0.7-0.9-1.2-1.2s-1.2-0.6-1.9-0.7c-0.7-0.2-1.5-0.2-2.4-0.2h-7.8l-2.4,9.2L190.8,87.8z
					 M192.6,76c2.3,0,4.2-0.5,5.5-1.4c1.4-0.9,2-2.2,2-3.8c0-1.2-0.5-2.2-1.4-2.8s-2.2-1-3.9-1h-7.3l-2.3,8.9L192.6,76z"/>
				<path class="st2" d="M208.4,90.4c-0.7-0.2-1.4-0.6-1.9-1c-0.6-0.4-1-1-1.3-1.6c-0.3-0.7-0.5-1.4-0.5-2.3c0-1.1,0.2-2,0.6-2.9
					c0.4-0.9,1-1.6,1.8-2.2c0.8-0.6,1.7-1,2.7-1.4c1-0.3,2.2-0.5,3.4-0.5c1.3,0,2.5,0.1,3.7,0.3s2.2,0.4,3.1,0.7l0.1-0.4
					c0.1-0.3,0.1-0.6,0.2-0.9c0-0.3,0.1-0.6,0.1-0.9c0-1.3-0.4-2.2-1.3-2.9c-0.9-0.7-2.2-1-3.9-1c-1,0-2,0.1-2.8,0.3
					s-1.7,0.4-2.6,0.7l-0.5-2.4c0.9-0.3,1.9-0.6,2.9-0.8s2.1-0.3,3.4-0.3c2.4,0,4.3,0.5,5.6,1.6c1.3,1,1.9,2.5,1.9,4.3
					c0,0.4,0,0.8-0.1,1.3c-0.1,0.4-0.2,0.9-0.3,1.3l-2.9,10.8H217l0.8-3c-0.9,1-1.9,1.9-3.1,2.5c-1.2,0.6-2.5,0.9-4,0.9
					C209.9,90.7,209.1,90.6,208.4,90.4z M214,88.1c0.8-0.3,1.5-0.7,2.2-1.2s1.3-1.1,1.8-1.8s0.9-1.5,1.1-2.3l0.4-1.3
					c-0.8-0.2-1.8-0.4-2.8-0.6c-1.1-0.2-2.2-0.2-3.4-0.2c-0.9,0-1.6,0.1-2.3,0.3s-1.3,0.5-1.8,0.9s-0.9,0.9-1.2,1.4
					s-0.4,1.1-0.4,1.8c0,1,0.4,1.9,1.1,2.5c0.7,0.6,1.7,0.9,3,0.9C212.4,88.5,213.2,88.4,214,88.1z"/>
				<path class="st2" d="M233,63.3h2.8l-4.9,18.4l12.8-10.5h3.9l-10.2,8.3l5.3,10.9h-3.2l-4.4-9l-5.1,4.1l-1.3,5h-2.8L233,63.3z"/>
				<path class="st2" d="M250.8,82.1c0,0.1,0,0.2,0,0.4c0,1.7,0.5,3.1,1.6,4.2s2.4,1.6,4.2,1.6c1.2,0,2.3-0.2,3.2-0.6
					c0.9-0.4,1.8-1,2.7-1.7l1.5,1.9c-0.9,0.8-2,1.5-3.2,2c-1.2,0.6-2.6,0.8-4.3,0.8c-1.3,0-2.4-0.2-3.5-0.6c-1-0.4-1.9-0.9-2.7-1.7
					c-0.7-0.7-1.3-1.6-1.7-2.6s-0.6-2.1-0.6-3.3c0-1.5,0.3-2.9,0.8-4.3c0.6-1.4,1.3-2.7,2.3-3.8s2.2-2,3.5-2.7c1.4-0.7,2.8-1,4.4-1
					c1.2,0,2.3,0.2,3.2,0.6c0.9,0.4,1.7,0.9,2.3,1.6c0.6,0.7,1.1,1.4,1.4,2.3c0.3,0.9,0.5,1.8,0.5,2.8c0,0.6-0.1,1.3-0.2,1.9
					c-0.1,0.6-0.3,1.2-0.5,1.8h-15C250.8,81.8,250.8,81.9,250.8,82.1z M263.5,79.5c0.1-0.4,0.2-0.9,0.2-1.5c0-0.7-0.1-1.3-0.3-1.9
					c-0.2-0.6-0.5-1.1-0.9-1.6c-0.4-0.4-0.9-0.8-1.5-1.1s-1.3-0.4-2.1-0.4c-0.9,0-1.8,0.2-2.6,0.5s-1.6,0.8-2.2,1.4s-1.2,1.3-1.7,2
					c-0.5,0.8-0.8,1.6-1.1,2.5L263.5,79.5z"/>
				<path class="st2" d="M274.4,90c-0.9-0.4-1.7-0.9-2.4-1.6c-0.7-0.7-1.2-1.5-1.6-2.5c-0.4-1-0.6-2.1-0.6-3.3
					c0-1.7,0.3-3.3,0.9-4.7s1.4-2.7,2.4-3.8s2.1-1.9,3.4-2.5c1.3-0.6,2.6-0.9,4-0.9c1,0,1.9,0.1,2.6,0.4c0.8,0.3,1.4,0.6,2,1
					s1.1,0.9,1.5,1.5s0.7,1.2,1,1.8l3.2-12.2h2.8l-7.2,27h-2.8l0.8-3.3c-0.9,1-1.9,1.9-3.1,2.6c-1.2,0.7-2.5,1.1-4.1,1.1
					C276.3,90.6,275.3,90.4,274.4,90z M281.3,87.4c1-0.5,1.9-1.2,2.7-2s1.4-1.8,1.9-2.9c0.5-1.1,0.7-2.2,0.7-3.4
					c0-0.8-0.1-1.6-0.4-2.3c-0.3-0.7-0.7-1.3-1.2-1.9c-0.5-0.5-1.1-0.9-1.9-1.3c-0.7-0.3-1.5-0.5-2.4-0.5c-1.1,0-2.2,0.2-3.2,0.7
					s-1.8,1.2-2.5,2s-1.3,1.8-1.7,2.9s-0.6,2.3-0.6,3.5c0,0.9,0.1,1.7,0.4,2.4s0.6,1.3,1.1,1.8s1.1,0.9,1.7,1.2
					c0.7,0.3,1.4,0.4,2.2,0.4C279.2,88.1,280.3,87.9,281.3,87.4z"/>
			</g>
		</g>
	</g>
</g>
<g>
	<g>
		<polygon class="st0" points="101.6,97.4 91.7,130.2 264.6,130.2 273.2,97.4 		"/>
		<g>
			<path class="st3" d="M110.7,104.7h5.8c1.3,0,2.4,0.1,3.4,0.4c0.9,0.3,1.7,0.8,2.4,1.4c0.9,0.9,1.4,2.2,1.4,3.8
				c0,1.1-0.2,2.2-0.7,3c-0.5,0.9-1.1,1.6-1.9,2.3c-0.8,0.6-1.7,1.1-2.8,1.4c-1.1,0.3-2.3,0.5-3.5,0.5h-3.5l-1.5,5.6h-4L110.7,104.7
				z M115,114c1.3,0,2.4-0.3,3.3-0.9c0.8-0.6,1.2-1.4,1.2-2.4c0-0.6-0.2-1.1-0.6-1.5c-0.3-0.3-0.6-0.5-1-0.6s-0.9-0.2-1.5-0.2h-2.6
				l-1.5,5.6L115,114L115,114z"/>
			<path class="st3" d="M130.9,104.7h4l-4.9,18.4h-4L130.9,104.7z"/>
			<path class="st3" d="M143.1,122.8c-1-0.4-1.9-1-2.7-1.7c-0.7-0.7-1.3-1.6-1.7-2.6c-0.4-1-0.6-2.1-0.6-3.2c0-1.4,0.3-2.7,0.8-4
				s1.3-2.5,2.3-3.5c1-1,2.1-1.8,3.5-2.5c1.4-0.6,2.9-0.9,4.5-0.9c1.3,0,2.4,0.2,3.4,0.6c1,0.4,1.9,1,2.7,1.7
				c0.7,0.7,1.3,1.6,1.7,2.6s0.6,2.1,0.6,3.2c0,1.4-0.3,2.7-0.8,4s-1.3,2.5-2.3,3.5s-2.1,1.8-3.5,2.5c-1.4,0.6-2.9,0.9-4.5,0.9
				C145.3,123.4,144.1,123.2,143.1,122.8z M149.7,119.1c0.8-0.4,1.5-1,2-1.6c0.6-0.7,1-1.4,1.3-2.2s0.5-1.6,0.5-2.4
				c0-0.7-0.1-1.3-0.3-1.9c-0.2-0.6-0.5-1.1-0.9-1.5s-0.9-0.7-1.5-1s-1.3-0.3-2-0.3c-1,0-1.8,0.2-2.6,0.6c-0.8,0.4-1.5,1-2,1.6
				c-0.6,0.7-1,1.4-1.3,2.2s-0.5,1.6-0.5,2.4c0,0.7,0.1,1.3,0.3,1.9c0.2,0.6,0.5,1.1,0.9,1.5s0.9,0.7,1.5,1s1.3,0.3,2,0.3
				C148,119.7,148.9,119.5,149.7,119.1z"/>
			<path class="st3" d="M165.6,104.7h3.7l5.4,11.7l3.2-11.7h4l-4.9,18.4h-3.4L168,111l-3.2,12.1h-4L165.6,104.7z"/>
			<path class="st3" d="M188.4,104.7h13.7l-1,3.6h-9.7l-1,3.8h8.5l-1,3.5h-8.5l-1,3.9h9.9l-1,3.6h-13.9L188.4,104.7z"/>
			<path class="st3" d="M208,104.7h13.7l-1,3.6H211l-1,3.8h8.5l-1,3.5H209l-1,3.9h9.9l-1,3.6H203L208,104.7z"/>
			<path class="st3" d="M227.7,104.7h6.7c1.4,0,2.5,0.2,3.5,0.5s1.7,0.8,2.3,1.4c0.9,0.9,1.4,2.2,1.4,3.7c0,1.7-0.5,3.1-1.5,4.2
				c-1,1.1-2.5,1.9-4.4,2.4l3.1,6.3h-4.6l-2.8-5.9h-3l-1.6,5.9h-4L227.7,104.7z M232.9,113.6c0.6,0,1.2-0.1,1.8-0.2
				c0.5-0.1,1-0.3,1.4-0.6s0.7-0.6,0.9-0.9c0.2-0.4,0.3-0.8,0.3-1.3c0-0.6-0.2-1.1-0.6-1.5c-0.5-0.5-1.4-0.8-2.7-0.8h-3.4l-1.4,5.3
				H232.9z"/>
			<path class="st3" d="M243.4,120l3-2.6c0.7,0.8,1.5,1.4,2.3,1.8c0.8,0.4,1.8,0.6,2.8,0.6c0.8,0,1.5-0.2,2-0.5s0.8-0.8,0.8-1.4
				c0-0.2,0-0.4-0.1-0.6c-0.1-0.2-0.3-0.4-0.5-0.6c-0.2-0.2-0.6-0.4-1-0.6s-0.9-0.4-1.5-0.7c-0.6-0.2-1.2-0.5-1.7-0.8s-1-0.6-1.4-1
				s-0.8-0.8-1-1.4c-0.2-0.5-0.4-1.1-0.4-1.8c0-0.9,0.2-1.8,0.6-2.5c0.4-0.7,0.9-1.4,1.6-1.9c0.7-0.5,1.4-0.9,2.3-1.2
				c0.9-0.3,1.8-0.4,2.8-0.4c1.6,0,2.9,0.2,4,0.7s2,1.2,2.8,2l-2.8,2.8c-0.7-0.6-1.4-1.1-2.1-1.5c-0.7-0.3-1.5-0.5-2.3-0.5
				c-0.9,0-1.5,0.2-2,0.6c-0.5,0.4-0.7,0.8-0.7,1.3c0,0.2,0.1,0.5,0.2,0.6c0.1,0.2,0.3,0.4,0.5,0.5c0.2,0.2,0.6,0.4,1,0.6
				c0.4,0.2,0.9,0.4,1.6,0.7c0.6,0.3,1.2,0.5,1.7,0.8s1,0.6,1.4,1s0.7,0.8,0.9,1.3s0.3,1.1,0.3,1.8c0,1-0.2,1.8-0.6,2.6
				c-0.4,0.8-0.9,1.4-1.6,1.9c-0.7,0.5-1.4,0.9-2.3,1.2c-0.9,0.3-1.8,0.4-2.8,0.4C247.8,123.4,245.1,122.3,243.4,120z"/>
		</g>
		
			<linearGradient id="SVGID_00000139264710241788804860000014731877918214899105_" gradientUnits="userSpaceOnUse" x1="82.8" y1="83" x2="102.837" y2="83" gradientTransform="matrix(1 0 0 -1 0 209)">
			<stop  offset="0" style="stop-color:#5786C5"/>
			<stop  offset="1" style="stop-color:#3869B2"/>
		</linearGradient>
		<circle style="fill:url(#SVGID_00000139264710241788804860000014731877918214899105_);" cx="92.8" cy="126" r="10"/>
	</g>
	<line class="st6" x1="100.4" y1="97.1" x2="273.1" y2="97.1"/>
</g>
</svg>
