<svg xmlns="http://www.w3.org/2000/svg" xmlns:xlink="http://www.w3.org/1999/xlink" width="44" height="50" viewBox="0 0 44 50">
  <defs>
    <linearGradient id="linear-gradient" x1="-21.711" y1="-58.976" x2="-20.546" y2="-58.976" gradientUnits="objectBoundingBox">
      <stop offset="0" stop-color="#f9ec80"/>
      <stop offset="0.076" stop-color="#f9ea7c"/>
      <stop offset="0.165" stop-color="#fae66e"/>
      <stop offset="0.261" stop-color="#fbde54"/>
      <stop offset="0.361" stop-color="#fdd42c"/>
      <stop offset="0.413" stop-color="#ffce07"/>
      <stop offset="1" stop-color="#f57f20"/>
    </linearGradient>
    <linearGradient id="linear-gradient-2" x1="315.039" y1="-130.44" x2="316.042" y2="-130.44" gradientUnits="objectBoundingBox">
      <stop offset="0" stop-color="#5786c5"/>
      <stop offset="1" stop-color="#3869b2"/>
    </linearGradient>
    <linearGradient id="linear-gradient-3" x1="-0.001" y1="0.499" x2="0.999" y2="0.499" xlink:href="#linear-gradient-2"/>
  </defs>
  <g id="Group_11621" data-name="Group 11621" transform="translate(2265 18611)">
    <rect id="Rectangle_113" data-name="Rectangle 113" width="44" height="50" transform="translate(-2265 -18611)" fill="none"/>
    <g id="rebaked_pioneers_full" data-name="rebaked pioneers full" transform="translate(-2692.1 -19026.051)">
      <g id="Group_11619" data-name="Group 11619" transform="translate(431.748 416.05)">
        <g id="Group_11615" data-name="Group 11615" transform="translate(3.767 0)">
          <g id="Group_11611" data-name="Group 11611">
            <path id="Path_21324" data-name="Path 21324" d="M509.258,420.893a16.521,16.521,0,1,0-23.365,23.365c.062.062.125.109.187.172l23.349-23.349A1.869,1.869,0,0,0,509.258,420.893Z" transform="translate(-481.05 -416.05)" fill="url(#linear-gradient)"/>
          </g>
          <g id="Group_11612" data-name="Group 11612" transform="translate(7.346 7.331)">
            <path id="Path_21325" data-name="Path 21325" d="M544.675,465.881a9.683,9.683,0,0,0-13.694,13.694.721.721,0,0,1,.109.109l13.679-13.679A.865.865,0,0,0,544.675,465.881Z" transform="translate(-528.15 -463.05)" fill="#fff"/>
          </g>
          <g id="Group_11613" data-name="Group 11613" transform="translate(6.449 6.434)">
            <path id="Path_21326" data-name="Path 21326" d="M522.556,477.187a13.952,13.952,0,0,0,19.731-19.731,1.471,1.471,0,0,1-.156-.156L522.4,477.031A1.471,1.471,0,0,0,522.556,477.187Z" transform="translate(-522.4 -457.3)" fill="#f57f20"/>
          </g>
          <g id="Group_11614" data-name="Group 11614" transform="translate(11.534 11.519)">
            <path id="Path_21327" data-name="Path 21327" d="M555.062,499.555a6.772,6.772,0,0,0,9.577-9.577l-.078-.078L555,499.477C555.016,499.508,555.047,499.524,555.062,499.555Z" transform="translate(-555 -489.9)" fill="#102548"/>
          </g>
          <circle id="Ellipse_1046" data-name="Ellipse 1046" cx="2.589" cy="2.589" r="2.589" transform="translate(13.936 13.936)" fill="url(#linear-gradient-2)"/>
        </g>
        <g id="Group_11618" data-name="Group 11618" transform="translate(0 32.169)">
          <g id="Group_11617" data-name="Group 11617">
            <g id="Group_11616" data-name="Group 11616">
              <path id="Path_21328" data-name="Path 21328" d="M458.553,624.4H460.8a2.516,2.516,0,0,1,1.419.343,1.372,1.372,0,0,1,.624.967,1.728,1.728,0,0,1-.281,1.295,1.889,1.889,0,0,1-.7.749,3.567,3.567,0,0,1-1.17.406l1.279,2.48h-.811l-1.232-2.418h-1.685l-.639,2.418h-.7Zm1.544,3.182a2.833,2.833,0,0,0,1.154-.2,1.452,1.452,0,0,0,.686-.546,1.311,1.311,0,0,0,.25-.873.888.888,0,0,0-.39-.671,1.853,1.853,0,0,0-1.029-.25H459.1l-.686,2.542Z" transform="translate(-456.9 -624.072)" fill="#102548"/>
              <path id="Path_21329" data-name="Path 21329" d="M499.571,636.745v.094a1.291,1.291,0,0,0,1.388,1.388,1.99,1.99,0,0,0,.78-.14,2.587,2.587,0,0,0,.639-.406l.359.452a3.181,3.181,0,0,1-.764.484,2.333,2.333,0,0,1-1.029.2,2.357,2.357,0,0,1-.827-.14,1.8,1.8,0,0,1-.639-.406,2,2,0,0,1-.421-.624,2.486,2.486,0,0,1-.156-.8,2.633,2.633,0,0,1,.2-1.029,3.105,3.105,0,0,1,.561-.92,2.915,2.915,0,0,1,.842-.655,2.26,2.26,0,0,1,1.061-.25,1.909,1.909,0,0,1,.764.14,1.769,1.769,0,0,1,.561.374,1.475,1.475,0,0,1,.343.561,1.951,1.951,0,0,1,.109.671,2.228,2.228,0,0,1-.047.452,4.182,4.182,0,0,1-.109.421h-3.6A.439.439,0,0,0,499.571,636.745Zm3.057-.608a1.11,1.11,0,0,0,.047-.359,1.441,1.441,0,0,0-.062-.452,1.09,1.09,0,0,0-.2-.374,1.262,1.262,0,0,0-.359-.265,1.05,1.05,0,0,0-.515-.094,1.794,1.794,0,0,0-.639.125,1.681,1.681,0,0,0-.53.328,2.107,2.107,0,0,0-.406.5,2.659,2.659,0,0,0-.265.608Z" transform="translate(-492.349 -632.175)" fill="#102548"/>
              <path id="Path_21330" data-name="Path 21330" d="M533.153,624.2h2.324a2.228,2.228,0,0,1,1.419.39,1.247,1.247,0,0,1,.5,1.061,1.562,1.562,0,0,1-.109.608,1.474,1.474,0,0,1-.328.484,1.808,1.808,0,0,1-.483.343,2,2,0,0,1-.608.2,1.841,1.841,0,0,1,.78.452,1.093,1.093,0,0,1,.328.842,1.755,1.755,0,0,1-.172.749,1.862,1.862,0,0,1-.515.593,2.714,2.714,0,0,1-.827.39,3.942,3.942,0,0,1-1.092.14H531.5Zm1.279,5.615a2.4,2.4,0,0,0,1.341-.328,1.043,1.043,0,0,0,.484-.92.773.773,0,0,0-.109-.421.9.9,0,0,0-.3-.3,1.3,1.3,0,0,0-.452-.172,3.113,3.113,0,0,0-.577-.062h-1.887l-.577,2.215Zm.437-2.839a2.228,2.228,0,0,0,1.326-.343,1.069,1.069,0,0,0,.5-.9.75.75,0,0,0-.328-.671,1.6,1.6,0,0,0-.936-.234h-1.747l-.562,2.152Z" transform="translate(-519.864 -623.904)" fill="#102548"/>
              <path id="Path_21331" data-name="Path 21331" d="M572.42,638.795a1.686,1.686,0,0,1-.468-.25,1.323,1.323,0,0,1-.328-.39,1.224,1.224,0,0,1-.125-.546,1.556,1.556,0,0,1,.577-1.232,2.149,2.149,0,0,1,.655-.328,3.273,3.273,0,0,1,.811-.125,5.05,5.05,0,0,1,.873.078,6.737,6.737,0,0,1,.749.172l.031-.109c.016-.062.031-.14.047-.218a1.107,1.107,0,0,0,.016-.218.825.825,0,0,0-.312-.686,1.53,1.53,0,0,0-.936-.234,3.115,3.115,0,0,0-.686.062c-.2.047-.406.109-.624.172l-.109-.562a4.606,4.606,0,0,1,.7-.2,4.336,4.336,0,0,1,.811-.078,2.113,2.113,0,0,1,1.341.374,1.256,1.256,0,0,1,.468,1.045,2.34,2.34,0,0,1-.031.312,2.486,2.486,0,0,1-.078.328l-.686,2.6h-.671l.187-.717a2.467,2.467,0,0,1-.749.593,1.964,1.964,0,0,1-.967.218A1.506,1.506,0,0,1,572.42,638.795Zm1.357-.562a1.933,1.933,0,0,0,.53-.281,2.315,2.315,0,0,0,.437-.437,1.549,1.549,0,0,0,.265-.562l.094-.328a4.091,4.091,0,0,0-.686-.14,6.589,6.589,0,0,0-.811-.062,2.124,2.124,0,0,0-.561.078,1.278,1.278,0,0,0-.437.218.855.855,0,0,0-.281.343,1,1,0,0,0-.109.437.735.735,0,0,0,.265.593,1.124,1.124,0,0,0,.717.218A1.064,1.064,0,0,0,573.777,638.233Z" transform="translate(-553.626 -632.259)" fill="#102548"/>
              <path id="Path_21332" data-name="Path 21332" d="M606.047,622.4h.686l-1.17,4.43,3.088-2.527h.936l-2.464,1.981,1.263,2.62h-.78l-1.076-2.184-1.232.983-.312,1.2H604.3Z" transform="translate(-581.31 -622.384)" fill="#102548"/>
              <path id="Path_21333" data-name="Path 21333" d="M639.271,636.545v.094a1.291,1.291,0,0,0,1.388,1.388,1.99,1.99,0,0,0,.78-.14,2.585,2.585,0,0,0,.64-.406l.359.452a3.18,3.18,0,0,1-.764.484,2.332,2.332,0,0,1-1.029.2,2.358,2.358,0,0,1-.827-.14,1.8,1.8,0,0,1-.639-.406,2,2,0,0,1-.421-.624,2.485,2.485,0,0,1-.156-.8,2.633,2.633,0,0,1,.2-1.029,3.106,3.106,0,0,1,.561-.92,2.917,2.917,0,0,1,.842-.655,2.26,2.26,0,0,1,1.061-.25,1.909,1.909,0,0,1,.764.14,1.77,1.77,0,0,1,.562.374,1.476,1.476,0,0,1,.343.561,1.953,1.953,0,0,1,.109.671A2.228,2.228,0,0,1,643,636a4.174,4.174,0,0,1-.109.421h-3.6A.343.343,0,0,0,639.271,636.545Zm3.057-.608a1.108,1.108,0,0,0,.047-.359,1.441,1.441,0,0,0-.062-.452,1.09,1.09,0,0,0-.2-.374,1.262,1.262,0,0,0-.359-.265,1.05,1.05,0,0,0-.515-.094,1.794,1.794,0,0,0-.639.125,1.681,1.681,0,0,0-.53.328,2.108,2.108,0,0,0-.406.5,2.661,2.661,0,0,0-.265.608Z" transform="translate(-610.26 -632.006)" fill="#102548"/>
              <path id="Path_21334" data-name="Path 21334" d="M673.307,628.757a1.642,1.642,0,0,1-.577-.39,2.034,2.034,0,0,1-.39-.608,2.128,2.128,0,0,1-.14-.8,2.8,2.8,0,0,1,.218-1.139,2.721,2.721,0,0,1,.577-.9,2.911,2.911,0,0,1,.827-.608,2.09,2.09,0,0,1,.967-.218,1.876,1.876,0,0,1,.624.094,1.708,1.708,0,0,1,.842.608,2.426,2.426,0,0,1,.25.437l.78-2.932h.686l-1.716,6.5h-.686l.2-.78a3.256,3.256,0,0,1-.749.639,1.851,1.851,0,0,1-.983.265A2.657,2.657,0,0,1,673.307,628.757Zm1.669-.655a2.233,2.233,0,0,0,.655-.484,2.965,2.965,0,0,0,.468-.686,1.852,1.852,0,0,0,.172-.811,1.337,1.337,0,0,0-.109-.562,1.325,1.325,0,0,0-.749-.749,1.41,1.41,0,0,0-.577-.109,1.825,1.825,0,0,0-.764.172,2.033,2.033,0,0,0-.608.484,2.236,2.236,0,0,0-.406.7,2.513,2.513,0,0,0-.14.842,1.659,1.659,0,0,0,.094.577,1.214,1.214,0,0,0,.265.437,1,1,0,0,0,.421.281,1.4,1.4,0,0,0,.53.094A1.662,1.662,0,0,0,674.976,628.1Z" transform="translate(-638.619 -622.3)" fill="#102548"/>
            </g>
          </g>
        </g>
      </g>
      <path id="Path_21335" data-name="Path 21335" d="M442.246,671.4,440,678.809h39.024l1.95-7.409Z" transform="translate(-10.888 -215.522)" fill="#102548"/>
      <g id="Group_11620" data-name="Group 11620" transform="translate(432.278 457.453)">
        <path id="Path_21336" data-name="Path 21336" d="M461.423,682.1h1.31a2.769,2.769,0,0,1,.764.094,1.223,1.223,0,0,1,.546.328,1.152,1.152,0,0,1,.328.858,1.434,1.434,0,0,1-.156.686,1.7,1.7,0,0,1-.421.515,1.749,1.749,0,0,1-.639.312,2.65,2.65,0,0,1-.8.109h-.8l-.343,1.263h-.92Zm.967,2.09a1.276,1.276,0,0,0,.733-.187.621.621,0,0,0,.281-.546.459.459,0,0,0-.14-.343.587.587,0,0,0-.234-.14,1.072,1.072,0,0,0-.343-.047h-.593l-.343,1.263Z" transform="translate(-460.3 -682.006)" fill="#f57f20"/>
        <path id="Path_21337" data-name="Path 21337" d="M490.707,682.1h.92l-1.107,4.149h-.92Z" transform="translate(-485.03 -682.006)" fill="#f57f20"/>
        <path id="Path_21338" data-name="Path 21338" d="M508.323,685.749a1.573,1.573,0,0,1-.593-.39,1.8,1.8,0,0,1-.39-.577,1.861,1.861,0,0,1-.14-.733,2.292,2.292,0,0,1,.187-.9,2.472,2.472,0,0,1,2.324-1.544,2.1,2.1,0,0,1,.78.14,1.572,1.572,0,0,1,.593.39,1.8,1.8,0,0,1,.39.577,1.861,1.861,0,0,1,.14.733,2.293,2.293,0,0,1-.187.9,2.472,2.472,0,0,1-2.324,1.544A2.1,2.1,0,0,1,508.323,685.749Zm1.482-.842a1.7,1.7,0,0,0,.452-.359,2.009,2.009,0,0,0,.3-.5,1.786,1.786,0,0,0,.109-.546,1.2,1.2,0,0,0-.062-.421.89.89,0,0,0-.2-.328.929.929,0,0,0-.328-.218,1.375,1.375,0,0,0-.452-.078,1.232,1.232,0,0,0-.593.14,1.7,1.7,0,0,0-.452.359,2.011,2.011,0,0,0-.3.5,1.786,1.786,0,0,0-.109.546,1.2,1.2,0,0,0,.062.421.891.891,0,0,0,.2.328.93.93,0,0,0,.328.218,1.375,1.375,0,0,0,.452.078A1.277,1.277,0,0,0,509.8,684.907Z" transform="translate(-499.885 -681.584)" fill="#f57f20"/>
        <path id="Path_21339" data-name="Path 21339" d="M541.007,682.1h.842l1.217,2.636.717-2.636h.9l-1.107,4.149h-.78l-1.263-2.714-.733,2.714h-.9Z" transform="translate(-527.485 -682.006)" fill="#f57f20"/>
        <path id="Path_21340" data-name="Path 21340" d="M574.007,682.1h3.1l-.218.811h-2.2l-.218.842h1.918l-.218.8h-1.918l-.234.873h2.23l-.218.811H572.9Z" transform="translate(-555.337 -682.006)" fill="#f57f20"/>
        <path id="Path_21341" data-name="Path 21341" d="M602.407,682.1h3.1l-.218.811h-2.2l-.218.842h1.918l-.218.8h-1.918l-.234.873h2.23l-.218.811H601.3Z" transform="translate(-579.308 -682.006)" fill="#f57f20"/>
        <path id="Path_21342" data-name="Path 21342" d="M630.639,682.1h1.513a2.237,2.237,0,0,1,.78.109,1.2,1.2,0,0,1,.53.312,1.14,1.14,0,0,1,.328.842,1.374,1.374,0,0,1-.343.951,1.808,1.808,0,0,1-1,.53l.7,1.419H632.1l-.639-1.326h-.686l-.359,1.326h-.92Zm1.185,2a1.485,1.485,0,0,0,.39-.047,1.6,1.6,0,0,0,.328-.125.587.587,0,0,0,.218-.218.6.6,0,0,0,.078-.3.447.447,0,0,0-.125-.328.858.858,0,0,0-.608-.172h-.764l-.328,1.185Z" transform="translate(-603.109 -682.006)" fill="#f57f20"/>
        <path id="Path_21343" data-name="Path 21343" d="M659.5,685.025l.686-.577a2.089,2.089,0,0,0,.53.406,1.38,1.38,0,0,0,.639.14.777.777,0,0,0,.452-.125.345.345,0,0,0,.172-.312.456.456,0,0,0-.031-.14c-.016-.047-.062-.078-.109-.125a.9.9,0,0,0-.218-.125c-.094-.047-.2-.094-.343-.156a2.994,2.994,0,0,1-.39-.187,1.753,1.753,0,0,1-.328-.234.87.87,0,0,1-.218-.312.821.821,0,0,1-.078-.406,1.17,1.17,0,0,1,.14-.577,1.381,1.381,0,0,1,.359-.437,1.542,1.542,0,0,1,.53-.265,2.085,2.085,0,0,1,.624-.094,2.307,2.307,0,0,1,.92.172,1.9,1.9,0,0,1,.639.452l-.624.624a2.132,2.132,0,0,0-.468-.328,1.153,1.153,0,0,0-.53-.109.682.682,0,0,0-.452.14.373.373,0,0,0-.156.281.311.311,0,0,0,.031.14.471.471,0,0,0,.125.125,1.364,1.364,0,0,0,.218.125c.094.047.2.094.359.156.14.062.281.125.39.187a1.168,1.168,0,0,1,.312.234.915.915,0,0,1,.2.3,1.021,1.021,0,0,1,.078.39,1.172,1.172,0,0,1-.14.577,1.631,1.631,0,0,1-.359.437,1.542,1.542,0,0,1-.53.265,2.085,2.085,0,0,1-.624.094A2.046,2.046,0,0,1,659.5,685.025Z" transform="translate(-628.43 -681.5)" fill="#f57f20"/>
      </g>
      <circle id="Ellipse_1047" data-name="Ellipse 1047" cx="2.262" cy="2.262" r="2.262" transform="translate(427.1 460.089)" fill="url(#linear-gradient-3)"/>
    </g>
  </g>
</svg>
