<svg width="44" height="40" viewBox="0 0 44 40" fill="none" xmlns="http://www.w3.org/2000/svg">
<circle cx="16" cy="5.5" r="5.5" fill="#C4C4C4"/>
<rect x="0.5" width="21" height="11" rx="5.5" fill="#3F8EF7"/>
<path d="M43.5 16.5189C43.5009 17.9198 43.3211 19.3149 42.965 20.6696C42.617 21.9985 42.1073 23.2797 41.4475 24.4844C41.0784 25.1535 40.6614 25.7952 40.2 26.4043C40.182 26.4355 40.1688 26.4529 40.1646 26.4643L40.1604 26.4685C39.8009 26.9426 39.4169 27.3977 39.01 27.8317C38.4328 28.4457 37.8088 29.0137 37.1435 29.5309C37.1435 29.5309 32.3566 32.9694 26.6149 32.9694L25.6727 32.9736L21.6427 33V21.887H27.0132C27.7204 21.8928 28.421 21.7509 29.0704 21.4706C29.7106 21.1986 30.2931 20.8068 30.7864 20.3163C31.2784 19.8211 31.6692 19.2348 31.9368 18.5901C32.2184 17.9363 32.36 17.2308 32.3524 16.5189C32.3548 16.158 32.3206 15.7977 32.2505 15.4438C32.2481 15.4397 32.2467 15.4352 32.2463 15.4306C32.1794 15.0899 32.0757 14.7575 31.9368 14.4394C31.3929 13.1417 30.3621 12.109 29.0656 11.563C28.418 11.2824 27.7189 11.1408 27.0132 11.1472H21.6427C21.642 8.19116 20.4678 5.35638 18.3782 3.26607C16.2888 1.17576 13.455 0.00100382 10.5 4.95315e-05H27.0132C28.4946 -0.00361283 29.9696 0.195838 31.397 0.592837C32.7729 0.976829 34.0932 1.53769 35.3249 2.2614C35.7676 2.5224 36.1964 2.80559 36.6127 3.10679L36.6475 3.12839C38.5116 4.4818 40.0751 6.20706 41.2394 8.1953C41.962 9.42953 42.5226 10.7518 42.9074 12.1294C43.304 13.5587 43.5033 15.0356 43.5 16.5189Z" fill="url(#paint0_linear)"/>
<path d="M41.5 40H29.6525L27.7852 35.5611L26.5 32.5089C32.2039 32.5089 36.9592 29 36.9592 29L38.3213 32.3062L38.5596 32.8799C38.5596 32.8842 38.5644 32.8842 38.5644 32.8885L41.5 40Z" fill="#064395"/>
<path d="M21.5 11.0624V40H10.5V0C13.4172 0.000947028 16.2146 1.16677 18.2773 3.24118C20.3401 5.31559 21.4992 8.12879 21.5 11.0624Z" fill="url(#paint1_linear)"/>
<g style="mix-blend-mode:multiply" opacity="0.16">
<g style="mix-blend-mode:multiply" opacity="0.16">
<path d="M21.613 11C21.6122 8.08295 20.4412 5.28561 18.3572 3.2229C16.2733 1.16019 13.4472 0.000941687 10.5 0H20.5632C22.8088 2.07874 24.9664 5.4849 25.5 11H21.613Z" fill="black"/>
</g>
</g>
<g style="mix-blend-mode:multiply" opacity="0.16">
<g style="mix-blend-mode:multiply" opacity="0.16">
<path d="M25.5 22V32.9739L21.5 33V22H25.5Z" fill="black"/>
</g>
</g>
<g style="mix-blend-mode:multiply" opacity="0.16">
<g style="mix-blend-mode:multiply" opacity="0.16">
<path d="M38.5 32.023C35.1724 33.6376 31.5421 34.648 27.8044 35L26.5 32.2088C32.2892 32.2088 37.1157 29 37.1157 29L38.5 32.023Z" fill="black"/>
</g>
</g>
<g style="mix-blend-mode:multiply" opacity="0.25">
<g style="mix-blend-mode:multiply" opacity="0.25">
<path d="M43.5 16.2411C43.5009 17.624 43.3182 19.0013 42.9562 20.3387C42.6025 21.6505 42.0845 22.9153 41.4139 24.1046C41.0388 24.7652 40.6151 25.3987 40.146 26C40.2271 25.8732 40.4246 25.5676 40.6897 25.1003C41.1743 24.2487 41.5906 23.3621 41.9351 22.4485C42.4165 21.1697 42.747 19.8419 42.9202 18.4907C43.0103 17.7338 43.0522 16.9722 43.0458 16.2103C43.0379 15.4233 42.9719 14.6378 42.8483 13.86C42.7311 13.0821 42.5536 12.3138 42.3173 11.5618C42.0891 10.8327 41.8145 10.1179 41.495 9.42183C41.1904 8.76999 40.848 8.13539 40.4697 7.5211C40.1039 6.94005 39.7235 6.40282 39.3498 5.9266C38.7422 5.15346 38.0732 4.42765 37.3492 3.75579C36.8237 3.2618 36.5 3 36.5 3L36.5354 3.02132C38.4301 4.35741 40.0192 6.06059 41.2024 8.02338C41.9369 9.24182 42.5067 10.5472 42.8977 11.9072C43.3008 13.3184 43.5034 14.7765 43.5 16.2411Z" fill="black"/>
</g>
</g>
<g style="mix-blend-mode:multiply" opacity="0.25">
<g style="mix-blend-mode:multiply" opacity="0.25">
<path d="M41.5 40H32.5C33.2518 39.8892 33.9994 39.8223 34.7512 39.7591C35.503 39.6959 36.2506 39.6525 36.9964 39.617C37.7421 39.5814 38.5 39.564 39.2476 39.5501L40.8046 39.5369C40.6523 39.1641 40.5012 38.7907 40.3574 38.4131C40.1201 37.8228 39.8962 37.232 39.6814 36.6322C39.4666 36.0323 39.2567 35.4331 39.0546 34.8254C38.8525 34.2178 38.6699 33.6131 38.5085 33L41.5 40Z" fill="black"/>
</g>
</g>
<g style="mix-blend-mode:screen" opacity="0.7">
<g style="mix-blend-mode:screen" opacity="0.7">
<path d="M10.9663 20.0024C10.9621 21.2527 10.9573 22.503 10.9489 23.7307C10.9404 24.9584 10.9217 26.1719 10.9085 27.3448C10.8778 29.6895 10.8284 31.8763 10.7663 33.7513C10.6554 37.5023 10.5 39.9999 10.5 39.9999V0C10.5 0 10.6554 2.50067 10.7663 6.24869C10.8266 8.12419 10.8778 10.3105 10.9085 12.6558C10.9217 13.8281 10.9489 15.0403 10.9489 16.2698C10.9489 17.4993 10.9609 18.7508 10.9663 20.0024Z" fill="white"/>
</g>
</g>
<g style="mix-blend-mode:multiply" opacity="0.25">
<g style="mix-blend-mode:multiply" opacity="0.25">
<path d="M32.4648 17.2531C32.448 17.5814 32.3945 17.9069 32.3052 18.2236C32.2564 18.3903 32.1937 18.5749 32.1359 18.7327C32.0686 18.9102 31.9901 19.0834 31.9009 19.2512C31.7166 19.6075 31.4898 19.9407 31.2255 20.2438C30.9519 20.5552 30.6448 20.8363 30.3096 21.0821C29.967 21.319 29.6008 21.5207 29.2167 21.684C28.8449 21.8397 28.4554 21.9502 28.0568 22.0133C27.6866 22.0725 27.3107 22.0887 26.9367 22.0615C26.5993 22.0442 26.2884 22.0133 25.995 21.9823C24.8352 21.8728 24.0615 21.7192 24.0615 21.7192H26.897C27.6074 21.7249 28.3113 21.5842 28.9636 21.306C29.6067 21.036 30.1918 20.6472 30.6874 20.1604C31.1817 19.6691 31.5742 19.0873 31.843 18.4475C32.126 17.7987 32.2682 17.0985 32.2606 16.3921C32.263 16.034 32.2287 15.6765 32.1582 15.3252C32.2293 15.4855 32.2859 15.6517 32.3275 15.8218C32.4443 16.2896 32.4906 16.7719 32.4648 17.2531Z" fill="black"/>
</g>
</g>
<g style="mix-blend-mode:screen" opacity="0.7">
<g style="mix-blend-mode:screen" opacity="0.7">
<path d="M21.5018 11.0623V39.9986C21.5018 39.9986 21.462 39.2745 21.4174 38.0093C21.3728 36.7441 21.2969 34.9311 21.2487 32.7621C21.1885 30.5925 21.1421 28.0585 21.1107 25.3452C21.0975 23.9883 21.0842 22.5874 21.071 21.1602C21.0577 19.733 21.0619 18.2886 21.0577 16.8436C21.0535 15.3985 21.0662 13.9452 21.0752 12.5228C21.071 11.8154 21.0933 11.0938 21.071 10.4282C21.0396 9.76579 20.9444 9.10788 20.7866 8.46336C20.4879 7.23393 19.9767 6.06469 19.2755 5.00707C18.0931 3.23537 16.4236 1.83391 14.4632 0.967307C13.7671 0.658606 13.0401 0.423121 12.2941 0.264738C11.8113 0.162027 11.3231 0.0857 10.8318 0.036105C10.4896 0.0140753 10.3076 0.000976562 10.3076 0.000976562C13.2761 0.00192355 16.1228 1.16769 18.2218 3.24201C20.3208 5.31632 21.5004 8.12941 21.5012 11.0629L21.5018 11.0623Z" fill="white"/>
</g>
</g>
<defs>
<linearGradient id="paint0_linear" x1="10.5" y1="0" x2="43.5" y2="33" gradientUnits="userSpaceOnUse">
<stop stop-color="#3F8EF7"/>
<stop offset="1" stop-color="#1A68D0"/>
</linearGradient>
<linearGradient id="paint1_linear" x1="10.5" y1="0" x2="30.9532" y2="5.62464" gradientUnits="userSpaceOnUse">
<stop stop-color="#50EAA5"/>
<stop offset="1" stop-color="#08CE76"/>
</linearGradient>
</defs>
</svg>
