<svg width="170" height="170" viewBox="0 0 170 170" fill="none" xmlns="http://www.w3.org/2000/svg">
<path d="M0 15C0 6.71573 6.71573 0 15 0H155C163.284 0 170 6.71573 170 15V155C170 163.284 163.284 170 155 170H15C6.71573 170 0 163.284 0 155V15Z" fill="#CCCED4"/>
<path d="M85 96.25C97.4264 96.25 107.5 86.1764 107.5 73.75C107.5 61.3236 97.4264 51.25 85 51.25C72.5736 51.25 62.5 61.3236 62.5 73.75C62.5 86.1764 72.5736 96.25 85 96.25Z" stroke="#8B919E" stroke-width="4" stroke-miterlimit="10"/>
<path d="M50.8944 115.934C54.3522 109.949 59.3242 104.979 65.3109 101.524C71.2975 98.0689 78.088 96.2499 85.0002 96.25C91.9124 96.2501 98.7029 98.0691 104.689 101.524C110.676 104.98 115.648 109.95 119.106 115.935" stroke="#8B919E" stroke-width="4" stroke-linecap="round" stroke-linejoin="round"/>
</svg>
