<svg width="349" height="217" viewBox="0 0 349 217" fill="none" xmlns="http://www.w3.org/2000/svg">
<path d="M0 15C0 6.71572 6.71573 0 15 0H334C342.284 0 349 6.71573 349 15V217H0V15Z" fill="#CCCED4"/>
<circle cx="161.453" cy="77.3903" r="11.3903" fill="#C4C4C4"/>
<rect x="130" y="66" width="43.4902" height="22.7806" rx="11.3903" fill="#ACB0B9"/>
<path d="M219 100.335C219.002 103.246 218.628 106.146 217.887 108.962C217.164 111.724 216.104 114.387 214.732 116.891C213.965 118.281 213.098 119.615 212.138 120.881C212.101 120.946 212.074 120.982 212.065 121.006L212.056 121.015C211.309 122 210.51 122.946 209.664 123.848C208.464 125.124 207.167 126.305 205.783 127.38C205.783 127.38 195.831 134.527 183.892 134.527L181.933 134.535L173.554 134.59V111.492H184.72C186.191 111.504 187.648 111.209 188.998 110.627C190.329 110.061 191.54 109.247 192.566 108.227C193.589 107.198 194.401 105.979 194.958 104.639C195.543 103.281 195.838 101.814 195.822 100.335C195.827 99.5843 195.756 98.8355 195.61 98.0998C195.605 98.0913 195.602 98.0819 195.601 98.0723C195.462 97.3642 195.246 96.6733 194.958 96.0122C193.827 93.3149 191.684 91.1684 188.988 90.0337C187.641 89.4504 186.188 89.156 184.72 89.1695H173.554C173.552 83.0253 171.111 77.1332 166.767 72.7885C162.422 68.4438 156.53 66.0021 150.386 66.0001H184.72C187.801 65.9925 190.867 66.407 193.835 67.2322C196.696 68.0303 199.441 69.1961 202.002 70.7003C202.923 71.2428 203.814 71.8314 204.68 72.4574L204.752 72.5023C208.628 75.3154 211.879 78.9013 214.3 83.0339C215.802 85.5992 216.968 88.3475 217.768 91.2109C218.592 94.1817 219.007 97.2514 219 100.335Z" fill="#ACB0B9"/>
<path d="M215.198 149.781H190.401L186.493 140.74L183.803 134.523C195.741 134.523 205.694 127.376 205.694 127.376L208.545 134.11L209.044 135.279C209.044 135.287 209.054 135.287 209.054 135.296L215.198 149.781Z" fill="#8B919E"/>
<path d="M173.469 89.1694V149.777H150.301V66C156.445 66.002 162.337 68.4437 166.682 72.7884C171.026 77.1331 173.468 83.0252 173.469 89.1694Z" fill="#ECEDEF"/>
<g style="mix-blend-mode:multiply" opacity="0.16">
<g style="mix-blend-mode:multiply" opacity="0.16">
<path d="M173.469 89.1693C173.468 83.0252 171.026 77.1331 166.682 72.7884C162.337 68.4437 156.445 66.002 150.301 66H171.281C175.962 70.3785 180.46 77.5529 181.573 89.1693H173.469Z" fill="black"/>
</g>
</g>
<g style="mix-blend-mode:multiply" opacity="0.16">
<g style="mix-blend-mode:multiply" opacity="0.16">
<path d="M181.848 111.492V134.531L173.469 134.586V111.492H181.848Z" fill="black"/>
</g>
</g>
<g style="mix-blend-mode:multiply" opacity="0.16">
<g style="mix-blend-mode:multiply" opacity="0.16">
<path d="M208.549 134.109C201.687 137.705 194.201 139.956 186.493 140.74L183.803 134.523C195.741 134.523 205.694 127.376 205.694 127.376L208.549 134.109Z" fill="black"/>
</g>
</g>
<g style="mix-blend-mode:multiply" opacity="0.25">
<g style="mix-blend-mode:multiply" opacity="0.25">
<path d="M218.913 100.334C218.915 103.246 218.542 106.146 217.801 108.962C217.077 111.724 216.018 114.386 214.646 116.89C213.878 118.281 213.012 119.615 212.052 120.881C212.218 120.614 212.622 119.971 213.164 118.987C214.156 117.194 215.007 115.327 215.712 113.404C216.697 110.711 217.373 107.916 217.727 105.071C217.912 103.477 217.997 101.874 217.984 100.269C217.968 98.6125 217.833 96.9588 217.58 95.3211C217.34 93.6832 216.977 92.0658 216.494 90.4825C216.027 88.9472 215.465 87.4424 214.812 85.9768C214.189 84.6044 213.488 83.2683 212.714 81.975C211.966 80.7516 211.188 79.6205 210.423 78.6178C209.18 76.99 207.812 75.4619 206.33 74.0473C205.255 73.0073 204.593 72.4561 204.593 72.4561L204.666 72.5009C208.542 75.314 211.793 78.8999 214.213 83.0325C215.716 85.5978 216.881 88.3461 217.681 91.2095C218.506 94.1808 218.92 97.2508 218.913 100.334Z" fill="black"/>
</g>
</g>
<g style="mix-blend-mode:multiply" opacity="0.25">
<g style="mix-blend-mode:multiply" opacity="0.25">
<path d="M215.198 149.781H196.702C198.247 149.551 199.783 149.413 201.328 149.282C202.873 149.151 204.41 149.061 205.942 148.988C207.475 148.914 209.033 148.878 210.569 148.849L213.769 148.822C213.456 148.05 213.145 147.277 212.85 146.495C212.362 145.273 211.902 144.049 211.461 142.807C211.019 141.565 210.588 140.324 210.172 139.066C209.757 137.808 209.382 136.556 209.05 135.286L215.198 149.781Z" fill="black"/>
</g>
</g>
<g style="mix-blend-mode:screen" opacity="0.7">
<g style="mix-blend-mode:screen" opacity="0.7">
<path d="M151.266 107.895C151.258 110.514 151.248 113.133 151.23 115.705C151.213 118.276 151.174 120.818 151.147 123.274C151.083 128.185 150.981 132.766 150.852 136.693C150.623 144.549 150.301 149.781 150.301 149.781V66C150.301 66 150.623 71.2377 150.852 79.088C150.977 83.0163 151.083 87.5955 151.147 92.5078C151.174 94.9632 151.23 97.5023 151.23 100.077C151.23 102.653 151.255 105.274 151.266 107.895Z" fill="white"/>
</g>
</g>
<g style="mix-blend-mode:multiply" opacity="0.25">
<g style="mix-blend-mode:multiply" opacity="0.25">
<path d="M196.159 102.138C196.125 102.825 196.014 103.507 195.829 104.17C195.728 104.52 195.598 104.906 195.478 105.237C195.339 105.608 195.177 105.971 194.992 106.323C194.611 107.069 194.141 107.767 193.594 108.402C193.028 109.054 192.392 109.643 191.699 110.158C190.989 110.654 190.231 111.076 189.436 111.418C188.667 111.744 187.861 111.976 187.036 112.108C186.27 112.232 185.492 112.266 184.718 112.209C184.019 112.173 183.376 112.108 182.768 112.043C180.368 111.814 178.766 111.492 178.766 111.492H184.635C186.106 111.504 187.562 111.209 188.913 110.626C190.244 110.061 191.455 109.247 192.481 108.227C193.504 107.198 194.316 105.979 194.872 104.639C195.458 103.28 195.752 101.814 195.737 100.334C195.742 99.5841 195.671 98.8355 195.525 98.0996C195.672 98.4353 195.789 98.7834 195.875 99.1397C196.117 100.119 196.213 101.13 196.159 102.138Z" fill="black"/>
</g>
</g>
<g style="mix-blend-mode:screen" opacity="0.7">
<g style="mix-blend-mode:screen" opacity="0.7">
<path d="M173.468 89.1702V149.778C173.468 149.778 173.386 148.261 173.294 145.611C173.202 142.961 173.044 139.164 172.945 134.621C172.82 130.077 172.724 124.769 172.659 119.086C172.632 116.244 172.604 113.31 172.577 110.321C172.549 107.331 172.558 104.306 172.549 101.279C172.541 98.2526 172.567 95.2085 172.585 92.2293C172.577 90.7478 172.623 89.2363 172.577 87.8421C172.512 86.4547 172.315 85.0767 171.988 83.7267C171.37 81.1517 170.312 78.7027 168.86 76.4875C166.413 72.7766 162.958 69.8412 158.9 68.0261C157.459 67.3795 155.955 66.8863 154.411 66.5545C153.411 66.3394 152.401 66.1795 151.384 66.0757C150.676 66.0295 150.299 66.0021 150.299 66.0021C156.443 66.0041 162.335 68.4458 166.68 72.7905C171.024 77.1352 173.466 83.0273 173.467 89.1715L173.468 89.1702Z" fill="white"/>
</g>
</g>
</svg>
