<svg width="272" height="272" viewBox="0 0 272 272" fill="none" xmlns="http://www.w3.org/2000/svg">
<path d="M265.169 155.04C264.955 153.924 264.73 152.82 264.495 151.73C258.619 124.087 246.783 95.54 225.684 76.0317C216.542 67.5959 205.489 61.1487 193.172 58.8264C178.135 55.9974 162.501 59.917 148.683 66.5245C134.865 73.1321 122.465 82.2543 109.66 90.6325C101.391 96.0404 92.6475 101.249 82.8901 102.821C71.2082 104.701 59.2569 101.172 47.4724 102.295C28.9969 104.053 12.7154 117.832 6.05653 135.16C-0.602335 152.487 1.80974 172.598 10.5856 188.957C19.3614 205.315 34.0007 218.055 50.5773 226.453C73.5112 238.103 100.615 241.746 125.57 235.434C137.758 232.355 149.524 226.966 162.072 226.742C177.635 226.466 192.223 234.164 207.619 236.294C222.091 238.289 237.526 235.011 249.041 226.029C270.397 209.35 269.794 179.071 265.169 155.04Z" fill="#3F8EF7"/>
<path opacity="0.7" d="M265.169 155.04C264.955 153.924 264.73 152.82 264.495 151.73C258.619 124.087 246.783 95.54 225.684 76.0317C216.542 67.5959 205.489 61.1487 193.172 58.8264C178.135 55.9974 162.501 59.917 148.683 66.5245C134.865 73.1321 122.465 82.2543 109.66 90.6325C101.391 96.0404 92.6475 101.249 82.8901 102.821C71.2082 104.701 59.2569 101.172 47.4724 102.295C28.9969 104.053 12.7154 117.832 6.05653 135.16C-0.602335 152.487 1.80974 172.598 10.5856 188.957C19.3614 205.315 34.0007 218.055 50.5773 226.453C73.5112 238.103 100.615 241.746 125.57 235.434C137.758 232.355 149.524 226.966 162.072 226.742C177.635 226.466 192.223 234.164 207.619 236.294C222.091 238.289 237.526 235.011 249.041 226.029C270.397 209.35 269.794 179.071 265.169 155.04Z" fill="white"/>
<path d="M220.173 87.2451C218.088 86.1032 217.139 87.0526 216.382 86.1032C215.625 85.1538 218.467 82.6904 212.776 80.227C212.776 80.227 212.398 74.9153 204.623 74.7292C196.848 74.5432 198.933 80.0345 196.848 81.3624C194.763 82.6904 194.192 80.6054 192.107 81.9334C190.022 83.2613 190.971 85.9171 189.265 86.2956C187.559 86.6741 185.281 84.5892 183.196 85.9171C181.111 87.2451 181.111 88.3805 180.162 88.3805C179.213 88.3805 177.314 87.6236 176.178 88.3805C175.043 89.1375 173.715 90.087 173.715 90.087H221.693C221.693 90.087 222.258 88.3485 220.173 87.2451Z" fill="white"/>
<path opacity="0.5" d="M220.173 87.2451C218.088 86.1032 217.139 87.0526 216.382 86.1032C215.625 85.1538 218.467 82.6904 212.776 80.227C212.776 80.227 212.398 74.9153 204.623 74.7292C196.848 74.5432 198.933 80.0345 196.848 81.3624C194.763 82.6904 194.192 80.6054 192.107 81.9334C190.022 83.2613 190.971 85.9171 189.265 86.2956C187.559 86.6741 185.281 84.5892 183.196 85.9171C181.111 87.2451 181.111 88.3805 180.162 88.3805C179.213 88.3805 177.314 87.6236 176.178 88.3805C175.043 89.1375 173.715 90.087 173.715 90.087H221.693C221.693 90.087 222.258 88.3485 220.173 87.2451Z" fill="white"/>
<path d="M138.918 212.981C136.826 211.84 135.883 212.789 135.12 211.84C134.357 210.89 137.205 208.427 131.521 205.963C131.521 205.963 131.143 200.652 123.367 200.466C115.592 200.28 117.677 205.771 115.592 207.099C113.507 208.427 112.937 206.342 110.852 207.67C108.767 208.998 109.71 211.653 108.003 212.032C106.297 212.41 104.02 210.326 101.935 211.653C99.8497 212.981 99.8497 214.117 98.9003 214.117C97.9509 214.117 96.0584 213.36 94.9165 214.117C93.7746 214.874 92.4531 215.823 92.4531 215.823H140.432C140.432 215.823 141.003 214.085 138.918 212.981Z" fill="white"/>
<path opacity="0.5" d="M138.918 212.981C136.826 211.84 135.883 212.789 135.12 211.84C134.357 210.89 137.205 208.427 131.521 205.963C131.521 205.963 131.143 200.652 123.367 200.466C115.592 200.28 117.677 205.771 115.592 207.099C113.507 208.427 112.937 206.342 110.852 207.67C108.767 208.998 109.71 211.653 108.003 212.032C106.297 212.41 104.02 210.326 101.935 211.653C99.8497 212.981 99.8497 214.117 98.9003 214.117C97.9509 214.117 96.0584 213.36 94.9165 214.117C93.7746 214.874 92.4531 215.823 92.4531 215.823H140.432C140.432 215.823 141.003 214.085 138.918 212.981Z" fill="white"/>
<path d="M100.152 191.811C96.8867 190.034 95.4049 191.516 94.2181 190.034C93.0313 188.552 97.4769 184.69 88.5792 180.835C88.5792 180.835 87.989 172.527 75.8196 172.232C63.6502 171.937 66.9218 180.54 63.6309 182.618C60.34 184.697 59.4803 181.431 56.2151 183.503C52.9498 185.575 54.4317 189.739 51.763 190.329C49.0943 190.919 45.5339 187.66 42.2686 189.739C39.0034 191.817 39.0034 193.588 37.5215 193.588C36.0396 193.588 33.0694 192.401 31.2924 193.588C29.5154 194.775 27.4434 196.257 27.4434 196.257H102.5C102.5 196.257 103.411 193.614 100.152 191.811Z" fill="white"/>
<path opacity="0.5" d="M100.152 191.811C96.8867 190.034 95.4049 191.516 94.2181 190.034C93.0313 188.552 97.4769 184.69 88.5792 180.835C88.5792 180.835 87.989 172.527 75.8196 172.232C63.6502 171.937 66.9218 180.54 63.6309 182.618C60.34 184.697 59.4803 181.431 56.2151 183.503C52.9498 185.575 54.4317 189.739 51.763 190.329C49.0943 190.919 45.5339 187.66 42.2686 189.739C39.0034 191.817 39.0034 193.588 37.5215 193.588C36.0396 193.588 33.0694 192.401 31.2924 193.588C29.5154 194.775 27.4434 196.257 27.4434 196.257H102.5C102.5 196.257 103.411 193.614 100.152 191.811Z" fill="white"/>
<path d="M134.409 21.5361C112.014 21.5361 93.801 37.8754 93.166 58.2433L75.518 67.9109L66.2418 59.0965L52.8471 79.4324L43.5195 79.0346L48.3052 97.5935L48.7222 82.3192L55.3233 83.5573L66.229 72.0807L77.3592 80.895L94.8018 69.9893C99.8312 85.6678 115.644 97.1252 134.396 97.1252C157.189 97.1252 175.67 80.2022 175.67 59.3275C175.67 38.4527 157.201 21.5361 134.409 21.5361Z" fill="#263238" stroke="#263238" stroke-width="0.641509" stroke-linecap="round" stroke-linejoin="round"/>
<path d="M170.967 34.7568H96.5134C94.4479 34.7568 92.7734 36.4313 92.7734 38.4968V80.8621C92.7734 82.9277 94.4479 84.6021 96.5134 84.6021H170.967C173.033 84.6021 174.707 82.9277 174.707 80.8621V38.4968C174.707 36.4313 173.033 34.7568 170.967 34.7568Z" fill="#3F8EF7" stroke="#263238" stroke-width="1.28302" stroke-linecap="round" stroke-linejoin="round"/>
<path d="M137.012 58.4345L174.707 39.3625V38.49C174.707 37.4981 174.313 36.5468 173.612 35.8454C172.91 35.144 171.959 34.75 170.967 34.75H96.5134C95.5215 34.75 94.5702 35.144 93.8689 35.8454C93.1675 36.5468 92.7734 37.4981 92.7734 38.49V39.5228L129.782 58.5179C130.911 59.0667 132.152 59.3449 133.407 59.3304C134.662 59.316 135.896 59.0092 137.012 58.4345Z" fill="white" stroke="#263238" stroke-width="1.28302" stroke-linecap="round" stroke-linejoin="round"/>
<path d="M173.261 53.325C177.845 52.5776 180.956 48.2554 180.208 43.6711C179.461 39.0868 175.139 35.9764 170.555 36.7238C165.97 37.4712 162.86 41.7934 163.607 46.3777C164.355 50.962 168.677 54.0724 173.261 53.325Z" fill="#263238"/>
<path d="M171.404 49.8644C171.189 49.6014 171.081 49.2669 171.102 48.9278V41.4414L169.627 42.3395C169.511 42.4168 169.374 42.457 169.235 42.455C169.137 42.4573 169.04 42.437 168.951 42.3959C168.862 42.3548 168.784 42.2938 168.722 42.2176C168.652 42.1456 168.596 42.0604 168.559 41.9668C168.521 41.8732 168.503 41.7731 168.504 41.6723C168.506 41.5395 168.545 41.4098 168.615 41.2969C168.685 41.184 168.784 41.092 168.902 41.0308L171.59 39.4463C171.782 39.3242 172.003 39.2556 172.231 39.2474C172.371 39.2435 172.509 39.2709 172.637 39.3275C172.765 39.3841 172.878 39.4685 172.969 39.5746C173.171 39.8387 173.271 40.1666 173.251 40.4984V48.9791C173.267 49.3038 173.159 49.6225 172.95 49.8708C172.853 49.9792 172.735 50.0652 172.602 50.1228C172.469 50.1804 172.325 50.2083 172.18 50.2044C172.033 50.2117 171.886 50.1848 171.752 50.1258C171.617 50.0668 171.498 49.9773 171.404 49.8644Z" fill="#3F8EF7"/>
<path d="M93.3398 156.374C93.3398 156.374 118.679 194.544 124.774 195.185C130.868 195.827 150.113 175.94 150.113 175.94L144.661 174.657L126.499 186.935C126.499 186.935 110.981 167.883 97.3429 153.32L93.3398 156.374Z" fill="white" stroke="#263238" stroke-width="1.28302" stroke-linecap="round" stroke-linejoin="round"/>
<path d="M97.8488 144.98C97.8488 144.98 102.93 145.199 102.711 147.412C102.493 149.625 102.711 155.591 101.384 156.701C100.056 157.811 98.067 158.247 97.6243 156.059C97.1817 153.872 97.8488 144.98 97.8488 144.98Z" fill="white" stroke="#263238" stroke-width="1.28302" stroke-linecap="round" stroke-linejoin="round"/>
<path d="M96.5206 155.392C96.5206 155.392 96.296 162.025 95.8791 162.686C95.4621 163.347 92.3379 165.785 90.3492 165.342C88.3606 164.899 89.0213 162.911 89.0213 161.807V144.339H96.5398L96.5206 155.392Z" fill="#263238" stroke="#263238" stroke-width="0.641509" stroke-linecap="round" stroke-linejoin="round"/>
<path d="M86.128 157.811C86.128 157.811 84.5819 160.685 85.9034 162.898C87.2249 165.111 90.9906 165.111 92.543 164.002C94.0955 162.892 92.9793 161.352 91.6578 160.91C90.3363 160.467 88.5593 159.357 88.5593 158.036C88.5593 156.714 86.7887 156.939 86.128 157.811Z" fill="white" stroke="#263238" stroke-width="1.28302" stroke-linecap="round" stroke-linejoin="round"/>
<path d="M84.9297 153.616C84.9297 155.13 85.1863 157.67 86.3795 158.748C87.7267 159.935 93.9236 160.031 96.6436 158.215C99.3636 156.4 97.5546 153.276 95.4953 153.475C93.7889 153.641 91.9606 153.224 90.2286 153.006C89.2535 152.884 85.815 152.121 85.1414 152.833C84.9884 153.056 84.9222 153.328 84.9553 153.597L84.9297 153.616Z" fill="white" stroke="#263238" stroke-width="1.28302" stroke-linecap="round" stroke-linejoin="round"/>
<path d="M84.1667 148.137C83.955 149.664 83.8587 152.242 85.1097 153.359C86.5274 154.642 93.8727 155.001 97.3433 153.307C100.814 151.614 99.1652 148.361 96.7018 148.47C94.6553 148.554 92.5448 148.041 90.5304 147.739C89.395 147.572 85.3984 146.642 84.5195 147.329C84.3127 147.53 84.191 147.803 84.1795 148.092L84.1667 148.137Z" fill="white" stroke="#263238" stroke-width="1.28302" stroke-linecap="round" stroke-linejoin="round"/>
<path d="M84.5959 140.581C84.0506 142.024 83.3835 144.52 84.3586 145.886C85.4684 147.432 92.5442 149.421 96.2971 148.536C100.05 147.65 99.1774 144.116 96.7397 143.673C94.7254 143.307 92.7816 142.339 90.8827 141.601C89.8114 141.184 86.1484 139.4 85.1091 139.869C84.87 140.013 84.6937 140.242 84.6152 140.51L84.5959 140.581Z" fill="white" stroke="#263238" stroke-width="1.28302" stroke-linecap="round" stroke-linejoin="round"/>
<path d="M143.422 251.446L163.629 175.901H170.468L149.016 252.068" fill="#263238"/>
<path d="M143.422 251.446L163.629 175.901H170.468L149.016 252.068" stroke="#263238" stroke-width="0.641509" stroke-linecap="round" stroke-linejoin="round"/>
<path d="M156.804 244.222L176.376 175.594L170.468 175.902L149.016 252.068" fill="white"/>
<path d="M156.804 244.222L176.376 175.594L170.468 175.902L149.016 252.068" stroke="#263238" stroke-width="1.28302" stroke-linecap="round" stroke-linejoin="round"/>
<path d="M154.924 250.823L155.828 247.654" stroke="#263238" stroke-width="1.28302" stroke-linecap="round" stroke-linejoin="round"/>
<path d="M129.906 193.645C129.906 193.645 132.119 196.962 134.775 197.405C137.431 197.847 165.51 175.734 165.51 175.734L154.008 177.056L129.906 193.645Z" fill="white" stroke="#263238" stroke-width="1.28302" stroke-linecap="round" stroke-linejoin="round"/>
<path d="M112.078 158.183C112.078 158.183 117.364 114.349 129.181 99.1132C142.094 82.4339 168.043 96.0083 162.757 122.74C158.703 143.268 146.899 179.943 146.899 179.943L112.078 158.183Z" fill="#3F8EF7" stroke="#263238" stroke-width="1.28302" stroke-linecap="round" stroke-linejoin="round"/>
<path d="M150.011 93.5195L219.089 115.331C221.35 116.034 223.419 117.25 225.132 118.885C229.488 123.08 235.986 132.106 230.527 145.418C226.107 155.891 220.134 165.638 212.809 174.33L146.906 179.944L160.275 128.334C160.275 128.334 166.485 105.644 150.011 93.5195Z" fill="white"/>
<path d="M182.399 154.238C165.784 162.026 156.899 160.653 152.479 158.407L146.904 179.943L212.813 174.349C220.138 165.656 226.111 155.909 230.531 145.436C231.249 143.702 231.795 141.901 232.161 140.06C216.142 136.288 203.441 144.378 182.399 154.238Z" fill="#3F8EF7"/>
<path opacity="0.5" d="M182.399 154.238C165.784 162.026 156.899 160.653 152.479 158.407L146.904 179.943L212.813 174.349C220.138 165.656 226.111 155.909 230.531 145.436C231.249 143.702 231.795 141.901 232.161 140.06C216.142 136.288 203.441 144.378 182.399 154.238Z" fill="white"/>
<path d="M150.011 93.5195L219.089 115.331C221.35 116.034 223.419 117.25 225.132 118.885C229.488 123.08 235.986 132.106 230.527 145.418C226.107 155.891 220.134 165.638 212.809 174.33L146.906 179.944L160.275 128.334C160.275 128.334 166.485 105.644 150.011 93.5195Z" stroke="#263238" stroke-width="1.28302" stroke-linecap="round" stroke-linejoin="round"/>
<path d="M188.834 100.024L178.018 133.781C176.177 134.082 174.381 135.603 173.489 137.841C172.257 140.933 173.213 144.224 175.625 145.187C178.037 146.149 180.995 144.417 182.226 141.338C183.24 138.772 182.772 136.116 181.225 134.711L188.834 108.717L199.444 112.335L202.344 104.861L188.834 100.024Z" fill="#263238" stroke="#263238" stroke-width="0.641509" stroke-linecap="round" stroke-linejoin="round"/>
<path d="M122.74 129.931C122.74 129.931 127.564 135.243 127.808 137.892C128.052 140.542 123.709 147.515 123.709 147.515C123.709 147.515 132.632 153.064 141.075 149.202C149.517 145.34 153.616 128.943 153.616 128.943C153.616 128.943 143.487 133.768 139.625 133.768C135.763 133.768 122.74 129.931 122.74 129.931Z" fill="#263238" stroke="#263238" stroke-width="0.641509" stroke-linecap="round" stroke-linejoin="round"/>
<path d="M141.074 149.228C143.403 148.163 145.398 146.142 147.072 143.781C146.953 143.272 146.687 142.808 146.307 142.448C145.928 142.088 145.451 141.847 144.936 141.754C139.868 140.785 134.563 146.335 134.563 146.335C134.087 147.701 133.798 149.125 133.703 150.568C136.232 150.724 138.761 150.263 141.074 149.228Z" fill="#3F8EF7" stroke="#263238" stroke-width="0.641509" stroke-linecap="round" stroke-linejoin="round"/>
<path d="M134.074 144.891C131.356 144.786 128.699 144.052 126.312 142.748C125.138 145.224 123.701 147.54 123.701 147.54C123.701 147.54 132.625 153.089 141.067 149.227C143.345 148.062 145.295 146.344 146.738 144.23C144.762 144.448 138.321 145.09 134.074 144.891Z" fill="white" stroke="#263238" stroke-width="0.641509" stroke-linecap="round" stroke-linejoin="round"/>
<path d="M139.625 133.793C135.776 133.793 122.74 129.944 122.74 129.944C124.319 131.695 125.728 133.592 126.949 135.609C130.156 136.892 135.795 138.874 140.35 138.874C144.268 138.838 148.097 137.697 151.396 135.583C152.273 133.418 153.014 131.2 153.616 128.943C153.616 128.943 143.487 133.793 139.625 133.793Z" fill="white" stroke="#263238" stroke-width="0.641509" stroke-linecap="round" stroke-linejoin="round"/>
<path d="M138.662 122.694C138.662 122.694 140.112 117.633 144.211 117.145C148.31 116.658 149.516 119.557 149.516 119.557C149.516 119.557 141.773 119.557 138.662 122.694Z" fill="#263238"/>
<path d="M150.479 127.52L156.509 129.694" stroke="#263238" stroke-width="0.641509" stroke-linecap="round" stroke-linejoin="round"/>
<path d="M131.888 117.845C131.587 119.545 130.811 120.835 130.15 120.719C129.489 120.604 129.213 119.128 129.508 117.422C129.804 115.715 130.593 114.426 131.247 114.541C131.901 114.657 132.196 116.113 131.888 117.845Z" fill="#263238"/>
<path d="M139.624 116.664C139.624 116.664 139.387 113.77 145.655 113.77C151.922 113.77 153.135 113.046 150.723 109.921C148.311 106.797 138.181 108.465 139.624 116.664Z" fill="#263238"/>
<path d="M137.213 107.985C137.213 107.985 136.732 103.879 132.877 103.879C129.021 103.879 126.84 108.466 126.603 107.016C126.365 105.566 127.809 100.505 133.114 100.024C138.419 99.5426 137.213 107.985 137.213 107.985Z" fill="#263238"/>
<path d="M164.433 104.637C165.467 107.234 166.094 109.976 166.293 112.765C167.833 130.361 152.18 178.327 152.18 178.327" stroke="#263238" stroke-width="0.641509" stroke-linecap="round" stroke-linejoin="round"/>
<path d="M158.369 97.5801C159.764 98.2178 160.982 99.1868 161.917 100.403" stroke="#263238" stroke-width="0.641509" stroke-linecap="round" stroke-linejoin="round"/>
<path d="M212.865 169.871C211.338 172.168 210.299 173.72 210.299 173.72" stroke="#263238" stroke-width="0.641509" stroke-linecap="round" stroke-linejoin="round"/>
<path d="M215.354 114.965C215.354 114.965 227.017 121.566 228.556 131.246C230.096 140.927 226.356 146.001 224.155 151.268C222.872 154.289 218.529 161.211 215.033 166.574" stroke="#263238" stroke-width="0.641509" stroke-linecap="round" stroke-linejoin="round"/>
<path d="M124.299 152.461C124.299 152.461 127.789 155.944 135.628 155.072C135.628 155.072 127.789 158.555 124.299 152.461Z" fill="#263238"/>
<path d="M53.8477 149.645C53.8477 149.645 74.2669 138.938 111.539 145.501C113.252 145.801 115.015 145.41 116.441 144.414C117.867 143.417 118.84 141.895 119.147 140.183L119.686 137.174C119.945 135.73 119.713 134.241 119.029 132.944C118.344 131.647 117.245 130.616 115.907 130.015C106.009 125.569 82.9786 113.239 70.8733 90.3887L53.8477 149.645Z" fill="#3F8EF7" stroke="#263238" stroke-width="1.28302" stroke-linecap="round" stroke-linejoin="round"/>
<path d="M72.0859 102.795C72.0859 102.795 82.055 118.435 98.6059 124.099" stroke="white" stroke-width="1.28302" stroke-linecap="round" stroke-linejoin="round"/>
<path d="M115.908 130.015C110.117 127.395 104.557 124.292 99.2864 120.738C101.025 126.294 101.525 134.691 94.334 143.538C100.104 143.833 105.851 144.488 111.539 145.501C113.253 145.801 115.016 145.41 116.442 144.413C117.868 143.416 118.841 141.895 119.148 140.182L119.686 137.174C119.945 135.73 119.714 134.241 119.029 132.944C118.345 131.646 117.246 130.615 115.908 130.015Z" fill="#263238" stroke="#263238" stroke-width="0.641509" stroke-linecap="round" stroke-linejoin="round"/>
<path d="M70.2054 122.506C76.0196 103.908 74.9213 87.0137 67.7524 84.7726C60.5835 82.5315 50.0586 95.7919 44.2444 114.391C38.4301 132.989 39.5284 149.883 46.6973 152.124C53.8662 154.365 64.3912 141.105 70.2054 122.506Z" fill="#263238" stroke="#263238" stroke-width="0.641509" stroke-linecap="round" stroke-linejoin="round"/>
<path d="M67.3079 121.604C72.5385 104.872 71.9075 89.7855 65.8985 87.907C59.8894 86.0285 50.7778 98.0696 45.5471 114.802C40.3165 131.534 40.9475 146.62 46.9565 148.499C52.9656 150.378 62.0772 138.336 67.3079 121.604Z" fill="white" stroke="#263238" stroke-width="0.641509" stroke-linecap="round" stroke-linejoin="round"/>
<path d="M69.7242 112.026L63.7581 111.712L59.2676 126.993L64.0083 130.412C65.263 127.542 66.3595 124.606 67.2929 121.617C68.2861 118.469 69.0979 115.267 69.7242 112.026Z" fill="#263238" stroke="#263238" stroke-width="0.641509" stroke-linecap="round" stroke-linejoin="round"/>
<path d="M64.1003 120.103C62.8686 124.324 60.7196 127.409 59.2954 126.992C57.8713 126.575 57.7237 122.823 58.9554 118.601C60.1871 114.38 62.3426 111.295 63.7603 111.712C65.1781 112.129 65.332 115.888 64.1003 120.103Z" fill="white" stroke="#263238" stroke-width="0.641509" stroke-linecap="round" stroke-linejoin="round"/>
<path d="M132.343 196.52C129.027 194.974 101.827 146.546 100.268 143.916C98.7089 141.286 99.1644 137.501 100.71 133.966C102.256 130.431 102.256 123.792 101.352 122.464C100.447 121.136 97.7402 119.782 97.7402 119.782C97.7402 119.782 98.2599 119.141 99.3633 117.826C100.467 116.511 103.122 117.383 103.122 117.383C105.111 115.831 106.888 118.358 106.888 118.358C109.101 117.03 110.198 119.59 110.198 119.59C110.975 119.633 111.732 119.853 112.412 120.231C114.253 121.425 113.958 126.647 113.958 126.647C113.958 126.647 115.946 127.089 116.389 128.417C116.885 130.552 116.731 132.786 115.946 134.832C115.061 137.045 109.531 143.679 109.531 143.679L136.949 190.778" fill="white"/>
<path d="M132.343 196.52C129.027 194.974 101.827 146.546 100.268 143.916C98.7089 141.286 99.1644 137.501 100.71 133.966C102.256 130.431 102.256 123.792 101.352 122.464C100.447 121.136 97.7402 119.782 97.7402 119.782C97.7402 119.782 98.2599 119.141 99.3633 117.826C100.467 116.511 103.122 117.383 103.122 117.383C105.111 115.831 106.888 118.358 106.888 118.358C109.101 117.03 110.198 119.59 110.198 119.59C110.975 119.633 111.732 119.853 112.412 120.231C114.253 121.425 113.958 126.647 113.958 126.647C113.958 126.647 115.946 127.089 116.389 128.417C116.885 130.552 116.731 132.786 115.946 134.832C115.061 137.045 109.531 143.679 109.531 143.679L136.949 190.778" stroke="#263238" stroke-width="1.28302" stroke-linecap="round" stroke-linejoin="round"/>
<path d="M103.154 117.396C103.154 117.396 106.33 119.443 106.33 121.246C106.364 122.637 106.482 124.025 106.683 125.403" stroke="#263238" stroke-width="0.641509" stroke-linecap="round" stroke-linejoin="round"/>
<path d="M106.92 118.339C106.92 118.339 108.844 120.36 108.941 121.546C109.037 122.733 109.3 126.415 109.3 126.415" stroke="#263238" stroke-width="0.641509" stroke-linecap="round" stroke-linejoin="round"/>
<path d="M110.23 119.57C110.891 120.543 111.266 121.68 111.315 122.855C111.328 124.086 111.407 125.315 111.552 126.537" stroke="#263238" stroke-width="0.641509" stroke-linecap="round" stroke-linejoin="round"/>
<path d="M113.99 126.646C113.99 126.646 114.882 132.356 114.523 133.549" stroke="#263238" stroke-width="0.641509" stroke-linecap="round" stroke-linejoin="round"/>
<g style="mix-blend-mode:screen">
<path fill-rule="evenodd" clip-rule="evenodd" d="M111.825 72.6662C111.941 72.2293 112 71.7793 112 71.3275C112.001 70.8491 111.936 70.3728 111.806 69.9119C111.68 69.4676 111.497 69.0411 111.261 68.6431C110.88 68.0018 110.368 67.4454 109.759 67.0089L109.747 67.002C109.611 66.9048 109.471 66.8135 109.326 66.7293C108.923 66.4959 108.492 66.315 108.041 66.1912C107.575 66.0632 107.092 65.9988 106.608 66H104.494L104.494 66H103.049H102.948H101.193H99.7917C98.8022 66 98 66.7913 98 67.7674C98 68.7435 98.8022 69.5348 99.7917 69.5348H101.193V78.9993V78.9999L101.193 78.9993H104.838V78.9995C104.838 78.9995 104.838 78.9994 104.838 78.9993H104.838V76.6423L104.851 76.6423V76.6429L106.169 76.6344L106.464 76.6331L106.886 77.5971L107.501 79H111.402L111.402 78.9999H111.402L110.435 76.7508L110.435 76.7516L110.435 76.7511C110.434 76.7508 110.434 76.7504 110.434 76.7498L110.355 76.5685L110.356 76.5682L109.91 75.5315L109.917 75.5265L109.921 75.524C110.139 75.3573 110.343 75.174 110.531 74.976C110.665 74.8361 110.79 74.6893 110.908 74.5364L110.909 74.535L110.909 74.5341L110.91 74.5333C110.91 74.5326 110.911 74.5317 110.911 74.5308L110.914 74.5264L110.914 74.5264C110.916 74.5235 110.918 74.52 110.921 74.5157C111.072 74.3192 111.208 74.1123 111.329 73.8965C111.545 73.5079 111.711 73.0948 111.825 72.6662ZM104.851 73.0589V73.0588H106.608L106.617 73.0589C106.841 73.0576 107.062 73.012 107.267 72.9245C107.477 72.8368 107.667 72.7104 107.828 72.5522C107.989 72.3926 108.117 72.2035 108.205 71.9955C108.297 71.7847 108.343 71.5571 108.341 71.3276C108.341 71.2111 108.33 71.095 108.307 70.9808C108.316 71.0006 108.324 71.0207 108.332 71.0411C108.328 71.0209 108.325 71.0008 108.321 70.9808C108.32 70.9795 108.319 70.978 108.319 70.9765C108.297 70.8667 108.263 70.7595 108.218 70.6569C108.04 70.2383 107.703 69.9053 107.279 69.7292C107.067 69.6387 106.839 69.593 106.608 69.5951H104.851V69.5951H104.838V73.0589H104.851Z" fill="white"/>
</g>
</svg>
