<svg width="292" height="150" viewBox="0 0 292 150" fill="none" xmlns="http://www.w3.org/2000/svg">
<path d="M145.96 149.993C226.214 149.993 291.272 146.371 291.272 141.903C291.272 137.435 226.214 133.812 145.96 133.812C65.7067 133.812 0.648438 137.435 0.648438 141.903C0.648438 146.371 65.7067 149.993 145.96 149.993Z" fill="#F8F8F8"/>
<path opacity="0.4" d="M227.665 72.8781C227.052 72.0234 226.257 71.3144 225.337 70.8014C224.417 70.2885 223.395 69.9843 222.344 69.9106C223.737 73.0594 227.665 72.8781 227.665 72.8781ZM221.389 77.6584C223.918 77.2153 223.905 74.3015 223.905 74.3015C223.224 74.5865 222.631 75.048 222.189 75.6382C221.747 76.2284 221.47 76.9258 221.389 77.6584ZM229.495 67.5004C227.154 62.5859 222.768 62.4382 222.768 62.4382C223.636 67.5138 229.495 67.5004 229.495 67.5004ZM207.086 68.8901C206.057 68.6974 204.995 68.7825 204.01 69.1366C203.025 69.4907 202.152 70.101 201.482 70.9043C204.839 72.3612 207.086 68.8901 207.086 68.8901ZM231.897 61.0954C230.491 55.8385 226.179 54.8918 226.179 54.8918C226.138 60.0413 231.897 61.0954 231.897 61.0954ZM221.369 69.0244C218.624 71.1124 219.714 74.8856 219.714 74.8856C220.404 74.0902 220.911 73.1525 221.197 72.1394C221.483 71.1263 221.542 70.0627 221.369 69.0244ZM210.537 64.365C210.227 65.0337 210.1 65.7728 210.169 66.5067C210.239 67.2405 210.503 67.9426 210.934 68.541C212.488 66.5067 210.537 64.365 210.537 64.365ZM243.286 42.5586C243.467 41.8427 243.452 41.0919 243.244 40.3836C243.035 39.6754 242.641 39.0356 242.102 38.5303C240.925 40.8264 243.266 42.5586 243.266 42.5586H243.286ZM249.832 38.8928C248.783 38.9405 247.767 39.2668 246.887 39.8381C246.007 40.4094 245.296 41.2049 244.827 42.1423C248.399 42.7801 249.812 38.8928 249.812 38.8928H249.832ZM240.414 45.2777C240.569 44.2377 240.492 43.1765 240.19 42.1694C239.888 41.1622 239.367 40.2338 238.665 39.4501C237.447 42.6861 240.394 45.2777 240.394 45.2777H240.414ZM234.467 54.865C233.852 54.0119 233.057 53.3043 232.137 52.7926C231.217 52.2809 230.196 51.9776 229.145 51.9042C230.518 55.053 234.447 54.865 234.447 54.865H234.467ZM238.793 48.272C238.462 47.2728 237.915 46.3585 237.191 45.5938C236.467 44.8292 235.582 44.233 234.601 43.8476C234.992 47.2717 238.793 48.272 238.793 48.272ZM236.646 51.884C235.24 46.6338 230.928 45.6872 230.928 45.6872C230.895 50.8367 236.653 51.884 236.653 51.884H236.646ZM216.794 65.0297C216.09 65.8068 215.608 66.7574 215.396 67.7832C215.184 68.809 215.251 69.8727 215.59 70.864C218.57 68.7626 216.794 65.0297 216.794 65.0297ZM229.374 81.1831C233.686 84.0231 237.696 79.7598 237.696 79.7598C232.475 78.0881 229.374 81.1831 229.374 81.1831ZM206.178 75.322C209.777 75.9128 211.136 72.0121 211.136 72.0121C210.084 72.0678 209.065 72.4043 208.187 72.9865C207.309 73.5686 206.604 74.3752 206.144 75.322H206.178ZM233.532 69.4944C236.303 71.8375 239.465 69.152 239.465 69.152C238.531 68.6722 237.484 68.4509 236.435 68.5111C235.386 68.5713 234.371 68.9108 233.498 69.4944H233.532ZM237.36 57.1342C240.865 60.9208 245.782 57.7452 245.782 57.7452C241.113 54.8784 237.326 57.1342 237.326 57.1342H237.36ZM246.105 44.6264C248.473 45.6268 250.054 43.1829 250.054 43.1829C249.324 43.0469 248.57 43.1092 247.872 43.3631C247.174 43.617 246.557 44.0533 246.085 44.6264H246.105ZM243.192 47.7349C244.316 50.0445 247.114 49.2388 247.114 49.2388C246.652 48.6587 246.043 48.213 245.349 47.9485C244.656 47.6839 243.904 47.6102 243.172 47.7349H243.192ZM240.468 52.2197C243.206 54.3212 246.569 52.2869 246.569 52.2869C245.617 51.8264 244.574 51.5816 243.516 51.57C242.458 51.5584 241.41 51.7803 240.447 52.2197H240.468ZM234.931 63.3244C238.436 67.111 243.354 63.9353 243.354 63.9353C238.698 61.0954 234.911 63.3244 234.911 63.3244H234.931ZM213.693 84.9093C216.888 86.675 219.485 83.4524 219.485 83.4524C218.474 83.155 217.402 83.1333 216.38 83.3895C215.357 83.6457 214.423 84.1705 213.672 84.9093H213.693ZM217.581 78.5177C216.532 78.5788 215.519 78.9185 214.646 79.5016C213.773 80.0848 213.073 80.8901 212.616 81.8344C216.202 82.4252 217.561 78.5513 217.561 78.5513L217.581 78.5177ZM214.338 74.7983C213.603 74.7289 212.863 74.8566 212.193 75.1682C211.524 75.4798 210.95 75.9639 210.531 76.5707C212.953 77.363 214.318 74.7983 214.318 74.7983H214.338ZM244.154 44.3847L243.764 44.0625C232.085 58.1615 227.181 76.2888 225.122 89.0047C224.853 90.6518 224.629 92.2475 224.45 93.7917C223.902 90.2759 223.019 86.8204 221.813 83.4725C218.711 75.0803 213.948 70.0449 208.021 68.9573L207.927 69.4541C221.315 71.9516 224.006 93.9595 224.214 95.8125C223.528 101.688 223.272 107.605 223.447 113.517L223.952 113.483C223.776 107.609 224.03 101.73 224.712 95.8931V95.8125C224.948 93.6842 225.25 91.4351 225.627 89.0987C227.652 76.4163 232.529 58.3696 244.134 44.3847H244.154ZM236.868 75.5435C235.92 75.0858 234.882 74.8424 233.828 74.8308C232.775 74.8192 231.732 75.0396 230.773 75.4764C233.485 77.5778 236.848 75.5435 236.848 75.5435H236.868ZM212.892 87.7291C215.96 91.8715 221.194 89.2531 221.194 89.2531C216.902 85.8962 212.892 87.7291 212.892 87.7291Z" fill="url(#paint0_linear)"/>
<path opacity="0.25" d="M241.672 120.178C227.08 120.896 223.865 129.812 220.756 127.147C220.605 127.023 220.469 126.881 220.353 126.724C218.476 124.139 224.578 119.95 224.544 106.018C224.544 97.2099 224.053 80.9087 230.404 79.3713C235.839 78.0285 233.949 91.3487 241.699 90.006C247.336 89.0257 239.876 78.767 244.888 76.7798C250.438 74.5709 250.27 85.266 254.979 82.3321C259.688 79.3981 261.168 70.0122 265.399 72.5836L265.581 72.7045C269.49 75.343 265.413 81.4324 262.54 85.3332C259.668 89.2339 258.504 90.2678 259.762 91.0667C261.02 91.8657 268.353 90.7848 267.902 95.4374C267.451 100.09 255.046 99.271 251.178 104.199C247.309 109.127 259.311 106.697 256.755 112.316C255.288 115.559 248.924 119.842 241.672 120.178Z" fill="url(#paint1_linear)"/>
<path style="mix-blend-mode:screen" d="M251.356 111.805L236.32 110.771L246.835 98.1019V98.1221L259.005 96.0945L247.723 97.0277L260.001 82.2305L252.392 90.5422L248.86 83.7679L251.679 91.3277L240.068 104.003L231.934 89.9648L239.388 104.742L224.83 120.768L226.364 122.104L235.554 111.697L251.356 111.805Z" fill="url(#paint2_linear)"/>
<path d="M197.474 113.463C197.508 113.597 197.548 113.731 197.588 113.872C199.068 118.854 202.432 124.675 208.493 130.657C211.959 134.127 216.321 136.572 221.094 137.72L221.403 137.793C221.787 137.881 222.164 137.954 222.54 138.028C226.605 138.746 230.785 138.451 234.708 137.169C238.631 135.888 242.176 133.66 245.03 130.683C249.066 126.575 253.19 121.479 252.121 118.928C252.084 118.826 252.034 118.729 251.973 118.639V118.599C249.282 114.57 243.577 115.537 241.471 114.51C241.375 114.461 241.283 114.405 241.195 114.342C241.12 114.291 241.05 114.233 240.987 114.167C239.46 112.583 246.369 109.166 246.288 103.936C246.281 103.623 246.252 103.311 246.201 103.002C246.182 102.883 246.158 102.764 246.127 102.647C245.212 98.9002 240.657 99.4642 240.186 97.7522C240.16 97.6648 240.144 97.5747 240.139 97.4836V97.1614C240.206 95.2882 241.168 91.4479 242.023 87.1376C242.023 87.0101 242.077 86.8825 242.097 86.755C242.864 82.8408 243.51 78.5843 243.314 75.0662C243.314 74.9521 243.314 74.8447 243.314 74.7372C243.072 71.4206 242.03 68.8157 239.547 67.8757C239.471 67.8429 239.392 67.816 239.312 67.7952H239.238C236.668 66.9962 234.084 67.8892 231.676 69.7556C231.548 69.8563 231.414 69.957 231.286 70.0711C226.577 73.9316 222.668 81.3839 221.006 86.9765C220.953 87.1578 220.899 87.3458 220.852 87.5203C220.634 88.2934 220.459 89.0779 220.327 89.8702C219.659 93.7934 218.53 97.6243 216.963 101.284C216.903 101.425 216.842 101.572 216.775 101.713C215.429 104.775 213.963 106.984 212.907 107.393C212.838 107.422 212.765 107.442 212.691 107.454H212.557C210.539 107.454 204.154 99.1554 200.172 100.068C200.067 100.094 199.963 100.125 199.862 100.162C199.335 100.372 198.88 100.729 198.55 101.19C196.68 103.64 195.96 108.031 197.474 113.463Z" fill="url(#paint3_linear)"/>
<path style="mix-blend-mode:screen" d="M197.473 113.462C197.506 113.596 197.547 113.731 197.587 113.872C199.852 114.92 202.219 115.735 204.651 116.302C206.425 116.741 208.222 117.084 210.033 117.329V117.255C213.701 120.849 217.949 123.799 222.599 125.983C221.671 132.221 221.18 136.625 221.066 137.726C221.066 137.88 221.066 137.974 221.032 137.988H221.355C221.355 137.988 221.355 137.894 221.355 137.766C221.429 137.095 221.658 134.993 222.068 131.878C223.911 131.375 244.019 125.748 252.072 118.9C252.035 118.798 251.985 118.701 251.924 118.612C248.386 121.64 242.452 124.433 236.788 126.668C237.171 125.191 239.203 117.531 241.403 114.503L241.127 114.335C238.712 117.692 236.586 126.151 236.418 126.809C229.69 129.407 223.467 131.18 222.115 131.556C222.821 126.259 224.026 118.222 225.815 109.333C226.078 109.414 226.34 109.494 226.602 109.555C235.348 111.71 244.093 104.754 246.112 102.995C246.093 102.875 246.069 102.757 246.038 102.639C243.288 105.072 240.144 107.019 236.74 108.4C237.063 106.963 238.516 100.692 240.104 97.7451C240.078 97.6577 240.062 97.5676 240.057 97.4766V97.1543C238.348 100.283 236.586 107.635 236.384 108.534C233.024 109.83 229.334 110 225.869 109.018C227.214 102.304 228.916 95.1603 230.982 88.3525C232.22 88.3928 238.604 88.5338 241.941 87.1306C241.941 87.003 241.995 86.8755 242.015 86.7479C238.913 88.1578 232.502 88.0906 231.083 88.0302C232.287 84.0892 233.619 80.2691 235.085 76.7376V76.7779C237.536 75.3466 240.384 74.7438 243.205 75.0591C243.205 74.945 243.205 74.8376 243.205 74.7302C240.456 74.4499 237.685 75.002 235.254 76.3146C236.455 73.4077 237.853 70.5858 239.438 67.8686C239.362 67.8358 239.283 67.8089 239.203 67.7881H239.129C236.86 71.7424 234.942 75.8872 233.397 80.1751C232.973 79.0606 230.706 72.9846 231.567 69.7485C231.439 69.8492 231.305 69.9499 231.177 70.0641C230.504 73.8104 233.04 80.1348 233.195 80.4772L233.336 80.4235C231.117 86.5786 229.25 92.855 227.746 99.2221C226.885 98.0674 222.754 92.3338 220.924 86.9829C220.871 87.1641 220.817 87.3521 220.77 87.5267C222.909 93.408 227.598 99.5578 227.645 99.6115C226.602 103.942 225.694 108.239 224.914 112.301C223.763 111.28 218.758 106.627 216.888 101.25C216.827 101.391 216.767 101.538 216.7 101.679C218.778 107.252 224.032 111.965 224.846 112.67C223.938 117.437 223.205 121.881 222.64 125.668C219.264 124.08 216.1 122.077 213.221 119.706C213.653 115.592 213.522 111.438 212.831 107.359C212.762 107.388 212.69 107.408 212.616 107.42H212.555C213.232 111.396 213.37 115.445 212.966 119.458C207.954 115.295 202.485 108.957 200.184 100.061C200.079 100.086 199.976 100.118 199.874 100.155C201.602 106.553 205.025 112.367 209.784 116.987C208.324 116.752 202.236 115.805 197.473 113.462Z" fill="url(#paint4_linear)"/>
<path d="M224.075 6.04258V13.2129L223.967 134.518C223.966 134.915 223.887 135.307 223.734 135.673C223.581 136.039 223.357 136.371 223.075 136.65C222.793 136.929 222.459 137.151 222.091 137.301C221.724 137.451 221.33 137.528 220.933 137.526L77.875 136.962V17.691C77.875 17.0272 78.0063 16.3699 78.2615 15.7569C78.5167 15.1438 78.8906 14.5871 79.3619 14.1186C79.8332 13.6502 80.3925 13.2792 81.0078 13.027C81.6231 12.7748 82.2823 12.6463 82.9474 12.649L132.212 12.8504L188.345 13.0787L190.471 9.14436L193.196 4.109C193.501 3.54066 193.957 3.06674 194.513 2.73884C195.069 2.41093 195.705 2.2416 196.351 2.24927L220.415 2.33655C220.899 2.33918 221.378 2.43723 221.825 2.62507C222.271 2.81291 222.676 3.08684 223.016 3.43116C223.356 3.77548 223.624 4.1834 223.806 4.63153C223.988 5.07966 224.079 5.55918 224.075 6.04258Z" fill="#F178B6"/>
<path d="M161.56 0H93.8018C91.7323 0 90.0547 1.67427 90.0547 3.73959V75.094C90.0547 77.1593 91.7323 78.8336 93.8018 78.8336H161.56C163.63 78.8336 165.307 77.1593 165.307 75.094V3.73959C165.307 1.67427 163.63 0 161.56 0Z" fill="#A5A6F6"/>
<path d="M112.567 11.0908C112.063 11.0908 111.57 11.2401 111.151 11.5197C110.731 11.7992 110.405 12.1967 110.212 12.6616C110.019 13.1266 109.968 13.6382 110.067 14.1318C110.165 14.6254 110.408 15.0788 110.764 15.4346C111.121 15.7905 111.575 16.0328 112.07 16.131C112.564 16.2292 113.077 16.1788 113.543 15.9862C114.009 15.7936 114.407 15.4675 114.687 15.049C114.967 14.6306 115.117 14.1386 115.117 13.6354C115.117 12.9605 114.848 12.3133 114.37 11.8361C113.892 11.3589 113.243 11.0908 112.567 11.0908ZM142.807 11.0908C142.303 11.0908 141.81 11.2401 141.39 11.5197C140.971 11.7992 140.644 12.1967 140.451 12.6616C140.258 13.1266 140.208 13.6382 140.306 14.1318C140.405 14.6254 140.647 15.0788 141.004 15.4346C141.361 15.7905 141.815 16.0328 142.309 16.131C142.804 16.2292 143.317 16.1788 143.783 15.9862C144.249 15.7936 144.647 15.4675 144.927 15.049C145.207 14.6306 145.357 14.1386 145.357 13.6354C145.357 12.9605 145.088 12.3133 144.61 11.8361C144.132 11.3589 143.483 11.0908 142.807 11.0908ZM127.69 26.0761C122.981 26.0761 118.662 27.5799 116.187 30.1043C116.092 30.1991 116.016 30.3116 115.965 30.4355C115.913 30.5593 115.887 30.692 115.887 30.8261C115.887 30.9601 115.913 31.0928 115.965 31.2167C116.016 31.3405 116.092 31.453 116.187 31.5478C116.377 31.7343 116.633 31.8381 116.9 31.8365C117.035 31.8365 117.169 31.8099 117.293 31.758C117.418 31.7061 117.531 31.6301 117.626 31.5344C119.698 29.4195 123.553 28.1103 127.677 28.1103C131.801 28.1103 135.649 29.4531 137.721 31.5344C137.813 31.6399 137.925 31.7257 138.051 31.7862C138.177 31.8467 138.314 31.8808 138.454 31.8863C138.594 31.8918 138.733 31.8687 138.863 31.8183C138.994 31.7679 139.113 31.6913 139.212 31.5933C139.312 31.4952 139.39 31.3779 139.443 31.2484C139.495 31.1189 139.52 30.9801 139.516 30.8405C139.513 30.701 139.481 30.5636 139.422 30.437C139.363 30.3104 139.279 30.1972 139.174 30.1043C136.712 27.5799 132.413 26.0761 127.69 26.0761Z" fill="white"/>
<path d="M219.162 139.277L65.1789 139.895C64.1722 139.899 63.1897 139.587 62.3709 139.002C61.5521 138.418 60.9387 137.591 60.6177 136.638L35.8071 62.773L30.0417 45.6058C29.7998 44.8902 29.7317 44.1274 29.843 43.3804C29.9543 42.6334 30.2419 41.9235 30.6821 41.3091C31.1223 40.6948 31.7024 40.1936 32.3748 39.8469C33.0471 39.5002 33.7923 39.3178 34.5491 39.3149H38.2626L188.546 38.6973C189.551 38.6961 190.531 39.0106 191.347 39.5962C192.164 40.1818 192.774 41.0089 193.094 41.9602L221.974 127.957L222.714 130.153L223.663 132.986C223.901 133.701 223.967 134.462 223.855 135.208C223.743 135.953 223.456 136.661 223.017 137.275C222.578 137.888 222 138.389 221.33 138.737C220.66 139.085 219.917 139.27 219.162 139.277Z" fill="#FCDDEC"/>
<path d="M200.731 56.4509C207.835 47.2673 206.135 34.0747 196.933 26.9845C187.731 19.8943 174.511 21.5913 167.407 30.7749C160.302 39.9585 162.003 53.1511 171.205 60.2413C180.407 67.3315 193.626 65.6345 200.731 56.4509Z" fill="white"/>
<path d="M192.543 35.8916L176.33 52.0719" stroke="#3F8EF7" stroke-width="2.08151" stroke-miterlimit="10" stroke-linecap="round"/>
<path d="M192.543 52.0719L176.33 35.8916" stroke="#3F8EF7" stroke-width="2.08151" stroke-miterlimit="10" stroke-linecap="round"/>
<defs>
<linearGradient id="paint0_linear" x1="201.482" y1="38.5303" x2="269.914" y2="82.8562" gradientUnits="userSpaceOnUse">
<stop stop-color="#50EAA5"/>
<stop offset="1" stop-color="#08CE76"/>
</linearGradient>
<linearGradient id="paint1_linear" x1="219.994" y1="72.1426" x2="274.902" y2="119.559" gradientUnits="userSpaceOnUse">
<stop stop-color="#50EAA5"/>
<stop offset="1" stop-color="#08CE76"/>
</linearGradient>
<linearGradient id="paint2_linear" x1="224.83" y1="102.164" x2="260.001" y2="102.164" gradientUnits="userSpaceOnUse">
<stop stop-color="#8AD3FF"/>
<stop offset="1" stop-color="#5F9CFF"/>
</linearGradient>
<linearGradient id="paint3_linear" x1="196.656" y1="67.502" x2="265.529" y2="121.54" gradientUnits="userSpaceOnUse">
<stop stop-color="#50EAA5"/>
<stop offset="1" stop-color="#08CE76"/>
</linearGradient>
<linearGradient id="paint4_linear" x1="-85702" y1="2264.3" x2="-90049.6" y2="1186.41" gradientUnits="userSpaceOnUse">
<stop offset="0.02" stop-color="#45D8C3"/>
<stop offset="1" stop-color="#34C8BE"/>
</linearGradient>
</defs>
</svg>
