<svg xmlns="http://www.w3.org/2000/svg" width="66" height="23" viewBox="0 0 66 23">
  <g id="offline" transform="translate(0 -0.5)">
    <circle id="Ellipse_1" data-name="Ellipse 1" cx="2.5" cy="2.5" r="2.5" transform="translate(8 9.5)" fill="#707070"/>
    <rect id="Rectangle_1" data-name="Rectangle 1" width="65" height="22" rx="11" transform="translate(0.5 1)" fill="none" stroke="#707070" stroke-width="1"/>
    <path id="Path_2" data-name="Path 2" d="M1.82-8.764a4.154,4.154,0,0,1,3.3-1.4,4.154,4.154,0,0,1,3.3,1.4,5.559,5.559,0,0,1,1.218,3.78A5.559,5.559,0,0,1,8.428-1.2,4.154,4.154,0,0,1,5.124.2a4.154,4.154,0,0,1-3.3-1.4A5.559,5.559,0,0,1,.6-4.984,5.559,5.559,0,0,1,1.82-8.764Zm3.3-.224A2.806,2.806,0,0,0,2.8-7.91a4.587,4.587,0,0,0-.854,2.926A4.587,4.587,0,0,0,2.8-2.058,2.806,2.806,0,0,0,5.124-.98,2.8,2.8,0,0,0,7.441-2.065,4.567,4.567,0,0,0,8.3-4.984,4.567,4.567,0,0,0,7.441-7.9,2.8,2.8,0,0,0,5.124-8.988Zm7.77,1.876h2.6v-.882q0-2.044,1.946-2.044a3.245,3.245,0,0,1,.714.07v.952a1.5,1.5,0,0,0-.406-.042,1,1,0,0,0-.784.28,1.368,1.368,0,0,0-.252.924v.742H18.13v.98H16.716V0H15.5V-6.132h-2.6V0H11.676V-6.132H10.43v-.98h1.246v-.882q0-2.044,1.946-2.044a3.018,3.018,0,0,1,.714.07v.952a1.405,1.405,0,0,0-.406-.042,1,1,0,0,0-.784.28,1.368,1.368,0,0,0-.252.924Zm6.538-2.856h1.232V0H19.432ZM24.08-7.112V0H22.848V-7.112Zm0-2.856v1.386H22.848V-9.968Zm5.558,2.7a2.437,2.437,0,0,1,1.9.742,3.154,3.154,0,0,1,.672,2.184V0H30.982V-4.242a2.3,2.3,0,0,0-.42-1.547,1.55,1.55,0,0,0-1.218-.469,1.716,1.716,0,0,0-1.323.574,2.3,2.3,0,0,0-.525,1.61V0H26.264V-7.112h1.19v.938h.028A2.4,2.4,0,0,1,29.638-7.266Zm7.518,6.51a2.011,2.011,0,0,0,1.253-.378,1.616,1.616,0,0,0,.623-.994h1.26A2.777,2.777,0,0,1,39.277-.469,3.258,3.258,0,0,1,37.156.2a3.061,3.061,0,0,1-2.45-1.043,4.162,4.162,0,0,1-.9-2.807A3.865,3.865,0,0,1,34.7-6.286a3.036,3.036,0,0,1,2.415-1.022,3.106,3.106,0,0,1,2.009.658,3.217,3.217,0,0,1,1.1,1.82,6.677,6.677,0,0,1,.14,1.526h-5.32a2.91,2.91,0,0,0,.623,1.9A1.917,1.917,0,0,0,37.156-.756Zm-.042-5.6A1.9,1.9,0,0,0,35.7-5.8a2.487,2.487,0,0,0-.644,1.561h4.088A2.474,2.474,0,0,0,38.5-5.81,1.878,1.878,0,0,0,37.114-6.356Z" transform="translate(16.5 16.5)" fill="#707070"/>
  </g>
</svg>
