<svg width="66" height="23" viewBox="0 0 66 23" fill="none" xmlns="http://www.w3.org/2000/svg">
<circle cx="10.5" cy="12.5" r="2.5" fill="#43D795"/>
<path d="M18.82 7.236C19.632 6.30267 20.7333 5.836 22.124 5.836C23.5147 5.836 24.616 6.30267 25.428 7.236C26.24 8.16933 26.646 9.42933 26.646 11.016C26.646 12.6027 26.24 13.8627 25.428 14.796C24.616 15.7293 23.5147 16.196 22.124 16.196C20.7333 16.196 19.632 15.7293 18.82 14.796C18.008 13.8627 17.602 12.6027 17.602 11.016C17.602 9.42933 18.008 8.16933 18.82 7.236ZM22.124 7.012C21.144 7.012 20.3693 7.37133 19.8 8.09C19.2307 8.80867 18.946 9.784 18.946 11.016C18.946 12.248 19.2307 13.2233 19.8 13.942C20.3693 14.6607 21.144 15.02 22.124 15.02C23.0947 15.02 23.8647 14.6607 24.434 13.942C25.0127 13.214 25.302 12.2387 25.302 11.016C25.302 9.79333 25.0127 8.82267 24.434 8.104C23.8647 7.376 23.0947 7.012 22.124 7.012ZM31.7199 8.734C32.5412 8.734 33.1759 8.98133 33.6239 9.476C34.0719 9.97067 34.2959 10.6987 34.2959 11.66V16H33.0639V11.758C33.0639 11.0393 32.9239 10.526 32.6439 10.218C32.3639 9.90067 31.9579 9.742 31.4259 9.742C30.8939 9.742 30.4506 9.93333 30.0959 10.316C29.7506 10.6987 29.5779 11.2353 29.5779 11.926V16H28.3459V8.888H29.5359V9.826H29.5639C30.0399 9.098 30.7586 8.734 31.7199 8.734ZM37.6443 6.032V16H36.4123V6.032H37.6443ZM41.0623 8.888V16H39.8303V8.888H41.0623ZM41.0623 6.032V7.418H39.8303V6.032H41.0623ZM46.6223 8.734C47.4436 8.734 48.0783 8.98133 48.5263 9.476C48.9743 9.97067 49.1983 10.6987 49.1983 11.66V16H47.9663V11.758C47.9663 11.0393 47.8263 10.526 47.5463 10.218C47.2663 9.90067 46.8603 9.742 46.3283 9.742C45.7963 9.742 45.3529 9.93333 44.9983 10.316C44.6529 10.6987 44.4803 11.2353 44.4803 11.926V16H43.2483V8.888H44.4383V9.826H44.4663C44.9423 9.098 45.6609 8.734 46.6223 8.734ZM54.1427 15.244C54.6467 15.244 55.062 15.118 55.3887 14.866C55.7247 14.614 55.9347 14.2827 56.0187 13.872H57.2787C57.148 14.5347 56.8073 15.09 56.2567 15.538C55.7153 15.9767 55.0107 16.196 54.1427 16.196C53.1067 16.196 52.29 15.8507 51.6927 15.16C51.0953 14.46 50.7967 13.522 50.7967 12.346C50.7967 11.2727 51.0907 10.3953 51.6787 9.714C52.276 9.03267 53.0833 8.692 54.1007 8.692C54.894 8.692 55.5613 8.91133 56.1027 9.35C56.6533 9.78867 57.022 10.3953 57.2087 11.17C57.302 11.5527 57.3487 12.0613 57.3487 12.696H52.0287C52.0567 13.536 52.262 14.1707 52.6447 14.6C53.0367 15.0293 53.536 15.244 54.1427 15.244ZM54.1007 9.644C53.522 9.644 53.0507 9.83067 52.6867 10.204C52.3227 10.568 52.108 11.086 52.0427 11.758H56.1307C56.0653 11.0767 55.8507 10.554 55.4867 10.19C55.1227 9.826 54.6607 9.644 54.1007 9.644Z" fill="#43D795"/>
<rect x="0.5" y="0.5" width="65" height="22" rx="11" stroke="url(#paint0_linear_3235_40869)"/>
<defs>
<linearGradient id="paint0_linear_3235_40869" x1="0" y1="0" x2="14.2944" y2="41.0186" gradientUnits="userSpaceOnUse">
<stop stop-color="#50EAA5"/>
<stop offset="1" stop-color="#08CE76"/>
</linearGradient>
</defs>
</svg>
