<svg width="91" height="35" viewBox="0 0 91 35" fill="none" xmlns="http://www.w3.org/2000/svg">
<rect y="0.5" width="91" height="34" rx="17" fill="#F5EBFF"/>
<path d="M13.08 11.484C14.008 10.4173 15.2667 9.884 16.856 9.884C18.4453 9.884 19.704 10.4173 20.632 11.484C21.56 12.5507 22.024 13.9907 22.024 15.804C22.024 17.6173 21.56 19.0573 20.632 20.124C19.704 21.1907 18.4453 21.724 16.856 21.724C15.2667 21.724 14.008 21.1907 13.08 20.124C12.152 19.0573 11.688 17.6173 11.688 15.804C11.688 13.9907 12.152 12.5507 13.08 11.484ZM16.856 11.228C15.736 11.228 14.8507 11.6387 14.2 12.46C13.5493 13.2813 13.224 14.396 13.224 15.804C13.224 17.212 13.5493 18.3267 14.2 19.148C14.8507 19.9693 15.736 20.38 16.856 20.38C17.9653 20.38 18.8453 19.9693 19.496 19.148C20.1573 18.316 20.488 17.2013 20.488 15.804C20.488 14.4067 20.1573 13.2973 19.496 12.476C18.8453 11.644 17.9653 11.228 16.856 11.228ZM27.8708 13.164C28.9054 13.164 29.7321 13.548 30.3508 14.316C30.9694 15.084 31.2788 16.1187 31.2788 17.42C31.2788 18.7213 30.9694 19.7613 30.3508 20.54C29.7428 21.308 28.9214 21.692 27.8868 21.692C27.3428 21.692 26.8468 21.5747 26.3988 21.34C25.9614 21.0947 25.6308 20.764 25.4068 20.348H25.3748V24.46H23.9668V13.372H25.3588V14.54H25.3908C25.6041 14.1133 25.9348 13.7773 26.3828 13.532C26.8308 13.2867 27.3268 13.164 27.8708 13.164ZM27.5188 14.3C26.8468 14.3 26.3081 14.5827 25.9028 15.148C25.5081 15.7027 25.3108 16.46 25.3108 17.42C25.3108 18.38 25.5081 19.1427 25.9028 19.708C26.3081 20.2733 26.8468 20.556 27.5188 20.556C28.2121 20.556 28.7668 20.2733 29.1828 19.708C29.5988 19.132 29.8068 18.3693 29.8068 17.42C29.8068 16.4707 29.5988 15.7133 29.1828 15.148C28.7668 14.5827 28.2121 14.3 27.5188 14.3ZM36.5738 20.636C37.1498 20.636 37.6244 20.492 37.9978 20.204C38.3818 19.916 38.6218 19.5373 38.7178 19.068H40.1578C40.0084 19.8253 39.6191 20.46 38.9898 20.972C38.3711 21.4733 37.5658 21.724 36.5738 21.724C35.3898 21.724 34.4564 21.3293 33.7738 20.54C33.0911 19.74 32.7498 18.668 32.7498 17.324C32.7498 16.0973 33.0858 15.0947 33.7578 14.316C34.4404 13.5373 35.3631 13.148 36.5258 13.148C37.4324 13.148 38.1951 13.3987 38.8138 13.9C39.4431 14.4013 39.8644 15.0947 40.0778 15.98C40.1844 16.4173 40.2378 16.9987 40.2378 17.724H34.1578C34.1898 18.684 34.4244 19.4093 34.8618 19.9C35.3098 20.3907 35.8804 20.636 36.5738 20.636ZM36.5258 14.236C35.8644 14.236 35.3258 14.4493 34.9098 14.876C34.4938 15.292 34.2484 15.884 34.1738 16.652H38.8458C38.7711 15.8733 38.5258 15.276 38.1098 14.86C37.6938 14.444 37.1658 14.236 36.5258 14.236ZM45.9946 13.196C46.9333 13.196 47.6586 13.4787 48.1706 14.044C48.6826 14.6093 48.9386 15.4413 48.9386 16.54V21.5H47.5306V16.652C47.5306 15.8307 47.3706 15.244 47.0506 14.892C46.7306 14.5293 46.2666 14.348 45.6586 14.348C45.0506 14.348 44.544 14.5667 44.1386 15.004C43.744 15.4413 43.5466 16.0547 43.5466 16.844V21.5H42.1386V13.372H43.4986V14.444H43.5306C44.0746 13.612 44.896 13.196 45.9946 13.196Z" fill="#9B51E0"/>
<path d="M61.5 23.75V12.5C61.5 12.3342 61.5658 12.1753 61.6831 12.0581C61.8003 11.9408 61.9592 11.875 62.125 11.875H66.2917C66.4269 11.875 66.5585 11.9189 66.6667 12L68.8333 13.625C68.9415 13.7061 69.0731 13.75 69.2083 13.75H74.625C74.7908 13.75 74.9497 13.8158 75.0669 13.9331C75.1842 14.0503 75.25 14.2092 75.25 14.375V16.25" stroke="#9B51E0" stroke-width="1.5" stroke-linecap="round" stroke-linejoin="round"/>
<path d="M61.5 23.75L63.8575 16.6774C63.899 16.5529 63.9786 16.4447 64.085 16.368C64.1914 16.2913 64.3193 16.25 64.4505 16.25H76.8829C76.9819 16.25 77.0795 16.2735 77.1677 16.3187C77.2558 16.3638 77.332 16.4292 77.3899 16.5096C77.4478 16.5899 77.4858 16.6828 77.5007 16.7807C77.5156 16.8786 77.5071 16.9787 77.4758 17.0726L75.25 23.75H61.5Z" stroke="#9B51E0" stroke-width="1.5" stroke-linecap="round" stroke-linejoin="round"/>
</svg>
