<svg width="16" height="16" viewBox="0 0 16 16" fill="none" xmlns="http://www.w3.org/2000/svg">
<path d="M9.99963 4.99951L4.79289 10.2927C4.60536 10.4802 4.5 10.7346 4.5 10.9998C4.5 11.265 4.60536 11.5194 4.79289 11.7069C4.98043 11.8945 5.23478 11.9998 5.5 11.9998C5.76522 11.9998 6.01957 11.8945 6.20711 11.7069L12.4138 5.41373C12.5996 5.22801 12.7469 5.00753 12.8474 4.76488C12.9479 4.52223 12.9996 4.26216 12.9996 3.99951C12.9996 3.73687 12.9479 3.4768 12.8474 3.23414C12.7469 2.99149 12.5996 2.77102 12.4138 2.5853C12.2281 2.39958 12.0077 2.25226 11.765 2.15175C11.5224 2.05124 11.2623 1.99951 10.9996 1.99951C10.737 1.99951 10.4769 2.05124 10.2343 2.15175C9.99162 2.25226 9.77114 2.39958 9.58542 2.5853L3.37868 8.8785C2.81607 9.44111 2.5 10.2042 2.5 10.9998C2.5 11.7955 2.81607 12.5585 3.37868 13.1211C3.94129 13.6837 4.70435 13.9998 5.5 13.9998C6.29565 13.9998 7.05871 13.6837 7.62132 13.1211L12.7496 7.99951" stroke="#3F8EF7" stroke-linecap="round" stroke-linejoin="round"/>
</svg>
