<svg width="129" height="35" viewBox="0 0 129 35" fill="none" xmlns="http://www.w3.org/2000/svg">
<rect y="0.5" width="129" height="34" rx="17" fill="#DEECFF"/>
<path d="M13.992 10.108V21.5H12.52V10.108H13.992ZM20.6196 13.196C21.5583 13.196 22.2836 13.4787 22.7956 14.044C23.3076 14.6093 23.5636 15.4413 23.5636 16.54V21.5H22.1556V16.652C22.1556 15.8307 21.9956 15.244 21.6756 14.892C21.3556 14.5293 20.8916 14.348 20.2836 14.348C19.6756 14.348 19.169 14.5667 18.7636 15.004C18.369 15.4413 18.1716 16.0547 18.1716 16.844V21.5H16.7636V13.372H18.1236V14.444H18.1556C18.6996 13.612 19.521 13.196 20.6196 13.196ZM29.9419 21.5V10.108H33.8459C35.1365 10.108 36.1232 10.4173 36.8059 11.036C37.4885 11.644 37.8299 12.4813 37.8299 13.548C37.8299 14.6147 37.4885 15.4573 36.8059 16.076C36.1232 16.684 35.1365 16.988 33.8459 16.988H31.4139V21.5H29.9419ZM33.7339 11.388H31.4139V15.708H33.7339C34.5872 15.708 35.2272 15.5213 35.6539 15.148C36.0912 14.764 36.3099 14.2307 36.3099 13.548C36.3099 12.8653 36.0912 12.3373 35.6539 11.964C35.2272 11.58 34.5872 11.388 33.7339 11.388ZM43.3053 13.292C43.5399 13.292 43.7373 13.3133 43.8973 13.356V14.62C43.5453 14.588 43.3586 14.572 43.3373 14.572C42.5693 14.572 41.9773 14.812 41.5613 15.292C41.1453 15.772 40.9373 16.46 40.9373 17.356V21.5H39.5293V13.372H40.8733V14.62H40.9053C41.4386 13.7347 42.2386 13.292 43.3053 13.292ZM45.4613 14.3C46.1546 13.532 47.0986 13.148 48.2933 13.148C49.4879 13.148 50.4319 13.532 51.1253 14.3C51.8186 15.068 52.1653 16.1133 52.1653 17.436C52.1653 18.7587 51.8186 19.804 51.1253 20.572C50.4319 21.34 49.4879 21.724 48.2933 21.724C47.0986 21.724 46.1546 21.34 45.4613 20.572C44.7786 19.804 44.4373 18.7587 44.4373 17.436C44.4373 16.1133 44.7786 15.068 45.4613 14.3ZM48.2933 14.3C47.5573 14.3 46.9759 14.5827 46.5493 15.148C46.1226 15.7027 45.9093 16.4653 45.9093 17.436C45.9093 18.4067 46.1226 19.1747 46.5493 19.74C46.9759 20.2947 47.5573 20.572 48.2933 20.572C49.0399 20.572 49.6266 20.2947 50.0533 19.74C50.4799 19.1747 50.6933 18.4067 50.6933 17.436C50.6933 16.4653 50.4799 15.7027 50.0533 15.148C49.6266 14.5827 49.0399 14.3 48.2933 14.3ZM57.0804 13.164C58.147 13.164 58.9577 13.628 59.5124 14.556H59.5444V13.372H60.9044V21.004C60.9044 22.188 60.6004 23.0787 59.9924 23.676C59.3844 24.284 58.5044 24.588 57.3524 24.588C56.3177 24.588 55.5017 24.3587 54.9044 23.9C54.3177 23.4413 54.0137 22.812 53.9924 22.012H55.4004C55.4217 22.4813 55.603 22.844 55.9444 23.1C56.2964 23.3667 56.771 23.5 57.3684 23.5C58.1044 23.5 58.6484 23.2973 59.0004 22.892C59.3524 22.4867 59.5284 21.836 59.5284 20.94V20.06H59.4964C58.9097 20.9667 58.1044 21.42 57.0804 21.42C56.035 21.42 55.1977 21.0467 54.5684 20.3C53.9497 19.5427 53.6404 18.54 53.6404 17.292C53.6404 16.0333 53.9497 15.0307 54.5684 14.284C55.1977 13.5373 56.035 13.164 57.0804 13.164ZM57.3044 14.332C56.643 14.332 56.1097 14.604 55.7044 15.148C55.3097 15.6813 55.1124 16.396 55.1124 17.292C55.1124 18.1773 55.3097 18.892 55.7044 19.436C56.1097 19.9693 56.643 20.236 57.3044 20.236C58.0084 20.236 58.563 19.9747 58.9684 19.452C59.3737 18.9187 59.5764 18.1987 59.5764 17.292C59.5764 16.3747 59.3737 15.6547 58.9684 15.132C58.563 14.5987 58.0084 14.332 57.3044 14.332ZM67.1803 13.292C67.4149 13.292 67.6123 13.3133 67.7723 13.356V14.62C67.4203 14.588 67.2336 14.572 67.2123 14.572C66.4443 14.572 65.8523 14.812 65.4363 15.292C65.0203 15.772 64.8123 16.46 64.8123 17.356V21.5H63.4043V13.372H64.7483V14.62H64.7803C65.3136 13.7347 66.1136 13.292 67.1803 13.292ZM72.1363 20.636C72.7123 20.636 73.1869 20.492 73.5603 20.204C73.9443 19.916 74.1843 19.5373 74.2803 19.068H75.7203C75.5709 19.8253 75.1816 20.46 74.5523 20.972C73.9336 21.4733 73.1283 21.724 72.1363 21.724C70.9523 21.724 70.0189 21.3293 69.3363 20.54C68.6536 19.74 68.3123 18.668 68.3123 17.324C68.3123 16.0973 68.6483 15.0947 69.3203 14.316C70.0029 13.5373 70.9256 13.148 72.0883 13.148C72.9949 13.148 73.7576 13.3987 74.3763 13.9C75.0056 14.4013 75.4269 15.0947 75.6403 15.98C75.7469 16.4173 75.8003 16.9987 75.8003 17.724H69.7203C69.7523 18.684 69.9869 19.4093 70.4243 19.9C70.8723 20.3907 71.4429 20.636 72.1363 20.636ZM72.0883 14.236C71.4269 14.236 70.8883 14.4493 70.4723 14.876C70.0563 15.292 69.8109 15.884 69.7363 16.652H74.4083C74.3336 15.8733 74.0883 15.276 73.6723 14.86C73.2563 14.444 72.7283 14.236 72.0883 14.236ZM80.3709 13.148C81.3735 13.148 82.1522 13.388 82.7069 13.868C83.2615 14.348 83.5389 15.0307 83.5389 15.916H82.1629C82.1629 15.372 82.0029 14.956 81.6829 14.668C81.3735 14.38 80.9309 14.236 80.3549 14.236C79.8642 14.236 79.4749 14.3427 79.1869 14.556C78.9095 14.7587 78.7709 15.036 78.7709 15.388C78.7709 15.7827 78.8989 16.0547 79.1549 16.204C79.4215 16.3533 79.9442 16.5187 80.7229 16.7C81.7682 16.956 82.4722 17.2013 82.8349 17.436C83.4642 17.8627 83.7842 18.4813 83.7949 19.292C83.7949 20.028 83.5015 20.62 82.9149 21.068C82.3389 21.5053 81.5602 21.724 80.5789 21.724C79.5015 21.724 78.6642 21.4733 78.0669 20.972C77.4802 20.4707 77.1815 19.7453 77.1709 18.796H78.5949C78.5949 19.372 78.7655 19.82 79.1069 20.14C79.4589 20.4493 79.9549 20.604 80.5949 20.604C81.1282 20.604 81.5549 20.492 81.8749 20.268C82.1949 20.044 82.3549 19.7507 82.3549 19.388C82.3549 18.9507 82.2002 18.6467 81.8909 18.476C81.5922 18.2947 81.0002 18.0973 80.1149 17.884C79.1762 17.6493 78.5469 17.4307 78.2269 17.228C77.6509 16.8653 77.3629 16.2893 77.3629 15.5C77.3629 14.8067 77.6402 14.2413 78.1949 13.804C78.7602 13.3667 79.4855 13.148 80.3709 13.148ZM88.2771 13.148C89.2798 13.148 90.0585 13.388 90.6131 13.868C91.1678 14.348 91.4451 15.0307 91.4451 15.916H90.0691C90.0691 15.372 89.9091 14.956 89.5891 14.668C89.2798 14.38 88.8371 14.236 88.2611 14.236C87.7705 14.236 87.3811 14.3427 87.0931 14.556C86.8158 14.7587 86.6771 15.036 86.6771 15.388C86.6771 15.7827 86.8051 16.0547 87.0611 16.204C87.3278 16.3533 87.8505 16.5187 88.6291 16.7C89.6745 16.956 90.3785 17.2013 90.7411 17.436C91.3705 17.8627 91.6905 18.4813 91.7011 19.292C91.7011 20.028 91.4078 20.62 90.8211 21.068C90.2451 21.5053 89.4665 21.724 88.4851 21.724C87.4078 21.724 86.5705 21.4733 85.9731 20.972C85.3865 20.4707 85.0878 19.7453 85.0771 18.796H86.5011C86.5011 19.372 86.6718 19.82 87.0131 20.14C87.3651 20.4493 87.8611 20.604 88.5011 20.604C89.0345 20.604 89.4611 20.492 89.7811 20.268C90.1011 20.044 90.2611 19.7507 90.2611 19.388C90.2611 18.9507 90.1065 18.6467 89.7971 18.476C89.4985 18.2947 88.9065 18.0973 88.0211 17.884C87.0825 17.6493 86.4531 17.4307 86.1331 17.228C85.5571 16.8653 85.2691 16.2893 85.2691 15.5C85.2691 14.8067 85.5465 14.2413 86.1011 13.804C86.6665 13.3667 87.3918 13.148 88.2771 13.148Z" fill="#0965DF"/>
<path d="M111 24.375C114.797 24.375 117.875 21.297 117.875 17.5C117.875 13.703 114.797 10.625 111 10.625C107.203 10.625 104.125 13.703 104.125 17.5C104.125 21.297 107.203 24.375 111 24.375Z" stroke="#0965DF" stroke-width="1.5" stroke-miterlimit="10"/>
<path d="M111 17.4998L114.094 14.4062" stroke="#0965DF" stroke-width="1.5" stroke-linecap="round" stroke-linejoin="round"/>
<path d="M109.125 8.125H112.875" stroke="#0965DF" stroke-width="1.5" stroke-linecap="round" stroke-linejoin="round"/>
</svg>
