<svg xmlns="http://www.w3.org/2000/svg" xmlns:xlink="http://www.w3.org/1999/xlink" width="250" height="250" viewBox="0 0 250 250">
  <defs>
    <linearGradient id="linear-gradient" x1="0.188" x2="0.928" y2="1.028" gradientUnits="objectBoundingBox">
      <stop offset="0" stop-color="aqua"/>
      <stop offset="1" stop-color="#92d4ff"/>
    </linearGradient>
  </defs>
  <g id="Group_961" data-name="Group 961" transform="translate(-279 -182)">
    <rect id="Rectangle_55" data-name="Rectangle 55" width="250" height="250" rx="25" transform="translate(279 182)" fill="url(#linear-gradient)"/>
    <g id="Harmony-logo-WH" transform="translate(289 274)">
      <path id="Path_3711" data-name="Path 3711" d="M91.726,59.9A8.641,8.641,0,0,0,83,68.431v9.461c-.9.06-1.818.1-2.771.1s-1.868.037-2.771.09V68.431a8.731,8.731,0,0,0-17.459,0V91.043a8.731,8.731,0,0,0,17.459,0V81.582c.9-.06,1.818-.1,2.771-.1s1.868-.037,2.771-.09v9.648a8.731,8.731,0,0,0,17.459,0V68.431A8.641,8.641,0,0,0,91.726,59.9Zm-23,3.5a5.1,5.1,0,0,1,5.152,5.037V78.45a29.811,29.811,0,0,0-7.417,2.057,13.545,13.545,0,0,0-2.877,1.684V68.431A5.1,5.1,0,0,1,68.724,63.395Zm5.152,27.648a5.153,5.153,0,0,1-10.3,0V88.774c0-2,1.618-3.9,4.331-5.083a25.778,25.778,0,0,1,5.972-1.713Zm17.851,5.037a5.1,5.1,0,0,1-5.152-5.037V81.024a29.81,29.81,0,0,0,7.417-2.057,13.543,13.543,0,0,0,2.877-1.684V91.043A5.1,5.1,0,0,1,91.726,96.079Zm.82-20.31a25.778,25.778,0,0,1-5.972,1.713V68.431a5.153,5.153,0,0,1,10.3,0V70.7C96.878,72.694,95.26,74.592,92.547,75.769Z" transform="translate(-46.51 -46.413)" fill="#fff"/>
      <rect id="Rectangle_56" data-name="Rectangle 56" width="230" height="66.647" fill="none"/>
      <rect id="Rectangle_57" data-name="Rectangle 57" width="151.784" height="39.675" transform="translate(64.73 13.486)" fill="none"/>
      <path id="Path_3712" data-name="Path 3712" d="M725.149,122.2a9.856,9.856,0,1,0,9.863,9.859h0A9.858,9.858,0,0,0,725.149,122.2Zm6.651,9.856a6.658,6.658,0,1,1,0-.014Z" transform="translate(-556.563 -95.184)" fill="#fff"/>
      <path id="Path_3713" data-name="Path 3713" d="M432.94,122.262a1.6,1.6,0,0,0-1.6,1.6v.94a9.856,9.856,0,1,0,0,14.493v.928a1.6,1.6,0,1,0,3.194,0V123.86A1.6,1.6,0,0,0,432.94,122.262Zm-1.6,9.786a6.66,6.66,0,0,1-6.66,6.658h0a6.662,6.662,0,1,1,6.66-6.669Z" transform="translate(-322.755 -95.176)" fill="#fff"/>
      <path id="Path_3714" data-name="Path 3714" d="M531.617,123.793a1.6,1.6,0,0,1-1.6,1.6h-.207a6.658,6.658,0,0,0-6.66,6.649h0c-.083.328-.049,5.394-.022,8.393a1.589,1.589,0,0,1-1.8,1.367h-.027a1.645,1.645,0,0,1-1.349-1.654V123.86a1.6,1.6,0,0,1,1.6-1.6h.085a1.659,1.659,0,0,1,1.51,1.686v.85a9.811,9.811,0,0,1,6.66-2.607h.207a1.6,1.6,0,0,1,1.6,1.6h0Z" transform="translate(-404.517 -95.175)" fill="#fff"/>
      <path id="Path_3715" data-name="Path 3715" d="M831.07,130.743v9.773a1.6,1.6,0,0,1-1.6,1.6h0a1.6,1.6,0,0,1-1.594-1.6v-1.6h0v-8.177a4.994,4.994,0,0,0-5-4.985,2.913,2.913,0,0,0-.342.013,5.1,5.1,0,0,0-4.641,5.147v1.942h0v6.069h0v1.6a1.6,1.6,0,1,1-3.2,0V124.148a1.6,1.6,0,1,1,3.2,0v.151a7.919,7.919,0,0,1,4.588-1.737,8.179,8.179,0,0,1,8.575,7.761C831.065,130.46,831.07,130.594,831.07,130.743Z" transform="translate(-634.283 -95.455)" fill="#fff"/>
      <path id="Path_3716" data-name="Path 3716" d="M322.749,91.5v23.859a1.573,1.573,0,1,1-3.147,0V104.594H303.147v10.789a1.573,1.573,0,1,1-3.147,0V91.5a1.573,1.573,0,0,1,3.147,0v10.355h16.433V91.5a1.573,1.573,0,0,1,3.147,0Z" transform="translate(-233.437 -70.108)" fill="#fff"/>
      <path id="Path_3717" data-name="Path 3717" d="M610.1,131.193h0v9.015a1.6,1.6,0,0,1-1.6,1.6h0a1.6,1.6,0,0,1-1.6-1.6h0v-8.215h0v-2.16a4.459,4.459,0,1,0-8.916-.2v.2h0v10.375a1.6,1.6,0,1,1-3.194,0v-8.215h0v-2.16h0a4.459,4.459,0,1,0-8.916-.2v10.58a1.6,1.6,0,1,1-3.194,0V123.855a1.594,1.594,0,0,1,3.174-.225,7.642,7.642,0,0,1,10.533,1.54,7.642,7.642,0,0,1,13.711,4.664Z" transform="translate(-453.44 -95.162)" fill="#fff"/>
      <path id="Path_3718" data-name="Path 3718" d="M911.2,124.272l-10.768,23.295a1.625,1.625,0,0,1-2.935-1.349l2.9-6.269-7.251-15.671a1.625,1.625,0,1,1,2.8-1.657,1.571,1.571,0,0,1,.139.3l6.1,13.178,6.1-13.178a1.625,1.625,0,1,1,2.935,1.349Z" transform="translate(-694.914 -94.953)" fill="#fff"/>
    </g>
  </g>
</svg>
