<svg width="16" height="16" viewBox="0 0 16 16" fill="none" xmlns="http://www.w3.org/2000/svg">
<path d="M8 12V15" stroke="#43D795" stroke-linecap="round" stroke-linejoin="round"/>
<path d="M13.4393 11.394C13.2807 10.6266 12.8284 9.95158 12.179 9.51311C12.1188 9.47153 12.0685 9.41724 12.0316 9.35408C11.9947 9.29092 11.9721 9.22043 11.9654 9.14759L11.2955 2.45024C11.2832 2.32686 11.2254 2.21247 11.1335 2.12927C11.0416 2.04607 10.922 2 10.798 2H5.20298C5.07899 2 4.95942 2.04607 4.86748 2.12927C4.77555 2.21247 4.7178 2.32686 4.70546 2.45024L4.03558 9.14759C4.02891 9.22043 4.00632 9.29092 3.96943 9.35408C3.93253 9.41724 3.88222 9.47153 3.82205 9.51311C3.17256 9.95158 2.72026 10.6266 2.56173 11.394C2.54623 11.467 2.5472 11.5425 2.56456 11.615C2.58192 11.6876 2.61523 11.7553 2.66207 11.8134C2.70891 11.8714 2.7681 11.9183 2.83534 11.9506C2.90257 11.9828 2.97616 11.9997 3.05075 12H12.9502C13.0248 11.9997 13.0984 11.9828 13.1657 11.9506C13.2329 11.9183 13.2921 11.8714 13.3389 11.8134C13.3858 11.7553 13.4191 11.6876 13.4364 11.615C13.4538 11.5425 13.4548 11.467 13.4393 11.394Z" stroke="#43D795" stroke-linecap="round" stroke-linejoin="round"/>
</svg>
