<svg width="538" height="538" viewBox="0 0 538 538" fill="none" xmlns="http://www.w3.org/2000/svg">
<path d="M440.224 110.828C413.453 49.7869 349.194 26.8035 298.493 67.7884C278.695 83.7777 266.342 109.225 242.1 119.436C219.354 129.013 190.538 126.194 165.941 131.38C113.561 142.355 43.0402 183.996 48.4202 248.158C50.7767 276.263 69.7358 307.478 79.1077 333.776C89.8677 364.033 96.3237 401.886 124.805 419.974C173.634 451.027 232.535 425.644 276.521 400.606C300.193 387.145 313.224 378.871 338.714 383.487C362.311 387.791 383.562 402.855 406.621 384.982C423.933 371.565 425.364 344.374 439.901 328.406C456.278 310.416 472.881 309.114 481.392 282.074C491.711 249.267 476.507 228.769 466.231 199.458C455.955 170.148 452.835 139.547 440.224 110.828Z" fill="#92E3A9"/>
<g opacity="0.7">
<path opacity="0.7" d="M440.224 110.828C413.453 49.7869 349.194 26.8035 298.493 67.7884C278.695 83.7777 266.342 109.225 242.1 119.436C219.354 129.013 190.538 126.194 165.941 131.38C113.561 142.355 43.0402 183.996 48.4202 248.158C50.7767 276.263 69.7358 307.478 79.1077 333.776C89.8677 364.033 96.3237 401.886 124.805 419.974C173.634 451.027 232.535 425.644 276.521 400.606C300.193 387.145 313.224 378.871 338.714 383.487C362.311 387.791 383.562 402.855 406.621 384.982C423.933 371.565 425.364 344.374 439.901 328.406C456.278 310.416 472.881 309.114 481.392 282.074C491.711 249.267 476.507 228.769 466.231 199.458C455.955 170.148 452.835 139.547 440.224 110.828Z" fill="white"/>
</g>
<path d="M236.516 470.944C328.376 470.944 402.844 466.305 402.844 460.583C402.844 454.86 328.376 450.221 236.516 450.221C144.655 450.221 70.1875 454.86 70.1875 460.583C70.1875 466.305 144.655 470.944 236.516 470.944Z" fill="#92E3A9"/>
<path opacity="0.8" d="M236.516 470.944C328.376 470.944 402.844 466.305 402.844 460.583C402.844 454.86 328.376 450.221 236.516 450.221C144.655 450.221 70.1875 454.86 70.1875 460.583C70.1875 466.305 144.655 470.944 236.516 470.944Z" fill="white"/>
<path d="M361.504 66.5605H194.261C182.715 66.5605 173.354 75.9208 173.354 87.4672V440.546C173.354 452.092 182.715 461.453 194.261 461.453H361.504C373.05 461.453 382.411 452.092 382.411 440.546V87.4672C382.411 75.9208 373.05 66.5605 361.504 66.5605Z" fill="#263238"/>
<path d="M373.114 109.924H182.641V418.09H373.114V109.924Z" fill="white" stroke="#263238" stroke-width="1.33739" stroke-miterlimit="10"/>
<path d="M307.076 234.709C323.199 218.586 323.199 192.445 307.076 176.322C290.953 160.199 264.812 160.199 248.689 176.322C232.566 192.445 232.566 218.586 248.689 234.709C264.812 250.833 290.953 250.833 307.076 234.709Z" fill="#92E3A9"/>
<path d="M332.086 398.71H223.69C223.446 398.712 223.204 398.665 222.978 398.573C222.752 398.48 222.547 398.344 222.374 398.172C222.201 398 222.064 397.796 221.97 397.57C221.876 397.345 221.828 397.103 221.828 396.86C221.827 396.615 221.874 396.372 221.967 396.146C222.06 395.919 222.197 395.713 222.37 395.54C222.543 395.367 222.749 395.23 222.976 395.137C223.202 395.044 223.445 394.997 223.69 394.998H332.086C332.33 394.998 332.571 395.046 332.797 395.14C333.022 395.234 333.226 395.371 333.398 395.544C333.57 395.717 333.706 395.922 333.799 396.148C333.891 396.374 333.938 396.616 333.937 396.86C333.937 397.35 333.742 397.821 333.395 398.168C333.047 398.515 332.577 398.71 332.086 398.71Z" fill="#92E3A9"/>
<path d="M335.615 270.01H220.15C217.767 270.01 215.835 271.942 215.835 274.325V287.936C215.835 290.319 217.767 292.251 220.15 292.251H335.615C337.998 292.251 339.93 290.319 339.93 287.936V274.325C339.93 271.942 337.998 270.01 335.615 270.01Z" fill="#92E3A9"/>
<path d="M335.615 311.609H220.15C217.767 311.609 215.835 313.541 215.835 315.924V329.536C215.835 331.919 217.767 333.85 220.15 333.85H335.615C337.998 333.85 339.93 331.919 339.93 329.536V315.924C339.93 313.541 337.998 311.609 335.615 311.609Z" fill="#92E3A9"/>
<path d="M298.439 226.11L286.291 219.116V213.338C288.05 211.209 289.324 208.724 290.025 206.053C290.443 206.202 290.883 206.278 291.327 206.279C292.833 206.279 293.791 201.609 293.952 198.274C295.706 194.561 293.317 192.388 293.317 192.388C293.317 192.388 294.307 191.398 294.964 187.427C295.62 183.457 292.65 185.114 290.337 181.477C288.023 177.84 286.366 173.881 278.77 173.881C276.677 173.812 274.611 174.374 272.842 175.495C271.073 176.616 269.681 178.243 268.849 180.164C266.958 180.171 265.074 180.391 263.232 180.821C260.908 181.477 260.252 189.085 262.232 192.065C263.118 193.694 263.591 195.515 263.609 197.37C263.082 196.724 262.533 196.552 262.232 198.015C261.575 201.319 264.222 205.945 264.222 205.945L265.589 205.558C266.277 208.412 267.605 211.072 269.473 213.338V219.116L257.325 226.11C255.906 226.929 254.728 228.107 253.908 229.525C253.089 230.943 252.657 232.552 252.655 234.19V238.193C259.88 243.775 268.752 246.802 277.882 246.802C287.012 246.802 295.884 243.775 303.109 238.193V234.19C303.11 232.552 302.678 230.942 301.859 229.523C301.039 228.105 299.859 226.927 298.439 226.11Z" fill="#263238"/>
<path d="M231.556 328.319C231.277 328.315 231.011 328.204 230.813 328.007C230.707 327.913 230.623 327.796 230.565 327.667C230.508 327.537 230.479 327.396 230.48 327.254C230.483 327.06 230.539 326.87 230.641 326.705L232.578 323.606L228.801 323.725C228.659 323.734 228.516 323.712 228.383 323.662C228.249 323.612 228.128 323.535 228.026 323.434C227.851 323.237 227.754 322.983 227.754 322.719C227.754 322.455 227.851 322.2 228.026 322.003C228.125 321.899 228.246 321.818 228.38 321.766C228.514 321.714 228.658 321.692 228.801 321.702L232.524 321.842L230.609 318.754C230.505 318.586 230.449 318.392 230.447 318.194C230.446 318.052 230.475 317.912 230.533 317.782C230.591 317.652 230.675 317.536 230.781 317.441C230.979 317.245 231.245 317.133 231.523 317.129C231.707 317.13 231.886 317.183 232.04 317.282C232.194 317.381 232.317 317.522 232.395 317.688L234.235 321.013L236.053 317.71C236.14 317.534 236.272 317.384 236.437 317.278C236.602 317.172 236.793 317.113 236.989 317.107C237.125 317.108 237.26 317.137 237.384 317.193C237.508 317.248 237.619 317.329 237.71 317.43C237.908 317.635 238.016 317.91 238.012 318.194C238.011 318.379 237.963 318.561 237.872 318.721L235.924 321.842L239.701 321.702C239.844 321.692 239.988 321.714 240.122 321.766C240.256 321.818 240.377 321.899 240.476 322.003C240.659 322.194 240.76 322.449 240.755 322.713C240.755 322.98 240.655 323.237 240.476 323.434C240.374 323.535 240.253 323.612 240.119 323.662C239.986 323.712 239.843 323.734 239.701 323.725L235.903 323.606L237.796 326.673C237.903 326.844 237.958 327.042 237.958 327.243C237.958 327.529 237.844 327.802 237.643 328.004C237.441 328.206 237.167 328.319 236.882 328.319C236.697 328.317 236.518 328.261 236.365 328.157C236.212 328.054 236.092 327.909 236.021 327.738L234.224 324.51L232.438 327.738C232.359 327.907 232.234 328.051 232.079 328.153C231.923 328.256 231.742 328.313 231.556 328.319Z" fill="#263238"/>
<path d="M249.008 328.319C248.729 328.315 248.463 328.204 248.265 328.007C248.16 327.913 248.075 327.797 248.018 327.667C247.96 327.537 247.931 327.396 247.932 327.254C247.935 327.06 247.991 326.87 248.093 326.705L250.03 323.606L246.264 323.725C246.12 323.731 245.977 323.709 245.842 323.659C245.707 323.609 245.584 323.533 245.479 323.434C245.336 323.287 245.241 323.1 245.206 322.898C245.17 322.696 245.197 322.488 245.282 322.301C245.366 322.114 245.505 321.957 245.681 321.85C245.856 321.743 246.059 321.692 246.264 321.702L249.976 321.842L248.061 318.754C247.957 318.586 247.901 318.392 247.9 318.194C247.899 318.052 247.928 317.912 247.985 317.782C248.043 317.652 248.127 317.536 248.233 317.441C248.431 317.245 248.697 317.133 248.976 317.129C249.159 317.13 249.338 317.183 249.493 317.282C249.647 317.381 249.77 317.522 249.847 317.688L251.687 321.013L253.506 317.71C253.592 317.534 253.725 317.384 253.89 317.278C254.055 317.172 254.246 317.113 254.442 317.107C254.578 317.107 254.713 317.135 254.837 317.191C254.961 317.247 255.072 317.328 255.163 317.43C255.262 317.531 255.341 317.65 255.395 317.781C255.448 317.912 255.475 318.053 255.475 318.194C255.471 318.38 255.419 318.562 255.324 318.721L253.376 321.842L257.164 321.723C257.306 321.714 257.448 321.736 257.58 321.788C257.712 321.84 257.831 321.921 257.928 322.025C258.111 322.215 258.212 322.471 258.208 322.735C258.207 323.002 258.107 323.258 257.928 323.456C257.829 323.556 257.709 323.634 257.577 323.684C257.446 323.734 257.305 323.755 257.164 323.746L253.355 323.628L255.249 326.695C255.355 326.866 255.411 327.063 255.41 327.265C255.41 327.55 255.297 327.824 255.095 328.026C254.893 328.228 254.619 328.341 254.334 328.341C254.15 328.338 253.97 328.282 253.817 328.179C253.664 328.076 253.545 327.93 253.473 327.76L251.676 324.532L249.89 327.76C249.808 327.925 249.682 328.064 249.527 328.162C249.371 328.261 249.192 328.315 249.008 328.319Z" fill="#263238"/>
<path d="M266.472 328.319C266.19 328.318 265.919 328.206 265.719 328.007C265.613 327.913 265.528 327.797 265.471 327.667C265.413 327.537 265.384 327.396 265.385 327.254C265.388 327.06 265.444 326.87 265.546 326.705L267.483 323.606L263.717 323.725C263.514 323.733 263.314 323.68 263.141 323.574C262.968 323.468 262.831 323.312 262.747 323.128C262.662 322.943 262.635 322.738 262.668 322.537C262.701 322.337 262.793 322.151 262.932 322.003C263.033 321.9 263.156 321.819 263.292 321.767C263.427 321.715 263.572 321.693 263.717 321.702L267.429 321.842L265.514 318.754C265.41 318.586 265.354 318.392 265.353 318.194C265.356 318.053 265.387 317.914 265.445 317.784C265.502 317.655 265.584 317.538 265.686 317.441C265.887 317.242 266.157 317.13 266.44 317.129C266.621 317.132 266.798 317.186 266.95 317.285C267.102 317.384 267.224 317.524 267.3 317.688L269.14 321.013L270.959 317.71C271.045 317.534 271.178 317.384 271.343 317.278C271.508 317.172 271.699 317.113 271.895 317.107C272.031 317.107 272.166 317.135 272.29 317.191C272.414 317.247 272.526 317.328 272.616 317.43C272.716 317.531 272.794 317.65 272.848 317.781C272.902 317.912 272.929 318.053 272.928 318.194C272.924 318.38 272.872 318.562 272.777 318.721L270.83 321.842L274.617 321.702C274.756 321.688 274.897 321.704 275.03 321.749C275.162 321.794 275.283 321.867 275.385 321.963C275.487 322.059 275.568 322.175 275.621 322.305C275.674 322.434 275.698 322.574 275.693 322.713C275.695 322.979 275.6 323.235 275.424 323.434C275.323 323.535 275.201 323.612 275.068 323.662C274.934 323.713 274.792 323.734 274.649 323.725L270.851 323.606L272.734 326.673C272.84 326.844 272.896 327.042 272.896 327.243C272.892 327.385 272.861 327.524 272.804 327.653C272.746 327.782 272.664 327.899 272.562 327.997C272.468 328.097 272.355 328.178 272.229 328.233C272.104 328.289 271.968 328.318 271.83 328.319C271.647 328.316 271.469 328.259 271.318 328.156C271.167 328.053 271.05 327.908 270.98 327.738L269.173 324.51L267.386 327.738C267.306 327.913 267.177 328.06 267.015 328.163C266.852 328.266 266.664 328.321 266.472 328.319Z" fill="#263238"/>
<path d="M283.924 328.319C283.641 328.318 283.371 328.206 283.171 328.007C282.968 327.809 282.852 327.538 282.848 327.254C282.844 327.061 282.897 326.87 282.998 326.705L284.935 323.606L281.169 323.725C281.026 323.731 280.882 323.709 280.747 323.659C280.612 323.609 280.489 323.533 280.384 323.434C280.208 323.237 280.111 322.983 280.111 322.719C280.111 322.455 280.208 322.2 280.384 322.003C280.488 321.903 280.611 321.824 280.746 321.773C280.881 321.721 281.025 321.697 281.169 321.702L284.892 321.842L282.988 318.754C282.883 318.586 282.828 318.392 282.826 318.194C282.83 318.053 282.861 317.914 282.918 317.784C282.975 317.655 283.057 317.538 283.16 317.441C283.36 317.242 283.631 317.13 283.913 317.129C284.096 317.13 284.276 317.183 284.43 317.282C284.584 317.381 284.707 317.522 284.785 317.688L286.614 321.013L288.432 317.71C288.518 317.534 288.651 317.384 288.816 317.278C288.981 317.172 289.172 317.113 289.368 317.107C289.505 317.107 289.639 317.135 289.764 317.191C289.888 317.247 289.999 317.328 290.089 317.43C290.189 317.531 290.268 317.65 290.321 317.781C290.375 317.912 290.402 318.053 290.401 318.194C290.397 318.38 290.346 318.562 290.251 318.721L288.303 321.842L292.091 321.702C292.23 321.688 292.37 321.704 292.503 321.749C292.635 321.794 292.757 321.867 292.859 321.963C292.961 322.059 293.041 322.175 293.094 322.305C293.147 322.434 293.172 322.574 293.167 322.713C293.169 322.979 293.073 323.235 292.898 323.434C292.796 323.535 292.675 323.612 292.541 323.662C292.408 323.713 292.265 323.734 292.123 323.725L288.325 323.606L290.208 326.673C290.314 326.844 290.37 327.042 290.369 327.243C290.37 327.385 290.341 327.526 290.283 327.656C290.226 327.786 290.141 327.902 290.035 327.997C289.942 328.097 289.829 328.178 289.703 328.233C289.577 328.289 289.441 328.318 289.304 328.319C289.121 328.316 288.943 328.259 288.792 328.156C288.641 328.053 288.523 327.908 288.454 327.738L286.646 324.51L284.86 327.738C284.778 327.916 284.645 328.066 284.479 328.169C284.313 328.273 284.12 328.325 283.924 328.319Z" fill="#263238"/>
<path d="M301.377 328.319C301.095 328.318 300.824 328.206 300.624 328.007C300.457 327.838 300.351 327.619 300.322 327.384C300.292 327.148 300.342 326.91 300.462 326.705L302.388 323.606L298.622 323.725C298.479 323.731 298.335 323.709 298.2 323.659C298.065 323.609 297.942 323.533 297.837 323.434C297.661 323.237 297.564 322.983 297.564 322.719C297.564 322.455 297.661 322.2 297.837 322.003C297.941 321.903 298.064 321.824 298.199 321.773C298.334 321.721 298.478 321.697 298.622 321.702L302.345 321.842L300.43 318.754C300.326 318.586 300.27 318.392 300.269 318.194C300.273 317.91 300.389 317.64 300.591 317.441C300.792 317.242 301.062 317.13 301.345 317.129C301.528 317.13 301.707 317.183 301.861 317.282C302.016 317.381 302.139 317.522 302.216 317.688L304.045 321.013L305.864 317.71C305.95 317.534 306.083 317.384 306.248 317.278C306.413 317.172 306.604 317.113 306.8 317.107C306.938 317.107 307.074 317.135 307.2 317.191C307.326 317.246 307.439 317.328 307.532 317.43C307.729 317.635 307.837 317.91 307.833 318.194C307.829 318.38 307.777 318.562 307.682 318.721L305.735 321.842L309.522 321.702C309.661 321.688 309.802 321.704 309.935 321.749C310.067 321.794 310.188 321.867 310.29 321.963C310.392 322.059 310.473 322.175 310.526 322.305C310.579 322.434 310.604 322.574 310.598 322.713C310.6 322.979 310.505 323.235 310.329 323.434C310.228 323.535 310.106 323.612 309.973 323.662C309.839 323.713 309.697 323.734 309.554 323.725L305.756 323.606L307.639 326.673C307.745 326.844 307.801 327.042 307.801 327.243C307.802 327.385 307.772 327.526 307.715 327.656C307.657 327.786 307.573 327.902 307.467 327.997C307.373 328.097 307.26 328.178 307.134 328.233C307.009 328.289 306.873 328.318 306.735 328.319C306.552 328.316 306.374 328.259 306.223 328.156C306.072 328.053 305.955 327.908 305.885 327.738L304.078 324.51L302.291 327.738C302.211 327.913 302.082 328.06 301.92 328.163C301.757 328.266 301.569 328.321 301.377 328.319Z" fill="#263238"/>
<path d="M318.83 328.319C318.551 328.315 318.285 328.204 318.087 328.007C317.981 327.913 317.897 327.797 317.839 327.667C317.782 327.537 317.753 327.396 317.754 327.254C317.757 327.06 317.813 326.87 317.915 326.705L319.841 323.606L316.075 323.725C315.937 323.735 315.797 323.717 315.666 323.671C315.535 323.624 315.416 323.551 315.314 323.456C315.213 323.361 315.133 323.246 315.079 323.118C315.024 322.99 314.997 322.852 314.999 322.713C314.998 322.582 315.024 322.451 315.074 322.329C315.123 322.207 315.197 322.097 315.29 322.003C315.389 321.899 315.51 321.818 315.643 321.766C315.777 321.714 315.921 321.692 316.064 321.702L319.787 321.842L317.872 318.754C317.768 318.586 317.712 318.392 317.711 318.194C317.715 317.91 317.831 317.64 318.033 317.441C318.234 317.242 318.504 317.13 318.787 317.129C318.97 317.13 319.149 317.183 319.304 317.282C319.458 317.381 319.581 317.522 319.658 317.688L321.487 321.013L323.317 317.71C323.402 317.535 323.533 317.387 323.696 317.281C323.859 317.175 324.048 317.115 324.242 317.107C324.38 317.107 324.516 317.135 324.642 317.191C324.768 317.246 324.881 317.328 324.974 317.43C325.171 317.635 325.279 317.91 325.275 318.194C325.274 318.379 325.226 318.561 325.135 318.721L323.187 321.842L326.964 321.702C327.108 321.692 327.251 321.714 327.385 321.766C327.519 321.818 327.64 321.899 327.739 322.003C327.922 322.194 328.023 322.449 328.019 322.713C328.018 322.98 327.918 323.237 327.739 323.434C327.638 323.535 327.516 323.612 327.383 323.662C327.249 323.713 327.107 323.734 326.964 323.725L323.166 323.606L325.049 326.673C325.155 326.844 325.211 327.042 325.21 327.243C325.206 327.527 325.09 327.798 324.888 327.997C324.692 328.197 324.425 328.313 324.145 328.319C323.962 328.316 323.784 328.259 323.633 328.156C323.482 328.053 323.364 327.908 323.295 327.738L321.487 324.51L319.701 327.738C319.624 327.906 319.501 328.049 319.348 328.152C319.194 328.255 319.014 328.312 318.83 328.319Z" fill="#263238"/>
<g style="mix-blend-mode:multiply">
<path d="M373.114 110.332H182.641V122.265H373.114V110.332Z" fill="#92E3A9"/>
</g>
<path d="M298.59 88.3492H257.164C256.416 88.3492 255.699 88.0522 255.17 87.5235C254.642 86.9948 254.345 86.2777 254.345 85.5301C254.345 84.7824 254.642 84.0653 255.17 83.5366C255.699 83.008 256.416 82.7109 257.164 82.7109H298.59C299.338 82.7109 300.055 83.008 300.583 83.5366C301.112 84.0653 301.409 84.7824 301.409 85.5301C301.409 86.2777 301.112 86.9948 300.583 87.5235C300.055 88.0522 299.338 88.3492 298.59 88.3492Z" fill="#92E3A9" stroke="#263238" stroke-width="1.33739" stroke-linecap="round" stroke-linejoin="round"/>
<path d="M289.175 435.5C289.177 433.265 288.516 431.079 287.276 429.219C286.035 427.36 284.271 425.91 282.206 425.053C280.141 424.197 277.868 423.972 275.676 424.408C273.483 424.844 271.469 425.92 269.888 427.501C268.308 429.081 267.231 431.095 266.796 433.288C266.36 435.481 266.585 437.753 267.441 439.818C268.298 441.883 269.747 443.647 271.607 444.888C273.467 446.129 275.652 446.79 277.888 446.787C280.881 446.785 283.75 445.595 285.866 443.478C287.982 441.362 289.172 438.493 289.175 435.5Z" fill="#92E3A9"/>
<path d="M283.613 429.775H272.164V441.224H283.613V429.775Z" fill="#92E3A9" stroke="#263238" stroke-width="1.33739" stroke-linecap="round" stroke-linejoin="round"/>
<path d="M414.26 305.584C414.26 305.584 399.26 267.472 412.613 262.942C426.515 258.219 425.902 283.386 425.364 295.653C424.234 321.864 421.34 326.738 419.177 320.336L414.26 305.584ZM409.751 335.314C413.872 340.694 415.034 335.12 407.599 309.953C404.113 298.117 396.538 274.176 384.917 283.16C373.759 291.768 400.315 322.972 400.315 322.972L409.751 335.314ZM401.789 357.157C405.716 360.643 405.792 356.242 396.463 338.069C392.083 329.557 382.819 312.331 375.233 320.853C367.949 329.073 392.772 349.054 392.772 349.054L401.789 357.157ZM393.181 383.131C397.108 386.628 397.184 382.217 387.855 364.054C383.475 355.543 374.211 338.305 366.625 346.838C359.384 355.08 384.132 375.061 384.132 375.061L393.181 383.131ZM418.037 330.257C411.753 332.71 416.745 335.379 442.989 335.303C455.298 335.303 480.434 334.744 475.075 321.068C469.943 307.93 432.562 324.662 432.562 324.662L418.037 330.257ZM410.881 347.731C404.231 348.882 408.6 352.498 434.338 357.641C446.4 360.062 471.137 364.527 468.608 350.109C466.188 336.207 426.225 345.181 426.225 345.181L410.881 347.731ZM402.876 369.068C397.216 369.886 400.831 373.039 422.47 377.988C432.616 380.312 453.437 384.67 451.629 372.371C449.908 360.535 415.906 367.228 415.906 367.228L402.876 369.068ZM396.796 388.834C391.255 390.244 395.182 392.998 417.24 395.624C427.57 396.85 448.735 398.981 445.647 386.94C442.666 375.384 409.568 385.617 409.568 385.617L396.796 388.834ZM429.227 308.812C425.999 316.043 432.702 314.945 455.492 295.061C466.166 285.732 487.578 266.213 470.621 256.497C454.341 247.157 436.834 292.22 436.834 292.22L429.227 308.812ZM397.636 414.583C394.225 416.573 397.571 417.348 413.216 414.228C420.554 412.775 435.478 409.547 430.432 403.177C425.547 397.044 405.533 409.956 405.533 409.956L397.636 414.583Z" fill="#92E3A9"/>
<path opacity="0.3" d="M414.26 305.584C414.26 305.584 399.26 267.472 412.613 262.942C426.515 258.219 425.902 283.386 425.364 295.653C424.234 321.864 421.34 326.738 419.177 320.336L414.26 305.584ZM409.751 335.314C413.872 340.694 415.034 335.12 407.599 309.953C404.113 298.117 396.538 274.176 384.917 283.16C373.759 291.768 400.315 322.972 400.315 322.972L409.751 335.314ZM401.789 357.157C405.716 360.643 405.792 356.242 396.463 338.069C392.083 329.557 382.819 312.331 375.233 320.853C367.949 329.073 392.772 349.054 392.772 349.054L401.789 357.157ZM393.181 383.131C397.108 386.628 397.184 382.217 387.855 364.054C383.475 355.543 374.211 338.305 366.625 346.838C359.384 355.08 384.132 375.061 384.132 375.061L393.181 383.131ZM418.037 330.257C411.753 332.71 416.745 335.379 442.989 335.303C455.298 335.303 480.434 334.744 475.075 321.068C469.943 307.93 432.562 324.662 432.562 324.662L418.037 330.257ZM410.881 347.731C404.231 348.882 408.6 352.498 434.338 357.641C446.4 360.062 471.137 364.527 468.608 350.109C466.188 336.207 426.225 345.181 426.225 345.181L410.881 347.731ZM402.876 369.068C397.216 369.886 400.831 373.039 422.47 377.988C432.616 380.312 453.437 384.67 451.629 372.371C449.908 360.535 415.906 367.228 415.906 367.228L402.876 369.068ZM396.796 388.834C391.255 390.244 395.182 392.998 417.24 395.624C427.57 396.85 448.735 398.981 445.647 386.94C442.666 375.384 409.568 385.617 409.568 385.617L396.796 388.834ZM429.227 308.812C425.999 316.043 432.702 314.945 455.492 295.061C466.166 285.732 487.578 266.213 470.621 256.497C454.341 247.157 436.834 292.22 436.834 292.22L429.227 308.812ZM397.636 414.583C394.225 416.573 397.571 417.348 413.216 414.228C420.554 412.775 435.478 409.547 430.432 403.177C425.547 397.044 405.533 409.956 405.533 409.956L397.636 414.583Z" fill="white"/>
<path d="M420.877 323.328L418.263 279.825L420.877 323.328ZM412.603 337.682L396.075 300.269L412.603 337.682ZM455.255 326.804L415.648 332.485L455.255 326.804ZM404.038 357.846L382.593 330.333L404.038 357.846ZM407.804 349.41L437.351 350.895L407.804 349.41ZM400.81 370.511L423.406 372.749L400.81 370.511ZM395.355 383.918L384.132 367.035L395.355 383.918ZM394.063 389.879L420.63 390.126L394.063 389.879ZM388.683 439.719C388.861 439.705 389.027 439.622 389.144 439.487C389.26 439.352 389.319 439.176 389.307 438.998C387.618 413.626 397.431 372.071 413.173 337.962C423.234 316.162 462.669 273.316 463.089 272.885C463.216 272.758 463.287 272.586 463.287 272.406C463.287 272.227 463.216 272.055 463.089 271.928C463.027 271.865 462.953 271.816 462.872 271.782C462.79 271.748 462.703 271.73 462.615 271.73C462.527 271.73 462.44 271.748 462.359 271.782C462.278 271.816 462.204 271.865 462.142 271.928C461.744 272.358 422.147 315.366 412 337.359C395.968 372.297 386.284 413.099 388.005 439.084C388.019 439.256 388.096 439.416 388.221 439.533C388.347 439.651 388.512 439.717 388.683 439.719ZM420.867 323.995C421.044 323.984 421.211 323.903 421.33 323.77C421.449 323.638 421.51 323.463 421.501 323.285L418.93 279.761C418.926 279.672 418.904 279.585 418.866 279.505C418.828 279.425 418.774 279.353 418.708 279.294C418.642 279.235 418.565 279.19 418.481 279.161C418.397 279.132 418.308 279.12 418.22 279.126C418.042 279.137 417.875 279.218 417.756 279.351C417.638 279.484 417.576 279.658 417.585 279.836L420.199 323.339C420.208 323.51 420.282 323.672 420.406 323.79C420.53 323.908 420.695 323.974 420.867 323.974V323.995ZM412.84 338.295C413.001 338.222 413.127 338.089 413.191 337.924C413.256 337.759 413.253 337.576 413.184 337.413L396.646 300C396.574 299.838 396.441 299.71 396.276 299.646C396.11 299.581 395.926 299.585 395.763 299.656C395.601 299.727 395.473 299.861 395.409 300.026C395.344 300.191 395.348 300.376 395.419 300.538L411.946 337.951C411.998 338.071 412.084 338.173 412.193 338.246C412.302 338.319 412.429 338.358 412.56 338.36C412.671 338.366 412.782 338.343 412.883 338.295H412.84ZM415.702 333.13L455.288 327.471C455.383 327.469 455.477 327.447 455.564 327.406C455.65 327.365 455.727 327.306 455.789 327.233C455.851 327.161 455.897 327.076 455.924 326.984C455.951 326.892 455.958 326.796 455.945 326.701C455.932 326.606 455.899 326.515 455.849 326.434C455.798 326.353 455.731 326.284 455.652 326.23C455.572 326.177 455.482 326.141 455.388 326.125C455.294 326.109 455.197 326.113 455.105 326.136L415.519 331.796C415.342 331.808 415.177 331.889 415.06 332.022C414.943 332.155 414.883 332.329 414.895 332.506C414.906 332.683 414.987 332.848 415.121 332.965C415.254 333.083 415.428 333.142 415.605 333.13H415.702ZM404.414 358.384C404.555 358.274 404.646 358.112 404.668 357.935C404.691 357.758 404.642 357.579 404.533 357.437L383.077 329.87C382.967 329.728 382.805 329.634 382.627 329.611C382.448 329.588 382.268 329.637 382.125 329.746C381.982 329.856 381.889 330.018 381.866 330.197C381.843 330.376 381.892 330.556 382.001 330.699L403.5 358.309C403.562 358.389 403.642 358.454 403.734 358.499C403.825 358.544 403.925 358.567 404.027 358.567C404.188 358.559 404.34 358.494 404.458 358.384H404.414ZM437.943 350.928C437.948 350.75 437.884 350.576 437.763 350.445C437.642 350.315 437.475 350.236 437.297 350.228L407.804 348.732C407.638 348.744 407.482 348.816 407.366 348.934C407.25 349.053 407.181 349.21 407.173 349.376C407.165 349.542 407.219 349.705 407.323 349.835C407.427 349.964 407.575 350.05 407.739 350.077L437.286 351.573C437.464 351.579 437.637 351.515 437.768 351.394C437.899 351.273 437.977 351.105 437.986 350.928H437.943ZM424.03 372.813C424.04 372.725 424.033 372.635 424.008 372.55C423.983 372.464 423.942 372.384 423.885 372.315C423.829 372.246 423.76 372.188 423.681 372.147C423.602 372.105 423.516 372.079 423.427 372.071L400.831 369.844C400.744 369.835 400.655 369.843 400.571 369.869C400.486 369.894 400.408 369.936 400.34 369.992C400.272 370.048 400.216 370.117 400.174 370.195C400.133 370.273 400.108 370.358 400.1 370.446C400.085 370.623 400.139 370.798 400.252 370.935C400.364 371.072 400.526 371.159 400.702 371.178L423.298 373.416H423.363C423.536 373.428 423.708 373.372 423.84 373.259C423.973 373.146 424.057 372.987 424.073 372.813H424.03ZM395.677 384.477C395.827 384.378 395.931 384.224 395.967 384.049C396.004 383.874 395.969 383.691 395.871 383.541L384.702 366.659C384.6 366.513 384.445 366.413 384.271 366.379C384.096 366.345 383.915 366.379 383.766 366.476C383.617 366.574 383.512 366.728 383.476 366.904C383.44 367.079 383.474 367.262 383.572 367.412L394.741 384.294C394.805 384.387 394.89 384.462 394.99 384.515C395.089 384.567 395.199 384.595 395.312 384.596C395.457 384.603 395.601 384.562 395.72 384.477H395.677ZM421.308 390.126C421.305 389.949 421.234 389.78 421.11 389.654C420.986 389.527 420.818 389.454 420.641 389.448L394.074 389.201C393.897 389.201 393.727 389.271 393.602 389.396C393.477 389.521 393.407 389.691 393.407 389.868C393.404 389.957 393.419 390.045 393.452 390.128C393.484 390.211 393.533 390.287 393.595 390.35C393.658 390.413 393.732 390.463 393.815 390.497C393.897 390.531 393.985 390.547 394.074 390.546L420.641 390.793C420.731 390.798 420.822 390.784 420.907 390.752C420.993 390.721 421.071 390.673 421.137 390.61C421.203 390.548 421.256 390.473 421.293 390.39C421.33 390.307 421.349 390.217 421.351 390.126H421.308ZM385.66 429.852C385.714 429.734 390.244 417.252 403.866 414.272C404.041 414.233 404.194 414.126 404.291 413.975C404.388 413.824 404.421 413.64 404.382 413.465C404.339 413.293 404.231 413.144 404.08 413.05C403.93 412.956 403.749 412.923 403.575 412.959C389.211 416.101 384.444 429.282 384.39 429.411C384.335 429.581 384.347 429.766 384.426 429.926C384.504 430.087 384.642 430.211 384.81 430.272H385.025C385.168 430.284 385.311 430.25 385.433 430.174C385.556 430.099 385.65 429.986 385.703 429.852H385.66ZM388.683 439.719C388.861 439.705 389.027 439.622 389.144 439.487C389.26 439.352 389.319 439.176 389.307 438.998C387.618 413.626 397.431 372.071 413.173 337.962C423.234 316.162 462.669 273.316 463.089 272.885C463.216 272.758 463.287 272.586 463.287 272.406C463.287 272.227 463.216 272.055 463.089 271.928C463.027 271.865 462.953 271.816 462.872 271.782C462.79 271.748 462.703 271.73 462.615 271.73C462.527 271.73 462.44 271.748 462.359 271.782C462.278 271.816 462.204 271.865 462.142 271.928C461.744 272.358 422.147 315.366 412 337.359C395.968 372.297 386.284 413.099 388.005 439.084C388.019 439.256 388.096 439.416 388.221 439.533C388.347 439.651 388.512 439.717 388.683 439.719ZM420.867 323.995C421.044 323.984 421.211 323.903 421.33 323.77C421.449 323.638 421.51 323.463 421.501 323.285L418.93 279.761C418.926 279.672 418.904 279.585 418.866 279.505C418.828 279.425 418.774 279.353 418.708 279.294C418.642 279.235 418.565 279.19 418.481 279.161C418.397 279.132 418.308 279.12 418.22 279.126C418.042 279.137 417.875 279.218 417.756 279.351C417.638 279.484 417.576 279.658 417.585 279.836L420.199 323.339C420.208 323.51 420.282 323.672 420.406 323.79C420.53 323.908 420.695 323.974 420.867 323.974V323.995ZM412.84 338.295C413.001 338.222 413.127 338.089 413.191 337.924C413.256 337.759 413.253 337.576 413.184 337.413L396.646 300C396.574 299.838 396.441 299.71 396.276 299.646C396.11 299.581 395.926 299.585 395.763 299.656C395.601 299.727 395.473 299.861 395.409 300.026C395.344 300.191 395.348 300.376 395.419 300.538L411.946 337.951C411.998 338.071 412.084 338.173 412.193 338.246C412.302 338.319 412.429 338.358 412.56 338.36C412.671 338.366 412.782 338.343 412.883 338.295H412.84ZM415.702 333.13L455.288 327.471C455.383 327.469 455.477 327.447 455.564 327.406C455.65 327.365 455.727 327.306 455.789 327.233C455.851 327.161 455.897 327.076 455.924 326.984C455.951 326.892 455.958 326.796 455.945 326.701C455.932 326.606 455.899 326.515 455.849 326.434C455.798 326.353 455.731 326.284 455.652 326.23C455.572 326.177 455.482 326.141 455.388 326.125C455.294 326.109 455.197 326.113 455.105 326.136L415.519 331.796C415.342 331.808 415.177 331.889 415.06 332.022C414.943 332.155 414.883 332.329 414.895 332.506C414.906 332.683 414.987 332.848 415.121 332.965C415.254 333.083 415.428 333.142 415.605 333.13H415.702ZM404.414 358.384C404.555 358.274 404.646 358.112 404.668 357.935C404.691 357.758 404.642 357.579 404.533 357.437L383.077 329.87C383.023 329.8 382.955 329.74 382.878 329.696C382.801 329.651 382.715 329.623 382.627 329.611C382.538 329.6 382.449 329.606 382.363 329.629C382.276 329.652 382.196 329.692 382.125 329.746C382.054 329.801 381.995 329.869 381.951 329.946C381.906 330.023 381.878 330.109 381.866 330.197C381.855 330.285 381.861 330.375 381.884 330.461C381.907 330.547 381.947 330.628 382.001 330.699L403.5 358.309C403.562 358.389 403.642 358.454 403.734 358.499C403.825 358.544 403.925 358.567 404.027 358.567C404.188 358.559 404.34 358.494 404.458 358.384H404.414ZM437.943 350.928C437.948 350.75 437.884 350.576 437.763 350.445C437.642 350.315 437.475 350.236 437.297 350.228L407.804 348.732C407.638 348.744 407.482 348.816 407.366 348.934C407.25 349.053 407.181 349.21 407.173 349.376C407.165 349.542 407.219 349.705 407.323 349.835C407.427 349.964 407.575 350.05 407.739 350.077L437.286 351.573C437.464 351.579 437.637 351.515 437.768 351.394C437.899 351.273 437.977 351.105 437.986 350.928H437.943ZM424.03 372.813C424.04 372.725 424.033 372.635 424.008 372.55C423.983 372.464 423.942 372.384 423.885 372.315C423.829 372.246 423.76 372.188 423.681 372.147C423.602 372.105 423.516 372.079 423.427 372.071L400.831 369.844C400.744 369.835 400.655 369.843 400.571 369.869C400.486 369.894 400.408 369.936 400.34 369.992C400.272 370.048 400.216 370.117 400.174 370.195C400.133 370.273 400.108 370.358 400.1 370.446C400.085 370.623 400.139 370.798 400.252 370.935C400.364 371.072 400.526 371.159 400.702 371.178L423.298 373.416H423.363C423.536 373.428 423.708 373.372 423.84 373.259C423.973 373.146 424.057 372.987 424.073 372.813H424.03ZM395.677 384.477C395.827 384.378 395.931 384.224 395.967 384.049C396.004 383.874 395.969 383.691 395.871 383.541L384.702 366.659C384.6 366.513 384.445 366.413 384.271 366.379C384.096 366.345 383.915 366.379 383.766 366.476C383.617 366.574 383.512 366.728 383.476 366.904C383.44 367.079 383.474 367.262 383.572 367.412L394.741 384.294C394.805 384.387 394.89 384.462 394.99 384.515C395.089 384.567 395.199 384.595 395.312 384.596C395.457 384.603 395.601 384.562 395.72 384.477H395.677ZM421.308 390.126C421.305 389.949 421.234 389.78 421.11 389.654C420.986 389.527 420.818 389.454 420.641 389.448L394.074 389.201C393.897 389.201 393.727 389.271 393.602 389.396C393.477 389.521 393.407 389.691 393.407 389.868C393.404 389.957 393.419 390.045 393.452 390.128C393.484 390.211 393.533 390.287 393.595 390.35C393.658 390.413 393.732 390.463 393.815 390.497C393.897 390.531 393.985 390.547 394.074 390.546L420.641 390.793C420.731 390.798 420.822 390.784 420.907 390.752C420.993 390.721 421.071 390.673 421.137 390.61C421.203 390.548 421.256 390.473 421.293 390.39C421.33 390.307 421.349 390.217 421.351 390.126H421.308ZM385.66 429.852C385.714 429.734 390.244 417.252 403.866 414.272C404.041 414.233 404.194 414.126 404.291 413.975C404.388 413.824 404.421 413.64 404.382 413.465C404.339 413.293 404.231 413.144 404.08 413.05C403.93 412.956 403.749 412.923 403.575 412.959C389.211 416.101 384.444 429.282 384.39 429.411C384.335 429.581 384.347 429.766 384.426 429.926C384.504 430.087 384.642 430.211 384.81 430.272H385.025C385.168 430.284 385.311 430.25 385.433 430.174C385.556 430.099 385.65 429.986 385.703 429.852H385.66Z" fill="#92E3A9"/>
<path opacity="0.2" d="M420.877 323.328L418.263 279.825L420.877 323.328ZM412.603 337.682L396.075 300.269L412.603 337.682ZM455.255 326.804L415.648 332.485L455.255 326.804ZM404.038 357.846L382.593 330.333L404.038 357.846ZM407.804 349.41L437.351 350.895L407.804 349.41ZM400.81 370.511L423.406 372.749L400.81 370.511ZM395.355 383.918L384.132 367.035L395.355 383.918ZM394.063 389.879L420.63 390.126L394.063 389.879ZM388.683 439.719C388.861 439.705 389.027 439.622 389.144 439.487C389.26 439.352 389.319 439.176 389.307 438.998C387.618 413.626 397.431 372.071 413.173 337.962C423.234 316.162 462.669 273.316 463.089 272.885C463.216 272.758 463.287 272.586 463.287 272.406C463.287 272.227 463.216 272.055 463.089 271.928C463.027 271.865 462.953 271.816 462.872 271.782C462.79 271.748 462.703 271.73 462.615 271.73C462.527 271.73 462.44 271.748 462.359 271.782C462.278 271.816 462.204 271.865 462.142 271.928C461.744 272.358 422.147 315.366 412 337.359C395.968 372.297 386.284 413.099 388.005 439.084C388.019 439.256 388.096 439.416 388.221 439.533C388.347 439.651 388.512 439.717 388.683 439.719ZM420.867 323.995C421.044 323.984 421.211 323.903 421.33 323.77C421.449 323.638 421.51 323.463 421.501 323.285L418.93 279.761C418.926 279.672 418.904 279.585 418.866 279.505C418.828 279.425 418.774 279.353 418.708 279.294C418.642 279.235 418.565 279.19 418.481 279.161C418.397 279.132 418.308 279.12 418.22 279.126C418.042 279.137 417.875 279.218 417.756 279.351C417.638 279.484 417.576 279.658 417.585 279.836L420.199 323.339C420.208 323.51 420.282 323.672 420.406 323.79C420.53 323.908 420.695 323.974 420.867 323.974V323.995ZM412.84 338.295C413.001 338.222 413.127 338.089 413.191 337.924C413.256 337.759 413.253 337.576 413.184 337.413L396.646 300C396.574 299.838 396.441 299.71 396.276 299.646C396.11 299.581 395.926 299.585 395.763 299.656C395.601 299.727 395.473 299.861 395.409 300.026C395.344 300.191 395.348 300.376 395.419 300.538L411.946 337.951C411.998 338.071 412.084 338.173 412.193 338.246C412.302 338.319 412.429 338.358 412.56 338.36C412.671 338.366 412.782 338.343 412.883 338.295H412.84ZM415.702 333.13L455.288 327.471C455.383 327.469 455.477 327.447 455.564 327.406C455.65 327.365 455.727 327.306 455.789 327.233C455.851 327.161 455.897 327.076 455.924 326.984C455.951 326.892 455.958 326.796 455.945 326.701C455.932 326.606 455.899 326.515 455.849 326.434C455.798 326.353 455.731 326.284 455.652 326.23C455.572 326.177 455.482 326.141 455.388 326.125C455.294 326.109 455.197 326.113 455.105 326.136L415.519 331.796C415.342 331.808 415.177 331.889 415.06 332.022C414.943 332.155 414.883 332.329 414.895 332.506C414.906 332.683 414.987 332.848 415.121 332.965C415.254 333.083 415.428 333.142 415.605 333.13H415.702ZM404.414 358.384C404.555 358.274 404.646 358.112 404.668 357.935C404.691 357.758 404.642 357.579 404.533 357.437L383.077 329.87C382.967 329.728 382.805 329.634 382.627 329.611C382.448 329.588 382.268 329.637 382.125 329.746C381.982 329.856 381.889 330.018 381.866 330.197C381.843 330.376 381.892 330.556 382.001 330.699L403.5 358.309C403.562 358.389 403.642 358.454 403.734 358.499C403.825 358.544 403.925 358.567 404.027 358.567C404.188 358.559 404.34 358.494 404.458 358.384H404.414ZM437.943 350.928C437.948 350.75 437.884 350.576 437.763 350.445C437.642 350.315 437.475 350.236 437.297 350.228L407.804 348.732C407.638 348.744 407.482 348.816 407.366 348.934C407.25 349.053 407.181 349.21 407.173 349.376C407.165 349.542 407.219 349.705 407.323 349.835C407.427 349.964 407.575 350.05 407.739 350.077L437.286 351.573C437.464 351.579 437.637 351.515 437.768 351.394C437.899 351.273 437.977 351.105 437.986 350.928H437.943ZM424.03 372.813C424.04 372.725 424.033 372.635 424.008 372.55C423.983 372.464 423.942 372.384 423.885 372.315C423.829 372.246 423.76 372.188 423.681 372.147C423.602 372.105 423.516 372.079 423.427 372.071L400.831 369.844C400.744 369.835 400.655 369.843 400.571 369.869C400.486 369.894 400.408 369.936 400.34 369.992C400.272 370.048 400.216 370.117 400.174 370.195C400.133 370.273 400.108 370.358 400.1 370.446C400.085 370.623 400.139 370.798 400.252 370.935C400.364 371.072 400.526 371.159 400.702 371.178L423.298 373.416H423.363C423.536 373.428 423.708 373.372 423.84 373.259C423.973 373.146 424.057 372.987 424.073 372.813H424.03ZM395.677 384.477C395.827 384.378 395.931 384.224 395.967 384.049C396.004 383.874 395.969 383.691 395.871 383.541L384.702 366.659C384.6 366.513 384.445 366.413 384.271 366.379C384.096 366.345 383.915 366.379 383.766 366.476C383.617 366.574 383.512 366.728 383.476 366.904C383.44 367.079 383.474 367.262 383.572 367.412L394.741 384.294C394.805 384.387 394.89 384.462 394.99 384.515C395.089 384.567 395.199 384.595 395.312 384.596C395.457 384.603 395.601 384.562 395.72 384.477H395.677ZM421.308 390.126C421.305 389.949 421.234 389.78 421.11 389.654C420.986 389.527 420.818 389.454 420.641 389.448L394.074 389.201C393.897 389.201 393.727 389.271 393.602 389.396C393.477 389.521 393.407 389.691 393.407 389.868C393.404 389.957 393.419 390.045 393.452 390.128C393.484 390.211 393.533 390.287 393.595 390.35C393.658 390.413 393.732 390.463 393.815 390.497C393.897 390.531 393.985 390.547 394.074 390.546L420.641 390.793C420.731 390.798 420.822 390.784 420.907 390.752C420.993 390.721 421.071 390.673 421.137 390.61C421.203 390.548 421.256 390.473 421.293 390.39C421.33 390.307 421.349 390.217 421.351 390.126H421.308ZM385.66 429.852C385.714 429.734 390.244 417.252 403.866 414.272C404.041 414.233 404.194 414.126 404.291 413.975C404.388 413.824 404.421 413.64 404.382 413.465C404.339 413.293 404.231 413.144 404.08 413.05C403.93 412.956 403.749 412.923 403.575 412.959C389.211 416.101 384.444 429.282 384.39 429.411C384.335 429.581 384.347 429.766 384.426 429.926C384.504 430.087 384.642 430.211 384.81 430.272H385.025C385.168 430.284 385.311 430.25 385.433 430.174C385.556 430.099 385.65 429.986 385.703 429.852H385.66ZM388.683 439.719C388.861 439.705 389.027 439.622 389.144 439.487C389.26 439.352 389.319 439.176 389.307 438.998C387.618 413.626 397.431 372.071 413.173 337.962C423.234 316.162 462.669 273.316 463.089 272.885C463.216 272.758 463.287 272.586 463.287 272.406C463.287 272.227 463.216 272.055 463.089 271.928C463.027 271.865 462.953 271.816 462.872 271.782C462.79 271.748 462.703 271.73 462.615 271.73C462.527 271.73 462.44 271.748 462.359 271.782C462.278 271.816 462.204 271.865 462.142 271.928C461.744 272.358 422.147 315.366 412 337.359C395.968 372.297 386.284 413.099 388.005 439.084C388.019 439.256 388.096 439.416 388.221 439.533C388.347 439.651 388.512 439.717 388.683 439.719ZM420.867 323.995C421.044 323.984 421.211 323.903 421.33 323.77C421.449 323.638 421.51 323.463 421.501 323.285L418.93 279.761C418.926 279.672 418.904 279.585 418.866 279.505C418.828 279.425 418.774 279.353 418.708 279.294C418.642 279.235 418.565 279.19 418.481 279.161C418.397 279.132 418.308 279.12 418.22 279.126C418.042 279.137 417.875 279.218 417.756 279.351C417.638 279.484 417.576 279.658 417.585 279.836L420.199 323.339C420.208 323.51 420.282 323.672 420.406 323.79C420.53 323.908 420.695 323.974 420.867 323.974V323.995ZM412.84 338.295C413.001 338.222 413.127 338.089 413.191 337.924C413.256 337.759 413.253 337.576 413.184 337.413L396.646 300C396.574 299.838 396.441 299.71 396.276 299.646C396.11 299.581 395.926 299.585 395.763 299.656C395.601 299.727 395.473 299.861 395.409 300.026C395.344 300.191 395.348 300.376 395.419 300.538L411.946 337.951C411.998 338.071 412.084 338.173 412.193 338.246C412.302 338.319 412.429 338.358 412.56 338.36C412.671 338.366 412.782 338.343 412.883 338.295H412.84ZM415.702 333.13L455.288 327.471C455.383 327.469 455.477 327.447 455.564 327.406C455.65 327.365 455.727 327.306 455.789 327.233C455.851 327.161 455.897 327.076 455.924 326.984C455.951 326.892 455.958 326.796 455.945 326.701C455.932 326.606 455.899 326.515 455.849 326.434C455.798 326.353 455.731 326.284 455.652 326.23C455.572 326.177 455.482 326.141 455.388 326.125C455.294 326.109 455.197 326.113 455.105 326.136L415.519 331.796C415.342 331.808 415.177 331.889 415.06 332.022C414.943 332.155 414.883 332.329 414.895 332.506C414.906 332.683 414.987 332.848 415.121 332.965C415.254 333.083 415.428 333.142 415.605 333.13H415.702ZM404.414 358.384C404.555 358.274 404.646 358.112 404.668 357.935C404.691 357.758 404.642 357.579 404.533 357.437L383.077 329.87C383.023 329.8 382.955 329.74 382.878 329.696C382.801 329.651 382.715 329.623 382.627 329.611C382.538 329.6 382.449 329.606 382.363 329.629C382.276 329.652 382.196 329.692 382.125 329.746C382.054 329.801 381.995 329.869 381.951 329.946C381.906 330.023 381.878 330.109 381.866 330.197C381.855 330.285 381.861 330.375 381.884 330.461C381.907 330.547 381.947 330.628 382.001 330.699L403.5 358.309C403.562 358.389 403.642 358.454 403.734 358.499C403.825 358.544 403.925 358.567 404.027 358.567C404.188 358.559 404.34 358.494 404.458 358.384H404.414ZM437.943 350.928C437.948 350.75 437.884 350.576 437.763 350.445C437.642 350.315 437.475 350.236 437.297 350.228L407.804 348.732C407.638 348.744 407.482 348.816 407.366 348.934C407.25 349.053 407.181 349.21 407.173 349.376C407.165 349.542 407.219 349.705 407.323 349.835C407.427 349.964 407.575 350.05 407.739 350.077L437.286 351.573C437.464 351.579 437.637 351.515 437.768 351.394C437.899 351.273 437.977 351.105 437.986 350.928H437.943ZM424.03 372.813C424.04 372.725 424.033 372.635 424.008 372.55C423.983 372.464 423.942 372.384 423.885 372.315C423.829 372.246 423.76 372.188 423.681 372.147C423.602 372.105 423.516 372.079 423.427 372.071L400.831 369.844C400.744 369.835 400.655 369.843 400.571 369.869C400.486 369.894 400.408 369.936 400.34 369.992C400.272 370.048 400.216 370.117 400.174 370.195C400.133 370.273 400.108 370.358 400.1 370.446C400.085 370.623 400.139 370.798 400.252 370.935C400.364 371.072 400.526 371.159 400.702 371.178L423.298 373.416H423.363C423.536 373.428 423.708 373.372 423.84 373.259C423.973 373.146 424.057 372.987 424.073 372.813H424.03ZM395.677 384.477C395.827 384.378 395.931 384.224 395.967 384.049C396.004 383.874 395.969 383.691 395.871 383.541L384.702 366.659C384.6 366.513 384.445 366.413 384.271 366.379C384.096 366.345 383.915 366.379 383.766 366.476C383.617 366.574 383.512 366.728 383.476 366.904C383.44 367.079 383.474 367.262 383.572 367.412L394.741 384.294C394.805 384.387 394.89 384.462 394.99 384.515C395.089 384.567 395.199 384.595 395.312 384.596C395.457 384.603 395.601 384.562 395.72 384.477H395.677ZM421.308 390.126C421.305 389.949 421.234 389.78 421.11 389.654C420.986 389.527 420.818 389.454 420.641 389.448L394.074 389.201C393.897 389.201 393.727 389.271 393.602 389.396C393.477 389.521 393.407 389.691 393.407 389.868C393.404 389.957 393.419 390.045 393.452 390.128C393.484 390.211 393.533 390.287 393.595 390.35C393.658 390.413 393.732 390.463 393.815 390.497C393.897 390.531 393.985 390.547 394.074 390.546L420.641 390.793C420.731 390.798 420.822 390.784 420.907 390.752C420.993 390.721 421.071 390.673 421.137 390.61C421.203 390.548 421.256 390.473 421.293 390.39C421.33 390.307 421.349 390.217 421.351 390.126H421.308ZM385.66 429.852C385.714 429.734 390.244 417.252 403.866 414.272C404.041 414.233 404.194 414.126 404.291 413.975C404.388 413.824 404.421 413.64 404.382 413.465C404.339 413.293 404.231 413.144 404.08 413.05C403.93 412.956 403.749 412.923 403.575 412.959C389.211 416.101 384.444 429.282 384.39 429.411C384.335 429.581 384.347 429.766 384.426 429.926C384.504 430.087 384.642 430.211 384.81 430.272H385.025C385.168 430.284 385.311 430.25 385.433 430.174C385.556 430.099 385.65 429.986 385.703 429.852H385.66Z" fill="black"/>
<path d="M406.255 420.748H375.793V427.053H378.451L383.949 461.453H398.098L403.597 427.053H406.255V420.748Z" fill="#92E3A9"/>
<path opacity="0.3" d="M406.255 420.748H375.793V427.053H378.451L383.949 461.453H398.098L403.597 427.053H406.255V420.748Z" fill="white"/>
<path d="M132.004 230.08L96.571 218.513L93.4183 210.185L86.2199 209.959L73.1572 207.484L74.7282 210.185L91.1695 222.118L95.226 224.141L132.283 243.498L132.004 230.08Z" fill="white" stroke="#263238" stroke-width="1.00396" stroke-miterlimit="10"/>
<path d="M93.4181 210.185L90.0395 208.162L83.293 210.637L84.412 211.982L93.4181 210.185Z" fill="white" stroke="#263238" stroke-width="1.00396" stroke-linejoin="round"/>
<path d="M132.004 230.08L96.571 218.513L93.4183 210.185L86.2199 209.959L73.1572 207.484L74.7282 210.185L91.1695 222.118L95.226 224.141L132.283 243.498L132.004 230.08Z" fill="white"/>
<path opacity="0.5" d="M132.004 230.08L96.571 218.513L93.4183 210.185L86.2199 209.959L73.1572 207.484L74.7282 210.185L91.1695 222.118L95.226 224.141L132.283 243.498L132.004 230.08Z" fill="#92E3A9" stroke="#263238" stroke-width="1.00396" stroke-miterlimit="10"/>
<path d="M132.004 230.08L96.571 218.513L93.4183 210.185L86.2199 209.959L73.1572 207.484L74.7282 210.185L91.1695 222.118L95.226 224.141L132.283 243.498L132.004 230.08Z" stroke="#263238" stroke-width="1.00396" stroke-miterlimit="10"/>
<path d="M93.4181 210.185L90.0395 208.162L83.293 210.637L84.412 211.982L93.4181 210.185Z" fill="white"/>
<path opacity="0.5" d="M93.4181 210.185L90.0395 208.162L83.293 210.637L84.412 211.982L93.4181 210.185Z" fill="#92E3A9" stroke="#263238" stroke-width="1.00396" stroke-linejoin="round"/>
<path d="M93.4181 210.185L90.0395 208.162L83.293 210.637L84.412 211.982L93.4181 210.185Z" stroke="#263238" stroke-width="1.00396" stroke-linejoin="round"/>
<path d="M139.525 155.009C139.525 155.009 138.976 159.851 140.342 162.96C141.709 166.07 149.295 176.604 149.295 176.604L135.135 187.956C135.135 187.956 129.26 176.12 128.141 174.204C127.022 172.289 125.677 164.047 129.324 158.14C132.972 152.232 138.223 150.64 139.525 155.009Z" fill="white"/>
<g style="mix-blend-mode:multiply" opacity="0.5">
<path d="M132.251 170.566L138.395 183.306L135.124 187.965L128.947 176.936L132.251 170.566Z" fill="#92E3A9"/>
</g>
<path d="M139.525 155.009C139.525 155.009 138.976 159.851 140.342 162.96C141.709 166.07 149.295 176.604 149.295 176.604L135.135 187.956C135.135 187.956 129.26 176.12 128.141 174.204C127.022 172.289 125.677 164.047 129.324 158.14C132.972 152.232 138.223 150.64 139.525 155.009Z" stroke="#263238" stroke-width="1.00396" stroke-miterlimit="10"/>
<path d="M143.915 146.142C143.043 140.762 136.878 129.819 127.097 130.238C120.748 130.518 117.779 131.798 115.024 133.359C112.779 134.682 110.686 136.248 108.783 138.029C104.006 143.764 102.327 145.335 103.253 149.725C103.177 151.476 103.451 153.224 104.06 154.868C105.523 158.774 106.524 161.324 107.793 163.185C107.406 165.004 106.395 169.803 106.341 170.9C106.287 171.998 109.569 171.234 111.226 170.814C114.303 177.701 119.941 182.478 121.695 183.027C124.751 183.984 129.582 178.96 132.143 175.064C134.704 171.169 132.767 166.79 132.778 165.047C132.789 163.304 138.535 159.473 140.665 158.257C142.796 157.041 144.776 151.511 143.915 146.142Z" fill="white"/>
<g style="mix-blend-mode:multiply" opacity="0.5">
<path d="M103.296 149.724C103.22 151.475 103.494 153.224 104.103 154.867C105.566 158.773 106.567 161.323 107.837 163.185C107.449 165.003 106.438 169.802 106.384 170.9C106.33 171.997 109.612 171.233 111.269 170.814C114.347 177.7 119.985 182.478 121.739 183.026C124.794 183.984 129.626 178.959 132.187 175.064C132.826 174.091 133.242 172.989 133.402 171.836C133.263 171.33 133.166 171.018 133.166 171.018C133.166 171.018 131.724 176.56 128.862 175.839C126 175.118 121.62 169.383 119.178 167.403C116.735 165.423 117.736 162.819 117.252 159.871C116.768 156.923 109.537 154.329 109.053 152.64C108.568 150.951 110.258 143.957 110.258 143.957C110.258 143.957 113.002 140.298 112.41 141.805C111.991 143.111 111.84 144.488 111.964 145.854C112.087 147.22 112.484 148.547 113.131 149.756C113.584 150.711 114.304 151.514 115.203 152.069C116.102 152.625 117.142 152.909 118.199 152.888L120.824 139.879L115.283 135.295L108.827 137.985C104.006 143.763 102.36 145.334 103.296 149.724Z" fill="#92E3A9"/>
</g>
<path d="M143.915 146.142C143.043 140.762 136.878 129.819 127.097 130.238C120.748 130.518 117.779 131.798 115.024 133.359C112.779 134.682 110.686 136.248 108.783 138.029C104.006 143.764 102.327 145.335 103.253 149.725C103.177 151.476 103.451 153.224 104.06 154.868C105.523 158.774 106.524 161.324 107.793 163.185C107.406 165.004 106.395 169.803 106.341 170.9C106.287 171.998 109.569 171.234 111.226 170.814C114.303 177.701 119.941 182.478 121.695 183.027C124.751 183.984 129.582 178.96 132.143 175.064C134.704 171.169 132.767 166.79 132.778 165.047C132.789 163.304 138.535 159.473 140.665 158.257C142.796 157.041 144.776 151.511 143.915 146.142Z" stroke="#263238" stroke-miterlimit="10"/>
<path d="M109.128 159.936L110.204 163.013C110.204 163.013 112.517 163.777 115.336 160.7" stroke="#263238" stroke-miterlimit="10" stroke-linecap="round"/>
<path d="M117.079 174.311C117.079 174.311 119.64 174.053 120.673 170.459" stroke="#263238" stroke-miterlimit="10" stroke-linecap="round"/>
<path d="M107.331 157.364C107.331 157.364 108.095 155.051 112.711 155.051" stroke="#263238" stroke-miterlimit="10" stroke-linecap="round"/>
<path d="M130.992 125.956C127.638 125.473 124.255 125.215 120.867 125.181C120.867 125.181 110.731 119.338 100.993 125.568C91.255 131.798 95.9356 142.709 95.9356 145.431C95.9356 148.154 92.8152 148.164 94.7628 151.672C96.7103 155.18 103.295 153.243 103.295 153.243C103.365 151.92 103.715 150.627 104.321 149.449C104.928 148.271 105.777 147.236 106.814 146.41C110.322 143.688 113.119 143.096 114.281 143.882C114.281 143.882 113.507 149.725 114.669 152.059C114.669 152.059 118.564 154.007 119.737 154.007C120.91 154.007 118.973 155.653 122.857 157.117C123.565 157.371 124.322 157.457 125.069 157.37C125.815 157.282 126.532 157.022 127.161 156.611C127.731 154.244 128.98 150.682 131.304 151.511C134.715 152.727 137.824 161.119 133.208 163.982C138.76 164.993 145.485 155.169 145.884 146.217C146.282 137.264 136.759 126.967 130.992 125.956Z" fill="#263238"/>
<path d="M114.454 140.041C114.454 140.041 117.316 138.502 120.824 141.795C124.332 145.087 131.154 149.488 140.192 147.067" stroke="white" stroke-width="0.5" stroke-linecap="round" stroke-linejoin="round"/>
<path d="M114.056 137.404C114.056 137.404 116.025 134.326 119.317 134.326C122.61 134.326 130.303 138.942 136.447 138.942" stroke="white" stroke-width="0.5" stroke-linecap="round" stroke-linejoin="round"/>
<path d="M111.818 143.334C111.818 143.334 108.084 138.728 104.576 142.462C101.068 146.196 103.296 149.725 103.296 149.725" stroke="white" stroke-width="0.5" stroke-linecap="round" stroke-linejoin="round"/>
<path d="M96.8936 146.411C99.0332 144.482 100.363 141.814 100.617 138.944C101.058 134.113 107.654 129.938 111.818 133.897" stroke="white" stroke-width="0.5" stroke-linecap="round" stroke-linejoin="round"/>
<path d="M103.693 128.84C103.693 128.84 110.289 122.47 115.777 130.594" stroke="white" stroke-width="0.5" stroke-linecap="round" stroke-linejoin="round"/>
<path d="M157.376 442.031C157.376 442.031 161.432 448.337 160.98 452.393L160.539 456.45C160.539 456.45 145.658 460.528 142.505 460.528C139.353 460.528 122.664 458.946 122.664 458.946L121.943 456.084C121.892 455.872 121.916 455.65 122.01 455.454C122.104 455.258 122.263 455.101 122.459 455.008L137.34 448.068L142.032 442.935L157.376 442.031Z" fill="white" stroke="#263238" stroke-width="1.00396" stroke-miterlimit="10"/>
<path d="M144.765 457.354C148.8 457.666 156.461 455.202 160.905 453.631L160.593 456.45C160.593 456.45 145.658 460.528 142.505 460.528C139.353 460.528 122.664 458.946 122.664 458.946L122.147 456.902C124.816 456.913 139.428 456.945 144.765 457.354Z" fill="#92E3A9" stroke="#263238" stroke-width="1.00396" stroke-miterlimit="10"/>
<path d="M137.362 448.066L115.702 457.492C115.702 457.492 113.852 462.13 115.702 463.055C117.553 463.98 157.903 463.055 157.903 463.055C157.903 463.055 160.69 455.728 156.289 450.81C151.888 445.893 137.362 448.066 137.362 448.066Z" fill="white" stroke="#263238" stroke-width="1.00396" stroke-miterlimit="10"/>
<path d="M157.903 463.056C157.903 463.056 117.553 463.981 115.702 463.056C114.809 462.604 114.777 461.302 114.981 460.064H158.613C158.47 461.082 158.233 462.083 157.903 463.056Z" fill="#92E3A9" stroke="#263238" stroke-width="1.00396" stroke-miterlimit="10"/>
<path d="M127.118 284.289C127.118 284.289 121.458 309.37 119.317 325.058C117.176 340.746 115.917 372.176 116.369 375.781C116.821 379.385 139.352 439.781 139.352 439.781L141.601 445.161L157.375 442.009C157.375 442.009 150.166 419.025 147.465 406.404C144.765 393.782 138.857 373.048 138.857 369.443C138.857 365.839 152.845 296.996 153.846 292.477C154.847 287.958 159.387 281.018 159.387 281.018L129.184 280.404L127.118 284.289Z" fill="#92E3A9" stroke="#263238" stroke-width="1.00396" stroke-miterlimit="10"/>
<path d="M127.118 284.289C127.118 284.289 123.804 307.197 125.17 323.122C126.537 339.046 129.474 372.951 129.474 377.998C129.474 383.044 137.62 413.183 138.082 422.652C138.803 436.328 137.792 443.096 137.792 443.096L137.308 448.056C137.308 448.056 146.809 449.412 148.885 450.004C151.284 450.621 153.759 450.89 156.234 450.8C156.234 450.8 159.688 435.596 159.688 422.641C159.688 409.686 156.815 383.023 155.384 372.219C153.953 361.416 158.462 319.743 161.023 311.963C163.583 304.184 169.179 287.71 165.413 279.296C161.647 270.882 127.118 284.289 127.118 284.289Z" fill="#92E3A9" stroke="#263238" stroke-width="1.00396" stroke-miterlimit="10"/>
<path d="M169.599 275.078L169.254 285.322C169.254 285.322 163.121 286.538 154.857 287.969C148.035 289.152 130.906 287.657 125.138 287.097C124.613 287.051 124.127 286.798 123.786 286.395C123.446 285.992 123.278 285.471 123.32 284.945L123.879 275.691L169.599 275.078Z" fill="#263238"/>
<path d="M145.626 172.967C145.626 172.967 135.942 183.436 132.294 189.946C128.646 196.456 127.204 206.43 125.838 214.285C124.471 222.14 128.173 240.583 127.129 249.051L123.826 275.725C123.826 275.725 123.116 277.532 125.494 279.512C127.872 281.492 139.482 282.213 149.973 282.74C153.803 282.934 165.241 280.47 167.113 280.352C169.373 280.212 169.448 277.339 169.545 275.079C169.997 264.459 171.912 236.15 173.171 223.819C175.764 198.672 161.572 174.398 145.626 172.967Z" fill="white" stroke="#263238" stroke-width="1.00396" stroke-miterlimit="10"/>
<g style="mix-blend-mode:multiply">
<path d="M171.988 238.117C172.418 232.533 172.849 227.465 173.225 223.817C173.333 222.741 173.397 221.665 173.451 220.589L147.724 224.893L125.623 217.361C125.625 221.934 125.884 226.504 126.398 231.048L148.079 237.117L171.988 238.117Z" fill="#92E3A9"/>
</g>
<g style="mix-blend-mode:multiply">
<path d="M144.668 174.021C143.205 175.646 140.299 178.95 137.534 182.457L153.868 199.06L159.248 196.908L144.668 174.021Z" fill="#92E3A9"/>
</g>
<path d="M145.625 172.967C145.625 172.967 135.941 183.436 132.293 189.946C131.212 191.924 130.336 194.008 129.679 196.165L149.154 173.666C148.004 173.318 146.822 173.083 145.625 172.967Z" fill="#263238"/>
<g style="mix-blend-mode:multiply">
<path d="M126.591 210.045L147.723 216.996L173.386 214.048C172.984 207.655 171.564 201.367 169.179 195.422L148.487 203.718L129.991 195.336C128.479 200.144 127.342 205.061 126.591 210.045Z" fill="#92E3A9"/>
</g>
<g style="mix-blend-mode:multiply">
<path d="M162.97 264.457C152.252 266.257 141.254 265.358 130.97 261.843L125.816 260.078L124.213 272.99L130.088 274.636C141.256 277.759 152.929 278.658 164.445 277.283L169.19 276.713C169.437 276.19 169.576 275.623 169.599 275.045C169.728 272.172 169.954 267.997 170.244 263.209L162.97 264.457Z" fill="#92E3A9"/>
</g>
<g style="mix-blend-mode:multiply">
<path d="M165.844 246.876C155.125 248.683 144.124 247.78 133.843 244.251L127.28 242.002C127.443 244.346 127.41 246.7 127.183 249.039L126.419 255.248L132.961 257.077C144.125 260.203 155.795 261.106 167.307 259.734L170.535 259.347C170.804 255.043 171.116 250.459 171.45 245.929L165.844 246.876Z" fill="#92E3A9"/>
</g>
<path d="M64.8944 201.374L85.6992 218.102L86.5959 216.986L65.7911 200.259L64.8944 201.374Z" fill="#263238"/>
<path d="M155.643 184.576C155.643 184.576 163.272 189.773 163.444 202.05C163.519 207.43 162.96 212.455 161.722 221.268C160.485 230.08 152.802 258.777 146.82 262.263C140.837 265.75 131.551 259.165 131.551 259.165L86.6392 229.349L75.7823 220.579L70.4023 210.422L72.0917 207.194L85.3372 217.351L78.2033 210.755L79.6021 208.98L82.1845 210.777L89.7165 213.596L91.3628 224.356L93.687 225.948L136.652 241.647C136.652 241.647 136.114 218.524 136.512 214.102C136.91 209.679 137.459 198.564 142.193 190.505" fill="white"/>
<g style="mix-blend-mode:multiply" opacity="0.5">
<path d="M136.35 224.173C136.35 232.157 136.619 241.647 136.619 241.647L93.6976 226.013L91.3734 224.42L89.7272 213.66L82.1952 210.841L79.6235 209.012L78.2247 210.787L85.3371 217.351L72.0915 207.193L70.4883 210.368L75.8683 220.525L86.7251 229.348L89.4582 231.167L148.8 250.287L136.35 224.173Z" fill="#92E3A9"/>
</g>
<path d="M155.643 184.576C155.643 184.576 163.272 189.773 163.444 202.05C163.519 207.43 162.96 212.455 161.722 221.268C160.485 230.08 152.802 258.777 146.82 262.263C140.837 265.75 131.551 259.165 131.551 259.165L86.6392 229.349L75.7823 220.579L70.4023 210.422L72.0917 207.194L85.3372 217.351L78.2033 210.755L79.6021 208.98L82.1845 210.777L89.7165 213.596L91.3628 224.356L93.687 225.948L136.652 241.647C136.652 241.647 136.114 218.524 136.512 214.102C136.91 209.679 137.459 198.564 142.193 190.505" stroke="#263238" stroke-width="1.00396" stroke-miterlimit="10"/>
<path d="M136.652 241.648L153.05 253.484L157.3 245.952C157.3 245.952 160.238 243.639 160.668 241.896C161.098 240.153 160.55 237.323 160.991 235.58C161.432 233.836 163.627 232.201 163.832 227.983C164.036 223.765 163.832 220.247 163.832 220.247C163.832 220.247 167.382 205.645 166.995 199.297C166.608 192.948 160.485 181.726 155.579 181.478C150.672 181.231 144.291 181.973 139.342 189.462C134.392 196.951 135.404 218.815 134.629 220.182C133.854 221.549 134.93 228.295 134.93 228.295C134.5 228.616 134.143 229.024 133.884 229.494C133.624 229.963 133.467 230.483 133.424 231.017C133.338 232.771 135.231 237.086 135.231 237.086L136.652 241.648Z" fill="white" stroke="#263238" stroke-width="1.00396" stroke-miterlimit="10"/>
<g style="mix-blend-mode:multiply">
<path d="M135.059 214.564C135.093 216.442 134.952 218.319 134.64 220.17C133.951 221.397 134.736 226.938 134.909 228.068C144.132 230.933 153.885 231.669 163.433 230.22C163.638 229.472 163.761 228.703 163.799 227.928C164.014 223.721 163.799 220.192 163.799 220.192C163.799 220.192 164.111 218.89 164.542 216.91C154.653 217.539 144.724 216.749 135.059 214.564Z" fill="#92E3A9"/>
</g>
<g style="mix-blend-mode:multiply">
<path d="M138.675 190.656C137.136 193.744 136.275 198.382 135.78 203.084C145.548 206.812 156.08 208.094 166.457 206.818C166.871 204.329 167.055 201.808 167.006 199.286C166.819 197.292 166.348 195.335 165.607 193.475C156.546 193.687 147.495 192.739 138.675 190.656Z" fill="#92E3A9"/>
</g>
<path d="M135.231 237.203L136.619 241.647L153.018 253.483L157.268 245.951C157.268 245.951 160.205 243.638 160.636 241.894C160.713 241.591 160.759 241.281 160.776 240.969C152.134 240.82 143.548 239.554 135.231 237.203Z" fill="#263238"/>
<path d="M147.1 449.865C147.1 449.865 147.466 440.546 149.252 426.924C151.038 413.302 146.745 393.956 146.024 390.728C145.303 387.5 146.39 380.333 145.669 377.816C144.948 375.298 141.462 364.559 143.517 352.099C145.572 339.639 147.24 306.703 147.24 306.703C147.24 306.703 142.064 302.496 140.547 297.019C139.03 291.542 140.192 289.82 140.192 289.82" stroke="#263238" stroke-width="1.00396" stroke-miterlimit="10"/>
<path d="M149.499 290.326L147.509 301.344" stroke="#263238" stroke-width="1.00396" stroke-miterlimit="10"/>
</svg>
