<svg width="29" height="28" viewBox="0 0 29 28" fill="none" xmlns="http://www.w3.org/2000/svg">
<g clip-path="url(#clip0)">
<path d="M14.8648 15.2814C14.813 15.2701 14.7598 15.2681 14.7073 15.276C14.1815 15.2148 13.7847 14.7698 13.7838 14.2406C13.7838 13.9869 13.5782 13.7813 13.3246 13.7813C13.0709 13.7813 12.8653 13.9869 12.8653 14.2406C12.8666 15.1244 13.4578 15.8985 14.31 16.1324V16.5917C14.31 16.8453 14.5156 17.051 14.7692 17.051C15.0229 17.051 15.2285 16.8453 15.2285 16.5917V16.1602C16.2121 15.9544 16.8806 15.0383 16.7772 14.0387C16.6736 13.0392 15.8315 12.2797 14.8266 12.2794C14.2507 12.2794 13.7838 11.8125 13.7838 11.2366C13.7838 10.6607 14.2507 10.1938 14.8266 10.1938C15.4025 10.1938 15.8694 10.6607 15.8694 11.2366C15.8694 11.4903 16.0751 11.6959 16.3287 11.6959C16.5824 11.6959 16.788 11.4903 16.788 11.2366C16.7867 10.3086 16.1365 9.50827 15.2285 9.31675V8.89873C15.2285 8.6451 15.0229 8.43945 14.7692 8.43945C14.5156 8.43945 14.31 8.6451 14.31 8.89873V9.34478C13.3622 9.60358 12.7523 10.5237 12.8828 11.4974C13.0133 12.4712 13.8442 13.198 14.8266 13.1978C15.3949 13.1978 15.8585 13.6528 15.8688 14.2208C15.8793 14.7889 15.4326 15.2607 14.8648 15.2814Z" fill="#25AE71" stroke="#25AE71" stroke-width="0.25"/>
<path d="M8.16797 12.7738C8.16797 16.4521 11.1497 19.4338 14.828 19.4338C18.5063 19.4338 21.488 16.4521 21.488 12.7738C21.488 9.0955 18.5063 6.11377 14.828 6.11377C11.1515 6.11781 8.17223 9.0973 8.16797 12.7738ZM14.828 7.03233C17.999 7.03233 20.5695 9.60278 20.5695 12.7738C20.5695 15.9448 17.999 18.5152 14.828 18.5152C11.657 18.5152 9.08653 15.9448 9.08653 12.7738C9.09012 9.60435 11.6586 7.03592 14.828 7.03233Z" fill="#25AE71" stroke="#25AE71" stroke-width="0.25"/>
<path d="M23.7524 20.5662L20.1546 22.2661C19.6579 21.3422 18.705 20.7542 17.6564 20.7246L14.3351 20.6333C13.8092 20.6183 13.2932 20.485 12.8256 20.2435L12.4877 20.0684C10.7573 19.1664 8.69477 19.1686 6.96619 20.0742L6.98727 19.3086C6.99422 19.055 6.79441 18.8437 6.54077 18.8367L2.89882 18.7365C2.64518 18.7296 2.43416 18.9294 2.4272 19.183L2.20721 27.1751C2.20026 27.4288 2.40007 27.64 2.65371 27.647L6.29566 27.7472H6.30822C6.55714 27.7472 6.76077 27.5492 6.7675 27.3005L6.77804 26.9181L7.72418 26.4115C8.09555 26.2117 8.52972 26.1642 8.9354 26.279L14.5854 27.8647C14.5952 27.8676 14.6051 27.8699 14.6152 27.8721C15.0236 27.9576 15.4398 28.0004 15.8569 28.0002C16.7405 28.0006 17.6137 27.8102 18.4168 27.4415C18.4365 27.4326 18.4556 27.422 18.4738 27.4101L26.6657 22.1114C26.8698 21.9793 26.9357 21.7113 26.8162 21.4996C26.208 20.4205 24.8591 20.0094 23.7524 20.5662ZM3.1381 26.7414L3.33276 19.6674L6.05638 19.7423L5.86172 26.8165L3.1381 26.7414ZM18.0031 26.6212C17.0053 27.0715 15.891 27.1957 14.8186 26.9766L9.18388 25.395C8.54968 25.2158 7.87085 25.29 7.29069 25.6019L6.80719 25.861L6.93659 21.1576C8.46872 20.1386 10.4337 20.0338 12.0654 20.884L12.4033 21.0591C12.994 21.3641 13.6455 21.5323 14.31 21.5516L17.6315 21.6429C18.5644 21.6698 19.3567 22.3341 19.546 23.2481L14.5986 23.1116C14.345 23.1046 14.1339 23.3046 14.1268 23.5581C14.1198 23.8117 14.3198 24.0229 14.5733 24.0299L20.033 24.1801H20.0458C20.2945 24.1799 20.4979 23.9819 20.5047 23.7334C20.5103 23.5338 20.4955 23.334 20.4603 23.1376L24.1504 21.394C24.154 21.3924 24.1576 21.3906 24.1612 21.3888C24.6846 21.124 25.3175 21.2125 25.748 21.611L18.0031 26.6212Z" fill="#25AE71" stroke="#25AE71" stroke-width="0.25"/>
<path d="M15.2857 4.82245V0.459281C15.2857 0.205645 15.0801 0 14.8265 0C14.5728 0 14.3672 0.205645 14.3672 0.459281V4.82245C14.3672 5.07608 14.5728 5.28173 14.8265 5.28173C15.0801 5.28173 15.2857 5.07608 15.2857 4.82245Z" fill="#25AE71" stroke="#25AE71" stroke-width="0.25"/>
<path d="M18.7311 4.82243V2.75567C18.7311 2.50203 18.5254 2.29639 18.2718 2.29639C18.0181 2.29639 17.8125 2.50203 17.8125 2.75567V4.82243C17.8125 5.07607 18.0181 5.28171 18.2718 5.28171C18.5254 5.28171 18.7311 5.07607 18.7311 4.82243Z" fill="#25AE71" stroke="#25AE71" stroke-width="0.25"/>
<path d="M11.8424 4.82243V2.75567C11.8424 2.50203 11.6367 2.29639 11.3831 2.29639C11.1295 2.29639 10.9238 2.50203 10.9238 2.75567V4.82243C10.9238 5.07607 11.1295 5.28171 11.3831 5.28171C11.6367 5.28171 11.8424 5.07607 11.8424 4.82243Z" fill="#25AE71" stroke="#25AE71" stroke-width="0.25"/>
</g>
<defs>
<clipPath id="clip0">
<rect width="28" height="28" fill="white" transform="translate(0.5)"/>
</clipPath>
</defs>
</svg>
