<svg width="54" height="54" viewBox="0 0 54 54" fill="none" xmlns="http://www.w3.org/2000/svg">
<circle cx="27" cy="27" r="27" fill="url(#paint0_linear)"/>
<path d="M23.3183 33.1383C22.091 36.8203 17.1816 36.8203 17.1816 36.8203C17.1816 36.8203 17.1816 31.9109 20.8636 30.6836" stroke="white" stroke-width="2" stroke-linecap="round" stroke-linejoin="round"/>
<path d="M34.3642 24.5467L27.0002 31.9107L22.0908 27.0014L29.4548 19.6374C32.2433 16.8489 35.0317 16.8761 36.2209 17.0536C36.404 17.0809 36.5735 17.1662 36.7044 17.2971C36.8353 17.428 36.9207 17.5975 36.948 17.7806C37.1254 18.9698 37.1526 21.7583 34.3642 24.5467Z" stroke="white" stroke-width="2" stroke-linecap="round" stroke-linejoin="round"/>
<path d="M33.1367 25.7734V32.778C33.1367 32.8919 33.1142 33.0048 33.0706 33.1101C33.027 33.2154 32.9631 33.3111 32.8825 33.3916L29.374 36.9001C29.2629 37.0112 29.1238 37.0901 28.9714 37.1283C28.819 37.1665 28.6592 37.1626 28.5088 37.1171C28.3585 37.0716 28.2233 36.9861 28.1177 36.8698C28.0122 36.7535 27.9401 36.6107 27.9093 36.4567L27 31.9101" stroke="white" stroke-width="2" stroke-linecap="round" stroke-linejoin="round"/>
<path d="M28.2276 20.8652H21.223C21.1091 20.8652 20.9962 20.8877 20.8909 20.9313C20.7856 20.9749 20.69 21.0388 20.6094 21.1194L17.1009 24.6279C16.9898 24.739 16.911 24.8781 16.8727 25.0305C16.8345 25.1829 16.8384 25.3427 16.8839 25.4931C16.9294 25.6434 17.0149 25.7786 17.1312 25.8842C17.2475 25.9898 17.3903 26.0618 17.5443 26.0926L22.0909 27.0019" stroke="white" stroke-width="2" stroke-linecap="round" stroke-linejoin="round"/>
<defs>
<linearGradient id="paint0_linear" x1="0" y1="0" x2="54" y2="54" gradientUnits="userSpaceOnUse">
<stop stop-color="#50EAA5"/>
<stop offset="1" stop-color="#08CE76"/>
</linearGradient>
</defs>
</svg>
