<svg width="54" height="54" viewBox="0 0 54 54" fill="none" xmlns="http://www.w3.org/2000/svg">
<circle cx="27" cy="27" r="27" fill="url(#paint0_linear)"/>
<path d="M23.3183 33.1368C22.091 36.8188 17.1816 36.8188 17.1816 36.8188C17.1816 36.8188 17.1816 31.9095 20.8636 30.6821" stroke="white" stroke-width="2" stroke-linecap="round" stroke-linejoin="round"/>
<path d="M34.3642 24.5452L27.0002 31.9093L22.0908 26.9999L29.4548 19.6359C32.2433 16.8475 35.0317 16.8747 36.2209 17.0521C36.404 17.0794 36.5735 17.1648 36.7044 17.2957C36.8353 17.4266 36.9207 17.5961 36.948 17.7792C37.1254 18.9684 37.1526 21.7568 34.3642 24.5452Z" stroke="white" stroke-width="2" stroke-linecap="round" stroke-linejoin="round"/>
<path d="M33.1367 25.7725V32.777C33.1367 32.891 33.1142 33.0038 33.0706 33.1091C33.027 33.2144 32.9631 33.3101 32.8825 33.3907L29.374 36.8992C29.2629 37.0102 29.1238 37.0891 28.9714 37.1273C28.819 37.1655 28.6592 37.1616 28.5088 37.1161C28.3585 37.0706 28.2233 36.9851 28.1177 36.8688C28.0122 36.7525 27.9401 36.6097 27.9093 36.4557L27 31.9091" stroke="white" stroke-width="2" stroke-linecap="round" stroke-linejoin="round"/>
<path d="M28.2276 20.8633H21.223C21.1091 20.8633 20.9962 20.8857 20.8909 20.9293C20.7856 20.973 20.69 21.0369 20.6094 21.1175L17.1009 24.626C16.9898 24.737 16.911 24.8762 16.8727 25.0285C16.8345 25.1809 16.8384 25.3408 16.8839 25.4911C16.9294 25.6415 17.0149 25.7766 17.1312 25.8822C17.2475 25.9878 17.3903 26.0598 17.5443 26.0906L22.0909 27" stroke="white" stroke-width="2" stroke-linecap="round" stroke-linejoin="round"/>
<defs>
<linearGradient id="paint0_linear" x1="0" y1="0" x2="54" y2="54" gradientUnits="userSpaceOnUse">
<stop stop-color="#3F8EF7"/>
<stop offset="1" stop-color="#1A68D0"/>
</linearGradient>
</defs>
</svg>
