<svg width="521" height="346" viewBox="0 0 521 346" fill="none" xmlns="http://www.w3.org/2000/svg">
<path d="M435.512 189.573L420.531 225.074L473.402 247.214L488.382 211.713L435.512 189.573Z" fill="#EBEBEB"/>
<path d="M488.351 212.223C488.126 212.328 487.894 212.416 487.656 212.486L485.642 213.178L478.202 215.545L453.548 223.171L453.347 223.233L453.242 223.046L452.999 222.596L440.495 199.656C438.946 196.743 437.675 194.376 436.772 192.674C436.362 191.878 436.029 191.249 435.778 190.764C435.654 190.543 435.55 190.311 435.466 190.072C435.624 190.27 435.761 190.483 435.876 190.709L436.952 192.57C437.89 194.252 439.203 196.598 440.822 199.49C444.066 205.386 448.512 213.448 453.423 222.326L453.666 222.783L453.36 222.659L478.111 215.213L485.607 212.998L487.649 212.424C487.876 212.333 488.111 212.266 488.351 212.223V212.223Z" fill="#E0E0E0"/>
<path d="M420.524 225.593C420.455 225.469 426.484 222.265 433.987 218.445C441.489 214.625 447.623 211.629 447.692 211.76C447.762 211.892 441.725 215.089 434.223 218.908C426.72 222.728 420.587 225.711 420.524 225.593Z" fill="#E0E0E0"/>
<path d="M465.427 218.672C465.566 218.637 467.463 225.108 469.651 233.135C471.839 241.162 473.506 247.667 473.367 247.736C473.228 247.805 471.339 241.3 469.151 233.273C466.962 225.246 465.316 218.672 465.427 218.672Z" fill="#E0E0E0"/>
<path d="M96.5465 254.39L85.4072 280.787L124.727 297.252L135.866 270.855L96.5465 254.39Z" fill="#F5F5F5"/>
<path d="M135.857 271.265C135.693 271.35 135.521 271.418 135.343 271.466L133.849 271.957L128.292 273.722L109.946 279.41L109.793 279.459L109.716 279.32C109.661 279.21 109.598 279.099 109.529 278.981L100.262 261.923L97.4833 256.726L96.7469 255.308C96.655 255.146 96.576 254.977 96.5107 254.803C96.6297 254.948 96.7323 255.106 96.8164 255.273L97.6153 256.657C98.3099 257.903 99.2964 259.647 100.491 261.792L109.862 278.794C109.925 278.912 109.987 279.03 110.05 279.133L109.821 279.044L128.201 273.466L133.759 271.819L135.28 271.39C135.467 271.327 135.66 271.285 135.857 271.265V271.265Z" fill="#E0E0E0"/>
<path d="M85.4027 281.168C85.3541 281.071 89.8347 278.691 95.4129 275.847C100.991 273.002 105.59 270.781 105.59 270.878C105.59 270.975 101.158 273.348 95.5796 276.193C90.0014 279.037 85.4444 281.258 85.4027 281.168Z" fill="#E0E0E0"/>
<path d="M118.789 276.02C118.886 276.02 120.296 280.808 121.921 286.773C123.547 292.738 124.79 297.603 124.7 297.631C124.61 297.658 123.186 292.842 121.56 286.877C119.935 280.912 118.712 276.047 118.789 276.02Z" fill="#E0E0E0"/>
<path d="M78.4591 167.745L31.8262 186.156L49.7094 231.105L96.3422 212.694L78.4591 167.745Z" fill="#F5F5F5"/>
<path d="M51.7803 225.829L55.4828 197.609L71.9187 208.225L75.2044 197.845L91.1887 210.28L51.7803 225.829Z" fill="#E0E0E0"/>
<path d="M68.7726 187.174C69.0356 187.836 69.0957 188.56 68.9454 189.256C68.7951 189.952 68.4411 190.588 67.9281 191.083C67.4151 191.578 66.7661 191.911 66.0634 192.039C65.3606 192.167 64.6355 192.084 63.9798 191.802C63.3241 191.519 62.7673 191.049 62.3797 190.451C61.9921 189.853 61.7911 189.155 61.8022 188.443C61.8133 187.731 62.036 187.039 62.442 186.454C62.8481 185.868 63.4194 185.416 64.0836 185.153C64.5245 184.978 64.9959 184.892 65.4705 184.899C65.9451 184.906 66.4137 185.006 66.8494 185.194C67.285 185.381 67.6792 185.653 68.0092 185.993C68.3393 186.333 68.5987 186.734 68.7726 187.174Z" fill="#E0E0E0"/>
<g opacity="0.3">
<path opacity="0.3" d="M91.2376 210.403C91.2049 210.345 91.1771 210.285 91.1543 210.223C91.0987 210.085 91.0223 209.918 90.932 209.704L90.1053 207.683C89.4107 205.912 88.3478 203.338 87.021 200.071C84.3882 193.518 80.6301 184.155 76.1286 172.973L76.3926 173.09L37.005 188.674C36.9703 188.743 37.2551 188.093 37.137 188.37V188.404V188.446V188.522L37.1995 188.681L37.3246 189.006L37.5816 189.643L38.0887 190.923C38.4291 191.767 38.7834 192.618 39.096 193.456L41.0897 198.466L44.9381 208.154L51.9612 225.883L51.6972 225.772L80.2202 214.624L88.2784 211.496L90.4179 210.68L90.9737 210.472C91.0389 210.446 91.1063 210.425 91.1751 210.41L91.0084 210.486L90.4805 210.707L88.3965 211.559L80.4217 214.762L51.9126 226.146L51.718 226.229L51.6416 226.035C49.4534 220.561 47.0777 214.61 44.5699 208.32C43.3149 205.174 42.0275 201.944 40.7076 198.632C40.0546 196.978 39.3877 195.31 38.7208 193.629C38.3805 192.785 38.0262 191.94 37.7066 191.089L37.1995 189.809L36.9425 189.172L36.8175 188.854L36.7549 188.688V188.612V188.57C36.6368 188.84 36.9147 188.183 36.8939 188.252L76.3023 172.73L76.4968 172.654L76.5732 172.841L87.3197 200.141L90.2859 207.753L91.057 209.745C91.1334 209.96 91.196 210.126 91.2446 210.251C91.2473 210.301 91.2449 210.352 91.2376 210.403V210.403Z" fill="#E0E0E0"/>
</g>
<path d="M345.618 290.779L343.096 288.966C341.664 287.933 340.655 286.42 340.255 284.704L338.477 277.092C337.906 274.7 336.498 272.591 334.505 271.142C332.512 269.693 330.065 269.001 327.605 269.189L326.911 266.241C326.87 266.063 326.794 265.895 326.687 265.746C326.581 265.598 326.446 265.472 326.29 265.375C326.135 265.279 325.962 265.214 325.781 265.184C325.6 265.155 325.415 265.161 325.236 265.203V265.203C325.058 265.244 324.889 265.319 324.74 265.426C324.59 265.532 324.464 265.666 324.367 265.821C324.27 265.976 324.205 266.149 324.175 266.329C324.146 266.509 324.152 266.693 324.194 266.871L324.889 269.763C322.502 270.619 320.513 272.317 319.3 274.537C318.087 276.757 317.735 279.343 318.311 281.804L320.012 289.112C320.388 290.704 320.214 292.376 319.519 293.859L317.942 297.229L328.203 294.793C328.598 295.385 329.133 295.872 329.762 296.21C330.39 296.548 331.091 296.727 331.805 296.732C332.519 296.736 333.224 296.567 333.856 296.237C334.489 295.907 335.031 295.428 335.434 294.842C335.811 294.277 336.049 293.632 336.129 292.959L345.618 290.779Z" fill="#EBEBEB"/>
<path d="M351.578 83.1035L396.023 112.029L377.295 142.802L331.773 112.091L351.578 83.1035Z" fill="#F5F5F5"/>
<path d="M351.578 83.1025L383.755 80.0716C384.415 80.0089 385.077 80.1749 385.629 80.5418C386.181 80.9086 386.589 81.4537 386.784 82.0853L396.023 112.028" fill="url(#paint0_linear)"/>
<path d="M351.578 83.1025L383.755 80.0716C384.415 80.0089 385.077 80.1749 385.629 80.5418C386.181 80.9086 386.589 81.4537 386.784 82.0853L396.023 112.028" fill="#E0E0E0"/>
<path d="M331.773 112.106C331.773 112.016 337.859 110.507 345.417 108.736C352.975 106.964 359.143 105.58 359.143 105.67C359.143 105.76 353.058 107.262 345.507 109.04C337.956 110.819 331.794 112.182 331.773 112.106Z" fill="#E0E0E0"/>
<path d="M377.295 142.802C377.205 142.802 376.267 136.761 375.211 129.28C374.155 121.799 373.363 115.724 373.453 115.717C373.544 115.71 374.474 121.751 375.537 129.238C376.6 136.726 377.385 142.788 377.295 142.802Z" fill="#E0E0E0"/>
<path d="M351.578 83.1035L362.033 115.019L396.023 112.029L351.578 83.1035Z" fill="#E0E0E0"/>
<path d="M352.718 86.2097L361.818 72.4043L400.851 97.5585L391.64 112.326L362.186 114.782L352.718 86.2097Z" fill="#FAFAFA"/>
<path d="M352.718 86.21C352.718 86.21 352.787 86.3899 352.905 86.729L353.433 88.2375C353.885 89.58 354.538 91.5176 355.378 93.995C357.046 98.9705 359.435 106.098 362.325 114.755L362.172 114.651L391.626 112.16L391.487 112.243L396.961 103.462C398.225 101.441 399.471 99.4456 400.698 97.4757L400.754 97.7249L361.755 72.5153H361.915L355.177 82.6323C354.392 83.8018 353.788 84.7083 353.364 85.3311L352.884 86.0231C352.78 86.1823 352.718 86.2584 352.718 86.2584C352.718 86.2584 352.759 86.1754 352.857 86.0162C352.954 85.8571 353.107 85.6149 353.301 85.3242L355.052 82.6047L361.721 72.3977L361.783 72.3008L361.88 72.3631L400.948 97.4619L401.094 97.5588L401.004 97.711L397.267 103.697L391.793 112.423L391.744 112.499H391.654L362.2 114.928H362.082L362.047 114.817L355.212 93.9811C354.406 91.5038 353.774 89.5593 353.343 88.2168L352.864 86.7082C352.759 86.383 352.718 86.21 352.718 86.21Z" fill="#E0E0E0"/>
<path d="M390.111 100.437C390.056 100.521 384.068 96.7076 376.732 91.919C369.396 87.1303 363.492 83.1859 363.533 83.1029C363.575 83.0199 369.577 86.8328 376.913 91.6214C384.248 96.4101 390.167 100.341 390.111 100.437Z" fill="#E0E0E0"/>
<path d="M387.52 104.326C387.465 104.409 381.477 100.596 374.141 95.8076C366.806 91.019 360.901 87.0746 360.943 86.9916C360.984 86.9085 366.986 90.7214 374.329 95.5101C381.671 100.299 387.576 104.243 387.52 104.326Z" fill="#E0E0E0"/>
<path d="M384.533 108.805C384.485 108.888 378.49 105.075 371.154 100.293C363.818 95.5114 357.914 91.5531 357.955 91.4701C357.997 91.387 364.006 95.2 371.342 99.9886C378.677 104.777 384.589 108.722 384.533 108.805Z" fill="#E0E0E0"/>
<path d="M381.553 113.288C381.497 113.371 375.78 109.738 368.778 105.17C361.776 100.603 356.149 96.8665 356.205 96.7488C356.26 96.6312 361.977 100.299 368.979 104.866C375.982 109.433 381.608 113.205 381.553 113.288Z" fill="#E0E0E0"/>
<path d="M373.974 113.945C373.748 113.857 373.534 113.744 373.335 113.606L371.647 112.589L366.18 109.129C364.047 107.745 362.137 106.506 360.761 105.579C360.067 105.115 359.525 104.727 359.15 104.458C358.943 104.333 358.754 104.181 358.587 104.008C358.814 104.089 359.029 104.201 359.226 104.34L360.9 105.364L366.374 108.824C368.507 110.208 370.417 111.44 371.786 112.374C372.48 112.838 373.022 113.218 373.397 113.495C373.608 113.619 373.802 113.77 373.974 113.945V113.945Z" fill="#E0E0E0"/>
<path d="M366.472 114.43C365.441 113.963 364.463 113.388 363.554 112.714C362.576 112.14 361.663 111.463 360.831 110.693C361.862 111.16 362.84 111.736 363.749 112.41C364.727 112.983 365.64 113.661 366.472 114.43V114.43Z" fill="#E0E0E0"/>
<path d="M196.355 109.004L189.526 119.135L186.866 118.042L167.061 130.498L163.198 120.055C163.198 120.055 174.41 116.755 176.842 113.198C179.273 109.641 177.092 108.513 177.092 108.513L182.795 103.434L196.355 109.004Z" fill="#EBEBEB"/>
<path d="M191.812 86.1069C191.812 86.1069 183.934 83.3389 173.862 71.0974C163.789 58.856 160.177 43.7081 158.774 43.5974C157.37 43.4866 151.625 39.9644 137.037 63.6654C122.449 87.3664 126.305 93.7328 128.618 93.9611C130.931 94.1895 147.082 91.7121 156.717 93.9611C166.352 96.2101 178.301 102.798 178.301 102.798L191.812 86.1069Z" fill="#EBEBEB"/>
<path d="M207.323 102.784L203.933 107.683L202.419 109.877C201.415 111.328 199.891 112.34 198.16 112.705C196.43 113.069 194.625 112.758 193.117 111.835L176.501 103.746L189.359 81.9824L205.621 93.2482C207.111 94.2918 208.127 95.8801 208.446 97.6666C208.764 99.4531 208.361 101.293 207.323 102.784V102.784Z" fill="#E0E0E0"/>
<path d="M137.92 64.2461C130.125 77.0966 126.11 88.8952 128.937 90.6044C131.765 92.3137 140.393 83.2761 148.18 70.4257C155.967 57.5753 159.989 45.7697 157.162 44.0674C154.335 42.3651 145.707 51.3957 137.92 64.2461Z" fill="#E0E0E0"/>
<path d="M203.593 103.254C203.51 103.392 201.273 102.209 198.599 100.596C195.924 98.984 193.833 97.5654 193.916 97.427C194 97.2886 196.244 98.4719 198.911 100.077C201.579 101.683 203.683 103.108 203.593 103.254Z" fill="#EBEBEB"/>
<path d="M205.434 100.141C205.344 100.287 203.35 99.1378 200.932 97.5877C198.515 96.0377 196.667 94.6675 196.764 94.5222C196.862 94.3768 198.848 95.5256 201.266 97.0826C203.683 98.6396 205.524 100.003 205.434 100.141Z" fill="#EBEBEB"/>
<path d="M201.357 106.479C201.322 106.555 200.78 106.361 199.926 105.981C199.495 105.787 198.988 105.552 198.425 105.289C197.863 105.026 197.307 104.638 196.702 104.265C194.271 102.77 192.444 101.372 192.534 101.241C192.625 101.109 194.618 102.272 197.022 103.753C197.626 104.112 198.182 104.507 198.71 104.804C199.238 105.102 199.724 105.365 200.099 105.6C200.912 106.071 201.391 106.403 201.357 106.479Z" fill="#EBEBEB"/>
<path d="M150.841 62.7229C150.841 62.7229 144.325 57.5398 139.344 66.5427C134.363 75.5456 141.567 77.9884 141.567 77.9884C145.362 73.3588 148.484 68.2198 150.841 62.7229V62.7229Z" fill="#FAFAFA"/>
<path d="M159.67 52.3379C159.561 52.9423 159.396 53.5354 159.176 54.1094C158.815 55.2374 158.301 56.8774 157.607 58.8911C157.183 59.8669 156.724 60.9671 156.217 62.0882L155.446 63.8666C155.314 64.1711 155.182 64.4825 155.043 64.7939C154.904 65.1053 154.724 65.4098 154.564 65.7212C153.897 66.9622 153.202 68.2608 152.48 69.6171C152.299 69.9493 152.119 70.2884 151.938 70.6344C151.757 70.9804 151.521 71.3264 151.313 71.6309L150.049 73.6584L148.736 75.6791C148.52 76.0043 148.326 76.371 148.083 76.6548L147.388 77.5751L144.693 81.0767C144.47 81.3535 144.269 81.6372 144.047 81.9001L143.352 82.6475L142.039 84.0869L139.691 86.6611C138.149 88.1212 136.864 89.2699 135.989 90.0657C135.549 90.5001 135.072 90.896 134.564 91.2491C134.945 90.7544 135.366 90.2916 135.822 89.8651L139.392 86.322L141.671 83.7201L142.942 82.2738C143.164 82.0316 143.387 81.7756 143.637 81.5195C143.887 81.2635 144.054 80.9798 144.269 80.703L146.916 77.2014L147.61 76.2811C147.846 75.9766 148.034 75.6375 148.256 75.3123L149.548 73.2986L150.847 71.2918C151.049 70.9596 151.285 70.6482 151.466 70.3022L152.014 69.2919C152.709 67.9563 153.439 66.6692 154.098 65.4444C154.258 65.133 154.439 64.8354 154.585 64.5309C154.731 64.2265 154.863 63.9151 154.995 63.6106L155.787 61.8529L157.218 58.7043L158.968 54.0125C159.158 53.4369 159.392 52.877 159.67 52.3379V52.3379Z" fill="#E0E0E0"/>
<path d="M122.025 70.9864C122.025 71.0902 116.919 70.9172 110.626 70.6127C104.332 70.3082 99.2401 69.976 99.2471 69.8792C99.254 69.7823 104.353 69.9484 110.647 70.2528C116.94 70.5573 122.032 70.8895 122.025 70.9864Z" fill="#EBEBEB"/>
<path d="M126.992 56.1561C126.951 56.2461 121.032 53.3881 113.794 49.7205C106.555 46.0529 100.678 43.0497 100.727 42.9666C100.775 42.8836 106.687 45.7346 113.926 49.3953C121.164 53.056 127.041 56.0523 126.992 56.1561Z" fill="#EBEBEB"/>
<path d="M135.912 46.6003C135.814 46.6003 134.522 42.1576 133.05 36.6216C131.577 31.0856 130.445 26.5669 130.542 26.5392C130.639 26.5115 131.931 30.9887 133.404 36.5247C134.877 42.0607 136.009 46.5726 135.912 46.6003Z" fill="#EBEBEB"/>
<path d="M335.427 59.1675C334.902 57.5178 333.881 56.0684 332.502 55.0155C331.193 53.938 329.577 53.2967 327.883 53.1817C326.988 53.151 326.097 53.3 325.261 53.6198C324.426 53.9397 323.664 54.4237 323.02 55.0431C322.256 55.7903 321.686 56.712 321.36 57.7281C320.468 56.6607 319.257 55.9046 317.904 55.5698C316.551 55.235 315.126 55.339 313.836 55.8666C312.278 56.5426 310.973 57.6902 310.106 59.1467C309.149 60.594 308.664 62.3001 308.717 64.0322C308.83 66.234 309.653 68.3405 311.065 70.0388C312.65 71.7376 314.623 73.0312 316.817 73.8102C320.387 75.1942 325.069 76.8896 325.069 76.8896C325.069 76.8896 328.209 73.5888 331.106 71.0837C332.914 69.6172 334.344 67.7402 335.274 65.61C336.015 63.534 336.069 61.276 335.427 59.1675V59.1675Z" fill="#EBEBEB"/>
<path d="M304.264 40.8294C304.284 39.807 303.991 38.8028 303.423 37.9507C302.899 37.0927 302.116 36.4218 301.186 36.0338C300.69 35.8415 300.159 35.7515 299.627 35.7693C299.094 35.7872 298.571 35.9124 298.088 36.1376C297.507 36.4242 297.004 36.8469 296.623 37.3694C296.415 36.8439 296.092 36.3712 295.678 35.9854C295.292 35.6203 294.836 35.3375 294.336 35.1543C293.837 34.971 293.305 34.8912 292.774 34.9197C291.782 34.985 290.834 35.3576 290.065 35.9854C289.257 36.6185 288.663 37.4831 288.363 38.4627C288.003 39.7172 288.056 41.0538 288.516 42.2757C289.078 43.5305 289.936 44.6319 291.017 45.4865C292.746 46.9467 295.046 48.7943 295.046 48.7943C295.046 48.7943 297.435 47.5487 299.54 46.7183C300.836 46.2458 301.997 45.4669 302.923 44.4485C303.751 43.418 304.221 42.1483 304.264 40.8294V40.8294Z" fill="#EBEBEB"/>
<path d="M175.216 267.01C174.797 266.075 174.098 265.292 173.216 264.768C172.37 264.221 171.374 263.951 170.367 263.993C169.514 264.048 168.703 264.383 168.062 264.947C167.421 265.51 166.986 266.27 166.825 267.107C166.408 266.71 165.907 266.412 165.359 266.235C164.853 266.071 164.318 266.011 163.788 266.059C163.258 266.107 162.743 266.26 162.275 266.511C161.401 267.016 160.709 267.781 160.295 268.698C159.839 269.615 159.676 270.648 159.829 271.66C160.042 272.95 160.668 274.138 161.615 275.044C162.665 275.933 163.913 276.559 165.255 276.871C167.45 277.445 170.319 278.13 170.319 278.13C170.319 278.13 171.937 275.978 173.48 274.31C174.44 273.338 175.154 272.152 175.564 270.85C175.868 269.566 175.746 268.219 175.216 267.01V267.01Z" fill="#EBEBEB"/>
<path d="M448.533 134.061C448.492 132.842 448.355 131.627 448.123 130.428C447.821 129.03 447.311 127.684 446.608 126.436C444.95 123.436 442.295 121.105 439.1 119.842C435.904 118.579 432.367 118.464 429.096 119.516C427.738 119.936 426.454 120.564 425.289 121.377C424.687 121.791 424.112 122.241 423.566 122.726C423.028 123.242 422.525 123.792 422.059 124.373C420.099 126.811 418.975 129.81 418.85 132.93C418.725 136.051 419.606 139.129 421.364 141.715C421.787 142.332 422.251 142.919 422.754 143.473C423.261 144.002 423.801 144.499 424.372 144.96C425.472 145.855 426.702 146.578 428.019 147.106C430.464 148.101 433.13 148.428 435.744 148.054C438.021 147.732 440.189 146.878 442.072 145.562C443.635 144.485 444.974 143.117 446.018 141.535C446.818 140.347 447.432 139.045 447.838 137.674C448.164 136.496 448.396 135.296 448.533 134.082C448.533 134.082 448.533 134.165 448.533 134.324C448.533 134.483 448.533 134.746 448.491 135.016C448.474 135.402 448.428 135.786 448.352 136.165C448.274 136.687 448.157 137.203 448.005 137.708C447.618 139.108 447.019 140.441 446.226 141.66C445.068 143.456 443.54 144.986 441.744 146.151C439.948 147.315 437.924 148.086 435.806 148.413C433.123 148.811 430.381 148.486 427.866 147.472C426.507 146.935 425.238 146.195 424.101 145.279C423.516 144.804 422.959 144.296 422.434 143.756C421.933 143.184 421.469 142.581 421.045 141.95C419.223 139.29 418.307 136.117 418.432 132.899C418.557 129.681 419.717 126.588 421.739 124.076C422.22 123.477 422.74 122.911 423.295 122.38C423.86 121.881 424.456 121.419 425.081 120.996C426.282 120.163 427.606 119.52 429.006 119.093C431.589 118.275 434.346 118.165 436.987 118.775C439.077 119.261 441.038 120.184 442.741 121.483C444.444 122.782 445.85 124.428 446.865 126.311C447.563 127.586 448.057 128.961 448.331 130.387C448.444 130.902 448.518 131.425 448.553 131.951C448.605 132.334 448.621 132.721 448.602 133.106C448.602 133.397 448.602 133.632 448.602 133.798C448.602 133.964 448.547 134.061 448.533 134.061Z" fill="#E0E0E0"/>
<path d="M433.514 148.913C431.529 148.927 429.562 148.546 427.727 147.792C426.336 147.246 425.039 146.49 423.879 145.55C423.386 145.169 422.922 144.752 422.489 144.305L422.184 144.007L421.913 143.696C421.474 143.203 421.07 142.68 420.704 142.132C418.843 139.412 417.906 136.169 418.031 132.88C418.156 129.591 419.336 126.428 421.399 123.856C421.806 123.343 422.247 122.857 422.719 122.403L422.983 122.14L423.33 121.842C423.802 121.43 424.301 121.048 424.823 120.701C426.052 119.855 427.404 119.201 428.832 118.763C431.475 117.935 434.292 117.823 436.994 118.438C439.133 118.932 441.142 119.877 442.885 121.207C444.628 122.538 446.065 124.224 447.101 126.154C447.813 127.452 448.32 128.853 448.602 130.306C448.712 130.779 448.784 131.26 448.817 131.745V131.897C448.869 132.294 448.885 132.695 448.866 133.094V133.786C448.87 133.876 448.87 133.966 448.866 134.056V134.278L448.824 134.97C448.805 135.372 448.756 135.772 448.678 136.167V136.312C448.602 136.796 448.493 137.275 448.352 137.745C447.956 139.172 447.342 140.53 446.532 141.772C445.349 143.616 443.784 145.187 441.943 146.38C440.102 147.574 438.026 148.362 435.855 148.692C435.08 148.818 434.298 148.892 433.514 148.913ZM433.514 119.157C432.043 119.151 430.581 119.384 429.186 119.849C427.859 120.256 426.605 120.868 425.469 121.662C424.982 121.977 424.517 122.326 424.08 122.707L423.49 123.247C423.083 123.66 422.705 124.099 422.357 124.562C420.44 126.941 419.339 129.87 419.214 132.918C419.089 135.967 419.947 138.975 421.663 141.502C422.001 142.006 422.372 142.487 422.774 142.941L423.024 143.232L423.309 143.516C423.706 143.916 424.131 144.289 424.58 144.63C425.655 145.502 426.86 146.202 428.151 146.706C430.541 147.677 433.146 148 435.702 147.64C437.728 147.342 439.669 146.621 441.396 145.524C443.124 144.427 444.599 142.978 445.726 141.274C446.505 140.115 447.104 138.846 447.504 137.509C447.815 136.468 448.025 135.4 448.129 134.319C448.129 134.181 448.129 134.077 448.171 133.994C448.213 133.911 448.171 133.807 448.171 133.669C448.15 132.584 448.024 131.504 447.796 130.444C447.499 129.08 447 127.767 446.316 126.548C445.417 124.932 444.217 123.502 442.78 122.334C441.044 120.914 438.998 119.919 436.806 119.427C435.729 119.218 434.632 119.121 433.534 119.137L433.514 119.157Z" fill="#E0E0E0"/>
<path d="M443.399 144.732C443.49 144.649 446.63 147.874 450.409 151.943C454.188 156.012 457.175 159.375 457.077 159.465C456.98 159.555 453.847 156.323 450.068 152.254C446.289 148.185 443.309 144.822 443.399 144.732Z" fill="#E0E0E0"/>
<path d="M457.209 159.812H457.091C456.952 159.812 456.626 159.812 449.846 152.49C443.066 145.169 443.073 144.878 443.08 144.726V144.581L443.184 144.484C443.475 144.207 443.503 144.186 445.796 146.56C447.116 147.944 448.852 149.757 450.658 151.729C452.464 153.701 454.187 155.563 455.452 156.988C457.626 159.445 457.605 159.466 457.306 159.756L457.209 159.812Z" fill="#E0E0E0"/>
<path d="M104.256 114.777L101.366 115.933L91.5159 109.705L89.2026 103.947C89.2026 103.947 84.6178 105.463 88.1745 112.791C91.7312 120.119 90.3905 118.424 90.3905 118.424C90.3905 118.424 80.9083 122.251 80.4498 123.392C80.1164 124.216 83.6383 133.724 85.5904 138.859C86.5698 141.447 89.1123 143.204 91.7521 142.852C92.1212 142.808 92.4831 142.718 92.8288 142.582C95.1976 141.634 106.535 134.887 106.535 134.887L111.536 132.887L104.256 114.777Z" fill="#EBEBEB"/>
<path d="M111.912 109.891L118.066 130.325L113.106 132.304L105.333 112.977L111.912 109.891Z" fill="#EBEBEB"/>
<path d="M398.593 264.221L395.182 264.782L386.026 255.668L384.908 248.887C384.908 248.887 379.58 249.426 381.671 258.208C383.762 266.989 382.713 264.837 382.713 264.837C382.713 264.837 371.522 266.72 370.751 267.848C370.195 268.657 371.723 279.791 372.598 285.84C373.043 288.877 375.377 291.375 378.308 291.632C378.719 291.68 379.134 291.68 379.545 291.632C382.324 291.175 396.217 286.566 396.217 286.566L402.108 285.597L398.593 264.221Z" fill="#F5F5F5"/>
<path d="M408.054 260.754L409.805 284.344L403.962 285.306L400.19 262.525L408.054 260.754Z" fill="#F5F5F5"/>
<path d="M217.216 286.198C218.913 286.018 220.52 285.345 221.837 284.264C223.155 283.183 224.125 281.74 224.628 280.115C226.114 275.555 223.836 270.725 219.543 269.327C215.25 267.929 210.554 270.51 209.067 275.078C208.507 276.703 208.443 278.458 208.885 280.12C209.326 281.782 210.253 283.276 211.547 284.413C198.981 282.392 195.354 295.547 195.354 295.547L223.683 304.695C223.683 304.695 228.546 291.776 217.216 286.198Z" fill="#EBEBEB"/>
<path d="M402.066 161.672H122.699C98.8931 161.672 79.5947 180.896 79.5947 204.61V207.641C79.5947 231.356 98.8931 250.58 122.699 250.58H402.066C425.872 250.58 445.17 231.356 445.17 207.641V204.61C445.17 180.896 425.872 161.672 402.066 161.672Z" fill="url(#paint1_linear)"/>
<g opacity="0.3">
<path opacity="0.3" d="M402.066 161.672H122.699C98.8931 161.672 79.5947 180.896 79.5947 204.61V207.641C79.5947 231.356 98.8931 250.58 122.699 250.58H402.066C425.872 250.58 445.17 231.356 445.17 207.641V204.61C445.17 180.896 425.872 161.672 402.066 161.672Z" fill="black"/>
</g>
<path d="M400.545 154.393H124.22C99.5742 154.393 79.5947 174.295 79.5947 198.847C79.5947 223.398 99.5742 243.301 124.22 243.301H400.545C425.191 243.301 445.17 223.398 445.17 198.847C445.17 174.295 425.191 154.393 400.545 154.393Z" fill="url(#paint2_linear)"/>
<g opacity="0.3">
<path opacity="0.3" d="M345.673 154.393C345.673 154.393 343.666 154.434 342.651 154.393C339.178 154.393 332.926 154.393 332.926 154.393L328.438 162.62C329.474 164.8 330.821 167.229 333.19 167.714C334.383 167.87 335.596 167.718 336.712 167.271C339.524 166.409 342.154 165.042 344.471 163.236C345.915 162.216 346.991 160.76 347.542 159.084C347.979 157.375 347.271 155.14 345.673 154.393Z" fill="black"/>
</g>
<path d="M133.695 210.639L135.557 206.487C138.308 208.546 141.654 209.664 145.095 209.677C149.589 209.677 151.493 208.071 151.493 205.933C151.493 199.705 134.314 203.795 134.314 193.097C134.314 188.453 138.03 184.502 145.956 184.502C149.43 184.502 153.063 185.408 155.577 187.055L153.882 191.207C151.474 189.761 148.726 188.971 145.915 188.917C141.455 188.917 139.663 190.647 139.663 192.827C139.663 198.951 156.793 194.965 156.793 205.532C156.793 210.141 153.042 214.092 145.116 214.092C140.593 214.099 136.092 212.694 133.695 210.639Z" fill="white"/>
<path d="M182.954 191.719V213.683H178.043V210.915C177.163 211.923 176.068 212.722 174.839 213.256C173.61 213.79 172.277 214.045 170.937 214.001C165.282 214.001 161.44 210.915 161.44 204.313V191.719H166.602V203.566C166.602 207.552 168.505 209.448 171.763 209.448C175.355 209.448 177.793 207.226 177.793 202.825V191.719H182.954Z" fill="white"/>
<path d="M213.138 202.701C213.138 209.531 208.386 213.974 201.947 213.974C198.932 213.974 196.389 212.943 194.639 210.846V213.683H189.728V183.166H194.889V194.397C195.784 193.432 196.879 192.671 198.097 192.167C199.315 191.663 200.628 191.428 201.947 191.477C208.4 191.477 213.138 195.878 213.138 202.701ZM207.893 202.701C207.893 198.508 205.114 195.837 201.37 195.837C197.626 195.837 194.806 198.508 194.806 202.701C194.806 206.895 197.654 209.573 201.37 209.573C205.087 209.573 207.893 206.909 207.893 202.701Z" fill="white"/>
<path d="M215.534 211.503L217.514 207.593C219.823 209.008 222.479 209.762 225.19 209.773C228.455 209.773 229.817 208.873 229.817 207.351C229.817 203.157 216.194 207.102 216.194 198.355C216.194 194.203 219.952 191.49 225.919 191.49C228.851 191.49 232.171 192.182 234.179 193.379L232.199 197.289C230.285 196.17 228.097 195.6 225.878 195.642C222.745 195.642 221.258 196.666 221.258 198.106C221.258 202.548 234.881 198.604 234.881 207.199C234.881 211.309 231.081 213.987 224.891 213.987C221.189 213.973 217.514 212.901 215.534 211.503Z" fill="white"/>
<path d="M237.499 202.701C237.499 196.12 242.452 191.477 249.426 191.477C253.719 191.477 257.151 193.241 258.839 196.577L254.88 198.874C254.314 197.93 253.508 197.151 252.543 196.617C251.578 196.084 250.488 195.814 249.385 195.836C245.592 195.836 242.702 198.466 242.702 202.701C242.702 206.936 245.592 209.572 249.385 209.572C250.489 209.594 251.579 209.323 252.544 208.788C253.51 208.253 254.315 207.473 254.88 206.528L258.839 208.832C257.151 212.119 253.719 213.973 249.426 213.973C242.438 213.973 237.499 209.282 237.499 202.701Z" fill="white"/>
<path d="M276.06 191.477V196.369C275.667 196.291 275.267 196.249 274.865 196.244C270.94 196.244 268.461 198.549 268.461 203.033V213.683H263.278V191.719H268.197V194.93C269.704 192.625 272.385 191.477 276.06 191.477Z" fill="white"/>
<path d="M279.735 185.02C279.741 184.599 279.833 184.183 280.003 183.798C280.174 183.412 280.422 183.065 280.73 182.777C281.039 182.489 281.403 182.266 281.8 182.121C282.197 181.976 282.62 181.912 283.042 181.934C284.938 181.934 286.342 183.207 286.342 184.896C286.322 185.745 285.974 186.554 285.369 187.154C284.765 187.754 283.951 188.098 283.098 188.114C282.246 188.13 281.419 187.817 280.793 187.24C280.166 186.664 279.787 185.868 279.735 185.02V185.02ZM280.43 191.719H285.591V213.683H280.437L280.43 191.719Z" fill="white"/>
<path d="M315.781 202.701C315.781 209.531 311.03 213.974 304.59 213.974C301.575 213.974 299.033 212.943 297.282 210.846V213.683H292.371V183.166H297.532V194.397C298.428 193.432 299.522 192.671 300.74 192.167C301.959 191.663 303.272 191.428 304.59 191.477C311.03 191.477 315.781 195.878 315.781 202.701ZM310.537 202.701C310.537 198.508 307.758 195.837 304.014 195.837C300.269 195.837 297.449 198.508 297.449 202.701C297.449 206.895 300.297 209.573 304.014 209.573C307.73 209.573 310.516 206.909 310.516 202.701H310.537Z" fill="white"/>
<path d="M341.338 204.348H324.041C324.659 207.552 327.341 209.614 331.182 209.614C332.292 209.658 333.398 209.468 334.429 209.057C335.46 208.645 336.391 208.022 337.163 207.226L339.942 210.396C337.955 212.735 334.864 213.973 331.064 213.973C323.673 213.973 318.887 209.24 318.887 202.701C318.887 196.161 323.715 191.477 330.279 191.477C336.719 191.477 341.429 195.961 341.429 202.825C341.422 203.234 341.38 203.856 341.338 204.348ZM323.972 200.936H336.476C336.318 199.417 335.582 198.017 334.419 197.022C333.256 196.027 331.755 195.513 330.224 195.587C328.703 195.544 327.221 196.068 326.069 197.058C324.918 198.048 324.179 199.431 323.999 200.936H323.972Z" fill="white"/>
<path d="M345.423 210.763C345.425 210.334 345.515 209.909 345.686 209.515C345.857 209.12 346.107 208.764 346.419 208.468C346.732 208.172 347.102 207.942 347.506 207.792C347.91 207.642 348.34 207.575 348.771 207.594C349.197 207.579 349.621 207.65 350.018 207.803C350.415 207.956 350.776 208.188 351.081 208.484C351.386 208.78 351.627 209.135 351.79 209.527C351.953 209.919 352.034 210.339 352.029 210.763C352.035 211.19 351.954 211.613 351.792 212.007C351.63 212.401 351.39 212.759 351.085 213.059C350.781 213.359 350.42 213.594 350.022 213.752C349.624 213.909 349.199 213.985 348.771 213.974C348.338 213.99 347.905 213.919 347.5 213.765C347.095 213.61 346.725 213.377 346.413 213.077C346.1 212.777 345.852 212.418 345.682 212.021C345.511 211.623 345.423 211.196 345.423 210.763V210.763ZM345.715 184.896H351.828L350.806 204.141H346.708L345.715 184.896Z" fill="white"/>
<g opacity="0.3">
<path opacity="0.3" d="M186.733 163.271C185.684 160.704 184.01 156.095 181.822 154.393C181.822 154.393 167.811 154.628 167.741 154.393L174.25 177.616C176.334 179.27 177.39 181.554 178.064 183.713C178.738 185.872 179.294 188.19 180.843 189.816C182.392 191.442 185.462 191.892 186.81 190.1C188.331 188.072 186.678 185.256 186.629 182.73C186.581 180.204 188.185 177.976 188.838 175.533C189.957 171.443 188.331 167.181 186.733 163.271Z" fill="black"/>
</g>
<path d="M394.119 211.469L392.077 209.13C390.916 207.8 390.277 206.097 390.278 204.335V196.529C390.275 194.067 389.388 191.687 387.778 189.818C386.168 187.95 383.94 186.718 381.497 186.343V183.312C381.497 182.945 381.351 182.593 381.09 182.333C380.83 182.074 380.476 181.928 380.108 181.928C379.739 181.928 379.386 182.074 379.125 182.333C378.865 182.593 378.718 182.945 378.718 183.312V186.287C376.198 186.581 373.873 187.786 372.185 189.674C370.497 191.561 369.564 194.001 369.563 196.529V204.03C369.563 205.666 369.013 207.255 368 208.542L365.693 211.462H376.245C376.497 212.127 376.908 212.721 377.443 213.191C377.978 213.661 378.62 213.994 379.314 214.159C380.008 214.324 380.732 214.318 381.422 214.139C382.113 213.961 382.749 213.617 383.275 213.137C383.774 212.67 384.157 212.095 384.394 211.455L394.119 211.469Z" fill="white"/>
<path d="M292.135 82.6325C293.108 80.1759 294.087 77.6432 294.101 75.0205C294.115 72.3979 292.941 69.533 290.628 68.3981C288.474 67.3532 285.883 67.9552 283.612 67.2286C280.833 66.329 278.964 63.5956 277.644 60.8899C276.325 58.1842 275.248 55.2501 273.101 53.1879C271.661 51.8586 269.844 51.0049 267.898 50.7436C265.952 50.4822 263.972 50.826 262.23 51.7278C259.714 50.1016 256.795 49.2032 253.797 49.1328C250.052 49.1328 245.801 49.5619 243.272 52.316C241.313 54.4474 240.105 57.16 237.666 58.6893C234.304 60.8484 229.893 59.236 225.906 59.5059C225.093 59.5613 224.148 59.7965 223.822 60.5439C223.74 60.8852 223.731 61.24 223.797 61.5847C223.863 61.9295 224.002 62.2564 224.204 62.5438L227.49 68.8686C226.656 69.27 225.741 69.4785 224.815 69.4785C223.889 69.4785 222.975 69.27 222.141 68.8686C222.468 73.0881 224.27 77.0597 227.233 80.0929C226.538 79.6154 225.461 80.1621 225.149 80.9648C224.897 81.7997 224.936 82.6945 225.26 83.5044C226.037 86.0533 227.354 88.4064 229.123 90.4048C230.891 92.4032 233.069 94.0004 235.51 95.0886C237.951 96.1768 240.598 96.7306 243.272 96.7127C245.946 96.6948 248.585 96.1055 251.011 94.9847L273.067 95.9604C273.395 96.7971 273.922 97.5422 274.601 98.1326C275.281 98.723 276.094 99.141 276.971 99.3513C279.374 97.4621 279.749 96.431 279.749 96.431C281.305 97.5036 280.097 96.9777 281.305 97.5036C284.084 98.7146 288.058 97.0538 288.579 94.009C288.703 92.7709 289.186 91.5954 289.968 90.6251C290.815 89.7117 292.052 89.338 293.129 88.7498C294.858 87.7991 296.229 86.3122 297.033 84.5148C296.13 84.5556 295.229 84.4095 294.386 84.0855C293.543 83.7615 292.776 83.2667 292.135 82.6325V82.6325Z" fill="black"/>
<path d="M237.75 74.301C237.79 68.9971 239.832 63.9023 243.471 60.0301C247.11 56.1579 252.078 53.7918 257.388 53.4026L258.486 53.3264C270.337 53.1534 277.11 63.0767 276.957 74.8822L278.714 129.253L251.664 131.176L250.636 113.489C250.636 113.489 239.167 112.562 238.195 101.275C237.722 95.8429 237.674 84.5357 237.75 74.301Z" fill="#FFBE9D"/>
<path d="M243.432 82.8467C243.459 83.2676 243.65 83.6615 243.964 83.9446C244.278 84.2276 244.69 84.3774 245.113 84.3622C245.32 84.3622 245.525 84.3212 245.716 84.2417C245.907 84.1621 246.08 84.0456 246.226 83.8988C246.371 83.752 246.486 83.5779 246.563 83.3866C246.64 83.1953 246.679 82.9906 246.676 82.7844C246.651 82.3628 246.461 81.9678 246.146 81.6844C245.832 81.401 245.419 81.2518 244.995 81.2689C244.787 81.267 244.582 81.3066 244.39 81.3855C244.198 81.4644 244.024 81.5809 243.878 81.7281C243.732 81.8752 243.618 82.0501 243.541 82.2422C243.464 82.4344 243.427 82.64 243.432 82.8467V82.8467Z" fill="black"/>
<path d="M241.174 78.6253C241.389 78.826 242.563 77.8295 244.293 77.7049C246.022 77.5804 247.377 78.3554 247.551 78.134C247.641 78.0302 247.405 77.6634 246.821 77.3036C246.026 76.8391 245.107 76.629 244.189 76.7015C243.283 76.7646 242.422 77.1137 241.729 77.698C241.222 78.1478 241.049 78.5422 241.174 78.6253Z" fill="black"/>
<path d="M252.726 92.7285C252.726 92.6247 251.629 92.5209 249.857 92.424C249.406 92.424 248.982 92.3548 248.885 92.0572C248.811 91.6027 248.879 91.1367 249.079 90.7217C249.422 89.6145 249.779 88.4611 250.149 87.2617C251.622 82.3208 252.657 78.2657 252.456 78.2172C252.254 78.1688 250.899 82.1132 249.427 87.0541C249.075 88.272 248.737 89.4253 248.413 90.5141C248.174 91.0701 248.137 91.6916 248.308 92.2718C248.385 92.4238 248.496 92.5564 248.632 92.6596C248.768 92.7627 248.926 92.8336 249.093 92.8669C249.342 92.9186 249.597 92.9349 249.851 92.9153C251.629 92.9015 252.726 92.8323 252.726 92.7285Z" fill="black"/>
<path d="M240.639 74.447C241.035 74.8207 242.48 74.3155 244.251 74.191C246.023 74.0664 247.537 74.2463 247.85 73.8173C247.989 73.6028 247.732 73.2222 247.051 72.89C246.115 72.4801 245.088 72.3203 244.071 72.4264C243.057 72.4992 242.079 72.8356 241.237 73.4021C240.639 73.845 240.459 74.2671 240.639 74.447Z" fill="black"/>
<path d="M275.859 83.3722C276.047 83.2753 283.501 80.5073 283.799 88.2162C284.098 95.9251 276.255 94.6864 276.228 94.4442C276.2 94.202 275.859 83.3722 275.859 83.3722Z" fill="#FFBE9D"/>
<path d="M277.797 91.5107C277.832 91.5107 277.943 91.6007 278.172 91.6976C278.498 91.8249 278.861 91.8249 279.187 91.6976C279.992 91.3654 280.632 90.0368 280.611 88.6389C280.603 87.974 280.446 87.3191 280.152 86.7221C280.069 86.4834 279.929 86.2684 279.744 86.096C279.559 85.9235 279.334 85.7987 279.089 85.7325C278.933 85.7002 278.771 85.7225 278.629 85.7956C278.487 85.8687 278.375 85.9882 278.311 86.1339C278.214 86.3553 278.27 86.5076 278.228 86.5214C278.186 86.5352 278.054 86.3968 278.103 86.0785C278.138 85.885 278.239 85.7093 278.388 85.5803C278.596 85.4095 278.863 85.3274 279.131 85.3519C279.454 85.3994 279.758 85.5297 280.015 85.7298C280.272 85.93 280.473 86.1932 280.597 86.4937C280.955 87.1503 281.146 87.8847 281.152 88.632C281.152 90.1959 280.458 91.6837 279.319 92.0574C279.112 92.1272 278.892 92.1498 278.676 92.1234C278.459 92.0971 278.252 92.0225 278.068 91.9052C277.825 91.6976 277.776 91.5315 277.797 91.5107Z" fill="#EB996E"/>
<path d="M278.484 65.6858C277.888 63.4356 276.862 61.3211 275.463 59.4578C271.399 53.8318 262.118 51.2022 256.846 51.6728C251.573 52.1433 246.106 56.0324 241.195 57.9838C237.978 59.264 235.54 62.205 236.77 64.4817C234.864 65.2198 232.851 65.6451 230.809 65.7411C230.809 65.7411 230.622 68.6268 232.233 69.3949L237.305 72.7026C244.064 73.5953 255.929 66.966 258.214 64.883C260.336 62.9436 262.684 61.2661 265.209 59.8868C263.056 65.5128 270.072 64.2672 269.877 66.447C267.731 74.3565 274.212 77.2767 274.212 77.2767L274.372 84.1967C274.226 85.9683 274.99 87.3315 276.769 87.2139C276.769 87.2139 278.7 84.5704 279.026 82.4183C279.665 78.2663 279.255 69.8308 278.484 65.6858Z" fill="black"/>
<path d="M250.545 113.489C255.812 113.105 260.858 111.225 265.084 108.07C265.084 108.07 262.187 116.471 250.774 116.257L250.545 113.489Z" fill="#EB996E"/>
<path d="M259.805 81.8093C259.832 82.2302 260.022 82.6241 260.336 82.9072C260.65 83.1902 261.063 83.34 261.486 83.3248C261.693 83.3267 261.899 83.287 262.091 83.2081C262.283 83.1293 262.457 83.0128 262.603 82.8656C262.749 82.7184 262.863 82.5436 262.94 82.3514C263.016 82.1593 263.054 81.9537 263.049 81.747C263.022 81.326 262.831 80.9321 262.517 80.6491C262.203 80.3661 261.791 80.2163 261.368 80.2315C261.161 80.2315 260.956 80.2725 260.765 80.352C260.574 80.4315 260.401 80.5481 260.255 80.6949C260.11 80.8417 259.995 81.0158 259.918 81.2071C259.84 81.3984 259.802 81.6031 259.805 81.8093V81.8093Z" fill="black"/>
<path d="M257.902 77.7534C258.117 77.9748 259.486 77.1167 261.375 77.1859C263.265 77.2551 264.654 78.1824 264.848 77.9817C264.953 77.8848 264.737 77.4973 264.154 77.0752C263.332 76.5182 262.368 76.2061 261.375 76.1756C260.401 76.129 259.434 76.3697 258.596 76.8676C258.006 77.2828 257.798 77.6565 257.902 77.7534Z" fill="black"/>
<path d="M257.721 72.3078C257.888 72.7853 259.631 72.5708 261.681 72.8338C263.73 73.0967 265.383 73.6642 265.661 73.2421C265.786 73.0414 265.501 72.5916 264.834 72.1279C263.945 71.5624 262.938 71.2061 261.889 71.0862C260.841 70.9663 259.779 71.0859 258.784 71.4359C258.034 71.7127 257.651 72.0864 257.721 72.3078Z" fill="black"/>
<path d="M252.566 96.0776C254.03 95.5886 255.528 95.207 257.047 94.9358L258.152 94.5898C258.43 95.0844 258.596 95.6336 258.64 96.1989C258.683 96.7642 258.602 97.3322 258.402 97.863C258.168 98.2448 257.856 98.5729 257.486 98.8258C257.116 99.0786 256.697 99.2505 256.255 99.33C255.946 99.4111 255.622 99.4265 255.306 99.3753C254.99 99.324 254.689 99.2072 254.421 99.0325C254.421 99.0325 252.99 98.472 252.566 96.0776" fill="#EB996E"/>
<path d="M255.589 99.3372C256.186 99.2439 256.751 99.0063 257.235 98.6452C257.737 98.249 258.104 97.7074 258.284 97.0951C258.517 96.3493 258.517 95.5505 258.284 94.8046L258.243 94.68L258.451 94.7977C256.784 95.1644 255.276 95.4897 254.186 95.6904C253.601 95.8377 253.003 95.9258 252.4 95.9533C252.961 95.7318 253.539 95.5604 254.13 95.4412C255.207 95.1714 256.707 94.8184 258.375 94.4448L258.534 94.4102L258.583 94.5555L258.625 94.6939C258.889 95.5081 258.889 96.3847 258.625 97.1989C258.409 97.8666 257.983 98.4468 257.409 98.8528C257.025 99.1233 256.578 99.2901 256.11 99.3372C255.763 99.3995 255.582 99.358 255.589 99.3372Z" fill="black"/>
<path d="M290.933 89.3247C290.772 89.3127 290.615 89.2729 290.468 89.2071C290.037 89.0169 289.664 88.7188 289.384 88.3421C288.936 87.752 288.66 87.0505 288.585 86.3145C288.51 85.3513 288.55 84.3827 288.703 83.4289C288.903 82.3061 288.853 81.1534 288.557 80.0519C288.361 79.4606 287.997 78.9389 287.508 78.5503C286.975 78.1386 286.392 77.7967 285.772 77.533C285.098 77.2479 284.452 76.9028 283.84 76.5019C283.194 76.0485 282.692 75.4191 282.396 74.6889C281.763 73.2219 281.826 71.5749 281.472 70.0317C281.326 69.2675 281.012 68.5446 280.555 67.9142C280.1 67.3236 279.442 66.9217 278.707 66.7863C278.012 66.6202 277.22 66.5925 276.477 66.4472C275.722 66.3305 275.029 65.9622 274.511 65.4023C274.072 64.8402 273.77 64.1839 273.629 63.4854C273.462 62.828 273.365 62.1845 273.233 61.5824C273.106 61.0053 272.91 60.4455 272.649 59.9147C272.392 59.4352 272.08 58.987 271.719 58.5791C270.605 57.3366 269.097 56.5132 267.446 56.2471C266.835 56.1832 266.219 56.1693 265.605 56.2056C266.214 56.0564 266.846 56.0235 267.467 56.1087C269.178 56.3251 270.756 57.1392 271.92 58.4061C272.305 58.8254 272.636 59.2902 272.906 59.7901C273.189 60.3381 273.401 60.9194 273.539 61.5201C273.677 62.1291 273.782 62.7727 273.948 63.4024C274.084 64.0504 274.367 64.6588 274.775 65.1808C275.243 65.6883 275.875 66.0164 276.56 66.1081C277.255 66.2465 278.026 66.2673 278.797 66.4403C279.622 66.5895 280.364 67.0352 280.881 67.6928C281.37 68.3647 281.707 69.1344 281.868 69.9487C282.229 71.5611 282.173 73.1734 282.764 74.5505C283.033 75.2219 283.491 75.8012 284.084 76.2182C284.676 76.615 285.303 76.9556 285.959 77.2355C286.6 77.517 287.204 77.8748 287.758 78.3011C288.281 78.7357 288.669 79.3093 288.877 79.955C289.182 81.098 289.225 82.2948 289.002 83.4565C288.833 84.39 288.775 85.3399 288.828 86.2868C288.881 86.9939 289.12 87.6744 289.523 88.259C289.864 88.7579 290.359 89.1321 290.933 89.3247Z" fill="#455A64"/>
<path d="M228.42 61.7834C228.546 61.8396 228.663 61.9142 228.767 62.0048L229.74 62.6968C230.927 63.5133 232.213 64.176 233.567 64.669C235.565 65.4165 237.759 65.4605 239.785 64.7936C240.96 64.3846 241.992 63.6471 242.758 62.6692C243.539 61.5789 244.22 60.4209 244.793 59.2092C245.402 57.9403 246.254 56.8025 247.301 55.8599C248.285 55.0224 249.415 54.3726 250.635 53.943C252.705 53.2339 254.924 53.0718 257.075 53.4725C258.514 53.723 259.914 54.1555 261.243 54.7596C261.715 54.9672 262.07 55.1471 262.306 55.2786C262.431 55.3367 262.55 55.4087 262.66 55.4931C262.527 55.4607 262.399 55.4119 262.278 55.3478C262.028 55.2371 261.667 55.0779 261.187 54.8842C259.847 54.3407 258.448 53.9507 257.019 53.7216C254.924 53.3721 252.773 53.5554 250.767 54.2544C249.59 54.6778 248.5 55.3109 247.551 56.1228C246.555 57.0247 245.743 58.1104 245.161 59.3199C244.581 60.562 243.883 61.7461 243.077 62.856C242.258 63.8841 241.15 64.6473 239.896 65.0496C237.799 65.7301 235.529 65.6616 233.477 64.8559C232.115 64.3389 230.83 63.6406 229.656 62.7799C229.24 62.4754 228.962 62.2263 228.726 62.0879C228.613 61.9976 228.511 61.8956 228.42 61.7834Z" fill="#455A64"/>
<path d="M225.489 72.0581C225.53 72.0097 226.065 72.4802 227.024 73.0684C228.285 73.829 229.659 74.385 231.095 74.7154C232.532 75.0346 234.013 75.1211 235.478 74.9714C236.603 74.8538 237.284 74.66 237.305 74.7223C237.326 74.7846 237.145 74.8123 236.84 74.9161C236.406 75.0534 235.963 75.1553 235.513 75.2206C234.016 75.4534 232.489 75.4017 231.011 75.0683C229.536 74.7346 228.137 74.1291 226.885 73.283C226.509 73.0279 226.153 72.7432 225.822 72.4318C225.586 72.2104 225.468 72.0789 225.489 72.0581Z" fill="#455A64"/>
<path d="M232.019 78.5283C232.06 78.4314 233.241 78.9158 234.797 79.1649C236.353 79.414 237.576 79.3587 237.618 79.4625C235.713 79.8532 233.731 79.5199 232.06 78.5283H232.019Z" fill="#455A64"/>
<path d="M251.017 120.096L228.719 126.214L204.655 143.514L211.074 154.447L324.52 154.641C324.52 154.641 320.352 139.535 319.025 134.898C316.976 127.902 314.197 125.902 311.662 123.37C310.481 122.322 309.105 121.516 307.612 120.996C303.124 120.02 282.361 115.377 278.318 115.46C278.318 115.46 273.657 125.058 263.89 124.961C254.122 124.864 251.017 120.096 251.017 120.096Z" fill="#455A64"/>
<path d="M296.997 137.834C297.067 137.834 297.275 136.92 297.935 135.557C298.817 133.788 299.978 132.171 301.374 130.768C302.785 129.368 304.291 128.066 305.882 126.873C306.56 126.397 307.203 125.874 307.806 125.309C307.072 125.688 306.374 126.135 305.722 126.644C304.062 127.776 302.513 129.062 301.096 130.485C299.664 131.914 298.508 133.594 297.685 135.439C297.439 135.997 297.246 136.576 297.109 137.169C297.031 137.382 296.993 137.607 296.997 137.834V137.834Z" fill="black"/>
<path d="M229.239 149.833C229.339 149.055 229.365 148.269 229.316 147.487C229.316 146.033 229.219 144.027 229.052 141.826C228.885 139.626 228.656 137.619 228.448 136.186C228.38 135.404 228.236 134.63 228.017 133.875C228.003 134.66 228.052 135.444 228.163 136.221C228.295 137.792 228.461 139.722 228.642 141.854C228.823 143.985 228.92 145.923 229.024 147.494C229.033 148.278 229.105 149.06 229.239 149.833V149.833Z" fill="black"/>
<g opacity="0.3">
<path opacity="0.3" d="M222.558 152.712C224.391 152.165 226.26 151.473 227.622 150.138C228.983 148.802 229.706 146.678 228.9 144.92C230.253 147.777 232.406 150.185 235.1 151.852C237.794 153.519 240.914 154.375 244.085 154.317L217.174 154.656C218.88 153.787 220.689 153.134 222.558 152.712Z" fill="black"/>
</g>
<path d="M349.473 154.607C349.473 154.607 346.75 150.919 345.402 150.22C344.054 149.521 342.213 149.528 341.401 150.261L340.588 150.988C340.588 150.988 336.35 149.099 334.336 150.552C334.336 150.552 330.307 148.656 328.383 150.829C328.383 150.829 325.277 148.815 323.964 150.573C322.652 152.33 322.784 155.292 323.416 156.801C324.048 158.309 325.243 163.534 326.194 163.624C326.194 163.624 328.667 163.887 328.973 162.551C329.279 161.216 329.445 160.579 329.445 160.579C329.445 160.579 330.39 165.291 331.529 165.527C332.669 165.762 334.843 165.637 334.912 163.568C334.912 163.568 335.968 165.125 336.996 164.676C338.025 164.226 339.303 163.465 339.192 162.184C339.08 160.904 339.06 159.624 339.06 159.624C339.06 159.624 339.629 161.492 340.56 161.084C341.491 160.676 342.436 160.766 342.964 159.188C343.492 157.61 344.791 154.586 344.791 154.586L349.473 154.607Z" fill="#FFBE9D"/>
<path d="M339.129 159.541C339.02 159.091 338.885 158.648 338.726 158.213C338.438 157.147 338.393 156.031 338.595 154.946C338.796 153.861 339.24 152.835 339.893 151.943C340.393 151.251 340.796 150.891 340.755 150.843C340.713 150.795 340.247 151.092 339.664 151.763C338.908 152.652 338.398 153.723 338.185 154.869C337.972 156.014 338.062 157.196 338.448 158.296C338.569 158.76 338.803 159.188 339.129 159.541Z" fill="#EB996E"/>
<path d="M334.052 150.58C333.778 151.167 333.595 151.793 333.51 152.435C332.918 155.521 333.134 158.707 334.135 161.687C334.308 162.31 334.573 162.905 334.92 163.451C335.052 163.41 333.864 160.683 333.635 157.071C333.406 153.459 334.184 150.601 334.052 150.58Z" fill="#EB996E"/>
<path d="M328.265 150.891C327.963 152.536 327.942 154.221 328.202 155.873C328.329 157.542 328.733 159.179 329.397 160.717C329.515 160.717 328.918 158.537 328.612 155.825C328.306 153.112 328.383 150.898 328.265 150.891Z" fill="#EB996E"/>
<path d="M311.6 151.951C311.701 151.736 311.85 151.548 312.035 151.399C312.221 151.25 312.437 151.145 312.669 151.093C313.209 150.972 313.771 150.983 314.305 151.125C314.84 151.268 315.332 151.536 315.74 151.909C316.624 152.713 317.381 153.646 317.984 154.677L311.982 154.636C312.037 153.708 311.266 152.802 311.6 151.951Z" fill="#FFBE9D"/>
<path d="M159.495 156.219C159.679 154.391 160.281 152.63 161.255 151.07C162.229 149.51 163.55 148.194 165.115 147.223V147.223C166.362 146.492 167.753 146.04 169.192 145.898C170.631 145.756 172.085 145.927 173.451 146.399L185.031 150.413C185.656 151.105 204.767 143.742 204.767 143.742L211.178 154.662L174.653 154.607C176.661 156.889 178.789 159.062 181.03 161.118L183.51 169.325L183.267 176.751C181.954 177.353 179.995 175.062 179.995 175.062L178.849 177.138L179.231 179.152C179.231 179.152 182.607 187.317 182.489 189.137C182.489 189.275 182.461 189.412 182.407 189.538C182.353 189.665 182.275 189.78 182.176 189.876C182.077 189.973 181.959 190.048 181.83 190.098C181.702 190.148 181.564 190.172 181.426 190.168C180.941 190.194 180.459 190.077 180.041 189.831C179.624 189.584 179.288 189.22 179.078 188.784L174.278 179.491C174.278 179.491 170.561 178.591 169.262 177.373C167.963 176.155 166.025 173.83 166.025 173.83L163.663 173.498C163.382 173.539 163.095 173.483 162.85 173.339C162.229 173.033 161.689 172.585 161.274 172.032C160.858 171.479 160.58 170.836 160.461 170.156L159.259 163.928C158.967 162.516 159.196 159.222 159.495 156.219Z" fill="#FFBE9D"/>
<path d="M170.374 172.391C171.045 175.084 172.405 177.559 174.32 179.574C174.41 179.505 173.306 178.031 172.236 176.052C171.166 174.073 170.478 172.357 170.374 172.391Z" fill="#EB996E"/>
<path d="M164.802 171.713C164.677 171.761 165.115 172.723 165.865 173.734C166.263 174.387 166.776 174.964 167.38 175.436C167.083 174.734 166.677 174.082 166.178 173.505C165.769 172.871 165.309 172.272 164.802 171.713V171.713Z" fill="#EB996E"/>
<path d="M179.995 181.041C179.823 180.272 179.605 179.514 179.342 178.771C178.918 177.387 178.37 175.443 177.835 173.291C177.564 172.211 177.321 171.215 177.14 170.246C176.923 169.436 176.839 168.598 176.89 167.762C176.973 166.998 177.28 166.276 177.772 165.686C177.772 165.686 177.55 165.782 177.286 166.108C176.916 166.583 176.676 167.146 176.591 167.741C176.496 168.609 176.555 169.488 176.765 170.336C176.953 171.284 177.189 172.315 177.46 173.401C178.001 175.56 178.592 177.491 179.085 178.868C179.316 179.621 179.621 180.348 179.995 181.041Z" fill="#EB996E"/>
<path d="M177.487 167.244C177.439 167.286 177.835 167.735 178.293 168.559C178.889 169.623 179.242 170.804 179.328 172.019C179.317 172.715 179.376 173.41 179.502 174.095C179.64 174.672 179.945 175.196 180.377 175.604C180.732 175.998 181.178 176.3 181.676 176.482C181.718 176.427 181.204 176.102 180.579 175.417C180.217 175.028 179.965 174.55 179.849 174.033C179.748 173.364 179.704 172.688 179.717 172.012C179.63 170.737 179.221 169.504 178.529 168.427C178.273 167.962 177.917 167.558 177.487 167.244V167.244Z" fill="#EB996E"/>
<path d="M174.764 154.71C174.833 154.62 173.479 153.499 172.11 151.832C170.742 150.164 169.866 148.628 169.741 148.732C169.857 149.096 170.018 149.445 170.221 149.77C170.679 150.587 171.211 151.361 171.811 152.081C172.607 153.147 173.612 154.041 174.764 154.71V154.71Z" fill="#EB996E"/>
<g opacity="0.3">
<path opacity="0.3" d="M294.927 154.614L295.379 144.186L288.029 154.6L294.927 154.614Z" fill="black"/>
</g>
<path d="M294.92 154.608C294.859 152.549 294.915 150.488 295.087 148.435C295.142 146.376 295.316 144.322 295.608 142.283C295.678 144.342 295.624 146.403 295.448 148.456C295.398 150.515 295.222 152.57 294.92 154.608V154.608Z" fill="black"/>
<path d="M292.677 118.201C292.785 118.417 292.849 118.652 292.864 118.893C292.919 119.573 292.74 120.251 292.357 120.817C291.77 121.733 290.861 122.397 289.808 122.678C288.445 123.01 287.039 123.129 285.64 123.031C284.832 123.015 284.024 123.057 283.222 123.156C282.365 123.263 281.543 123.556 280.812 124.014C280.055 124.535 279.456 125.253 279.082 126.09C278.688 126.995 278.39 127.939 278.193 128.906C277.971 129.903 277.769 130.934 277.45 131.979C276.959 133.655 275.963 135.141 274.596 136.234C273.229 137.327 271.557 137.975 269.808 138.089C268.62 138.15 267.432 137.977 266.311 137.579C265.191 137.181 264.16 136.567 263.278 135.771C262.455 135.02 261.764 134.135 261.236 133.155C260.789 132.232 260.1 131.446 259.242 130.879C258.376 130.429 257.391 130.257 256.422 130.387C255.487 130.489 254.559 130.646 253.643 130.858C252.775 131.061 251.888 131.181 250.997 131.218C250.165 131.237 249.336 131.106 248.552 130.83C247.214 130.362 246.019 129.562 245.078 128.505C244.359 127.715 243.804 126.791 243.446 125.786C243.311 125.423 243.206 125.051 243.133 124.671C243.098 124.332 243.043 124.055 243.043 123.827V123.301C243.037 123.244 243.037 123.186 243.043 123.128C243.076 124.02 243.251 124.901 243.564 125.737C243.937 126.713 244.498 127.607 245.217 128.367C246.151 129.388 247.333 130.153 248.649 130.588C249.406 130.844 250.204 130.964 251.004 130.941C251.877 130.897 252.745 130.772 253.595 130.567C254.511 130.348 255.438 130.181 256.373 130.069C257.406 129.929 258.456 130.11 259.381 130.588C260.292 131.179 261.026 132.004 261.507 132.975C262.024 133.923 262.695 134.779 263.494 135.508C265.203 137.04 267.449 137.838 269.746 137.729C270.876 137.645 271.978 137.333 272.984 136.814C273.99 136.294 274.881 135.577 275.602 134.705C277.04 133.01 277.38 130.809 277.846 128.83C278.047 127.838 278.356 126.87 278.769 125.945C279.173 125.058 279.812 124.297 280.617 123.744C281.388 123.264 282.257 122.961 283.16 122.858C283.974 122.765 284.793 122.733 285.612 122.761C287.008 122.871 288.413 122.773 289.78 122.471C290.796 122.21 291.681 121.587 292.267 120.72C292.65 120.182 292.843 119.532 292.816 118.872C292.784 118.646 292.738 118.422 292.677 118.201V118.201Z" fill="white"/>
<path d="M258.895 153.86C258.829 153.71 258.78 153.552 258.749 153.39L258.367 152.006C257.929 150.326 257.226 148.726 256.283 147.266C255.963 146.796 255.593 146.362 255.179 145.972C254.726 145.557 254.219 145.205 253.671 144.927C252.436 144.352 251.07 144.114 249.712 144.235C248.194 144.369 246.691 144.631 245.217 145.017C243.613 145.443 241.959 145.657 240.299 145.653C238.592 145.683 236.936 145.067 235.666 143.93C234.58 142.776 233.932 141.281 233.832 139.702C233.73 138.318 233.763 136.928 233.929 135.55C234.064 134.363 234.095 133.165 234.019 131.973C233.977 131.113 233.763 130.27 233.391 129.493C233.019 128.716 232.496 128.021 231.852 127.447C231.352 127.058 230.781 126.769 230.171 126.596H230.296C230.421 126.608 230.544 126.634 230.664 126.672C231.127 126.809 231.56 127.029 231.942 127.322C232.623 127.894 233.181 128.597 233.582 129.389C233.983 130.181 234.219 131.046 234.276 131.931C234.37 133.139 234.354 134.352 234.228 135.557C234.077 136.92 234.056 138.294 234.165 139.661C234.175 140.444 234.346 141.218 234.668 141.934C234.989 142.649 235.454 143.292 236.033 143.822C236.613 144.352 237.295 144.758 238.039 145.016C238.782 145.274 239.57 145.378 240.355 145.321C241.996 145.329 243.631 145.119 245.217 144.698C246.709 144.313 248.232 144.056 249.767 143.93C251.184 143.819 252.605 144.081 253.887 144.691C254.457 144.989 254.983 145.364 255.45 145.806C255.871 146.227 256.248 146.691 256.575 147.19C257.503 148.682 258.173 150.32 258.555 152.034C258.708 152.629 258.805 153.099 258.868 153.418C258.89 153.564 258.9 153.712 258.895 153.86V153.86Z" fill="white"/>
<path d="M295.775 145.024C294.807 144.534 293.789 144.146 292.739 143.869C291.603 143.599 290.43 143.513 289.266 143.613C287.839 143.738 286.455 144.16 285.202 144.851C283.947 145.55 282.844 146.491 281.958 147.619C281.23 148.532 280.668 149.565 280.298 150.671C280.036 151.411 279.983 152.208 280.145 152.975C280.227 153.251 280.326 153.522 280.444 153.785C280.444 153.785 280.381 153.73 280.291 153.612C280.171 153.424 280.075 153.222 280.006 153.01C279.787 152.22 279.801 151.384 280.048 150.602C280.398 149.45 280.956 148.371 281.694 147.419C282.595 146.247 283.728 145.272 285.022 144.554C286.32 143.837 287.758 143.407 289.238 143.294C290.439 143.206 291.646 143.321 292.809 143.633C293.591 143.844 294.344 144.148 295.053 144.54C295.303 144.678 295.483 144.803 295.608 144.886C295.733 144.969 295.782 145.01 295.775 145.024Z" fill="white"/>
<path d="M303.263 126.353C303.228 126.353 303.013 126.07 302.839 125.495C302.625 124.746 302.592 123.956 302.742 123.191C302.893 122.423 303.221 121.7 303.701 121.08C304.076 120.617 304.395 120.388 304.395 120.444C303.731 121.259 303.278 122.224 303.077 123.255C302.876 124.286 302.933 125.35 303.242 126.353H303.263Z" fill="white"/>
<path d="M320.241 140.069C320.229 140.173 320.204 140.276 320.165 140.373C320.082 140.658 319.975 140.936 319.845 141.204C319.366 142.197 318.687 143.083 317.851 143.805C316.607 144.891 315.071 145.591 313.433 145.819C311.558 146.096 309.55 145.501 307.536 145.003C306.559 144.736 305.554 144.583 304.542 144.546C303.598 144.532 302.658 144.677 301.763 144.975C300.252 145.486 298.895 146.369 297.817 147.542C297.085 148.33 296.499 149.242 296.088 150.234C295.796 150.926 295.719 151.362 295.678 151.355C295.673 151.25 295.687 151.144 295.719 151.044C295.777 150.752 295.856 150.466 295.956 150.186C296.327 149.15 296.893 148.194 297.623 147.369C298.714 146.137 300.103 145.203 301.659 144.657C302.581 144.337 303.552 144.18 304.528 144.193C305.565 144.231 306.595 144.384 307.598 144.65C309.634 145.155 311.586 145.743 313.371 145.487C314.953 145.284 316.442 144.633 317.664 143.612C318.494 142.924 319.184 142.086 319.699 141.141C320.109 140.477 320.241 140.055 320.241 140.069Z" fill="white"/>
<path d="M227.364 152.712C227.283 152.722 227.201 152.722 227.121 152.712C226.89 152.734 226.657 152.734 226.426 152.712C225.558 152.656 224.71 152.436 223.925 152.062C222.751 151.508 221.745 150.656 221.008 149.591C220.578 148.956 220.257 148.255 220.056 147.515C219.868 146.729 219.731 145.932 219.646 145.128C219.459 143.509 219.195 141.931 218.257 140.872C217.41 139.965 216.278 139.374 215.047 139.197C214.214 139.051 213.371 138.966 212.526 138.941C212.21 138.946 211.894 138.927 211.581 138.886C211.891 138.819 212.209 138.791 212.526 138.803C213.385 138.77 214.246 138.819 215.096 138.948C216.399 139.102 217.606 139.707 218.507 140.657C219.003 141.253 219.361 141.95 219.556 142.699C219.758 143.48 219.9 144.276 219.98 145.079C220.064 145.866 220.196 146.647 220.376 147.418C220.559 148.123 220.859 148.792 221.265 149.397C221.967 150.431 222.923 151.267 224.043 151.826C225.079 152.34 226.209 152.641 227.364 152.712V152.712Z" fill="white"/>
<path d="M256.158 270.42C257.205 272.357 257.89 274.467 258.18 276.648H261.889L277.54 276.378L277.422 276.655C277.422 276.655 279.978 264.697 280.444 261.14C280.826 258.206 282.646 251.189 280.444 248.089C280.046 247.544 279.488 247.136 278.846 246.923C278.205 246.709 277.513 246.701 276.866 246.899C276.414 247.028 276.007 247.279 275.689 247.625C275.372 247.971 275.156 248.397 275.067 248.857C275.067 248.857 274.879 244.705 271.892 244.65C268.905 244.594 268.801 246.912 268.801 246.912C268.801 246.912 267.981 242.172 264.633 242.214C263.991 242.273 263.381 242.526 262.885 242.937C262.389 243.348 262.03 243.899 261.855 244.518V235.522C261.857 234.644 261.523 233.798 260.922 233.155C260.321 232.513 259.497 232.122 258.617 232.062C258.17 232.048 257.725 232.123 257.307 232.283C256.89 232.442 256.508 232.683 256.185 232.991C255.861 233.299 255.603 233.668 255.424 234.076C255.245 234.485 255.15 234.924 255.144 235.37L254.943 256.185L249.865 249.694C248.538 248.013 245.37 248.843 245.002 250.289C245.002 250.289 244.085 252.192 245.981 254.995C247.301 257.092 256.158 270.42 256.158 270.42Z" fill="#EBEBEB"/>
<path d="M256.159 270.42C256.159 270.42 256.068 270.309 255.915 270.087L255.221 269.091L252.616 265.223L248.496 259.078L245.926 255.23C245.423 254.535 245.041 253.761 244.794 252.94C244.502 252.061 244.502 251.113 244.794 250.234V250.234C245.001 249.712 245.401 249.289 245.912 249.051C246.422 248.794 246.981 248.653 247.552 248.635C248.143 248.601 248.732 248.738 249.247 249.03C249.375 249.109 249.498 249.197 249.615 249.293C249.726 249.397 249.83 249.514 249.927 249.625L250.469 250.317L255.005 256.095L254.734 256.185C254.804 250.372 254.88 243.999 254.957 237.217V235.944C254.939 235.504 254.97 235.063 255.047 234.629C255.249 233.729 255.794 232.942 256.568 232.436C256.958 232.183 257.396 232.011 257.854 231.93C258.312 231.849 258.781 231.861 259.235 231.964C259.689 232.067 260.117 232.26 260.494 232.531C260.871 232.803 261.19 233.147 261.431 233.543C261.683 233.942 261.855 234.387 261.938 234.851C262.003 235.309 262.026 235.772 262.008 236.235V244.49L261.653 244.442C261.898 243.612 262.446 242.904 263.189 242.456C263.505 242.274 263.847 242.141 264.203 242.061C264.385 242.02 264.572 242.006 264.759 242.02C264.94 242.03 265.121 242.051 265.3 242.082C266.011 242.237 266.657 242.607 267.148 243.141C268.052 244.2 268.654 245.481 268.892 246.85H268.538C268.581 246.39 268.747 245.95 269.018 245.576C269.289 245.201 269.655 244.905 270.08 244.719C270.492 244.545 270.932 244.446 271.379 244.428C271.61 244.405 271.842 244.405 272.073 244.428L272.407 244.47L272.726 244.567C273.142 244.719 273.522 244.955 273.841 245.261C274.161 245.568 274.413 245.937 274.581 246.345C274.931 247.116 275.14 247.943 275.199 248.788L274.852 248.753C274.946 248.308 275.148 247.892 275.441 247.544C275.734 247.195 276.109 246.923 276.533 246.753C277.372 246.428 278.307 246.448 279.131 246.809C279.538 246.981 279.907 247.233 280.215 247.549C280.493 247.872 280.727 248.23 280.91 248.615C281.241 249.383 281.454 250.198 281.542 251.03C281.84 254.317 281.132 257.438 280.653 260.393C280.173 263.347 279.638 266.226 279.103 268.932C278.568 271.638 278.006 274.198 277.499 276.62L277.249 276.544L277.36 276.267L277.485 276.447L261.834 276.675L261.917 276.585V276.675H261.89H258.159H258.097V276.613C257.884 275.011 257.463 273.443 256.846 271.949C256.638 271.437 256.457 271.056 256.325 270.8C256.193 270.544 256.145 270.413 256.145 270.413C256.437 270.897 256.695 271.401 256.916 271.921C257.566 273.414 258.01 274.988 258.236 276.599L258.166 276.537H261.896L261.806 276.627V276.544H261.89L277.533 276.226H277.735L277.658 276.412L277.547 276.689L277.297 276.613C277.793 274.191 278.316 271.626 278.867 268.918C279.395 266.212 279.979 263.382 280.389 260.393C280.798 257.403 281.556 254.317 281.257 251.113C281.174 250.319 280.97 249.542 280.653 248.808C280.468 248.452 280.235 248.124 279.958 247.833C279.682 247.545 279.354 247.31 278.992 247.141C278.25 246.823 277.412 246.808 276.658 247.099C276.283 247.244 275.952 247.481 275.694 247.789C275.437 248.096 275.262 248.464 275.185 248.857L274.935 250.054L274.838 248.822C274.78 248.026 274.582 247.246 274.255 246.518C274.105 246.153 273.882 245.823 273.599 245.548C273.315 245.273 272.978 245.059 272.608 244.919C271.829 244.705 271.001 244.754 270.253 245.058C269.89 245.217 269.576 245.47 269.343 245.789C269.11 246.109 268.966 246.485 268.927 246.878L268.815 248.047L268.565 246.899C268.335 245.6 267.765 244.385 266.912 243.376C266.493 242.879 265.913 242.545 265.271 242.431C264.63 242.317 263.969 242.431 263.404 242.753C262.732 243.151 262.236 243.786 262.015 244.532L261.66 245.625V236.221C261.681 235.782 261.662 235.342 261.605 234.906C261.524 234.487 261.366 234.085 261.139 233.723C260.917 233.364 260.626 233.052 260.283 232.805C259.939 232.558 259.551 232.381 259.139 232.284C258.317 232.11 257.461 232.267 256.755 232.719C256.048 233.171 255.55 233.882 255.367 234.699C255.292 235.107 255.264 235.523 255.283 235.937V237.217C255.193 243.992 255.103 250.365 255.019 256.185V256.621L254.755 256.275L250.275 250.504C249.977 250.029 249.59 249.616 249.135 249.286C248.664 249.021 248.127 248.894 247.586 248.919C247.058 248.938 246.54 249.068 246.065 249.3C245.608 249.506 245.25 249.881 245.065 250.345V250.345C244.794 251.167 244.794 252.055 245.065 252.877C245.302 253.675 245.67 254.428 246.155 255.106L248.705 258.967L252.769 265.147L255.318 269.049C255.603 269.492 255.818 269.831 255.978 270.067C256.138 270.302 256.159 270.42 256.159 270.42Z" fill="black"/>
<path d="M277.763 276.377H258.166C256.677 276.377 255.471 277.579 255.471 279.062V279.256C255.471 280.739 256.677 281.941 258.166 281.941H277.763C279.251 281.941 280.458 280.739 280.458 279.256V279.062C280.458 277.579 279.251 276.377 277.763 276.377Z" fill="#EBEBEB"/>
<path d="M277.77 281.94C277.77 281.94 277.964 281.94 278.325 281.843C278.859 281.714 279.343 281.43 279.715 281.027C279.971 280.741 280.163 280.403 280.277 280.037C280.399 279.586 280.425 279.115 280.354 278.653C280.265 278.108 280.004 277.605 279.607 277.219C279.211 276.833 278.701 276.584 278.152 276.508H258.194C257.742 276.512 257.298 276.635 256.909 276.864C256.52 277.094 256.199 277.422 255.978 277.816C255.774 278.207 255.669 278.641 255.672 279.082C255.646 279.726 255.867 280.356 256.29 280.843C256.713 281.33 257.307 281.638 257.951 281.705C258.805 281.705 259.694 281.705 260.528 281.705L269.51 281.746L275.568 281.802L277.214 281.836C277.407 281.829 277.6 281.84 277.79 281.871C277.6 281.902 277.407 281.913 277.214 281.905H275.568L269.51 281.961L260.528 282.002C259.681 282.002 258.833 282.002 257.916 282.002C257.436 281.955 256.976 281.789 256.577 281.519C256.178 281.25 255.853 280.886 255.631 280.459C255.39 280.012 255.269 279.511 255.279 279.004C255.289 278.497 255.429 278.001 255.686 277.564C255.943 277.126 256.309 276.762 256.748 276.506C257.187 276.249 257.685 276.109 258.194 276.1C266.002 276.1 273.039 276.1 278.186 276.19C278.785 276.274 279.339 276.551 279.766 276.978C280.192 277.406 280.467 277.959 280.548 278.556C280.615 279.036 280.579 279.524 280.444 279.989C280.313 280.377 280.097 280.731 279.812 281.027C279.427 281.436 278.921 281.712 278.367 281.816C278.176 281.889 277.974 281.931 277.77 281.94V281.94Z" fill="black"/>
<path d="M261.744 252.122C261.503 249.44 261.503 246.742 261.744 244.061C261.985 246.742 261.985 249.44 261.744 252.122V252.122Z" fill="black"/>
<path d="M268.711 251.575C268.47 249.985 268.47 248.369 268.711 246.779C268.952 248.369 268.952 249.985 268.711 251.575Z" fill="black"/>
<path d="M275.088 253.595C274.838 252.004 274.838 250.384 275.088 248.793C275.329 250.385 275.329 252.004 275.088 253.595V253.595Z" fill="black"/>
<path d="M253.748 231.723C252.428 231.253 251.149 230.672 249.927 229.986C248.649 229.401 247.424 228.706 246.267 227.91C248.864 228.965 251.367 230.239 253.748 231.716V231.723Z" fill="black"/>
<path d="M257.138 229.819C256.685 228.086 256.348 226.324 256.131 224.546C255.791 222.785 255.571 221.002 255.471 219.211C255.932 220.945 256.271 222.71 256.485 224.491C256.82 226.251 257.039 228.031 257.138 229.819V229.819Z" fill="black"/>
<path d="M261.354 230.303C262.043 229.02 262.833 227.794 263.716 226.636C264.504 225.412 265.391 224.254 266.37 223.176C264.901 225.689 263.223 228.076 261.354 230.31V230.303Z" fill="black"/>
<defs>
<linearGradient id="paint0_linear" x1="351.578" y1="80.0586" x2="381.888" y2="122.196" gradientUnits="userSpaceOnUse">
<stop stop-color="#50EAA5"/>
<stop offset="1" stop-color="#08CE76"/>
</linearGradient>
<linearGradient id="paint1_linear" x1="79.5947" y1="161.672" x2="120.425" y2="329.558" gradientUnits="userSpaceOnUse">
<stop stop-color="#50EAA5"/>
<stop offset="1" stop-color="#08CE76"/>
</linearGradient>
<linearGradient id="paint2_linear" x1="79.5947" y1="154.393" x2="120.425" y2="322.279" gradientUnits="userSpaceOnUse">
<stop stop-color="#50EAA5"/>
<stop offset="1" stop-color="#08CE76"/>
</linearGradient>
</defs>
</svg>
