<svg width="54" height="54" viewBox="0 0 54 54" fill="none" xmlns="http://www.w3.org/2000/svg">
<circle cx="27" cy="27" r="27" fill="url(#paint0_linear)"/>
<path d="M17.4531 24.6858V18.3215C17.4531 18.0913 17.5446 17.8706 17.7073 17.7078C17.8701 17.545 18.0908 17.4536 18.321 17.4536H35.6781C35.9083 17.4536 36.129 17.545 36.2918 17.7078C36.4545 17.8706 36.546 18.0913 36.546 18.3215V24.6858C36.546 33.7999 28.8106 36.8195 27.266 37.3316C27.0933 37.391 26.9058 37.391 26.7331 37.3316C25.1886 36.8195 17.4531 33.7999 17.4531 24.6858Z" stroke="white" stroke-width="2" stroke-linecap="round" stroke-linejoin="round"/>
<path d="M31.773 23.5283L25.4087 29.6033L22.2266 26.5658" stroke="white" stroke-width="2" stroke-linecap="round" stroke-linejoin="round"/>
<defs>
<linearGradient id="paint0_linear" x1="0" y1="0" x2="54" y2="54" gradientUnits="userSpaceOnUse">
<stop stop-color="#3F8EF7"/>
<stop offset="1" stop-color="#1A68D0"/>
</linearGradient>
</defs>
</svg>
