<svg width="20" height="20" viewBox="0 0 20 20" fill="none" xmlns="http://www.w3.org/2000/svg">
<path d="M10 10L17.5 2.5" stroke="#43D795" stroke-width="1.5" stroke-linecap="round" stroke-linejoin="round"/>
<path d="M15.3031 4.69664C13.9745 3.37071 12.1967 2.59173 10.3213 2.51379C8.44593 2.43586 6.60961 3.06465 5.17563 4.27578C3.74165 5.4869 2.81448 7.19213 2.57754 9.05412C2.3406 10.9161 2.81115 12.7992 3.8961 14.3309C4.98105 15.8625 6.60137 16.9312 8.4365 17.3254C10.2716 17.7196 12.1879 17.4107 13.8062 16.4598C15.4244 15.5089 16.6269 13.9852 17.1755 12.1902C17.7242 10.3952 17.5792 8.45958 16.7692 6.76638" stroke="#ff0000" stroke-width="1.5" stroke-linecap="round" stroke-linejoin="round"/>
<path d="M12.6514 7.34827C12.0315 6.72832 11.2139 6.34521 10.3407 6.26553C9.46761 6.18584 8.59416 6.41461 7.87221 6.91208C7.15025 7.40956 6.62543 8.14427 6.38897 8.98854C6.1525 9.8328 6.21933 10.7332 6.57786 11.5333C6.93638 12.3334 7.56392 12.9826 8.35141 13.368C9.1389 13.7535 10.0366 13.8508 10.8883 13.6431C11.7401 13.4353 12.4922 12.9357 13.0139 12.231C13.5355 11.5264 13.7938 10.6612 13.7437 9.78584" stroke="#ff0000" stroke-width="1.5" stroke-linecap="round" stroke-linejoin="round"/>
</svg>
