<svg width="1428" height="208" viewBox="0 0 1428 208" fill="none" xmlns="http://www.w3.org/2000/svg">
<g clip-path="url(#clip0)">
<rect width="1440" height="208" transform="translate(-12)" fill="#8B919E"/>
<path d="M-84.018 -944.908C100.897 -1245.91 483.325 -1484.25 666.166 -1147.78C835.69 -835.818 616.008 -718.339 713.849 -371.53C811.69 -24.722 1171.56 -136.374 1230.81 251.768C1265.2 477.056 1167.3 731.55 975.707 845.779C784.115 960.009 498.824 933.974 158.425 598.206C-163.122 281.035 -250.588 -61.0284 -244.242 -345.655C-237.895 -630.282 -137.731 -857.474 -84.018 -944.908Z" stroke="#9AA0AE" stroke-width="2" stroke-miterlimit="10"/>
<path d="M161.295 559.381C-133.921 269.102 -215.655 -44.6371 -210.814 -306.75C-205.716 -567.113 -115.117 -775.818 -65.4882 -858.42C104.046 -1138.78 456.791 -1361.58 630.321 -1058.85C790.549 -779.323 597.572 -668.869 689.225 -350.614C691.855 -341.566 694.669 -332.843 697.656 -324.424C778.49 -96.3274 987.453 -93.7882 1097.22 67.5513C1127.02 111.349 1149.69 166.673 1160.39 241.039C1191.19 454.947 1099.21 689.659 921.613 793.658C743.053 897.878 477.588 869.799 161.295 559.381Z" stroke="#9AA0AE" stroke-width="2" stroke-miterlimit="10"/>
<path d="M164.167 520.556C-104.719 257.171 -180.721 -28.2466 -177.386 -267.846C-173.537 -503.944 -92.6791 -694.38 -46.9571 -771.929C106.602 -1032.39 430.203 -1238.94 594.478 -969.919C745.357 -722.836 578.447 -618.962 664.604 -329.695C667.087 -321.358 669.77 -313.333 672.585 -305.559C748.438 -95.5263 936.441 -83.9923 1033.95 68.4381C1060.57 110.06 1080.8 161.829 1089.98 230.313C1117.16 432.873 1031.13 647.772 867.519 741.54C701.993 835.749 456.354 805.624 164.167 520.556Z" stroke="#9AA0AE" stroke-width="2" stroke-miterlimit="10"/>
<path d="M167.034 481.73C-75.5203 245.237 -146.208 -11.8647 -143.961 -228.942C-141.768 -440.785 -70.1471 -612.813 -28.4296 -685.441C109.492 -925.55 403.535 -1116.32 558.63 -880.988C700.087 -666.356 559.718 -569.288 639.979 -308.779C642.327 -301.16 644.868 -293.821 647.51 -286.697C718.383 -94.7266 885.415 -74.1403 970.674 69.3222C994.125 108.782 1011.88 156.998 1019.57 219.586C1043.08 410.838 963.043 605.882 813.423 689.42C660.929 773.619 435.115 741.45 167.034 481.73Z" stroke="#9AA0AE" stroke-width="2" stroke-miterlimit="10"/>
<path d="M169.907 442.903C-46.6157 233.959 -111.393 4.52697 -110.531 -190.04C-109.699 -377.616 -47.6028 -531.233 -9.89652 -598.956C112.426 -818.647 376.769 -993.705 522.789 -792.061C654.723 -609.868 541.045 -519.635 615.359 -287.864C617.572 -280.963 619.97 -274.315 622.439 -267.836C688.333 -93.9316 834.378 -64.2154 907.405 70.2028C927.679 107.521 942.932 152.178 949.165 208.854C968.957 388.844 895.089 564.497 759.331 637.295C620.002 712.012 413.546 678.013 169.907 442.903Z" stroke="#9AA0AE" stroke-width="2" stroke-miterlimit="10"/>
<path d="M172.778 404.077C-17.4591 222.135 -76.5656 20.9284 -77.103 -151.135C-77.6132 -314.439 -25.048 -449.628 8.6356 -512.465C115.411 -711.656 349.858 -871.071 486.946 -703.128C609.221 -553.332 522.437 -470 590.739 -266.944C592.819 -260.761 595.073 -254.802 597.368 -248.97C658.282 -93.1284 783.309 -54.1928 844.134 71.0906C861.224 106.292 873.948 147.384 878.755 198.129C894.746 366.906 827.02 522.693 705.239 585.178C578.958 649.973 392.251 613.981 172.778 404.077Z" stroke="#9AA0AE" stroke-width="2" stroke-miterlimit="10"/>
<path d="M175.645 365.253C11.7134 210.269 -41.7174 37.3357 -43.6782 -112.23C-45.5019 -251.255 -2.47942 -367.994 27.163 -425.975C118.462 -604.563 322.739 -748.352 451.098 -614.194C563.527 -496.687 503.912 -420.404 566.111 -246.024C568.061 -240.56 570.168 -235.29 572.29 -230.104C628.224 -92.3275 732.177 -44.0531 780.858 71.978C794.752 105.093 804.91 142.605 808.341 187.404C820.415 345.023 758.934 480.854 651.14 533.059C537.899 587.905 370.97 549.915 175.645 365.253Z" stroke="#9AA0AE" stroke-width="2" stroke-miterlimit="10"/>
<path d="M178.519 326.427C40.9207 198.342 -6.82299 53.7505 -10.2477 -73.3265C-13.3405 -188.067 20.1249 -286.323 45.6961 -339.487C121.622 -497.338 299.248 -634.658 415.258 -525.264C514.273 -431.896 485.518 -370.881 541.494 -225.107C543.316 -220.363 545.272 -215.781 547.222 -211.238C598.177 -91.525 680.96 -33.778 717.591 72.8652C728.262 103.933 735.821 137.844 737.935 176.678C745.917 323.194 690.842 438.969 597.05 480.941C496.832 525.787 349.721 485.791 178.519 326.427Z" stroke="#9AA0AE" stroke-width="2" stroke-miterlimit="10"/>
<path d="M181.387 287.602C70.1636 186.325 28.1362 70.1717 23.177 -34.4218C18.8883 -124.874 42.7705 -204.597 64.2234 -252.998C124.926 -389.947 267.652 -501.871 379.411 -436.333C471.368 -382.407 467.288 -321.474 516.869 -204.19C518.568 -200.169 520.371 -196.271 522.147 -192.375C568.121 -90.7256 629.575 -23.3696 654.315 73.7501C661.718 102.809 666.646 133.091 667.522 165.951C671.132 301.403 622.726 397.011 542.953 428.822C455.741 463.599 328.514 421.571 181.387 287.602Z" stroke="#9AA0AE" stroke-width="2" stroke-miterlimit="10"/>
<path d="M184.256 248.776C99.4733 174.158 63.2433 86.5819 56.6027 4.48133C51.2499 -61.692 65.5051 -122.799 82.7529 -166.509C128.465 -282.359 239.733 -377.161 343.565 -347.402C424.979 -324.068 449.304 -272.299 492.245 -183.272C493.831 -179.984 495.47 -176.76 497.073 -173.511C538.067 -89.9269 577.936 -12.8883 591.042 74.6344C595.097 101.708 597.377 128.331 597.112 155.224C595.885 279.598 554.593 354.936 488.858 376.702C414.629 401.278 307.392 357.149 184.256 248.776Z" stroke="#9AA0AE" stroke-width="2" stroke-miterlimit="10"/>
<path d="M307.721 -258.472C381.887 -264.633 435.986 -220.169 472 -154.648C508.014 -89.1266 525.943 -2.54894 527.77 75.5192C531.518 235.702 496.027 310.449 434.764 324.582C373.502 338.714 286.467 292.231 187.127 209.951C87.7868 127.671 70.179 14.5335 101.284 -80.0192C132.388 -174.573 212.207 -250.54 307.721 -258.472Z" stroke="#9AA0AE" stroke-width="2" stroke-miterlimit="10"/>
</g>
<defs>
<clipPath id="clip0">
<rect width="1440" height="208" fill="white" transform="translate(-12)"/>
</clipPath>
</defs>
</svg>
