<svg xmlns="http://www.w3.org/2000/svg" width="36" height="36" viewBox="0 0 36 36">
  <path id="Path_10" data-name="Path 10" d="M69,0A18,18,0,1,0,87,18,18,18,0,0,0,69,0Zm-.5,15.253-.038-.623a3.639,3.639,0,0,1,2.455-3.661,4.3,4.3,0,0,1,2.2-.051,5.126,5.126,0,0,1,1.07.559l.617.42.68-.216a7.029,7.029,0,0,0,1.108-.432c.214-.114.4-.178.4-.14a3.7,3.7,0,0,1-.856,1.36c-.529.572-.378.623.693.241.642-.216.655-.216.529.025a8.3,8.3,0,0,1-.881.979c-.705.7-.743.775-.743,1.36a13.11,13.11,0,0,1-.856,3.813,11.053,11.053,0,0,1-4.193,4.932,10.635,10.635,0,0,1-8.259.941A9.579,9.579,0,0,1,60,23.643a3.725,3.725,0,0,1,1.032-.1,7.088,7.088,0,0,0,3.374-.941l.68-.407-.781-.267a3.807,3.807,0,0,1-2.354-2.085c-.076-.267-.05-.28.655-.28l.73-.013-.617-.292a4.066,4.066,0,0,1-1.725-1.627,4.554,4.554,0,0,1-.453-1.7,1.483,1.483,0,0,1,.592.14c.869.318.982.242.478-.292a3.668,3.668,0,0,1-.781-3.762l.214-.61.831.826a10.24,10.24,0,0,0,5.993,2.949Z" transform="translate(-51)" fill="#6d7381" fill-rule="evenodd"/>
</svg>
