<svg width="20" height="20" viewBox="0 0 20 20" fill="none" xmlns="http://www.w3.org/2000/svg">
<path d="M10 17.5C14.1421 17.5 17.5 14.1421 17.5 10C17.5 5.85786 14.1421 2.5 10 2.5C5.85786 2.5 2.5 5.85786 2.5 10C2.5 14.1421 5.85786 17.5 10 17.5Z" stroke="#6D7381" stroke-width="1.5" stroke-miterlimit="10"/>
<path d="M10 12.5C11.7259 12.5 13.125 11.1009 13.125 9.375C13.125 7.64911 11.7259 6.25 10 6.25C8.27411 6.25 6.875 7.64911 6.875 9.375C6.875 11.1009 8.27411 12.5 10 12.5Z" stroke="#6D7381" stroke-width="1.5" stroke-miterlimit="10"/>
<path d="M4.98438 15.5761C5.45516 14.6505 6.17291 13.8732 7.05815 13.3303C7.94339 12.7874 8.9616 12.5 10.0001 12.5C11.0385 12.5 12.0567 12.7874 12.942 13.3303C13.8272 13.8732 14.545 14.6505 15.0158 15.5761" stroke="#6D7381" stroke-width="1.5" stroke-linecap="round" stroke-linejoin="round"/>
</svg>
