<svg id="user" xmlns="http://www.w3.org/2000/svg" width="512" height="512" viewBox="0 0 512 512">
  <path id="Path_3966" data-name="Path 3966" d="M256,0,95.6,256,256,512c141.385,0,256-114.615,256-256S397.385,0,256,0Z" fill="#e5ddff"/>
  <path id="Path_3967" data-name="Path 3967" d="M0,256C0,397.385,114.615,512,256,512V0C114.615,0,0,114.615,0,256Z" fill="#e5ddff"/>
  <path id="Path_3968" data-name="Path 3968" d="M256,60,190.212,165,256,270a105,105,0,0,0,0-210Z" fill="#160056"/>
  <path id="Path_3969" data-name="Path 3969" d="M151,165A105,105,0,0,0,256,270V60A105,105,0,0,0,151,165Z" fill="#160056"/>
  <path id="Path_3970" data-name="Path 3970" d="M424.649,335.443A105.091,105.091,0,0,0,346,300H256l-60,76,60,76a196.534,196.534,0,0,0,170.454-99.2l5.306-9.325Z" fill="#160056"/>
  <path id="Path_3971" data-name="Path 3971" d="M166,300a105.091,105.091,0,0,0-78.649,35.443l-7.11,8.035,5.306,9.325A196.532,196.532,0,0,0,256,452V300Z" fill="#160056"/>
</svg>
