<svg width="54" height="54" viewBox="0 0 54 54" fill="none" xmlns="http://www.w3.org/2000/svg">
<circle cx="27" cy="27" r="27" fill="url(#paint0_linear)"/>
<path d="M27.0002 37.4145C32.7519 37.4145 37.4145 32.7519 37.4145 27.0002C37.4145 21.2486 32.7519 16.5859 27.0002 16.5859C21.2486 16.5859 16.5859 21.2486 16.5859 27.0002C16.5859 32.7519 21.2486 37.4145 27.0002 37.4145Z" stroke="white" stroke-width="2" stroke-miterlimit="10"/>
<path d="M27.0004 30.4715C29.3969 30.4715 31.3397 28.5288 31.3397 26.1323C31.3397 23.7357 29.3969 21.793 27.0004 21.793C24.6039 21.793 22.6611 23.7357 22.6611 26.1323C22.6611 28.5288 24.6039 30.4715 27.0004 30.4715Z" stroke="white" stroke-width="2" stroke-miterlimit="10"/>
<path d="M20.0352 34.744C20.6889 33.4588 21.6855 32.3794 22.9147 31.6256C24.144 30.8717 25.5578 30.4727 26.9998 30.4727C28.4418 30.4727 29.8556 30.8717 31.0849 31.6255C32.3141 32.3794 33.3107 33.4587 33.9645 34.744" stroke="white" stroke-width="2" stroke-linecap="round" stroke-linejoin="round"/>
<defs>
<linearGradient id="paint0_linear" x1="0" y1="0" x2="54" y2="54" gradientUnits="userSpaceOnUse">
<stop stop-color="#50EAA5"/>
<stop offset="1" stop-color="#08CE76"/>
</linearGradient>
</defs>
</svg>
