<svg width="24" height="24" viewBox="0 0 24 24" fill="none" xmlns="http://www.w3.org/2000/svg">
<path d="M3 7.125C3 9.89468 3 16.3311 3 18.0177C3 19.7043 4.1831 20.2087 4.77465 20.25C9.25352 20.25 18.4901 20.25 19.6056 20.25C20.7211 20.25 21 19.2579 21 18.7618C21 16.3642 21 11.2465 21 9.95669C21 8.66693 19.9859 8.42717 19.4789 8.4685H4.90141C4.26761 8.50984 3 8.19567 3 6.60827C3 5.02087 4.35211 4.54134 5.02817 4.5H17.831C18.2535 4.54134 19.0986 4.89685 19.0986 5.98819C19.0986 7.07953 19.0986 7.84843 19.0986 8.09646" stroke="#363A40" stroke-width="1.5" stroke-linecap="round" stroke-linejoin="round"/>
<path d="M17.25 12.75V16.5" stroke="#363A40" stroke-width="1.5" stroke-linecap="round" stroke-linejoin="round"/>
</svg>
