<svg width="30" height="28" viewBox="0 0 30 28" fill="none" xmlns="http://www.w3.org/2000/svg">
<g clip-path="url(#clip0)">
<path d="M22.25 5.25V1.75H27.0064C27.9653 1.75 28.75 2.53393 28.75 3.50003C28.75 4.46611 27.9654 5.25 27.0064 5.25H22.25Z" stroke="#25AE71" stroke-width="1.5"/>
<path d="M2.99362 1.75H7.75V5.25H2.99362C2.03463 5.25 1.25 4.46616 1.25 3.5C1.25 2.53384 2.03463 1.75 2.99362 1.75Z" stroke="#25AE71" stroke-width="1.5"/>
<path d="M7.25 25.25V1.75H22.75V25.25H7.25Z" fill="white" stroke="#25AE71" stroke-width="1.5"/>
<mask id="path-4-inside-1" fill="white">
<path d="M21 1H9V20.8963C9 21.1154 9.19588 21.2952 9.43856 21.2948C10.239 21.2934 10.8905 21.8816 10.889 22.6041C10.8885 22.8232 11.0877 23 11.3304 23H18.6695C18.9122 23 19.1114 22.8232 19.1109 22.6041C19.1094 21.8815 19.7609 21.2934 20.5613 21.2948C20.8041 21.2952 20.9999 21.1154 20.9999 20.8963L21 1Z"/>
</mask>
<path d="M21 1H9V20.8963C9 21.1154 9.19588 21.2952 9.43856 21.2948C10.239 21.2934 10.8905 21.8816 10.889 22.6041C10.8885 22.8232 11.0877 23 11.3304 23H18.6695C18.9122 23 19.1114 22.8232 19.1109 22.6041C19.1094 21.8815 19.7609 21.2934 20.5613 21.2948C20.8041 21.2952 20.9999 21.1154 20.9999 20.8963L21 1Z" fill="white"/>
<path d="M21 1L22.25 1.00001L22.25 -0.25H21V1ZM9 1V-0.25H7.75V1H9ZM9.43856 21.2948L9.4364 20.0448H9.43637L9.43856 21.2948ZM10.889 22.6041L12.139 22.6068V22.6067L10.889 22.6041ZM19.1109 22.6041L17.8609 22.6067L17.8609 22.6068L19.1109 22.6041ZM20.5613 21.2948L20.5635 20.0448H20.5635L20.5613 21.2948ZM20.9999 20.8963L19.7499 20.8963V20.8963H20.9999ZM21 -0.25H9V2.25H21V-0.25ZM7.75 1V20.8963H10.25V1H7.75ZM7.75 20.8963C7.75 21.9112 8.61632 22.5462 9.44074 22.5448L9.43637 20.0448C9.77544 20.0442 10.25 20.3196 10.25 20.8963H7.75ZM9.44071 22.5448C9.53404 22.5446 9.59684 22.5787 9.62689 22.6058C9.65503 22.6312 9.63891 22.6316 9.63897 22.6015L12.139 22.6067C12.1422 21.0741 10.805 20.0424 9.4364 20.0448L9.44071 22.5448ZM9.63897 22.6014C9.63674 23.6426 10.5345 24.25 11.3304 24.25V21.75C11.6408 21.75 12.1403 22.0039 12.139 22.6068L9.63897 22.6014ZM11.3304 24.25H18.6695V21.75H11.3304V24.25ZM18.6695 24.25C19.4655 24.25 20.3631 23.6424 20.3609 22.6014L17.8609 22.6068C17.8596 22.0039 18.359 21.75 18.6695 21.75V24.25ZM20.3609 22.6015C20.361 22.6316 20.3448 22.6312 20.373 22.6058C20.403 22.5787 20.4659 22.5446 20.5592 22.5448L20.5635 20.0448C19.195 20.0424 17.8577 21.074 17.8609 22.6067L20.3609 22.6015ZM20.5591 22.5448C21.3837 22.5462 22.2499 21.9111 22.2499 20.8963H19.7499C19.7499 20.3197 20.2244 20.0442 20.5635 20.0448L20.5591 22.5448ZM22.2499 20.8963L22.25 1.00001L19.75 0.999993L19.7499 20.8963L22.2499 20.8963Z" fill="#25AE71" mask="url(#path-4-inside-1)"/>
<path d="M15 9.5C13.6219 9.5 12.5 10.6219 12.5 12C12.5 13.3781 13.6219 14.5 15 14.5C16.3781 14.5 17.5 13.3781 17.5 12L15 9.5ZM15 9.5C16.378 9.5 17.5 10.6219 17.5 12L15 9.5Z" stroke="#25AE71"/>
</g>
<defs>
<clipPath id="clip0">
<rect width="29" height="28" fill="white" transform="translate(0.5)"/>
</clipPath>
</defs>
</svg>
