<svg xmlns="http://www.w3.org/2000/svg" width="36" height="36" viewBox="0 0 36 36">
  <g id="Group_2" data-name="Group 2" transform="translate(-204)">
    <path id="Path_7" data-name="Path 7" d="M222,0a18,18,0,1,0,18,18A18,18,0,0,0,222,0Zm7.5,11.812a2.439,2.439,0,0,1,1.7,1.743,26.339,26.339,0,0,1,.4,4.745,26.339,26.339,0,0,1-.4,4.745,2.439,2.439,0,0,1-1.7,1.743c-1.5.412-7.5.412-7.5.412s-6,0-7.5-.412a2.439,2.439,0,0,1-1.7-1.743,26.339,26.339,0,0,1-.4-4.745,26.339,26.339,0,0,1,.4-4.745,2.439,2.439,0,0,1,1.7-1.743C216,11.4,222,11.4,222,11.4S228,11.4,229.5,11.812Z" fill="#6d7381" fill-rule="evenodd"/>
    <path id="Path_8" data-name="Path 8" d="M220.2,21.6v-6l4.8,3Z" fill="#6d7381"/>
  </g>
</svg>
