<svg width="27" height="26" viewBox="0 0 27 26" fill="none" xmlns="http://www.w3.org/2000/svg">
<g clip-path="url(#clip0)">
<path d="M8.33215 15.1874C8.22277 15.1488 8.11085 15.1082 7.99928 15.066V13.2844C8.2797 13.3515 8.44682 13.4933 8.4617 13.5062C8.61475 13.6448 8.85124 13.6344 8.99155 13.4823C9.13262 13.3294 9.12297 13.091 8.97002 12.95C8.94859 12.9302 8.58865 12.6059 7.99928 12.5175V12.1536C7.99928 11.9456 7.83059 11.7769 7.62254 11.7769C7.41448 11.7769 7.24579 11.9456 7.24579 12.1536V12.5464C7.18988 12.5587 7.13316 12.5729 7.07516 12.5904C6.53622 12.7527 6.13353 13.214 6.0242 13.7941C5.92456 14.323 6.09397 14.8331 6.46645 15.1252C6.66379 15.28 6.90941 15.4218 7.24584 15.5715V17.8305C6.95481 17.8091 6.75321 17.7381 6.42288 17.522C6.24875 17.408 6.01521 17.4568 5.90136 17.631C5.78745 17.8051 5.83625 18.0386 6.01038 18.1525C6.49199 18.4675 6.82105 18.5615 7.24584 18.5854V18.9928C7.24584 19.2009 7.41454 19.3696 7.62259 19.3696C7.83064 19.3696 7.99933 19.2009 7.99933 18.9928V18.5555C8.84459 18.3896 9.33833 17.6926 9.44777 17.0416C9.58838 16.2045 9.15054 15.4767 8.33215 15.1874ZM6.93135 14.5324C6.78114 14.4145 6.71721 14.1851 6.76459 13.9336C6.80704 13.7083 6.95578 13.4376 7.24574 13.3281V14.7333C7.12742 14.6691 7.02042 14.6022 6.93135 14.5324ZM8.70458 16.9167C8.64659 17.2616 8.40639 17.6272 7.99923 17.7729V15.8686C8.0264 15.8784 8.05301 15.888 8.08099 15.8979C8.7772 16.1439 8.73434 16.7399 8.70458 16.9167Z" fill="#25AE71"/>
<path d="M26.4792 14.7025C26.4144 14.4081 26.2069 14.1703 25.9239 14.0663L24.8456 13.67C24.6504 13.5982 24.4338 13.6983 24.362 13.8936C24.2903 14.0889 24.3903 14.3054 24.5857 14.3772L25.664 14.7735C25.7202 14.7942 25.7378 14.8393 25.7433 14.8644C25.7488 14.8895 25.7518 14.9379 25.7094 14.9802L16.0836 24.6061C16.0412 24.6485 15.9928 24.6455 15.9678 24.64C15.9427 24.6344 15.8975 24.6168 15.8769 24.5606L14.5242 20.88C14.435 20.6375 14.2448 20.4473 14.0023 20.3582L10.3218 19.0055C10.2656 18.9848 10.248 18.9397 10.2424 18.9146C10.2369 18.8895 10.234 18.8411 10.2763 18.7988L19.9022 9.17292C19.9445 9.13057 19.9928 9.13357 20.018 9.13905C20.0431 9.14459 20.0882 9.16221 20.1088 9.21837L21.4615 12.8989C21.5507 13.1415 21.7409 13.3317 21.9835 13.4208L22.9196 13.7648C23.1149 13.8367 23.3314 13.7365 23.4032 13.5412C23.4749 13.3459 23.3748 13.1293 23.1795 13.0576L22.2433 12.7135C22.2087 12.7008 22.1816 12.6736 22.1689 12.639L20.8162 8.95847C20.7122 8.67552 20.4743 8.46798 20.18 8.40318C19.8857 8.33833 19.5826 8.427 19.3694 8.64013L19.005 9.00453V5.26673C19.005 4.78202 18.6106 4.38765 18.1259 4.38765H14.2887C14.6397 3.70515 14.53 2.84502 13.959 2.27398C13.47 1.78506 12.761 1.62444 12.1258 1.82757C11.8805 1.11592 11.2045 0.603027 10.4106 0.603027C9.61671 0.603027 8.94076 1.11582 8.69538 1.82736C8.06021 1.62388 7.35191 1.7842 6.86223 2.27393C6.51956 2.61655 6.33086 3.07211 6.33086 3.55672C6.33086 3.85064 6.40073 4.13375 6.53185 4.3876H6.21579C6.00773 4.3876 5.83904 4.5563 5.83904 4.76435C5.83904 4.9724 6.00773 5.14109 6.21579 5.14109H8.90059V8.7069C8.48378 8.63103 8.05945 8.59178 7.63284 8.59178C6.84756 8.59178 6.10859 8.71416 5.40141 8.94969L2.56974 8.94979V5.26668C2.56974 5.19741 2.62606 5.14109 2.69532 5.14109H4.413C4.62105 5.14109 4.78975 4.9724 4.78975 4.76435C4.78975 4.5563 4.62105 4.3876 4.413 4.3876H2.69522C2.21052 4.3876 1.81615 4.78197 1.81615 5.26668V11.5932C1.81615 11.5955 1.81645 11.5977 1.8165 11.6001C0.987754 12.7653 0.5 14.189 0.5 15.7246C0.5 17.2566 0.980492 18.7178 1.88953 19.9502C1.96341 20.0503 2.07742 20.1033 2.193 20.1033C2.27069 20.1033 2.34905 20.0794 2.41633 20.0297C2.58381 19.9062 2.61941 19.6703 2.49586 19.5028C1.68305 18.401 1.25344 17.0944 1.25344 15.7245C1.25344 12.207 4.11517 9.34532 7.63268 9.34532C10.581 9.34532 13.1156 11.3317 13.8239 14.1855L13.1861 14.8233C12.9953 13.6388 12.4307 12.5478 11.5552 11.6952C10.4979 10.6658 9.10488 10.0988 7.63268 10.0988C4.53066 10.0988 2.00693 12.6225 2.00693 15.7245C2.00693 18.8265 4.53061 21.3503 7.63268 21.3503C8.91298 21.3503 10.1531 20.9121 11.1494 20.1125L11.9569 20.4092C10.783 21.4918 9.2362 22.1038 7.63268 22.1038C6.17729 22.1038 4.75273 21.5985 3.62142 20.6812C3.45984 20.5502 3.22259 20.5749 3.09152 20.7366C2.96045 20.8982 2.98523 21.1354 3.14687 21.2665C4.41193 22.2924 6.00504 22.8573 7.63268 22.8573C9.55318 22.8573 11.4007 22.0728 12.7409 20.6974L13.7423 21.0654C13.777 21.0782 13.8041 21.1053 13.8168 21.14L15.1695 24.8205C15.2735 25.1035 15.5113 25.311 15.8057 25.3758C15.8691 25.3898 15.933 25.3966 15.9963 25.3966C16.2265 25.3966 16.449 25.3061 16.6163 25.1389L26.2422 15.513C26.4554 15.2999 26.544 14.9969 26.4792 14.7025ZM2.56964 10.7058V9.70338H3.81307C3.36168 9.99075 2.94471 10.3274 2.56964 10.7058ZM18.2514 5.26673V8.94984H11.9206V5.14114H18.1259C18.1951 5.14114 18.2514 5.19751 18.2514 5.26673ZM13.4262 2.80678C13.8397 3.22034 13.8397 3.89325 13.4262 4.30671C13.4097 4.32326 13.3777 4.35068 13.3221 4.38765H11.4865C12.0333 3.35898 12.1751 2.85563 12.2117 2.60274C12.6153 2.40541 13.1029 2.48356 13.4262 2.80678ZM10.4105 1.35652C10.9954 1.35652 11.4712 1.83234 11.4712 2.41714C11.4712 2.52601 11.4092 2.98772 10.6283 4.3876H10.1928C9.41201 2.98807 9.3499 2.52621 9.3499 2.41714C9.3499 1.83234 9.82567 1.35652 10.4105 1.35652ZM7.39498 4.30676C7.19464 4.10643 7.0843 3.84008 7.0843 3.55677C7.0843 3.27346 7.19464 3.00711 7.39498 2.80678C7.71876 2.483 8.20565 2.4053 8.60936 2.60295C8.64602 2.85594 8.7877 3.35903 9.33457 4.38765H7.49908C7.44347 4.35073 7.41153 4.32331 7.39498 4.30676ZM9.65398 5.14114H11.1671V8.94984H9.86254C9.86086 8.94984 9.85929 8.95004 9.85761 8.95009C9.79007 8.92785 9.72213 8.90693 9.65398 8.88672V5.14114ZM12.0907 10.1602C11.8857 9.99568 11.6721 9.84339 11.4513 9.70338H18.2515V9.75802L16.7931 11.2165H13.1548C12.8393 10.8299 12.4829 10.475 12.0907 10.1602ZM13.6929 11.97H16.0395L14.4339 13.5756C14.2548 13.0117 14.005 12.472 13.6929 11.97ZM7.63273 20.5968C4.94615 20.5968 2.76053 18.4111 2.76053 15.7246C2.76053 13.0381 4.9462 10.8524 7.63273 10.8524C10.2191 10.8524 12.3867 12.9348 12.4999 15.5097L9.74351 18.2661C9.53038 18.4792 9.44177 18.7822 9.50656 19.0766C9.57136 19.371 9.77895 19.6088 10.0619 19.7128L10.2994 19.8001C9.51037 20.3173 8.58432 20.5968 7.63273 20.5968Z" fill="#25AE71"/>
<path d="M18.9721 20.0635C19.0195 20.0635 19.0679 20.0545 19.1145 20.0354C19.3071 19.9567 19.3994 19.7367 19.3207 19.5441L17.1514 14.2373C17.0727 14.0447 16.8528 13.9522 16.6601 14.0311C16.4675 14.1098 16.3751 14.3298 16.4539 14.5224L18.6232 19.8292C18.6828 19.9752 18.8236 20.0635 18.9721 20.0635Z" fill="#25AE71"/>
<path d="M14.4946 15.8082C14.2306 16.0721 14.1015 16.4346 14.1311 16.8288C14.1591 17.2017 14.3281 17.5608 14.6069 17.8396C14.8858 18.1185 15.2448 18.2875 15.6178 18.3154C15.6547 18.3182 15.6915 18.3196 15.7278 18.3196C16.0791 18.3196 16.3992 18.1911 16.6384 17.9519C16.9024 17.688 17.0315 17.3255 17.0019 16.9313C16.9739 16.5583 16.8049 16.1993 16.5261 15.9204C16.2472 15.6415 15.8882 15.4725 15.5152 15.4446C15.1207 15.4149 14.7585 15.5442 14.4946 15.8082ZM15.9933 16.4533C16.1447 16.6047 16.2361 16.7945 16.2506 16.9877C16.2634 17.1595 16.212 17.3128 16.1056 17.4192C15.9992 17.5255 15.8458 17.5768 15.6741 17.5641C15.4809 17.5497 15.2911 17.4583 15.1397 17.3069C14.9883 17.1554 14.8969 16.9657 14.8825 16.7725C14.8696 16.6006 14.9211 16.4474 15.0274 16.341C15.1231 16.2454 15.2566 16.1941 15.4075 16.1941C15.4244 16.1941 15.4416 16.1948 15.4589 16.1961C15.6521 16.2105 15.8419 16.3019 15.9933 16.4533C15.9932 16.4533 15.9932 16.4533 15.9933 16.4533Z" fill="#25AE71"/>
<path d="M20.402 18.7565C20.7534 18.7565 21.0734 18.628 21.3126 18.3888C21.8417 17.8597 21.7913 16.9484 21.2003 16.3573C21.2003 16.3573 21.2003 16.3573 21.2003 16.3573C20.6093 15.7663 19.698 15.7159 19.1688 16.245C18.6397 16.7741 18.6901 17.6854 19.2812 18.2764C19.5601 18.5553 19.919 18.7243 20.292 18.7523C20.329 18.7551 20.3657 18.7565 20.402 18.7565ZM19.7017 16.7778C19.8015 16.678 19.9368 16.6297 20.0823 16.6297C20.2799 16.6297 20.4963 16.719 20.6675 16.8902C20.9648 17.1874 21.0151 17.6208 20.7798 17.8561C20.6734 17.9624 20.5201 18.0138 20.3483 18.001C20.1552 17.9865 19.9653 17.8952 19.814 17.7437C19.5167 17.4464 19.4664 17.0132 19.7017 16.7778Z" fill="#25AE71"/>
</g>
<defs>
<clipPath id="clip0">
<rect width="26" height="26" fill="white" transform="translate(0.5)"/>
</clipPath>
</defs>
</svg>
