<svg width="27" height="26" viewBox="0 0 27 26" fill="none" xmlns="http://www.w3.org/2000/svg">
<g clip-path="url(#clip0)">
<path d="M17.8652 16.6745C17.2492 16.6745 16.748 16.2407 16.748 15.7075C16.748 15.1743 17.2492 14.7406 17.8652 14.7406C18.4813 14.7406 18.9824 15.1743 18.9824 15.7075C18.9824 15.988 19.2098 16.2154 19.4902 16.2154C19.7706 16.2154 19.998 15.988 19.998 15.7075C19.998 14.777 19.3047 13.9945 18.373 13.7822V13.5181C18.373 13.2377 18.1456 13.0103 17.8652 13.0103C17.5848 13.0103 17.3574 13.2377 17.3574 13.5181V13.7822C16.4258 13.9945 15.7324 14.777 15.7324 15.7075C15.7324 16.8007 16.6892 17.6901 17.8652 17.6901C18.4813 17.6901 18.9824 18.1239 18.9824 18.6571C18.9824 19.1903 18.4813 19.624 17.8652 19.624C17.2492 19.624 16.748 19.1903 16.748 18.6571C16.748 18.3767 16.5206 18.1493 16.2402 18.1493C15.9598 18.1493 15.7324 18.3767 15.7324 18.6571C15.7324 19.5876 16.4258 20.3701 17.3574 20.5824V20.8018C17.3574 21.0822 17.5848 21.3096 17.8652 21.3096C18.1456 21.3096 18.373 21.0822 18.373 20.8018V20.5824C19.3047 20.3701 19.998 19.5876 19.998 18.6571C19.998 17.5639 19.0413 16.6745 17.8652 16.6745Z" fill="#25AE71"/>
<path d="M23.4268 13.654C22.7634 12.6204 21.8288 11.7933 20.7241 11.2622C20.4712 11.1406 20.1678 11.2471 20.0464 11.4999C19.9248 11.7526 20.0312 12.056 20.284 12.1775C22.2092 13.103 23.4531 15.0803 23.4531 17.2151C23.4531 18.1285 23.2279 19.0344 22.802 19.8349C22.6703 20.0825 22.7642 20.39 23.0118 20.5218C23.0877 20.5622 23.1694 20.5814 23.2498 20.5814C23.4315 20.5814 23.6073 20.4836 23.6986 20.312C24.2024 19.3652 24.4687 18.2943 24.4687 17.2151C24.4687 15.9476 24.1084 14.7162 23.4268 13.654Z" fill="#25AE71"/>
<path d="M18.6631 10.6133L18.6289 10.6133C18.3485 10.6133 18.1211 10.8406 18.1211 11.1211C18.1211 11.4016 18.3485 11.6289 18.6289 11.6289L18.6583 11.629C18.6591 11.629 18.6599 11.629 18.6608 11.629C18.9401 11.629 19.1672 11.4032 19.1685 11.1235C19.1698 10.8431 18.9435 10.6147 18.6631 10.6133Z" fill="#25AE71"/>
<path d="M15.4502 22.2524C13.5251 21.327 12.2812 19.3496 12.2812 17.2149C12.2812 16.3015 12.5064 15.3956 12.9323 14.5951C13.064 14.3475 12.9701 14.04 12.7225 13.9082C12.475 13.7765 12.1674 13.8704 12.0357 14.118C11.5319 15.0648 11.2656 16.1357 11.2656 17.2149C11.2656 18.4824 11.6259 19.7137 12.3076 20.7759C12.9709 21.8096 13.9055 22.6367 15.0102 23.1678C15.0812 23.202 15.1561 23.218 15.2299 23.218C15.419 23.218 15.6005 23.112 15.6879 22.9302C15.8094 22.6774 15.703 22.374 15.4502 22.2524Z" fill="#25AE71"/>
<path d="M17.1059 22.8009L17.0765 22.8008C16.7948 22.8003 16.5677 23.0257 16.5664 23.3062C16.5651 23.5867 16.7915 23.8151 17.0719 23.8164L17.1059 23.8165C17.3863 23.8165 17.6137 23.5891 17.6137 23.3087C17.6137 23.0283 17.3863 22.8009 17.1059 22.8009Z" fill="#25AE71"/>
<path d="M20.1731 8.89523C20.1113 8.74797 20.0356 8.60918 19.9475 8.48045H21.2695C22.5575 8.48045 23.6054 7.43253 23.6054 6.14452C23.6054 4.85651 22.5575 3.80859 21.2695 3.80859H17.2029C17.4615 3.4327 17.6132 2.97796 17.6132 2.48828C17.6132 1.20026 16.5653 0.152344 15.2773 0.152344H2.83593C1.54792 0.152344 0.5 1.20026 0.5 2.48828C0.5 3.77629 1.54792 4.82421 2.83593 4.82421H6.90249C6.64396 5.20009 6.49218 5.65484 6.49218 6.14452C6.49218 6.6342 6.64391 7.08895 6.90249 7.46483H5.57812C4.2901 7.46483 3.24218 8.51275 3.24218 9.80076C3.24218 10.5405 3.58821 11.2006 4.12654 11.6289C3.58821 12.0572 3.24218 12.7173 3.24218 13.457C3.24218 14.1967 3.58821 14.8568 4.12654 15.2851C3.58821 15.7134 3.24218 16.3735 3.24218 17.1132C3.24218 17.853 3.58821 18.5131 4.12654 18.9414C3.58821 19.3697 3.24218 20.0298 3.24218 20.7695C3.24218 22.0575 4.2901 23.1054 5.57812 23.1054H11.5627C13.1392 24.7917 15.382 25.8477 17.8672 25.8477C22.6273 25.8477 26.5 21.975 26.5 17.2149C26.5 13.2531 23.8172 9.90654 20.1731 8.89523ZM21.2695 4.82421C21.9975 4.82421 22.5898 5.41652 22.5898 6.14452C22.5898 6.87252 21.9975 7.46483 21.2695 7.46483H18.0195H8.82811C8.10006 7.46483 7.5078 6.87252 7.5078 6.14452C7.5078 5.41652 8.10006 4.82421 8.82811 4.82421H21.2695ZM2.83593 3.80859C2.10788 3.80859 1.51562 3.21628 1.51562 2.48828C1.51562 1.76028 2.10788 1.16797 2.83593 1.16797H15.2773C16.0054 1.16797 16.5976 1.76028 16.5976 2.48828C16.5976 3.21628 16.0054 3.80859 15.2773 3.80859H2.83593ZM5.57812 8.48045H18.0195C18.224 8.48045 18.4199 8.52798 18.5956 8.61309C18.3554 8.59293 18.1126 8.58207 17.8672 8.58207C15.4833 8.58207 13.322 9.55346 11.7583 11.1211H5.57812C4.85012 11.1211 4.25781 10.5288 4.25781 9.80076C4.25781 9.07276 4.85012 8.48045 5.57812 8.48045ZM5.57812 12.1367H10.8906C10.3141 12.9265 9.86841 13.8173 9.58536 14.7773H5.57812C4.85007 14.7773 4.25781 14.1851 4.25781 13.457C4.25781 12.729 4.85007 12.1367 5.57812 12.1367ZM5.57812 15.7929H9.35217C9.27514 16.2557 9.23441 16.7306 9.23441 17.2149C9.23441 17.6285 9.26432 18.0353 9.32084 18.4336H5.57812C4.85007 18.4336 4.25781 17.8413 4.25781 17.1132C4.25781 16.3852 4.85007 15.7929 5.57812 15.7929ZM5.57812 22.0898C4.85007 22.0898 4.25781 21.4975 4.25781 20.7695C4.25781 20.0414 4.85007 19.4492 5.57812 19.4492H9.52818C9.78442 20.4045 10.2007 21.2949 10.7466 22.0898H5.57812ZM17.8672 24.832C13.6671 24.832 10.25 21.415 10.25 17.2149C10.25 13.0148 13.6671 9.59769 17.8672 9.59769C22.0673 9.59769 25.4844 13.0148 25.4844 17.2149C25.4844 21.415 22.0673 24.832 17.8672 24.832Z" fill="#25AE71"/>
</g>
<defs>
<clipPath id="clip0">
<rect width="26" height="26" fill="white" transform="translate(0.5)"/>
</clipPath>
</defs>
</svg>
