<svg width="26" height="26" viewBox="0 0 26 26" fill="none" xmlns="http://www.w3.org/2000/svg">
<g clip-path="url(#clip0)">
<path d="M21.6654 18.7357L20.5618 18.0745C20.2254 17.8733 19.8405 17.767 19.4484 17.7668H17.7875C17.4474 17.7662 17.1089 17.81 16.7801 17.8967L11.7756 19.2401C11.2284 19.3912 10.7889 19.7987 10.5972 20.333L6.19536 17.9515C5.83841 17.7484 5.42052 17.6794 5.01724 17.7569C4.8651 17.7838 4.71763 17.8322 4.57904 17.9008C4.2661 18.0506 4.00648 18.2926 3.83467 18.5941C3.68444 18.8567 3.60552 19.154 3.60552 19.4564C3.60086 20.0738 3.92798 20.6459 4.46203 20.9553L12.3513 25.6756C12.6941 25.8878 13.0889 26.0002 13.492 26.0002H19.5976C19.8703 26.0004 20.1405 25.9488 20.394 25.8485L21.6654 25.3464V26.0002H25.9988V17.3335H21.6654V18.7357ZM20.0756 25.0425C19.9239 25.1024 19.762 25.1333 19.5989 25.1335H13.492C13.2478 25.1333 13.0085 25.0645 12.8016 24.935L4.9015 20.2092C4.63299 20.0541 4.46859 19.7668 4.4707 19.4568C4.47134 19.3049 4.51133 19.1555 4.58687 19.0235C4.67319 18.8739 4.80311 18.7539 4.95905 18.6798C5.02782 18.6464 5.1006 18.6227 5.17572 18.6096C5.23052 18.5994 5.28617 18.5941 5.34181 18.5941C5.49077 18.5937 5.63719 18.6327 5.76647 18.7067L10.5397 21.286C10.5452 21.3124 10.5452 21.3385 10.5522 21.3649C10.7574 22.1213 11.4436 22.6467 12.2275 22.6476C12.4688 22.6255 12.7076 22.5828 12.9417 22.5202L17.4438 21.3154L17.2204 20.4781L12.7328 21.6776C12.5352 21.7231 12.2802 21.7752 12.2275 21.7796C11.8361 21.7802 11.4929 21.5187 11.3899 21.1412C11.3759 21.0888 11.3676 21.035 11.3647 20.9809C11.3647 20.9809 11.3613 20.8759 11.3647 20.8391C11.3977 20.4766 11.6516 20.1724 12.0022 20.0748L17.0046 18.7365C17.26 18.6682 17.5232 18.6335 17.7875 18.6335H19.4484C19.6837 18.6335 19.9146 18.6974 20.1162 18.8182L21.6654 19.7458V24.4141L20.0756 25.0425ZM22.5321 18.2002H25.1321V25.1335H22.5321V18.2002Z" fill="#25AE71"/>
<path d="M17.8725 3.46619L15.5479 1.14189C14.8182 0.407893 13.8252 -0.00343463 12.7903 -0.000472392H7.34233C7.00612 -4.92147e-05 6.67456 0.0784501 6.37347 0.228255L5.40228 0.714062C5.20762 0.812028 4.99137 0.858789 4.77365 0.850114L4.33333 0.834668V-0.000472392H0V9.53286H4.33333V8.23286H5.07008L5.33224 8.40615C6.06582 8.89323 6.92 9.16829 7.8 9.20045V14.7329H26V3.46619H17.8725ZM3.46667 8.66619H0.866667V0.866194H3.46667V8.66619ZM5.81191 7.68506L5.32992 7.36619H4.33333V1.70176L4.74191 1.71636C5.10479 1.72926 5.46491 1.65119 5.7897 1.48932L6.76004 1.00352C6.94074 0.913167 7.14027 0.866194 7.34233 0.866194H12.7903C13.5952 0.863867 14.3677 1.18379 14.9352 1.75444L16.6469 3.46619H13.0711L12.0193 2.4146L11.4067 3.02715L14.4678 6.08841C14.8078 6.42695 14.8089 6.97708 14.4703 7.31732C14.1316 7.65734 13.5814 7.6584 13.2414 7.31986L10.6848 4.76323L10.3814 5.02327C9.5437 5.73463 8.31924 5.75283 7.46061 5.06644L7.20946 4.86289L6.66335 5.53616L6.91725 5.74204C7.1828 5.95426 7.48092 6.12226 7.8 6.23948V8.33336C7.09076 8.30184 6.4033 8.07777 5.81191 7.68506ZM11.9761 7.27944L12.6299 7.93346C13.3087 8.60208 14.3984 8.60314 15.0782 7.93558C14.4422 8.92052 14.6931 10.2313 15.648 10.9116C16.6029 11.5918 17.9239 11.4008 18.6469 10.478C19.3699 9.55508 19.2393 8.22672 18.3502 7.46247C17.4613 6.69821 16.1283 6.76824 15.3245 7.62137C15.6205 7.15651 15.6734 6.57718 15.4665 6.06619H21.2693C21.4557 7.15651 22.3097 8.01048 23.4 8.19689V10.0022C22.3097 10.1886 21.4557 11.0425 21.2693 12.1329H12.5307C12.3443 11.0425 11.4903 10.1886 10.4 10.0022V8.19689C11.0193 8.09258 11.5794 7.76652 11.9761 7.27944ZM15.6 9.09953C15.6 8.38161 16.1821 7.79953 16.9 7.79953C17.6179 7.79953 18.2 8.38161 18.2 9.09953C18.2 9.81745 17.6179 10.3995 16.9 10.3995C16.1821 10.3995 15.6 9.81745 15.6 9.09953ZM25.1333 13.8662H8.66667V6.42103C9.35369 6.47266 10.0386 6.29746 10.6167 5.92274L11.356 6.66203C11.0307 7.10382 10.5153 7.36514 9.96667 7.36619H9.53333V10.8329H9.96667C10.9239 10.8329 11.7 11.609 11.7 12.5662V12.9995H22.1V12.5662C22.1 11.609 22.8761 10.8329 23.8333 10.8329H24.2667V7.36619H23.8333C22.8761 7.36619 22.1 6.59009 22.1 5.63286V5.19953H14.8044L13.9378 4.33286H25.1333V13.8662Z" fill="#25AE71"/>
</g>
<defs>
<clipPath id="clip0">
<rect width="26" height="26" fill="white"/>
</clipPath>
</defs>
</svg>
