<svg width="29" height="29" viewBox="0 0 29 29" fill="none" xmlns="http://www.w3.org/2000/svg">
<path d="M17.6816 4.12422C17.4331 4.12422 17.2316 4.32569 17.2316 4.57422C17.2316 4.82275 17.4331 5.02422 17.6816 5.02422V4.12422ZM22.6905 11.3553C22.8662 11.531 23.1511 11.531 23.3269 11.3553L26.1906 8.49153C26.3664 8.3158 26.3664 8.03087 26.1906 7.85513C26.0149 7.6794 25.73 7.6794 25.5542 7.85513L23.0087 10.4007L20.4631 7.85513C20.2873 7.6794 20.0024 7.6794 19.8267 7.85513C19.6509 8.03087 19.6509 8.3158 19.8267 8.49153L22.6905 11.3553ZM17.6816 5.02422H20.0087V4.12422H17.6816V5.02422ZM22.5587 7.57422V11.0371H23.4587V7.57422H22.5587ZM20.0087 5.02422C21.417 5.02422 22.5587 6.16589 22.5587 7.57422H23.4587C23.4587 5.66884 21.914 4.12422 20.0087 4.12422V5.02422Z" fill="#25AE71"/>
<path d="M13.6211 24.6019C13.8696 24.6019 14.0711 24.4004 14.0711 24.1519C14.0711 23.9033 13.8696 23.7019 13.6211 23.7019L13.6211 24.6019ZM8.08508 17.3109C7.90934 17.1351 7.62442 17.1351 7.44868 17.3109L4.5849 20.1747C4.40916 20.3504 4.40916 20.6353 4.5849 20.811C4.76064 20.9868 5.04556 20.9868 5.2213 20.811L7.76688 18.2655L10.3125 20.811C10.4882 20.9868 10.7731 20.9868 10.9489 20.811C11.1246 20.6353 11.1246 20.3504 10.9489 20.1747L8.08508 17.3109ZM13.6211 23.7019L10.7669 23.7019L10.7669 24.6019L13.6211 24.6019L13.6211 23.7019ZM8.21688 21.1519L8.21688 17.6291L7.31688 17.6291L7.31688 21.1519L8.21688 21.1519ZM10.7669 23.7019C9.35855 23.7019 8.21688 22.5602 8.21688 21.1519L7.31688 21.1519C7.31688 23.0572 8.8615 24.6019 10.7669 24.6019L10.7669 23.7019Z" fill="#25AE71"/>
<path d="M8.10148 10.927C8.02988 10.9143 7.95642 10.912 7.8839 10.9209C7.15706 10.8515 6.60876 10.3473 6.60752 9.74753C6.60752 9.46009 6.32329 9.22704 5.97274 9.22704C5.62218 9.22704 5.33796 9.46009 5.33796 9.74753C5.33982 10.7491 6.15685 11.6264 7.33466 11.8915V12.412C7.33466 12.6994 7.61889 12.9325 7.96944 12.9325C8.32 12.9325 8.60422 12.6994 8.60422 12.412V11.923C9.96367 11.6897 10.8876 10.6515 10.7447 9.5188C10.6015 8.38608 9.43768 7.5253 8.04879 7.52504C7.25284 7.52504 6.60752 6.99592 6.60752 6.34327C6.60752 5.69063 7.25284 5.16151 8.04879 5.16151C8.84474 5.16151 9.49006 5.69063 9.49006 6.34327C9.49006 6.63071 9.77429 6.86376 10.1248 6.86376C10.4754 6.86376 10.7596 6.63071 10.7596 6.34327C10.7578 5.29163 9.85922 4.38459 8.60422 4.16755V3.69383C8.60422 3.40639 8.32 3.17334 7.96944 3.17334C7.61889 3.17334 7.33466 3.40639 7.33466 3.69383V4.19932C6.02481 4.4926 5.18174 5.53535 5.36213 6.63884C5.54252 7.74234 6.69089 8.56602 8.04879 8.56576C8.83421 8.56576 9.47488 9.08142 9.48913 9.72517C9.5037 10.3689 8.88628 10.9036 8.10148 10.927Z" fill="#25AE71" stroke="#25AE71" stroke-width="0.25"/>
<path d="M1 8.05265C1 11.9453 4.15555 15.1009 8.04825 15.1009C11.941 15.1009 15.0965 11.9453 15.0965 8.05265C15.0965 4.15995 11.941 1.00439 8.04825 1.00439C4.15745 1.00867 1.00451 4.16184 1 8.05265ZM8.04825 1.9765C11.4041 1.9765 14.1244 4.69679 14.1244 8.05265C14.1244 11.4085 11.4041 14.1288 8.04825 14.1288C4.69239 14.1288 1.97211 11.4085 1.97211 8.05265C1.9759 4.69845 4.69406 1.9803 8.04825 1.9765Z" fill="#25AE71" stroke="#25AE71" stroke-width="0.35"/>
<path d="M16.4648 17.7485L22.2035 21.1471L28.1092 17.7485" stroke="#25AE71" stroke-linejoin="round"/>
<path d="M16.465 17.6373L22.2594 14.3501L28.1094 17.6373V24.5459L22.2594 28.0002L16.2422 24.5459L16.465 17.6373Z" stroke="#25AE71" stroke-linejoin="round"/>
</svg>
